<?xml version="1.0"?>
<svg xmlns="http://www.w3.org/2000/svg" xmlns:cc="http://creativecommons.org/ns#" xmlns:dc="http://purl.org/dc/elements/1.1/" xmlns:rdf="http://www.w3.org/1999/02/22-rdf-syntax-ns#" version="1.1" viewBox="0 0 616 394">
 <metadata>
  <rdf:RDF>
   <cc:Work rdf:about="">
    <dc:format>image/svg+xml</dc:format>
    <dc:type rdf:resource="http://purl.org/dc/dcmitype/StillImage"/>
    <dc:title>images/advance-master</dc:title>
   </cc:Work>
  </rdf:RDF>
 </metadata>
 <title>images/advance-master</title>
 <desc>Created with Sketch.</desc>
 <g fill="#8f8981">
  <path id="Line" d="m267 213h50v1h-50v4l-9-4.5 9-4.5z"/>
  <path d="m410.72 227.71 52.411 17.47-.31623.94869-52.411-17.47-1.2649 3.7947-7.1151-7.1151 9.9612-1.423z"/>
  <path d="m411.34 198.18 51.463-18.317.33532.9421-51.463 18.317 1.3413 3.7684-9.9879-1.2215 6.97-7.2574z"/>
  <path d="m122 213h50v1h-50v4l-9-4.5 9-4.5z"/>
 </g>
 <g fill="none" fill-rule="evenodd">
  <g id="other" transform="translate(317,197)">
   <rect width="86" height="33" fill="#efefe7" fill-rule="evenodd"/>
   <text id="master" fill="#979797" font-family="'Source Code Pro'" font-size="12px" font-weight="700" text-anchor="middle"><tspan fill="#808080" x="43" y="21" fill-opacity="1">f30ab</tspan></text>
  </g>
  <g transform="translate(172,197)">
   <rect width="86" height="33" fill="#efefe7" fill-rule="evenodd"/>
   <text fill="#979797" font-family="'Source Code Pro'" font-size="12px" font-weight="700" text-anchor="middle"><tspan fill="#808080" x="43" y="21" fill-opacity="1">34ac2</tspan></text>
  </g>
  <g transform="translate(27,197)">
   <rect width="86" height="33" fill="#efefe7" fill-rule="evenodd"/>
   <text fill="#979797" font-family="'Source Code Pro'" font-size="12px" font-weight="700" text-anchor="middle"><tspan fill="#808080" x="43" y="21" fill-opacity="1">98ca9</tspan></text>
  </g>
  <g transform="translate(462,230)">
   <rect width="86" height="33" fill="#efefe7" fill-rule="evenodd"/>
   <text fill="#979797" font-family="'Source Code Pro'" font-size="12px" font-weight="700" text-anchor="middle"><tspan fill="#808080" x="43" y="21" fill-opacity="1">87ab2</tspan></text>
  </g>
  <g transform="translate(462,164)">
   <rect width="86" height="33" fill="#efefe7" fill-rule="evenodd"/>
   <text fill="#979797" font-family="'Source Code Pro'" font-size="12px" font-weight="700" text-anchor="middle"><tspan fill="#808080" x="43" y="21" fill-opacity="1">c2b9e</tspan></text>
  </g>
 </g>
 <path d="m506 272v30h-1v-30h-4l4.5-9 4.5 9z" fill="#8f8981"/>
 <rect transform="translate(462,292)" width="85.204" height="33" fill="#f44d27" fill-rule="evenodd"/>
 <text transform="translate(462,292)" fill="white" fill-opacity=".8" fill-rule="evenodd" font-family="'Source Code Pro'" font-size="12px" font-weight="700" text-anchor="middle"><tspan x="42.601852" y="20" fill="white" fill-opacity=".8">testing</tspan></text>
 <path d="m505 155v-29h1v29h4l-4.5 9-4.5-9z" fill="#8f8981"/>
 <rect transform="translate(462,103)" width="85.204" height="33" fill="#f44d27" fill-rule="evenodd"/>
 <text transform="translate(462,103)" fill="white" fill-opacity=".8" fill-rule="evenodd" font-family="'Source Code Pro'" font-size="12px" font-weight="700" text-anchor="middle"><tspan x="42.601852" y="20" fill="white" fill-opacity=".8">master</tspan></text>
 <path d="m506 94v-34h1v34h4l-4.5 9-4.5-9z" fill="#8f8981"/>
 <rect transform="translate(462,42)" width="86" height="33" fill="#cd9f00" fill-rule="evenodd"/>
 <text transform="translate(462,42)" fill="white" fill-opacity=".8" fill-rule="evenodd" font-family="'Source Code Pro'" font-size="12px" font-weight="700" text-anchor="middle"><tspan x="43" y="20" fill="white" fill-opacity=".8">HEAD</tspan></text>
</svg>
