<?xml version="1.0" encoding="UTF-8"?>
<svg width="616px" height="394px" viewBox="0 0 616 394" version="1.1" xmlns="http://www.w3.org/2000/svg" xmlns:xlink="http://www.w3.org/1999/xlink">
    <!-- Generator: Sketch 56.3 (81716) - https://sketch.com -->
    <title>images/advance-master</title>
    <desc>Created with Sketch.</desc>
    <g id="03---Branch-Progression-3" stroke="none" stroke-width="1" fill="none" fill-rule="evenodd">
        <path id="Line" d="M267,213 L317,213 L317,214 L267,214 L267,218 L258,213.5 L267,209 L267,213 Z" fill="#8F8981" fill-rule="nonzero"></path>
        <path id="Line-3" d="M410.721922,227.713594 L463.132456,245.183772 L462.816228,246.132456 L410.405694,228.662278 L409.140783,232.457011 L402.025658,225.341886 L411.986833,223.918861 L410.721922,227.713594 Z" fill="#8F8981" fill-rule="nonzero"></path>
        <path id="Line-4" d="M411.34021,198.178689 L462.803389,179.861286 L463.138714,180.803389 L411.675535,199.120792 L413.016833,202.889202 L403.028949,201.667662 L409.998911,194.410279 L411.34021,198.178689 Z" fill="#8F8981" fill-rule="nonzero"></path>
        <path id="Line-2" d="M122,213 L172,213 L172,214 L122,214 L122,218 L113,213.5 L122,209 L122,213 Z" fill="#8F8981" fill-rule="nonzero"></path>
        <g id="other" transform="translate(317.000000, 197.000000)">
            <rect id="Rectangle-2" fill="#EFEFE7" fill-rule="evenodd" x="0" y="0" width="86" height="33"></rect>
            <text id="master" stroke="#979797" stroke-width="1" font-family="RobotoMono-Regular, Roboto Mono" font-size="12" font-weight="normal" fill="#000000">
                <tspan x="24.9941406" y="21">f30ab</tspan>
            </text>
        </g>
        <g id="other" transform="translate(172.000000, 197.000000)">
            <rect id="Rectangle-2" fill="#EFEFE7" fill-rule="evenodd" x="0" y="0" width="86" height="33"></rect>
            <text id="master" stroke="#979797" stroke-width="1" font-family="RobotoMono-Regular, Roboto Mono" font-size="12" font-weight="normal" fill="#000000">
                <tspan x="24.9970703" y="21">34ac2</tspan>
            </text>
        </g>
        <g id="other" transform="translate(27.000000, 197.000000)">
            <rect id="Rectangle-2" fill="#EFEFE7" fill-rule="evenodd" x="0" y="0" width="86" height="33"></rect>
            <text id="master" stroke="#979797" stroke-width="1" font-family="RobotoMono-Regular, Roboto Mono" font-size="12" font-weight="normal" fill="#000000">
                <tspan x="24.9970703" y="21">98ca9</tspan>
            </text>
        </g>
        <g id="other" transform="translate(462.000000, 230.000000)">
            <rect id="Rectangle-2" fill="#EFEFE7" fill-rule="evenodd" x="0" y="0" width="86" height="33"></rect>
            <text id="master" stroke="#979797" stroke-width="1" font-family="RobotoMono-Regular, Roboto Mono" font-size="12" font-weight="normal" fill="#000000">
                <tspan x="24.9970703" y="21">87ab2</tspan>
            </text>
        </g>
        <g id="other" transform="translate(462.000000, 164.000000)">
            <rect id="Rectangle-2" fill="#EFEFE7" fill-rule="evenodd" x="0" y="0" width="86" height="33"></rect>
            <text id="master" stroke="#979797" stroke-width="1" font-family="RobotoMono-Regular, Roboto Mono" font-size="12" font-weight="normal" fill="#000000">
                <tspan x="24.9970703" y="21">c2b9e</tspan>
            </text>
        </g>
        <path id="Line-8" d="M506,272 L506,302 L505,302 L505,272 L501,272 L505.5,263 L510,272 L506,272 Z" fill="#8F8981" fill-rule="nonzero"></path>
        <g id="ref-2" transform="translate(462.000000, 292.000000)">
            <rect id="Rectangle-2" fill="#F44D27" x="0" y="0" width="85.2037037" height="33"></rect>
            <text id="master" stroke="#979797" font-family="RobotoMono-Regular, Roboto Mono" font-size="11.1428571" font-weight="normal" fill="#FFFFFF">
                <tspan x="18.9503581" y="20">testing</tspan>
            </text>
        </g>
        <path id="Line-7" d="M505,155 L505,126 L506,126 L506,155 L510,155 L505.5,164 L501,155 L505,155 Z" fill="#8F8981" fill-rule="nonzero"></path>
        <g id="ref" transform="translate(462.000000, 103.000000)">
            <rect id="Rectangle-2" fill="#F44D27" x="0" y="0" width="85.2037037" height="33"></rect>
            <text id="master" stroke="#979797" font-family="RobotoMono-Regular, Roboto Mono" font-size="11.1428571" font-weight="normal" fill="#FFFFFF">
                <tspan x="22.2937593" y="20">master</tspan>
            </text>
        </g>
        <path id="Line-11" d="M506,94 L506,60 L507,60 L507,94 L511,94 L506.5,103 L502,94 L506,94 Z" fill="#8F8981" fill-rule="nonzero"></path>
        <g id="goldref-3" transform="translate(462.000000, 42.000000)">
            <rect id="Rectangle-3" fill="#CD9F00" x="0" y="0" width="86" height="33"></rect>
            <text id="master-2" stroke="#979797" font-family="RobotoMono-Regular, Roboto Mono" font-size="11.1428571" font-weight="normal" fill="#FFFFFF">
                <tspan x="29.3763951" y="20">HEAD</tspan>
            </text>
        </g>
    </g>
</svg>