<?xml version="1.0"?>
<svg xmlns="http://www.w3.org/2000/svg" xmlns:cc="http://creativecommons.org/ns#" xmlns:dc="http://purl.org/dc/elements/1.1/" xmlns:rdf="http://www.w3.org/1999/02/22-rdf-syntax-ns#" width="401px" height="221px" version="1.1" viewBox="0 0 401 221">
 <metadata>
  <rdf:RDF>
   <cc:Work rdf:about="">
    <dc:format>image/svg+xml</dc:format>
    <dc:type rdf:resource="http://purl.org/dc/dcmitype/StillImage"/>
    <dc:title>images/areas</dc:title>
   </cc:Work>
  </rdf:RDF>
 </metadata>
 <title>images/areas</title>
 <desc>Created with Sketch.</desc>
 <g>
  <g fill="#8f8981" fill-rule="evenodd" stroke="#8f8981" stroke-linecap="square">
   <path id="Line" d="m59.5 26.411v184.08"/>
   <path d="m339.5 26.411v184.08"/>
   <path d="m199.5 26.411v184.08"/>
  </g>
  <g fill-rule="evenodd">
   <g id="ref-(2-line)" transform="translate(3.4716 4)">
    <rect width="110.58" height="38" fill="#f44d27" fill-rule="evenodd"/>
    <text id="master" fill="white" fill-opacity=".8" font-family="'Source Code Pro'" font-size="12px" font-weight="700" text-anchor="middle"><tspan fill="#f0f0f0" x="55.290054" y="15.53125" fill-opacity="1">Working</tspan> <tspan fill="#f0f0f0" x="55.290054" y="28.53125" fill-opacity="1">Directory</tspan></text>
   </g>
   <g>
   <rect transform="translate(144.21 4)" width="110.58" height="38" fill="#00909a"/>
   <text transform="translate(144.21 4)" fill="white" fill-opacity=".8" font-family="'Source Code Pro'" font-size="12px" font-weight="700" text-anchor="middle"><tspan fill="#f0f0f0" x="55.290054" y="15" fill-opacity="1">Staging</tspan> <tspan fill="#f0f0f0" x="55.290054" y="28" fill-opacity="1">Area</tspan></text>
   </g>
   <g>
    <rect transform="translate(284.95 4)" x=".5" y=".5" width="109.58" height="37" fill="#efefe7" stroke="#979797"/>
    <text transform="translate(284.95 4)" fill="#979797" font-family="'Source Code Pro'" font-size="12px" font-weight="700" text-anchor="middle"><tspan fill="#808080" x="54.790054" y="16.03125" fill-opacity="1">.git directory</tspan> <tspan fill="#808080" x="54.790054" y="30.03125" fill-opacity="1">(Repository)</tspan></text>
   </g>
  </g>
  <g fill="#8f8981">
   <path d="m122.38 70.5h216.95v21.875h-216.95v6.447l-63.25-17.319 63.25-17.525z"/>
   <path d="m137 144.38h-77.875v-21.75h77.875v-6.5l62.209 17.293-62.209 17.457z"/>
   <path d="m277.32 190.61h-78.112v-21.858h78.112v-6.5386l62.68 17.785-62.68 17.087z"/>
  </g>
  <g fill="white" fill-opacity=".8" fill-rule="evenodd" font-family="'Source Code Pro'" font-size="12px" font-weight="700">
   <text id="Checkout-the-project" transform="translate(0 -1.1079)"><tspan x="139.63197" y="86" fill="white" fill-opacity=".8">Checkout the project</tspan></text>
   <text id="Stage-Fixes" transform="translate(0,-1.116)"><tspan x="70.722588" y="138" fill="white" fill-opacity=".8">Stage Fixes</tspan></text>
   <text id="Commit" transform="translate(0 -1.1346)"><tspan x="221.93959" y="184.16992" fill="white" fill-opacity=".8">Commit</tspan></text>
  </g>
 </g>
</svg>
