<?xml version="1.0" encoding="UTF-8"?>
<svg width="401px" height="221px" viewBox="0 0 401 221" version="1.1" xmlns="http://www.w3.org/2000/svg" xmlns:xlink="http://www.w3.org/1999/xlink">
    <!-- Generator: Sketch 56.3 (81716) - https://sketch.com -->
    <title>images/areas</title>
    <desc>Created with Sketch.</desc>
    <g id="01---Areas" stroke="none" stroke-width="1" fill="none" fill-rule="evenodd">
        <path d="M59.5,26.4108529 L59.5,210.489473" id="Line" stroke="#8F8981" fill="#8F8981" stroke-linecap="square"></path>
        <path d="M339.5,26.4108529 L339.5,210.489473" id="Line-3" stroke="#8F8981" fill="#8F8981" stroke-linecap="square"></path>
        <path d="M199.5,26.4108529 L199.5,210.489473" id="Line-2" stroke="#8F8981" fill="#8F8981" stroke-linecap="square"></path>
        <g id="ref-(2-line)" transform="translate(3.471627, 4.000000)">
            <rect id="Rectangle-2" fill="#F44D27" fill-rule="evenodd" x="0" y="0" width="110.580108" height="38"></rect>
            <text id="master" stroke="#979797" stroke-width="1" font-family="RobotoMono-Regular, Roboto Mono" font-size="11.1428571" font-weight="normal" fill="#FFFFFF">
                <tspan x="31.8862453" y="15.53125">Working</tspan>
                <tspan x="25.1994429" y="28.53125">Directory</tspan>
            </text>
        </g>
        <g id="symref-(2-line)" transform="translate(144.209946, 4.000000)">
            <rect id="Rectangle-2" fill="#00909A" fill-rule="evenodd" x="0" y="0" width="110.580108" height="38"></rect>
            <text id="master" stroke="#979797" stroke-width="1" font-family="RobotoMono-Regular, Roboto Mono" font-size="11.1428571" font-weight="normal" fill="#FFFFFF">
                <tspan x="31.8862453" y="15">Staging</tspan>
                <tspan x="41.916449" y="28">Area</tspan>
            </text>
        </g>
        <g id="other-(2-line)" transform="translate(284.948265, 4.000000)" stroke="#979797">
            <rect id="Rectangle-2" fill="#EFEFE7" fill-rule="evenodd" x="0.5" y="0.5" width="109.580108" height="37"></rect>
            <text id="master-4" font-family="RobotoMono-Regular, Roboto Mono" font-size="12" font-weight="normal" fill="#000000">
                <tspan x="4.88185082" y="16.03125">.git directory</tspan>
                <tspan x="12.0830227" y="30.03125">(Repository)</tspan>
            </text>
        </g>
        <path id="Line" d="M128.497908,75.5 L340,75.5 L340,88.5 L128.497908,88.5 L128.497908,116.5 L59.497908,82 L128.497908,47.5 L128.497908,75.5 Z" fill="#8F8981" fill-rule="nonzero"></path>
        <path id="Line-4" d="M131.5,140.5 L59.997908,140.5 L59.997908,127.5 L131.5,127.5 L131.5,99.5 L200.5,134 L131.5,168.5 L131.5,140.5 Z" fill="#8F8981" fill-rule="nonzero"></path>
        <path id="Line-5" d="M271,186.5 L200,186.5 L200,173.5 L271,173.5 L271,145.5 L340,180 L271,214.5 L271,186.5 Z" fill="#8F8981" fill-rule="nonzero"></path>
        <text id="Checkout-the-project" stroke="#979797" font-family="RobotoMono-Regular, Roboto Mono" font-size="11.1428571" font-weight="normal" fill="#FFFFFF">
            <tspan x="139.631975" y="86">Checkout the project</tspan>
        </text>
        <text id="Stage-Fixes" stroke="#979797" font-family="RobotoMono-Regular, Roboto Mono" font-size="11.1428571" font-weight="normal" fill="#FFFFFF">
            <tspan x="70.7225865" y="138">Stage Fixes</tspan>
        </text>
        <text id="Commit" stroke="#979797" font-family="RobotoMono-Regular, Roboto Mono" font-size="11.1428571" font-weight="normal" fill="#FFFFFF">
            <tspan x="221.939593" y="184.169922">Commit</tspan>
        </text>
    </g>
</svg>