<?xml version="1.0" encoding="UTF-8"?>
<svg id="svg437" version="1.1" viewBox="0 0 604.1 223" xmlns="http://www.w3.org/2000/svg" xmlns:cc="http://creativecommons.org/ns#" xmlns:dc="http://purl.org/dc/elements/1.1/" xmlns:rdf="http://www.w3.org/1999/02/22-rdf-syntax-ns#">
 <metadata id="metadata443">
  <rdf:RDF>
   <cc:Work rdf:about="">
    <dc:format>image/svg+xml</dc:format>
    <dc:type rdf:resource="http://purl.org/dc/dcmitype/StillImage"/>
    <dc:title>images/basic-merging-1</dc:title>
   </cc:Work>
  </rdf:RDF>
 </metadata>
 <!-- Generator: Sketch 56.3 (81716) - https://sketch.com -->
 <title id="title353">images/basic-merging-1</title>
 <desc id="desc355">Created with Sketch.</desc>
 <g id="03---Basic-Merging-1" transform="translate(-8,-65)" style="fill-rule:evenodd;fill:none">
  <g id="g34594">
   <path id="Line" d="m110 146h35v1h-35v4l-9-4.5 9-4.5z" style="fill-rule:nonzero;fill:#8f8981"/>
   <path id="Line-2" d="m237 148h35v1h-35v4l-9-4.5 9-4.5z" style="fill-rule:nonzero;fill:#8f8981"/>
   <path id="Line-6" d="m364 147h35v1h-35v4l-9-4.5 9-4.5z" style="fill-rule:nonzero;fill:#8f8981"/>
   <g id="brown" transform="translate(12,131)">
    <rect id="Rectangle-1" width="89" height="33" rx="16.5" ry="16.5" style="fill-rule:evenodd;fill:#efefe7"/>
    <text id="C6" font-size="12px" font-weight="700" style="fill:#979797;font-family:'Source Code Pro';font-size:12px;font-weight:700;text-anchor:middle"><tspan id="tspan361" x="44.5" y="21" style="fill:gray">C0</tspan></text>
   </g>
   <g id="g371" transform="translate(139,131)">
    <rect id="rect365" width="89" height="33" rx="16.5" ry="16.5" style="fill-rule:evenodd;fill:#efefe7"/>
    <text id="text369" font-size="12px" font-weight="700" style="fill:#979797;font-family:'Source Code Pro';font-size:12px;font-weight:700;text-anchor:middle"><tspan id="tspan367" x="44.5" y="21" style="fill:gray">C1</tspan></text>
   </g>
   <g id="brown-3" transform="translate(266,131)">
    <rect id="rect373" x="1" y="1" width="87" height="31" rx="15.5" ry="15.5" style="fill:#efefe7;stroke-width:2;stroke:#159099"/>
    <text id="C5" font-size="12px" font-weight="700" style="fill:#979797;font-family:'Source Code Pro';font-size:12px;font-weight:700;text-anchor:middle"><tspan id="tspan375" x="43.5" y="21" style="fill:gray">C2</tspan></text>
   </g>
   <path id="Line-5" d="m359.18 162.78 40.028 35.677-.66537.74651-40.028-35.677-2.6615 2.9861-3.7245-9.3476 9.7128 2.629-2.6615 2.9861z" style="fill-rule:nonzero;fill:#8f8981"/>
   <path id="Line-7" transform="translate(394,69)" d="m43 53v-32h1v32h4l-4.5 9-4.5-9z" style="fill-rule:nonzero;fill:#8f8981"/>
   <g id="ref" transform="translate(393,69)">
    <rect id="Rectangle-2" transform="scale(.83962 1)" width="106" height="33" style="fill-rule:evenodd;fill:#f44d27"/>
    <text id="master" transform="translate(-8.4003 .316)" font-size="12px" font-weight="700" style="fill:#979797;font-family:'Source Code Pro';font-size:12px;font-weight:700;text-anchor:middle"><tspan id="tspan382" x="53" y="20" style="fill:#f0f0f0">master</tspan></text>
   </g>
   <text id="text34525" transform="translate(371.04 -122.9)" x="112.49346" y="246.85464" style="fill:#404040;font-family:'Source Code Pro';font-feature-settings:normal;font-size:12px;font-variant-caps:normal;font-variant-ligatures:normal;font-variant-numeric:normal;font-weight:bold;letter-spacing:0px;line-height:14px;word-spacing:0px" xml:space="preserve"><tspan id="tspan34523" x="112.49346" y="246.85464">Snapshot to</tspan><tspan id="tspan34527" x="112.49346" y="260.85464">Merge Into</tspan></text>
   <g id="brown-5" transform="translate(393,131)">
    <rect id="rect387" x="1" y="1" width="87" height="31" rx="15.5" ry="15.5" style="fill:#efefe7;stroke-width:2;stroke:#159099"/>
    <text id="text391" font-size="12px" font-weight="700" style="fill:#979797;font-family:'Source Code Pro';font-size:12px;font-weight:700;text-anchor:middle"><tspan id="tspan389" x="43.5" y="21" style="fill:gray">C4</tspan></text>
   </g>
   <path id="Line-8" transform="translate(.9)" d="m490 205h35v1h-35v4l-9-4.5 9-4.5z" style="fill-rule:nonzero;fill:#8f8981"/>
   <g id="brown-6" transform="translate(519,189)">
    <rect id="rect395" x="1" y="1" width="87" height="31" rx="15.5" ry="15.5" style="fill:#efefe7;stroke-width:2;stroke:#159099"/>
    <text id="text399" font-size="12px" font-weight="700" style="fill:#979797;font-family:'Source Code Pro';font-size:12px;font-weight:700;text-anchor:middle"><tspan id="tspan397" x="43.5" y="21" style="fill:gray">C5</tspan></text>
   </g>
   <g id="g408" transform="translate(393,189)">
    <rect id="rect402" width="89" height="33" rx="16.5" ry="16.5" style="fill-rule:evenodd;fill:#efefe7"/>
    <text id="text406" font-size="12px" font-weight="700" style="fill:#979797;font-family:'Source Code Pro';font-size:12px;font-weight:700;text-anchor:middle"><tspan id="tspan404" x="44.5" y="21" style="fill:gray">C3</tspan></text>
   </g>
   <g id="Line-4-+-ref-2" transform="translate(521,222)">
    <path id="Line-4" transform="translate(-.9)" d="m44 9v35h-1v-35h-4l4.5-9 4.5 9z" style="fill-rule:nonzero;fill:#8f8981"/>
    <g id="g417" transform="translate(-1.9,29)">
     <rect id="rect411" transform="scale(.83962 1)" width="106" height="33" style="fill-rule:evenodd;fill:#f44d27"/>
     <text id="text415" transform="translate(-8.5623)" font-size="12px" font-weight="700" style="fill:#979797;font-family:'Source Code Pro';font-size:12px;font-weight:700;text-anchor:middle"><tspan id="tspan413" x="53" y="20" style="fill:#f0f0f0">iss53</tspan></text>
    </g>
   </g>
   <text id="Common" transform="translate(0,-1.4)" font-size="12px" font-weight="700" style="fill:#404141;font-family:'Source Code Pro';font-size:12px;font-weight:700;line-height:12.33333302px"><tspan id="tspan431" x="289.32617" y="115" style="fill:#404141;line-height:12.33333302px">Common</tspan> <tspan id="tspan433" x="282.10156" y="129" style="fill:#404141;line-height:12.33333302px">Ancestor</tspan></text>
   <text id="text34539" transform="translate(-106.25 55.082)" x="669.72546" y="113.00938" style="fill:#404040;font-family:'Source Code Pro';font-feature-settings:normal;font-size:12px;font-variant-caps:normal;font-variant-ligatures:normal;font-variant-numeric:normal;font-weight:bold;letter-spacing:0px;line-height:14px;text-align:center;text-anchor:middle;word-spacing:0px" xml:space="preserve"><tspan id="tspan34537" x="669.72546" y="113.00938" style="fill:#404040">Snapshot to</tspan><tspan id="tspan34541" x="669.72546" y="127.00938" style="fill:#404040">Merge In</tspan></text>
  </g>
 </g>
</svg>
