<?xml version="1.0"?>
<svg xmlns="http://www.w3.org/2000/svg" xmlns:xlink="http://www.w3.org/1999/xlink" width="370px" height="102px" viewBox="0 0 370 102" version="1.1">
    <!-- Generator: Sketch 56.3 (81716) - https://sketch.com -->
    <title>images/basic-branching-1</title>
    <desc>Created with Sketch.</desc>
    <g id="03---Basic-Branching-1" stroke="none" stroke-width="1" fill="none" fill-rule="evenodd">
        <g id="brown" transform="translate(8.000000, 69.000000)">
            <rect id="Rectangle-1" fill="#EFEFE7" fill-rule="evenodd" x="0" y="0" width="89" height="33" rx="16.5"/>
            <text stroke="none" font-family="Source Code Pro" font-size="12px" font-weight="900" fill="#979797" fill-opacity="1" text-anchor="middle" id="C6">
                <tspan x="44.5" y="21">C0</tspan>
            </text>
        </g>
        <path id="Line" d="M106,84 L141,84 L141,85 L106,85 L106,89 L97,84.5 L106,80 L106,84 Z" fill="#8F8981" fill-rule="nonzero"/>
        <path id="Line-2" d="M233,86 L268,86 L268,87 L233,87 L233,91 L224,86.5 L233,82 L233,86 Z" fill="#8F8981" fill-rule="nonzero"/>
        <path id="Line-3" d="M306,60 L306,28 L307,28 L307,60 L311,60 L306.5,69 L302,60 L306,60 Z" fill="#8F8981" fill-rule="nonzero"/>
        <g id="brown" transform="translate(135.000000, 69.000000)">
            <rect id="Rectangle-1" fill="#EFEFE7" fill-rule="evenodd" x="0" y="0" width="89" height="33" rx="16.5"/>
            <text stroke="none" font-family="Source Code Pro" font-size="12px" font-weight="900" fill="#979797" fill-opacity="1" text-anchor="middle" id="C6">
                <tspan x="44.5" y="21">C1</tspan>
            </text>
        </g>
        <g id="brown" transform="translate(262.000000, 69.000000)">
            <rect id="Rectangle-1" fill="#EFEFE7" fill-rule="evenodd" x="0" y="0" width="89" height="33" rx="16.5"/>
            <text stroke="none" font-family="Source Code Pro" font-size="12px" font-weight="900" fill="#979797" fill-opacity="1" text-anchor="middle" id="C6">
                <tspan x="44.5" y="21">C2</tspan>
            </text>
        </g>
        <g id="ref" transform="translate(263.000000, 7.000000)">
            <rect id="Rectangle-2" fill="#F44D27" fill-rule="evenodd" x="0" y="0" width="106" height="33"/>
            <text stroke="none" font-family="Source Code Pro" font-size="12px" font-weight="900" fill="#979797" fill-opacity="1" text-anchor="middle" id="master">
                <tspan x="53" y="20">master</tspan>
            </text>
        </g>
    </g>
</svg>
