<?xml version="1.0" encoding="UTF-8"?>
<svg id="svg1285" version="1.1" viewBox="0 0 351 103" xmlns="http://www.w3.org/2000/svg" xmlns:cc="http://creativecommons.org/ns#" xmlns:dc="http://purl.org/dc/elements/1.1/" xmlns:rdf="http://www.w3.org/1999/02/22-rdf-syntax-ns#">
 <metadata id="metadata1291">
  <rdf:RDF>
   <cc:Work rdf:about="">
    <dc:format>image/svg+xml</dc:format>
    <dc:type rdf:resource="http://purl.org/dc/dcmitype/StillImage"/>
    <dc:title>images/basic-branching-1</dc:title>
   </cc:Work>
  </rdf:RDF>
 </metadata>
 <!-- Generator: Sketch 56.3 (81716) - https://sketch.com -->
 <title id="title1251">images/basic-branching-1</title>
 <desc id="desc1253">Created with Sketch.</desc>
 <g id="brown" transform="translate(4,66)" style="fill-rule:evenodd;fill:none">
  <rect id="Rectangle-1" width="89" height="33" rx="16.5" ry="16.5" style="fill-rule:evenodd;fill:#efefe7"/>
  <text id="C6" font-size="12px" font-weight="700" style="fill:#979797;font-family:'Source Code Pro';font-size:12px;font-weight:700;text-anchor:middle"><tspan id="tspan1256" x="44.5" y="21" style="fill:gray">C0</tspan></text>
 </g>
 <path id="Line" transform="translate(-4,-3)" d="m106 84h35v1h-35v4l-9-4.5 9-4.5z" style="fill:#8f8981"/>
 <path id="Line-2" transform="translate(-4,-3)" d="m233 86h35v1h-35v4l-9-4.5 9-4.5z" style="fill:#8f8981"/>
 <g id="g1269" transform="translate(131,66)" style="fill-rule:evenodd;fill:none">
  <rect id="rect1263" width="89" height="33" rx="16.5" ry="16.5" style="fill-rule:evenodd;fill:#efefe7"/>
  <text id="text1267" font-size="12px" font-weight="700" style="fill:#979797;font-family:'Source Code Pro';font-size:12px;font-weight:700;text-anchor:middle"><tspan id="tspan1265" x="44.5" y="21" style="fill:gray">C1</tspan></text>
 </g>
 <g id="g1277" transform="translate(258,66)" style="fill-rule:evenodd;fill:none">
  <rect id="rect1271" width="89" height="33" rx="16.5" ry="16.5" style="fill-rule:evenodd;fill:#efefe7"/>
  <text id="text1275" font-size="12px" font-weight="700" style="fill:gray;font-family:'Source Code Pro';font-size:12px;font-weight:700;text-anchor:middle"><tspan id="tspan1273" x="44.5" y="21" style="fill:gray">C2</tspan></text>
 </g>
 <g id="g5031">
  <path id="Line-3" transform="translate(-4.0001 -3)" d="m306 60v-32h1v32h4l-4.5 9-4.5-9z" style="fill:#8f8981"/>
  <g id="g5024">
   <rect id="Rectangle-2" transform="matrix(.83962 0 0 1 258 4)" width="106" height="33" style="fill-rule:evenodd;fill:#f44d27"/>
   <text id="master" transform="translate(249.6 4.316)" font-size="12px" font-weight="700" style="fill-rule:evenodd;fill:#f0f0f0;font-family:'Source Code Pro';font-size:12px;font-weight:700;text-anchor:middle"><tspan id="tspan1280" x="53" y="20" style="fill:#f0f0f0">master</tspan></text>
  </g>
 </g>
</svg>
