<?xml version="1.0"?>
<svg xmlns="http://www.w3.org/2000/svg" xmlns:xlink="http://www.w3.org/1999/xlink" width="512px" height="237px" viewBox="0 0 512 237" version="1.1">
    <!-- Generator: Sketch 56.3 (81716) - https://sketch.com -->
    <title>images/basic-rebase-1</title>
    <desc>Created with Sketch.</desc>
    <g id="03---Rebase-1" stroke="none" stroke-width="1" fill="none" fill-rule="evenodd">
        <path id="Line" d="M112,146 L147,146 L147,147 L112,147 L112,151 L103,146.5 L112,142 L112,146 Z" fill="#8F8981" fill-rule="nonzero"/>
        <path id="Line-2" d="M239,148 L274,148 L274,149 L239,149 L239,153 L230,148.5 L239,144 L239,148 Z" fill="#8F8981" fill-rule="nonzero"/>
        <path id="Line-6" d="M366,147 L401,147 L401,148 L366,148 L366,152 L357,147.5 L366,143 L366,147 Z" fill="#8F8981" fill-rule="nonzero"/>
        <g id="brown" transform="translate(14.000000, 131.000000)">
            <rect id="Rectangle-1" fill="#EFEFE7" fill-rule="evenodd" x="0" y="0" width="89" height="33" rx="16.5"/>
            <text stroke="none" font-family="Source Code Pro" font-size="12px" font-weight="900" fill="#979797" fill-opacity="1" text-anchor="middle" id="C6">
                <tspan x="44.5" y="21">C0</tspan>
            </text>
        </g>
        <g id="brown" transform="translate(141.000000, 131.000000)">
            <rect id="Rectangle-1" fill="#EFEFE7" fill-rule="evenodd" x="0" y="0" width="89" height="33" rx="16.5"/>
            <text stroke="none" font-family="Source Code Pro" font-size="12px" font-weight="900" fill="#979797" fill-opacity="1" text-anchor="middle" id="C6">
                <tspan x="44.5" y="21">C1</tspan>
            </text>
        </g>
        <g id="brown" transform="translate(268.000000, 131.000000)">
            <rect id="Rectangle-1" fill="#EFEFE7" fill-rule="evenodd" x="0" y="0" width="89" height="33" rx="16.5"/>
            <text stroke="none" font-family="Source Code Pro" font-size="12px" font-weight="900" fill="#979797" fill-opacity="1" text-anchor="middle" id="C6">
                <tspan x="44.5" y="21">C2</tspan>
            </text>
        </g>
        <path id="Line-5" d="M358.932449,129.921147 L404.591457,94.7988326 L405.201167,95.5914566 L359.542159,130.713771 L361.981002,133.884266 L352.103688,135.804855 L356.493605,126.750651 L358.932449,129.921147 Z" fill="#8F8981" fill-rule="nonzero"/>
        <g id="Line-7-+-ref-3" transform="translate(397.000000, 11.000000)">
            <path id="Line-7" d="M43,53 L43,21 L44,21 L44,53 L48,53 L43.5,62 L39,53 L43,53 Z" fill="#8F8981" fill-rule="nonzero"/>
            <g id="ref">
                <rect id="Rectangle-2" fill="#F44D27" fill-rule="evenodd" x="0" y="0" width="106" height="36"/>
                <text stroke="none" font-family="Source Code Pro" font-size="12px" font-weight="900" fill="#979797" fill-opacity="1" text-anchor="middle" id="master">
                    <tspan x="53" y="20.9090909">experiment</tspan>
                </text>
            </g>
        </g>
        <g id="brown-5-+-brown-4" transform="translate(396.000000, 73.000000)">
            <g id="brown">
                <rect id="Rectangle-1" fill="#EFEFE7" fill-rule="evenodd" x="0" y="0" width="89" height="33" rx="16.5"/>
                <text stroke="none" font-family="Source Code Pro" font-size="12px" font-weight="900" fill="#979797" fill-opacity="1" text-anchor="middle" id="C6">
                    <tspan x="44.5" y="21">C4</tspan>
                </text>
            </g>
            <g id="brown" transform="translate(0.000000, 58.000000)">
                <rect id="Rectangle-1" fill="#EFEFE7" fill-rule="evenodd" x="0" y="0" width="89" height="33" rx="16.5"/>
                <text stroke="none" font-family="Source Code Pro" font-size="12px" font-weight="900" fill="#979797" fill-opacity="1" text-anchor="middle" id="C6">
                    <tspan x="44.5" y="21">C3</tspan>
                </text>
            </g>
        </g>
        <g id="Line-4-+-ref-2" transform="translate(397.000000, 164.000000)">
            <path id="Line-4" d="M44,9 L44,44 L43,44 L43,9 L39,9 L43.5,0 L48,9 L44,9 Z" fill="#8F8981" fill-rule="nonzero"/>
            <g id="ref" transform="translate(0.000000, 29.000000)">
                <rect id="Rectangle-2" fill="#F44D27" fill-rule="evenodd" x="0" y="0" width="106" height="33"/>
                <text stroke="none" font-family="Source Code Pro" font-size="12px" font-weight="900" fill="#979797" fill-opacity="1" text-anchor="middle" id="master">
                    <tspan x="53" y="20">master</tspan>
                </text>
            </g>
        </g>
    </g>
</svg>
