<?xml version="1.0" encoding="UTF-8"?>
<svg id="svg35448" version="1.1" viewBox="0 0 607 165" xmlns="http://www.w3.org/2000/svg" xmlns:cc="http://creativecommons.org/ns#" xmlns:dc="http://purl.org/dc/elements/1.1/" xmlns:rdf="http://www.w3.org/1999/02/22-rdf-syntax-ns#">
 <metadata id="metadata35454">
  <rdf:RDF>
   <cc:Work rdf:about="">
    <dc:format>image/svg+xml</dc:format>
    <dc:type rdf:resource="http://purl.org/dc/dcmitype/StillImage"/>
    <dc:title>images/basic-rebase-4</dc:title>
   </cc:Work>
  </rdf:RDF>
 </metadata>
 <!-- Generator: Sketch 56.3 (81716) - https://sketch.com -->
 <title id="title35384">images/basic-rebase-4</title>
 <desc id="desc35386">Created with Sketch.</desc>
 <g id="03---Rebase-4" transform="translate(-10,-7)" style="fill-rule:evenodd;fill:none">
  <path id="Line" d="m112 88h35v1h-35v4l-9-4.5 9-4.5z" style="fill-rule:nonzero;fill:#8f8981"/>
  <path id="Line-2" d="m239 90h35v1h-35v4l-9-4.5 9-4.5z" style="fill-rule:nonzero;fill:#8f8981"/>
  <g id="brown" transform="translate(14,73)">
   <rect id="Rectangle-1" width="89" height="33" rx="16.5" ry="16.5" style="fill-rule:evenodd;fill:#efefe7"/>
   <text id="C6" font-size="12px" font-weight="700" style="fill:#979797;font-family:'Source Code Pro';font-size:12px;font-weight:700;text-anchor:middle"><tspan id="tspan35391" x="44.5" y="21" style="fill:gray">C0</tspan></text>
  </g>
  <g id="g35401" transform="translate(141,73)">
   <rect id="rect35395" width="89" height="33" rx="16.5" ry="16.5" style="fill-rule:evenodd;fill:#efefe7"/>
   <text id="text35399" font-size="12px" font-weight="700" style="fill:#979797;font-family:'Source Code Pro';font-size:12px;font-weight:700;text-anchor:middle"><tspan id="tspan35397" x="44.5" y="21" style="fill:gray">C1</tspan></text>
  </g>
  <g id="g35409" transform="translate(268,73)">
   <rect id="rect35403" width="89" height="33" rx="16.5" ry="16.5" style="fill-rule:evenodd;fill:#efefe7"/>
   <text id="text35407" font-size="12px" font-weight="700" style="fill:#979797;font-family:'Source Code Pro';font-size:12px;font-weight:700;text-anchor:middle"><tspan id="tspan35405" x="44.5" y="21" style="fill:gray">C2</tspan></text>
  </g>
  <g id="Line-7-+-ref-3" transform="translate(526,11)">
   <path id="Line-7" transform="translate(-1)" d="m43 53v-32h1v32h4l-4.5 9-4.5-9z" style="fill-rule:nonzero;fill:#8f8981"/>
   <g id="ref" transform="translate(-2)">
    <rect id="Rectangle-2" transform="scale(.83962 1)" width="106" height="36" style="fill-rule:evenodd;fill:#f44d27"/>
    <text id="master" transform="translate(-8.5323 .51691)" font-size="12px" font-weight="700" style="fill:#979797;font-family:'Source Code Pro';font-size:12px;font-weight:700;text-anchor:middle"><tspan id="tspan35413" x="53" y="20.90909" style="fill:#f0f0f0">experiment</tspan></text>
   </g>
  </g>
  <g id="Line-6-+-brown-4" transform="translate(357,73)">
   <path id="Line-6" d="m9 16h35v1h-35v4l-9-4.5 9-4.5z" style="fill-rule:nonzero;fill:#8f8981"/>
   <g id="g35425" transform="translate(39)">
    <rect id="rect35419" width="89" height="33" rx="16.5" ry="16.5" style="fill-rule:evenodd;fill:#efefe7"/>
    <text id="text35423" font-size="12px" font-weight="700" style="fill:#979797;font-family:'Source Code Pro';font-size:12px;font-weight:700;text-anchor:middle"><tspan id="tspan35421" x="44.5" y="21" style="fill:gray">C3</tspan></text>
   </g>
  </g>
  <path id="Line-8" d="m494 89h35v1h-35v4l-9-4.5 9-4.5z" style="fill-rule:nonzero;fill:#8f8981"/>
  <g id="g35435" transform="translate(524,73)">
   <rect id="rect35429" width="89" height="33" rx="16.5" ry="16.5" style="fill-rule:evenodd;fill:#efefe7"/>
   <text id="text35433" font-size="12px" font-weight="700" style="fill:#979797;font-family:'Source Code Pro';font-size:12px;font-weight:700;text-anchor:middle"><tspan id="tspan35431" x="44.5" y="21" style="fill:gray">C4'</tspan></text>
  </g>
  <g id="Line-4-+-ref-2" transform="translate(526,106)">
   <path id="Line-4" transform="translate(-1)" d="m44 9v35h-1v-35h-4l4.5-9 4.5 9z" style="fill-rule:nonzero;fill:#8f8981"/>
   <g id="g35444" transform="translate(-2,29)">
    <rect id="rect35438" transform="scale(.83962 1)" width="106" height="33" style="fill-rule:evenodd;fill:#f44d27"/>
    <text id="text35442" transform="translate(-8.4003 .316)" font-size="12px" font-weight="700" style="fill:#979797;font-family:'Source Code Pro';font-size:12px;font-weight:700;text-anchor:middle"><tspan id="tspan35440" x="53" y="20" style="fill:#f0f0f0">master</tspan></text>
   </g>
  </g>
 </g>
</svg>
