<?xml version="1.0" encoding="UTF-8"?>
<svg width="492px" height="295px" viewBox="0 0 492 295" version="1.1" xmlns="http://www.w3.org/2000/svg" xmlns:xlink="http://www.w3.org/1999/xlink">
    <!-- Generator: Sketch 56.3 (81716) - https://sketch.com -->
    <title>images/basic-branching-5</title>
    <desc>Created with Sketch.</desc>
    <g id="03---Basic-Branching-4" stroke="none" stroke-width="1" fill="none" fill-rule="evenodd">
        <path id="Line" d="M98,146 L133,146 L133,147 L98,147 L98,151 L89,146.5 L98,142 L98,146 Z" fill="#8F8981" fill-rule="nonzero"></path>
        <path id="Line-2" d="M225,148 L260,148 L260,149 L225,149 L225,153 L216,148.5 L225,144 L225,148 Z" fill="#8F8981" fill-rule="nonzero"></path>
        <path id="Line-6" d="M352,147 L387,147 L387,148 L352,148 L352,152 L343,147.5 L352,143 L352,147 Z" fill="#8F8981" fill-rule="nonzero"></path>
        <g id="brown" transform="translate(0.000000, 131.000000)">
            <rect id="Rectangle-1" fill="#EFEFE7" fill-rule="evenodd" x="0" y="0" width="89" height="33" rx="16.5"></rect>
            <text id="C6" stroke="#979797" stroke-width="1" font-family="RobotoMono-Regular, Roboto Mono" font-size="12" font-weight="normal" fill="#000000">
                <tspan x="38.2988281" y="21">C0</tspan>
            </text>
        </g>
        <g id="brown" transform="translate(127.000000, 131.000000)">
            <rect id="Rectangle-1" fill="#EFEFE7" fill-rule="evenodd" x="0" y="0" width="89" height="33" rx="16.5"></rect>
            <text id="C6" stroke="#979797" stroke-width="1" font-family="RobotoMono-Regular, Roboto Mono" font-size="12" font-weight="normal" fill="#000000">
                <tspan x="38.2988281" y="21">C1</tspan>
            </text>
        </g>
        <g id="brown" transform="translate(254.000000, 131.000000)">
            <rect id="Rectangle-1" fill="#EFEFE7" fill-rule="evenodd" x="0" y="0" width="89" height="33" rx="16.5"></rect>
            <text id="C6" stroke="#979797" stroke-width="1" font-family="RobotoMono-Regular, Roboto Mono" font-size="12" font-weight="normal" fill="#000000">
                <tspan x="38.2988281" y="21">C2</tspan>
            </text>
        </g>
        <path d="M425.5,32.5 L425.5,72.5" id="Line-3" stroke="#8F8981" fill="#8F8981" stroke-linecap="square"></path>
        <g id="ref" transform="translate(382.000000, 11.000000)">
            <rect id="Rectangle-2" fill="#F44D27" fill-rule="evenodd" x="0" y="0" width="106" height="33"></rect>
            <text id="master" stroke="#979797" stroke-width="1" font-family="RobotoMono-Regular, Roboto Mono" font-size="11.1428571" font-weight="normal" fill="#FFFFFF">
                <tspan x="33.1285461" y="20">master</tspan>
            </text>
        </g>
        <path id="Line-5" d="M347.178048,162.782393 L387.205942,198.459429 L386.540571,199.205942 L346.512678,163.528906 L343.851195,166.514959 L340.126743,157.167315 L349.83953,159.79634 L347.178048,162.782393 Z" fill="#8F8981" fill-rule="nonzero"></path>
        <g id="Line-7-+-ref-3" transform="translate(382.000000, 69.000000)">
            <path id="Line-7" d="M43,53 L43,21 L44,21 L44,53 L48,53 L43.5,62 L39,53 L43,53 Z" fill="#8F8981" fill-rule="nonzero"></path>
            <g id="ref">
                <rect id="Rectangle-2" fill="#F44D27" fill-rule="evenodd" x="0" y="0" width="106" height="33"></rect>
                <text id="master" stroke="#979797" stroke-width="1" font-family="RobotoMono-Regular, Roboto Mono" font-size="11.1428571" font-weight="normal" fill="#FFFFFF">
                    <tspan x="33.1258257" y="20">hotfix</tspan>
                </text>
            </g>
        </g>
        <g id="brown" transform="translate(381.000000, 131.000000)">
            <rect id="Rectangle-1" fill="#EFEFE7" fill-rule="evenodd" x="0" y="0" width="89" height="33" rx="16.5"></rect>
            <text id="C6" stroke="#979797" stroke-width="1" font-family="RobotoMono-Regular, Roboto Mono" font-size="12" font-weight="normal" fill="#000000">
                <tspan x="38.2988281" y="21">C4</tspan>
            </text>
        </g>
        <g id="brown-4-+-Line-4-+-ref-2" transform="translate(381.000000, 189.000000)">
            <g id="brown">
                <rect id="Rectangle-1" fill="#EFEFE7" fill-rule="evenodd" x="0" y="0" width="89" height="33" rx="16.5"></rect>
                <text id="C6" stroke="#979797" stroke-width="1" font-family="RobotoMono-Regular, Roboto Mono" font-size="12" font-weight="normal" fill="#000000">
                    <tspan x="38.2988281" y="21">C3</tspan>
                </text>
            </g>
            <g id="Line-4-+-ref-2" transform="translate(2.000000, 33.000000)">
                <path id="Line-4" d="M44,9 L44,44 L43,44 L43,9 L39,9 L43.5,0 L48,9 L44,9 Z" fill="#8F8981" fill-rule="nonzero"></path>
                <g id="ref" transform="translate(0.000000, 29.000000)">
                    <rect id="Rectangle-2" fill="#F44D27" fill-rule="evenodd" x="0" y="0" width="106" height="33"></rect>
                    <text id="master" stroke="#979797" stroke-width="1" font-family="RobotoMono-Regular, Roboto Mono" font-size="11.1428571" font-weight="normal" fill="#FFFFFF">
                        <tspan x="36.4719473" y="20">iss53</tspan>
                    </text>
                </g>
            </g>
        </g>
    </g>
</svg>