<?xml version="1.0" encoding="UTF-8"?>
<svg id="svg35706" version="1.1" viewBox="0 0 393.58 203" xmlns="http://www.w3.org/2000/svg" xmlns:cc="http://creativecommons.org/ns#" xmlns:dc="http://purl.org/dc/elements/1.1/" xmlns:rdf="http://www.w3.org/1999/02/22-rdf-syntax-ns#">
 <metadata id="metadata35712">
  <rdf:RDF>
   <cc:Work rdf:about="">
    <dc:format>image/svg+xml</dc:format>
    <dc:type rdf:resource="http://purl.org/dc/dcmitype/StillImage"/>
    <dc:title>images/benevolent-dictator</dc:title>
   </cc:Work>
  </rdf:RDF>
 </metadata>
 <!-- Generator: Sketch 56.3 (81716) - https://sketch.com -->
 <title id="title35634">images/benevolent-dictator</title>
 <desc id="desc35636">Created with Sketch.</desc>
 <g id="05---Workflows" transform="translate(-2)" style="fill-rule:evenodd;fill:none">
  <g id="Group">
   <path id="Line-21" d="m238.39 153.65 88.315-113.03.79041.61257-88.315 113.03 3.1617 2.4503-9.07 4.3572 1.9563-9.8703z" style="fill-rule:nonzero;fill:#8f8981;opacity:.5"/>
   <path id="Line-12" transform="translate(0,-1)" d="m63.5 52v37.337h-1v-37.337h-4l4.5-9 4.5 9z" style="fill-rule:nonzero;fill:#8f8981"/>
   <g id="symref" transform="translate(19,86)">
    <g id="g35819">
     <rect id="Rectangle-2" width="86" height="33" style="fill-rule:evenodd;fill:#00909a"/>
     <text id="master" transform="translate(-.0023438 .958)" font-size="12px" font-weight="700" style="fill:#979797;font-family:'Source Code Pro';font-size:12px;font-weight:700;text-anchor:middle"><tspan id="tspan35646" x="43" y="20" style="fill:#f0f0f0">lieutenant</tspan></text>
    </g>
   </g>
   <path id="Line-13" transform="translate(0,-1.2)" d="m106.86 49.157 38.664 38.588-.70711.70711-38.664-38.588-2.8284 2.8284-3.182-9.5459 9.5459 3.182z" style="fill-rule:nonzero;fill:#8f8981"/>
   <g id="g35656" transform="translate(117,86)">
    <g id="g35814">
     <rect id="rect35650" width="86" height="33" style="fill-rule:evenodd;fill:#00909a"/>
     <text id="text35654" transform="translate(-.0023438 .958)" font-size="12px" font-weight="700" style="fill:#979797;font-family:'Source Code Pro';font-size:12px;font-weight:700;text-anchor:middle"><tspan id="tspan35652" x="43" y="20" style="fill:#f0f0f0">lieutenant</tspan></text>
    </g>
   </g>
   <path id="Line-14" d="m64 128v34h-1v-34h-4l4.5-9 4.5 9z" style="fill-rule:nonzero;fill:#8f8981"/>
   <g id="g35781">
    <rect id="rect35658" transform="translate(6,161)" x=".5" y=".5" width="109.58" height="37" style="fill-rule:evenodd;fill:#efefe7;stroke:#979797"/>
    <text id="text35724" transform="translate(-51.067 -41.775)" x="112.38495" y="217.87744" style="fill:gray;font-family:'Source Code Pro';font-feature-settings:normal;font-size:12px;font-variant-caps:normal;font-variant-ligatures:normal;font-variant-numeric:normal;font-weight:bold;letter-spacing:0px;line-height:14px;text-align:center;text-anchor:middle;word-spacing:0px" xml:space="preserve"><tspan id="tspan35722" x="112.38495" y="217.87744">developer</tspan><tspan id="tspan35726" x="112.38495" y="231.87744">public</tspan></text>
   </g>
   <path id="Line-17" transform="translate(-1.1)" d="m273 24h-167v-1h167v-4l9 4.5-9 4.5z" style="fill-rule:nonzero;fill:#8f8981"/>
   <path id="Line-15" d="m110.86 125.16 36.343 36.343-.70711.70711-36.343-36.343-2.8284 2.8284-3.182-9.5459 9.5459 3.182z" style="fill-rule:nonzero;fill:#8f8981"/>
   <path id="Line-16" d="m211.25 115.02 87.921 46.274-.46574.88492-87.921-46.274-1.863 3.5397-5.8684-8.1738 10.06.20958z" style="fill-rule:nonzero;fill:#8f8981"/>
   <path id="Line-18" d="m112.53 81.384c31.14-16.581 61.59-30.438 80.819-36.448 8.9328-2.7915 21.549-5.3855 36.91-7.7711 11.2-1.7395 23.199-3.2677 35.197-4.5725 4.1992-.45665 8.0985-.85276 11.598-1.1868 1.225-.11692 2.3126-.21773 3.2502-.30223.32828-.02959.6144-.05502.8568-.07629.24414-.0213.24414-.0213.29465-.02562l.49819-.04258.0851.99637-.49818.04258c-.0494.0042-.0494.0042-.29242.02543-.24162.02119-.52695.04656-.85444.07607-.93595.08435-2.0218.185-3.245.30175-3.4953.33361-7.3903.72927-11.585 1.1854-11.984 1.3032-23.968 2.8297-35.151 4.5665-15.316 2.3786-27.89 4.964-36.765 7.7375-19.147 5.9835-49.562 19.824-80.643 36.374l1.8963 3.519-10.058.30801 5.7882-8.2309z" style="fill-rule:nonzero;fill:#8f8981;opacity:.5"/>
   <path id="Line-19" d="m210.39 81.492 71.265-45.683.53966.84188-71.265 45.683 2.1587 3.3675-10.005 1.0685 5.1484-8.6455z" style="fill-rule:nonzero;fill:#8f8981;opacity:.5"/>
   <path id="Line-20" transform="translate(0,-1)" d="m336 153v-111h1v111h4l-4.5 9-4.5-9z" style="fill-rule:nonzero;fill:#8f8981;opacity:.5"/>
   <path id="Line-22" d="m125.32 159.54c15.569-2.9522 32.421-7.2013 49.905-12.9 24.876-8.1086 46.268-18.018 62.381-29.877 7.5606-5.5649 14.589-11.604 21.103-18.046 12.482-12.344 22.532-25.569 30.365-38.793 2.7408-4.627 5.0085-8.9225 6.8301-12.776.63693-1.3475 2.6437-5.8744 2.6437-5.8744l.93387.35762s-2.0308 4.5845-2.6735 5.9441c-1.8345 3.881-4.1167 8.2039-6.8738 12.858-7.875 13.294-17.976 26.587-30.522 38.994-6.5479 6.4754-13.613 12.546-21.214 18.14-16.212 11.933-37.695 21.884-62.664 30.023-17.533 5.7153-34.432 9.975-50.043 12.935l.68782 3.9485-9.6388-2.8887 8.0942-5.9778z" style="fill-rule:nonzero;fill:#8f8981;opacity:.5"/>
   <g id="ref" transform="translate(20,9)">
    <rect id="rect35697" width="106" height="33" style="fill-rule:evenodd;fill:#f44d27"/>
    <text id="text35701" transform="translate(.027656 .958)" font-size="12px" font-weight="700" style="fill:#979797;font-family:'Source Code Pro';font-size:12px;font-weight:700;text-anchor:middle"><tspan id="tspan35699" x="53" y="20" style="fill:#f0f0f0">dictator</tspan></text>
   </g>
   <g id="g35787">
    <rect id="rect35666" transform="translate(144,161)" x=".5" y=".5" width="109.58" height="37" style="fill-rule:evenodd;fill:#efefe7;stroke:#979797"/>
    <text id="text35724-1" transform="translate(86.933 -41.775)" x="112.38495" y="217.87744" style="fill:gray;font-family:'Source Code Pro';font-feature-settings:normal;font-size:12px;font-variant-caps:normal;font-variant-ligatures:normal;font-variant-numeric:normal;font-weight:bold;letter-spacing:0px;line-height:14px;text-align:center;text-anchor:middle;word-spacing:0px" xml:space="preserve"><tspan id="tspan35722-5" x="112.38495" y="217.87744">developer</tspan><tspan id="tspan35726-9" x="112.38495" y="231.87744">public</tspan></text>
   </g>
   <g id="g35793">
    <rect id="rect35676" transform="translate(281,161)" x=".5" y=".5" width="109.58" height="37" style="fill-rule:evenodd;fill:#efefe7;stroke:#979797"/>
    <text id="text35724-6" transform="translate(223.93 -41.775)" x="112.38495" y="217.87744" style="fill:gray;font-family:'Source Code Pro';font-feature-settings:normal;font-size:12px;font-variant-caps:normal;font-variant-ligatures:normal;font-variant-numeric:normal;font-weight:bold;letter-spacing:0px;line-height:14px;text-align:center;text-anchor:middle;word-spacing:0px" xml:space="preserve"><tspan id="tspan35722-3" x="112.38495" y="217.87744">developer</tspan><tspan id="tspan35726-8" x="112.38495" y="231.87744">public</tspan></text>
   </g>
   <g id="g35809">
    <g id="goldref-(2-line)" transform="translate(281,4)">
     <rect id="Rectangle-4" width="110.58" height="38" style="fill-rule:evenodd;fill:#cd9f00"/>
    </g>
    <text id="text35797" transform="translate(-111.98 -26.006)" x="447.75" y="45.047966" style="fill:#f0f0f0;font-family:'Source Code Pro';font-feature-settings:normal;font-size:12px;font-variant-caps:normal;font-variant-ligatures:normal;font-variant-numeric:normal;font-weight:bold;letter-spacing:0px;line-height:14px;text-align:center;text-anchor:middle;word-spacing:0px" xml:space="preserve"><tspan id="tspan35795" x="447.75" y="45.047966">blessed</tspan><tspan id="tspan35799" x="447.75" y="59.047966">repository</tspan></text>
   </g>
  </g>
 </g>
</svg>
