<?xml version="1.0" encoding="UTF-8"?>
<svg id="svg36371" version="1.1" viewBox="0 0 529 225" xmlns="http://www.w3.org/2000/svg" xmlns:cc="http://creativecommons.org/ns#" xmlns:dc="http://purl.org/dc/elements/1.1/" xmlns:rdf="http://www.w3.org/1999/02/22-rdf-syntax-ns#">
 <metadata id="metadata36377">
  <rdf:RDF>
   <cc:Work rdf:about="">
    <dc:format>image/svg+xml</dc:format>
    <dc:type rdf:resource="http://purl.org/dc/dcmitype/StillImage"/>
    <dc:title>images/checkout-master</dc:title>
   </cc:Work>
  </rdf:RDF>
 </metadata>
 <!-- Generator: Sketch 56.3 (81716) - https://sketch.com -->
 <title id="title36310">images/checkout-master</title>
 <desc id="desc36312">Created with Sketch.</desc>
 <g id="03---Branch-Progression-2" transform="translate(4,4)" style="fill-rule:evenodd;fill:none">
  <g id="g36419">
   <path id="Line-7" transform="translate(-.5)" d="m333 113v-29h1v29h4l-4.5 9-4.5-9z" style="fill-rule:nonzero;fill:#8f8981"/>
   <path id="Line" d="m240 138h50v1h-50v4l-9-4.5 9-4.5z" style="fill-rule:nonzero;fill:#8f8981"/>
   <path id="Line-3" d="m385 138h50v1h-50v4l-9-4.5 9-4.5z" style="fill-rule:nonzero;fill:#8f8981"/>
   <path id="Line-2" d="m95 138h50v1h-50v4l-9-4.5 9-4.5z" style="fill-rule:nonzero;fill:#8f8981"/>
   <g id="ref" transform="translate(290,61)">
    <rect id="Rectangle-2" transform="scale(.81132 1)" width="106" height="33" style="fill-rule:evenodd;fill:#f44d27"/>
    <text id="master" transform="translate(-9.9003 .316)" font-size="12px" font-weight="700" style="fill:#979797;font-family:'Source Code Pro';font-size:12px;font-weight:700;text-anchor:middle"><tspan id="tspan36319" x="53" y="20" style="fill:#f0f0f0">master</tspan></text>
   </g>
   <g id="other" transform="translate(290,122)">
    <rect id="rect36323" width="86" height="33" style="fill-rule:evenodd;fill:#efefe7"/>
    <text id="text36327" font-size="12px" font-weight="700" style="fill:#979797;font-family:'Source Code Pro';font-size:12px;font-weight:700;text-anchor:middle"><tspan id="tspan36325" x="43" y="21" style="fill:gray">f30ab</tspan></text>
   </g>
   <g id="g36336" transform="translate(435,122)">
    <rect id="rect36330" width="86" height="33" style="fill-rule:evenodd;fill:#efefe7"/>
    <text id="text36334" font-size="12px" font-weight="700" style="fill:#979797;font-family:'Source Code Pro';font-size:12px;font-weight:700;text-anchor:middle"><tspan id="tspan36332" x="43" y="21" style="fill:gray">87ab2</tspan></text>
   </g>
   <g id="g36344" transform="translate(145,122)">
    <rect id="rect36338" width="86" height="33" style="fill-rule:evenodd;fill:#efefe7"/>
    <text id="text36342" font-size="12px" font-weight="700" style="fill:#979797;font-family:'Source Code Pro';font-size:12px;font-weight:700;text-anchor:middle"><tspan id="tspan36340" x="43" y="21" style="fill:gray">34ac2</tspan></text>
   </g>
   <g id="g36352" transform="translate(0,122)">
    <rect id="rect36346" width="86" height="33" style="fill-rule:evenodd;fill:#efefe7"/>
    <text id="text36350" font-size="12px" font-weight="700" style="fill:#979797;font-family:'Source Code Pro';font-size:12px;font-weight:700;text-anchor:middle"><tspan id="tspan36348" x="43" y="21" style="fill:gray">98ca9</tspan></text>
   </g>
   <path id="Line-8" transform="translate(-.5)" d="m479 164v30h-1v-30h-4l4.5-9 4.5 9z" style="fill-rule:nonzero;fill:#8f8981"/>
   <g id="g36361" transform="translate(435,184)">
    <rect id="rect36355" transform="scale(.81132 1)" width="106" height="33" style="fill-rule:evenodd;fill:#f44d27"/>
    <text id="text36359" transform="translate(-10.128 -.236)" font-size="12px" font-weight="700" style="fill:#979797;font-family:'Source Code Pro';font-size:12px;font-weight:700;text-anchor:middle"><tspan id="tspan36357" x="53" y="20" style="fill:#f0f0f0">testing</tspan></text>
   </g>
   <path id="Line-11" transform="translate(-1.5)" d="m334 52v-34h1v34h4l-4.5 9-4.5-9z" style="fill-rule:nonzero;fill:#8f8981"/>
   <g id="goldref" transform="translate(290)">
    <rect id="Rectangle-3" transform="scale(.7963 1)" width="108" height="33" style="fill-rule:evenodd;fill:#cd9f00"/>
    <text id="master-2" transform="translate(-11.17 .412)" font-size="12px" font-weight="700" style="fill:#979797;font-family:'Source Code Pro';font-size:12px;font-weight:700;text-anchor:middle"><tspan id="tspan36366" x="54" y="20" style="fill:#f0f0f0">HEAD</tspan></text>
   </g>
  </g>
 </g>
</svg>
