<?xml version="1.0" encoding="UTF-8"?>
<svg id="svg1880" version="1.1" viewBox="0 0 425 204" xmlns="http://www.w3.org/2000/svg" xmlns:cc="http://creativecommons.org/ns#" xmlns:dc="http://purl.org/dc/elements/1.1/" xmlns:rdf="http://www.w3.org/1999/02/22-rdf-syntax-ns#">
 <metadata id="metadata1886">
  <rdf:RDF>
   <cc:Work rdf:about="">
    <dc:format>image/svg+xml</dc:format>
    <dc:type rdf:resource="http://purl.org/dc/dcmitype/StillImage"/>
    <dc:title>images/clean</dc:title>
   </cc:Work>
  </rdf:RDF>
 </metadata>
 <!-- Generator: Sketch 56.3 (81716) - https://sketch.com -->
 <title id="title1802">images/clean</title>
 <desc id="desc1804">Created with Sketch.</desc>
 <g id="08---Smudge-and-Clean" fill="none" fill-rule="evenodd">
  <g id="Group" transform="translate(10 10)">
   <g id="g145">
    <g id="other" transform="translate(0,45)">
     <rect id="Rectangle-2" width="86" height="33" style="fill-rule:evenodd;fill:#efefe7"/>
     <text id="master" font-size="12px" font-weight="700" style="fill:#979797;font-family:'Source Code Pro';font-size:12px;font-weight:700;text-anchor:middle"><tspan id="tspan1807" x="43" y="21" style="fill:gray">fileA.txt</tspan></text>
    </g>
    <rect id="Rectangle-10" x="138.5" y=".5" width="109" height="142" style="fill:#d8d8d8;stroke:#979797"/>
    <g id="goldref" transform="translate(300,45)">
     <rect id="Rectangle-3" width="86" height="33" style="fill-rule:evenodd;fill:#cd9f00"/>
     <text id="master-2" font-size="12px" font-weight="700" style="fill:#979797;font-family:'Source Code Pro';font-size:12px;font-weight:700;text-anchor:middle"><tspan id="tspan1813" x="43" y="20" style="fill:#f0f0f0">fileA.txt'</tspan></text>
    </g>
    <g id="g1823" transform="translate(300,98)">
     <rect id="rect1817" width="86" height="33" style="fill-rule:evenodd;fill:#cd9f00"/>
     <text id="text1821" font-size="12px" font-weight="700" style="fill:#979797;font-family:'Source Code Pro';font-size:12px;font-weight:700;text-anchor:middle"><tspan id="tspan1819" x="43" y="20" style="fill:#f0f0f0">fileB.txt'</tspan></text>
    </g>
    <g id="g1831" transform="translate(0,98)">
     <rect id="rect1825" width="86" height="33" style="fill-rule:evenodd;fill:#efefe7"/>
     <text id="text1829" font-size="12px" font-weight="700" style="fill:#979797;font-family:'Source Code Pro';font-size:12px;font-weight:700;text-anchor:middle"><tspan id="tspan1827" x="43" y="21" style="fill:gray">fileB.txt</tspan></text>
    </g>
    <g id="g1839" transform="translate(0,151)">
     <rect id="rect1833" width="86" height="33" style="fill-rule:evenodd;fill:#efefe7"/>
     <text id="text1837" font-size="12px" font-weight="700" style="fill:#979797;font-family:'Source Code Pro';font-size:12px;font-weight:700;text-anchor:middle"><tspan id="tspan1835" x="43" y="21" style="fill:gray">fileC.rb</tspan></text>
    </g>
    <g id="g1847" transform="translate(300,151)">
     <rect id="rect1841" width="86" height="33" style="fill-rule:evenodd;fill:#efefe7"/>
     <text id="text1845" font-size="12px" font-weight="700" style="fill:#979797;font-family:'Source Code Pro';font-size:12px;font-weight:700;text-anchor:middle"><tspan id="tspan1843" x="43" y="21" style="fill:gray">fileC.rb</tspan></text>
    </g>
    <text id="Staging-Area-2" transform="translate(-11.397)" font-size="12px" font-weight="700" style="fill:#404040;font-family:'Source Code Pro';font-size:12px;font-weight:700;text-anchor:middle"><tspan id="tspan1849" x="54.5" y="22" style="fill:#404040">Staging Area</tspan></text>
    <text id="Working-Directory-2" transform="translate(288.9)" font-size="12px" font-weight="700" style="fill:#404040;font-family:'Source Code Pro';font-size:12px;font-weight:700;text-anchor:middle"><tspan id="tspan1852" x="54.5" y="22" style="fill:#404040">Working Directory</tspan></text>
    <text id="*.txt-Filter-2" transform="translate(138.35)" font-size="12px" font-weight="700" style="fill:#404040;font-family:'Source Code Pro';font-size:12px;font-weight:700;text-anchor:middle"><tspan id="tspan1855" x="54.5" y="22" style="fill:#404040">*.txt Filter</tspan></text>
    <g id="ref" transform="translate(150,45)">
     <rect id="rect1858" width="86.187" height="33" style="fill-rule:evenodd;fill:#f44d27"/>
     <text id="text1862" font-size="12px" font-weight="700" style="fill:#979797;font-family:'Source Code Pro';font-size:12px;font-weight:700;text-anchor:middle"><tspan id="tspan1860" x="43.093456" y="20" style="fill:#f0f0f0">smudge</tspan></text>
    </g>
    <g id="g1871" transform="translate(150,98)">
     <rect id="rect1865" width="86.187" height="33" style="fill-rule:evenodd;fill:#f44d27"/>
     <text id="text1869" font-size="12px" font-weight="700" style="fill:#979797;font-family:'Source Code Pro';font-size:12px;font-weight:700;text-anchor:middle"><tspan id="tspan1867" x="43.093456" y="20" style="fill:#f0f0f0">clean</tspan></text>
    </g>
    <path id="Line-6" d="m291 169h-204v-1h204v-4l9 4.5-9 4.5z" style="fill-rule:nonzero;fill:#8f8981"/>
    <path id="Line-7" d="m141 115h-54v-1h54v-4l9 4.5-9 4.5z" style="fill-rule:nonzero;fill:#8f8981"/>
    <path id="Line-8" transform="matrix(-1,0,0,1,536,2.7)" d="m291 115h-55v-1h55v-4l9 4.5-9 4.5z" style="fill-rule:nonzero;fill:#8f8981"/>
    <path id="Line-9" d="m142 61.968c-7.0598.40966-13.566 1.8194-18.723 4.552-6.9044 3.6585-10.749 9.38-10.749 17.577 0 11.618-4.9267 18.264-13.106 20.948-3.9129 1.2838-8.0431 1.5039-11.761 1.1136-.34273-.036-.64823-.0746-.91288-.11334-.16072-.0235-.27333-.0421-.33421-.0532l-.49189-.0897.17936-.98378.49189.0897c.04961.009.15072.0257.29968.0475.25147.0368.54351.0737.87246.10826 3.5892.37676 7.5861.16385 11.344-1.0693 7.7731-2.5504 12.418-8.8161 12.418-19.997 0-8.5882 4.0644-14.637 11.281-18.461 5.3218-2.8199 11.983-4.2584 19.199-4.6705l.0305-4.0302 8.9657 4.568-9.0338 4.4318.03-3.9675z" style="fill-rule:nonzero;fill:#8f8981"/>
    <path id="Line-10" transform="matrix(-1 0 0 1 535 0)" d="m290.01 106.96c-11.928-2.7066-19.793-9.6708-19.793-22.464 0-9.966-6.2552-16.307-16.763-19.784-3.6099-1.1948-7.4822-1.9602-11.37-2.3799-1.3885-.14986-2.6896-.24512-3.8725-.29644-.74985-.03253-1.3205-.0425-1.6812-.0406l-.0195.000134-.49997.0052-.0104-.99995.49997-.0052.0246-.000174c.37648-.002.96325.0083 1.7299.04153 1.2035.05222 2.5258.14903 3.9364.30128 3.9536.42671 7.8934 1.2055 11.577 2.4247 10.875 3.5992 17.449 10.263 17.449 20.734 0 12.2 7.4474 18.833 18.909 21.464l.4526-3.9124 8.4232 5.5044-9.4575 3.4359.46606-4.0287z" style="fill-rule:nonzero;fill:#8f8981"/>
   </g>
  </g>
 </g>
</svg>
