<?xml version="1.0" encoding="UTF-8"?>
<svg id="svg1880" version="1.1" viewBox="0 0 425 204" xmlns="http://www.w3.org/2000/svg" xmlns:cc="http://creativecommons.org/ns#" xmlns:dc="http://purl.org/dc/elements/1.1/" xmlns:rdf="http://www.w3.org/1999/02/22-rdf-syntax-ns#">
 <metadata id="metadata1886">
  <rdf:RDF>
   <cc:Work rdf:about="">
    <dc:format>image/svg+xml</dc:format>
    <dc:type rdf:resource="http://purl.org/dc/dcmitype/StillImage"/>
    <dc:title>images/clean</dc:title>
   </cc:Work>
  </rdf:RDF>
 </metadata>
 <!-- Generator: Sketch 56.3 (81716) - https://sketch.com -->
 <title id="title1802">images/clean</title>
 <desc id="desc1804">Created with Sketch.</desc>
 <g id="08---Smudge-and-Clean" fill="none" fill-rule="evenodd">
  <g id="Group" transform="translate(10 10)">
   <g id="g1950">
    <g id="other" transform="translate(0 45)">
     <rect id="Rectangle-2" width="86" height="33" fill="#EFEFE7" fill-rule="evenodd"/>
     <text id="master" fill="#979797" font-family="Source Code Pro" font-size="12px" font-weight="700" text-anchor="middle"><tspan id="tspan1807" x="43" y="21" fill="#808080">fileA.txt</tspan></text>
    </g>
    <rect id="Rectangle-10" x="138.5" y=".5" width="109" height="142" fill="#D8D8D8" stroke="#979797"/>
    <g id="goldref" transform="translate(300 45)">
     <rect id="Rectangle-3" width="86" height="33" fill="#CD9F00" fill-rule="evenodd"/>
     <text id="master-2" fill="#979797" font-family="Source Code Pro" font-size="12px" font-weight="700" text-anchor="middle"><tspan id="tspan1813" x="43" y="20" fill="#f0f0f0">fileA.txt'</tspan></text>
    </g>
    <g id="g1823" transform="translate(300 98)">
     <rect id="rect1817" width="86" height="33" fill="#CD9F00" fill-rule="evenodd"/>
     <text id="text1821" fill="#979797" font-family="Source Code Pro" font-size="12px" font-weight="700" text-anchor="middle"><tspan id="tspan1819" x="43" y="20" fill="#f0f0f0">fileB.txt'</tspan></text>
    </g>
    <g id="g1831" transform="translate(0 98)">
     <rect id="rect1825" width="86" height="33" fill="#EFEFE7" fill-rule="evenodd"/>
     <text id="text1829" fill="#979797" font-family="Source Code Pro" font-size="12px" font-weight="700" text-anchor="middle"><tspan id="tspan1827" x="43" y="21" fill="#808080">fileB.txt</tspan></text>
    </g>
    <g id="g1839" transform="translate(0 151)">
     <rect id="rect1833" width="86" height="33" fill="#EFEFE7" fill-rule="evenodd"/>
     <text id="text1837" fill="#979797" font-family="Source Code Pro" font-size="12px" font-weight="700" text-anchor="middle"><tspan id="tspan1835" x="43" y="21" fill="#808080">fileC.rb</tspan></text>
    </g>
    <g id="g1847" transform="translate(300 151)">
     <rect id="rect1841" width="86" height="33" fill="#EFEFE7" fill-rule="evenodd"/>
     <text id="text1845" fill="#979797" font-family="Source Code Pro" font-size="12px" font-weight="700" text-anchor="middle"><tspan id="tspan1843" x="43" y="21" fill="#808080">fileC.rb</tspan></text>
    </g>
    <text id="Staging-Area-2" transform="translate(-11.397)" font-size="12px" font-weight="700" style="fill:#404040;font-family:'Source Code Pro';font-size:12px;font-weight:700;text-anchor:middle"><tspan id="tspan1849" x="54.5" y="22" style="fill:#404040">Staging Area</tspan></text>
    <text id="Working-Directory-2" transform="translate(288.9)" font-size="12px" font-weight="700" style="fill:#404040;font-family:'Source Code Pro';font-size:12px;font-weight:700;text-anchor:middle"><tspan id="tspan1852" x="54.5" y="22" style="fill:#404040">Working Directory</tspan></text>
    <text id="*.txt-Filter-2" transform="translate(138.35)" font-size="12px" font-weight="700" style="fill:#404040;font-family:'Source Code Pro';font-size:12px;font-weight:700;text-anchor:middle"><tspan id="tspan1855" x="54.5" y="22" style="fill:#404040">*.txt Filter</tspan></text>
    <g id="ref" transform="translate(150 45)">
     <rect id="rect1858" width="86.187" height="33" fill="#F44D27" fill-rule="evenodd"/>
     <text id="text1862" fill="#979797" font-family="Source Code Pro" font-size="12px" font-weight="700" text-anchor="middle"><tspan id="tspan1860" x="43.09345795" y="20" fill="#f0f0f0">smudge</tspan></text>
    </g>
    <g id="g1871" transform="translate(150 98)">
     <rect id="rect1865" width="86.187" height="33" fill="#F44D27" fill-rule="evenodd"/>
     <text id="text1869" fill="#979797" font-family="Source Code Pro" font-size="12px" font-weight="700" text-anchor="middle"><tspan id="tspan1867" x="43.09345795" y="20" fill="#f0f0f0">clean</tspan></text>
    </g>
    <path id="Line-6" d="m291 169h-204v-1h204v-4l9 4.5-9 4.5v-4z" fill="#8F8981" fill-rule="nonzero"/>
    <path id="Line-7" d="m141 115h-54v-1h54v-4l9 4.5-9 4.5v-4z" fill="#8F8981" fill-rule="nonzero"/>
    <path id="Line-8" d="m291 115h-55v-1h55v-4l9 4.5-9 4.5v-4z" fill="#8F8981" fill-rule="nonzero"/>
    <path id="Line-9" d="m142 61.968c-7.0598.40966-13.566 1.8194-18.723 4.552-6.9044 3.6585-10.749 9.38-10.749 17.577 1e-6 11.618-4.9267 18.264-13.106 20.948-3.9129 1.2838-8.0431 1.5039-11.761 1.1136-.34273-.035977-.64823-.074599-.91288-.11334-.16072-.023524-.27333-.042099-.33421-.053199l-.49189-.08968.17936-.98378.49189.08968c.04961.009045.15072.025724.29968.047526.25147.036806.54351.073727.87246.10826 3.5892.37676 7.5861.16385 11.344-1.0693 7.7731-2.5504 12.418-8.8161 12.418-19.997-1e-6-8.5882 4.0644-14.637 11.281-18.461 5.3218-2.8199 11.983-4.2584 19.199-4.6705l.030499-4.0302 8.9657 4.568-9.0338 4.4318.030024-3.9675z" fill="#8F8981" fill-rule="nonzero"/>
    <path id="Line-10" d="m290.01 106.96c-11.928-2.7066-19.793-9.6708-19.793-22.464 0-9.966-6.2552-16.307-16.763-19.784-3.6099-1.1948-7.4822-1.9602-11.37-2.3799-1.3885-.14986-2.6896-.24512-3.8725-.29644-.74985-.032532-1.3205-.042498-1.6812-.040599l-.019542.0001343-.49997.0051859-.010372-.99995.49997-.0051859.02465-.0001743c.37648-.0019817.96325.008266 1.7299.041525 1.2035.052216 2.5258.14903 3.9364.30128 3.9536.42671 7.8934 1.2055 11.577 2.4247 10.875 3.5992 17.449 10.263 17.449 20.734 0 12.2 7.4474 18.833 18.909 21.464l.4526-3.9124 8.4232 5.5044-9.4575 3.4359.46606-4.0287z" fill="#8F8981" fill-rule="nonzero"/>
   </g>
  </g>
 </g>
</svg>
