<?xml version="1.0" encoding="UTF-8"?>
<svg width="479px" height="356px" viewBox="0 0 479 356" version="1.1" xmlns="http://www.w3.org/2000/svg" xmlns:xlink="http://www.w3.org/1999/xlink">
    <!-- Generator: Sketch 56.3 (81716) - https://sketch.com -->
    <title>images/data-model-3</title>
    <desc>Created with Sketch.</desc>
    <g id="Page-89" stroke="none" stroke-width="1" fill="none" fill-rule="evenodd">
        <path id="Line-2" d="M152,60 L80,60 L80,59 L152,59 L152,55 L161,59.5 L152,64 L152,60 Z" fill="#8F8981" fill-rule="nonzero"></path>
        <path id="Line-6" d="M331,293 L250,293 L250,292 L331,292 L331,288 L340,292.5 L331,297 L331,293 Z" fill="#8F8981" fill-rule="nonzero"></path>
        <path id="Line-10" d="M446,209 L455.12468,209 L455.12468,60 L250,60 L250,59 L456.12468,59 L456.12468,210 L446,210 L446,214 L437,209.5 L446,205 L446,209 Z" fill="#8F8981" fill-rule="nonzero"></path>
        <path id="Line-11" d="M239.101292,320.295033 L260.728487,345.451813 L468.162775,345.451813 L468.162775,18 L265.134997,18 L233.2289,54.5613358 L232.475455,53.9038247 L264.680433,17 L469.162775,17 L469.162775,346.451813 L260.269442,346.451813 L238.342993,320.94694 L235.309797,323.554568 L232.85498,313.796296 L242.134487,317.687405 L239.101292,320.295033 Z" fill="#8F8981" fill-rule="nonzero"></path>
        <path id="Line-7" d="M332.214803,207.536456 L249.877413,182.835239 L250.164761,181.877413 L332.502151,206.57863 L333.651542,202.747325 L340.978913,209.643674 L331.065411,211.367761 L332.214803,207.536456 Z" fill="#8F8981" fill-rule="nonzero"></path>
        <path id="Line-9" d="M331.688881,115.110837 L249.828184,73.7205964 L250.279404,72.8281836 L332.140101,114.218424 L333.944981,110.648773 L339.946206,118.72561 L329.884002,118.680488 L331.688881,115.110837 Z" fill="#8F8981" fill-rule="nonzero"></path>
        <path id="Line-8" d="M331.451935,144.280044 L250.153847,167.116586 L249.883414,166.153847 L331.181502,143.317305 L330.099773,139.466349 L339.981369,141.364784 L332.533664,148.131 L331.451935,144.280044 Z" fill="#8F8981" fill-rule="nonzero"></path>
        <path id="Line-4" d="M61,143 L61,59 L62,59 L62,143 L66,143 L61.5,152 L57,143 L61,143 Z" fill="#8F8981" fill-rule="nonzero"></path>
        <path id="Line-5" d="M61,259 L61,175 L62,175 L62,259 L66,259 L61.5,268 L57,259 L61,259 Z" fill="#8F8981" fill-rule="nonzero"></path>
        <g id="brown" transform="translate(341.000000, 109.000000)">
            <rect id="Rectangle-1" fill="#EFEFE7" x="0" y="0" width="97" height="46" rx="10"></rect>
            <text id="&quot;version-2&quot;" stroke="#979797" font-family="RobotoMono-Regular, Roboto Mono" font-size="12" font-weight="normal" fill="#000000">
                <tspan x="8.89355469" y="29">"version 2"</tspan>
            </text>
            <text id="1f7a7a" stroke="#979797" font-family="RobotoMono-Regular, Roboto Mono" font-size="9" font-weight="normal" fill="#413932">
                <tspan x="10.295166" y="12">1f7a7a</tspan>
            </text>
        </g>
        <g id="brown-4" transform="translate(341.000000, 187.000000)">
            <rect id="Rectangle-1" fill="#EFEFE7" x="0" y="0" width="97" height="46" rx="10"></rect>
            <text id="&quot;new-file&quot;" stroke="#979797" font-family="RobotoMono-Regular, Roboto Mono" font-size="12" font-weight="normal" fill="#000000">
                <tspan x="12.4912109" y="29">"new file"</tspan>
            </text>
            <text id="fa49b0" stroke="#979797" font-family="RobotoMono-Regular, Roboto Mono" font-size="9" font-weight="normal" fill="#413932">
                <tspan x="10.295166" y="12">fa49b0</tspan>
            </text>
        </g>
        <g id="brown-5" transform="translate(341.000000, 271.000000)">
            <rect id="Rectangle-1" fill="#EFEFE7" x="0" y="0" width="97" height="46" rx="10"></rect>
            <text id="&quot;version-1&quot;" stroke="#979797" font-family="RobotoMono-Regular, Roboto Mono" font-size="12" font-weight="normal" fill="#000000">
                <tspan x="8.89355469" y="29">"version 1"</tspan>
            </text>
            <text id="83baae" stroke="#979797" font-family="RobotoMono-Regular, Roboto Mono" font-size="9" font-weight="normal" fill="#413932">
                <tspan x="10.2973633" y="12">83baae</tspan>
            </text>
        </g>
        <g id="Rectangle-6-+-simplegit.rb-2" transform="translate(258.000000, 285.000000)">
            <rect id="Rectangle-6" fill="#FFFFFF" x="0" y="0" width="65" height="15"></rect>
            <text id="test.txt" stroke="#979797" font-family="RobotoMono-Regular, Roboto Mono" font-size="12" font-weight="normal" fill="#000000">
                <tspan x="3.1953125" y="11">test.txt</tspan>
            </text>
        </g>
        <g id="Rectangle-6-+-simplegit.rb-5" transform="translate(258.000000, 147.000000)">
            <rect id="Rectangle-6" fill="#FFFFFF" x="0" y="0" width="65" height="15"></rect>
            <text id="test.txt" stroke="#979797" font-family="RobotoMono-Regular, Roboto Mono" font-size="12" font-weight="normal" fill="#000000">
                <tspan x="3.1953125" y="11">test.txt</tspan>
            </text>
        </g>
        <g id="Rectangle-6-+-simplegit.rb-6" transform="translate(258.000000, 85.000000)">
            <rect id="Rectangle-6" fill="#FFFFFF" x="0" y="0" width="65" height="15"></rect>
            <text id="test.txt" stroke="#979797" font-family="RobotoMono-Regular, Roboto Mono" font-size="12" font-weight="normal" fill="#000000">
                <tspan x="3.1953125" y="11">test.txt</tspan>
            </text>
        </g>
        <g id="Rectangle-6-+-simplegit.rb-4" transform="translate(264.000000, 52.000000)">
            <rect id="Rectangle-6" fill="#FFFFFF" x="0" y="0" width="53" height="15"></rect>
            <text id="new.txt" stroke="#979797" font-family="RobotoMono-Regular, Roboto Mono" font-size="12" font-weight="normal" fill="#000000">
                <tspan x="0.795898438" y="11">new.txt</tspan>
            </text>
        </g>
        <g id="Rectangle-6-+-simplegit.rb-7" transform="translate(264.000000, 187.000000)">
            <rect id="Rectangle-6" fill="#FFFFFF" x="0" y="0" width="53" height="15"></rect>
            <text id="new.txt" stroke="#979797" font-family="RobotoMono-Regular, Roboto Mono" font-size="12" font-weight="normal" fill="#000000">
                <tspan x="0.795898438" y="11">new.txt</tspan>
            </text>
        </g>
        <g id="Rectangle-6-+-simplegit.rb-3" transform="translate(274.000000, 10.000000)">
            <rect id="Rectangle-6" fill="#FFFFFF" x="0" y="0" width="34" height="15"></rect>
            <text id="bak" stroke="#979797" font-family="RobotoMono-Regular, Roboto Mono" font-size="12" font-weight="normal" fill="#000000">
                <tspan x="6.19824219" y="11">bak</tspan>
            </text>
        </g>
        <g id="brown-2" transform="translate(161.000000, 36.000000)">
            <rect id="Rectangle-1" fill="#159099" x="0" y="0" width="89" height="46" rx="10"></rect>
            <text id="tree" stroke="#979797" font-family="RobotoMono-Regular, Roboto Mono" font-size="12" font-weight="normal" fill="#FFFFFF">
                <tspan x="30.0976563" y="29">tree</tspan>
            </text>
            <text id="3c4e9c" stroke="#979797" font-family="RobotoMono-Regular, Roboto Mono" font-size="9" font-weight="normal" fill="#FFFFFF">
                <tspan x="6.29736328" y="12">3c4e9c</tspan>
            </text>
        </g>
        <g id="brown-6" transform="translate(0.000000, 36.000000)">
            <rect id="Rectangle-1" fill="#CD9F00" x="0" y="0" width="120" height="46" rx="10"></rect>
            <text id="third-commit" stroke="#979797" font-family="RobotoMono-Regular, Roboto Mono" font-size="12" font-weight="normal" fill="#FFFFFF">
                <tspan x="16.1338778" y="28">third commit</tspan>
            </text>
            <text id="1a410e" stroke="#979797" font-family="RobotoMono-Regular, Roboto Mono" font-size="9" font-weight="normal" fill="#FFFFFF">
                <tspan x="8.29736328" y="13">1a410e</tspan>
            </text>
        </g>
        <path id="Line-3" d="M152,176 L80,176 L80,175 L152,175 L152,171 L161,175.5 L152,180 L152,176 Z" fill="#8F8981" fill-rule="nonzero"></path>
        <g id="brown-8" transform="translate(0.000000, 152.000000)">
            <rect id="Rectangle-1" fill="#CD9F00" x="0" y="0" width="120" height="46" rx="10"></rect>
            <text id="second-commit" stroke="#979797" font-family="RobotoMono-Regular, Roboto Mono" font-size="12" font-weight="normal" fill="#FFFFFF">
                <tspan x="12.5332919" y="28">second commit</tspan>
            </text>
            <text id="cac0ca" stroke="#979797" font-family="RobotoMono-Regular, Roboto Mono" font-size="9" font-weight="normal" fill="#FFFFFF">
                <tspan x="8.29736328" y="13">cac0ca</tspan>
            </text>
        </g>
        <path id="Line-3" d="M152,292 L80,292 L80,291 L152,291 L152,287 L161,291.5 L152,296 L152,292 Z" fill="#8F8981" fill-rule="nonzero"></path>
        <g id="brown-8" transform="translate(0.000000, 268.000000)">
            <rect id="Rectangle-1" fill="#CD9F00" x="0" y="0" width="120" height="46" rx="10"></rect>
            <text id="first-commit" stroke="#979797" font-family="RobotoMono-Regular, Roboto Mono" font-size="12" font-weight="normal" fill="#FFFFFF">
                <tspan x="16.1309482" y="28">first commit</tspan>
            </text>
            <text id="fdf4fc" stroke="#979797" font-family="RobotoMono-Regular, Roboto Mono" font-size="9" font-weight="normal" fill="#FFFFFF">
                <tspan x="8.29077148" y="13">fdf4fc</tspan>
            </text>
        </g>
        <g id="brown-3" transform="translate(161.000000, 152.000000)">
            <rect id="Rectangle-1" fill="#159099" x="0" y="0" width="89" height="46" rx="10"></rect>
            <text id="tree" stroke="#979797" font-family="RobotoMono-Regular, Roboto Mono" font-size="12" font-weight="normal" fill="#FFFFFF">
                <tspan x="30.0976563" y="28">tree</tspan>
            </text>
            <text id="0155eb" stroke="#979797" font-family="RobotoMono-Regular, Roboto Mono" font-size="9" font-weight="normal" fill="#FFFFFF">
                <tspan x="6.29736328" y="12">0155eb</tspan>
            </text>
        </g>
        <g id="brown-7" transform="translate(161.000000, 268.000000)">
            <rect id="Rectangle-1" fill="#159099" x="0" y="0" width="89" height="46" rx="10"></rect>
            <text id="tree" stroke="#979797" font-family="RobotoMono-Regular, Roboto Mono" font-size="12" font-weight="normal" fill="#FFFFFF">
                <tspan x="30.0976563" y="28">tree</tspan>
            </text>
            <text id="d8329f" stroke="#979797" font-family="RobotoMono-Regular, Roboto Mono" font-size="9" font-weight="normal" fill="#FFFFFF">
                <tspan x="6.29516602" y="12">d8329f</tspan>
            </text>
        </g>
    </g>
</svg>