<?xml version="1.0"?>
<svg xmlns="http://www.w3.org/2000/svg" xmlns:xlink="http://www.w3.org/1999/xlink" width="673px" height="356px" viewBox="0 0 673 356" version="1.1">
    <!-- Generator: Sketch 56.3 (81716) - https://sketch.com -->
    <title>images/data-model-4</title>
    <desc>Created with Sketch.</desc>
    <g id="Page-89" stroke="none" stroke-width="1" fill="none" fill-rule="evenodd">
        <path id="Line-2" d="M346,60 L274,60 L274,59 L346,59 L346,55 L355,59.5 L346,64 L346,60 Z" fill="#8F8981" fill-rule="nonzero"/>
        <path id="Line-6" d="M525,293 L444,293 L444,292 L525,292 L525,288 L534,292.5 L525,297 L525,293 Z" fill="#8F8981" fill-rule="nonzero"/>
        <path id="Line-10" d="M640,209 L649.12468,209 L649.12468,60 L444,60 L444,59 L650.12468,59 L650.12468,210 L640,210 L640,214 L631,209.5 L640,205 L640,209 Z" fill="#8F8981" fill-rule="nonzero"/>
        <path id="Line-11" d="M433.101292,320.295033 L454.728487,345.451813 L662.162775,345.451813 L662.162775,18 L459.134997,18 L427.2289,54.5613358 L426.475455,53.9038247 L458.680433,17 L663.162775,17 L663.162775,346.451813 L454.269442,346.451813 L432.342993,320.94694 L429.309797,323.554568 L426.85498,313.796296 L436.134487,317.687405 L433.101292,320.295033 Z" fill="#8F8981" fill-rule="nonzero"/>
        <path id="Line-7" d="M526.214803,207.536456 L443.877413,182.835239 L444.164761,181.877413 L526.502151,206.57863 L527.651542,202.747325 L534.978913,209.643674 L525.065411,211.367761 L526.214803,207.536456 Z" fill="#8F8981" fill-rule="nonzero"/>
        <path id="Line-9" d="M525.688881,115.110837 L443.828184,73.7205964 L444.279404,72.8281836 L526.140101,114.218424 L527.944981,110.648773 L533.946206,118.72561 L523.884002,118.680488 L525.688881,115.110837 Z" fill="#8F8981" fill-rule="nonzero"/>
        <path id="Line-8" d="M525.451935,144.280044 L444.153847,167.116586 L443.883414,166.153847 L525.181502,143.317305 L524.099773,139.466349 L533.981369,141.364784 L526.533664,148.131 L525.451935,144.280044 Z" fill="#8F8981" fill-rule="nonzero"/>
        <path id="Line-4" d="M255,143 L255,59 L256,59 L256,143 L260,143 L255.5,152 L251,143 L255,143 Z" fill="#8F8981" fill-rule="nonzero"/>
        <path id="Line-5" d="M255,259 L255,175 L256,175 L256,259 L260,259 L255.5,268 L251,259 L255,259 Z" fill="#8F8981" fill-rule="nonzero"/>
        <g id="brown" transform="translate(535.000000, 109.000000)">
            <rect id="Rectangle-1" fill="#EFEFE7" x="0" y="0" width="97" height="46" rx="10"/>
            <text stroke="#979797" stroke-width="0" font-family="Source Code Pro" font-size="12px" font-weight="900" fill="#979797" fill-opacity="1" text-anchor="middle" id="&quot;version-2&quot;">
                <tspan x="48.5" y="29">"version 2"</tspan>
            </text>
            <text stroke="#979797" stroke-width="0" font-family="Source Code Pro" font-size="12px" font-weight="900" fill="#979797" fill-opacity="1" text-anchor="middle" id="1f7a7a">
                <tspan x="48.5" y="12">1f7a7a</tspan>
            </text>
        </g>
        <g id="brown-4" transform="translate(535.000000, 187.000000)">
            <rect id="Rectangle-1" fill="#EFEFE7" x="0" y="0" width="97" height="46" rx="10"/>
            <text stroke="#979797" stroke-width="0" font-family="Source Code Pro" font-size="12px" font-weight="900" fill="#979797" fill-opacity="1" text-anchor="middle" id="&quot;new-file&quot;">
                <tspan x="48.5" y="29">"new file"</tspan>
            </text>
            <text stroke="#979797" stroke-width="0" font-family="Source Code Pro" font-size="12px" font-weight="900" fill="#979797" fill-opacity="1" text-anchor="middle" id="fa49b0">
                <tspan x="48.5" y="12">fa49b0</tspan>
            </text>
        </g>
        <g id="brown-5" transform="translate(535.000000, 271.000000)">
            <rect id="Rectangle-1" fill="#EFEFE7" x="0" y="0" width="97" height="46" rx="10"/>
            <text stroke="#979797" stroke-width="0" font-family="Source Code Pro" font-size="12px" font-weight="900" fill="#979797" fill-opacity="1" text-anchor="middle" id="&quot;version-1&quot;">
                <tspan x="48.5" y="29">"version 1"</tspan>
            </text>
            <text stroke="#979797" stroke-width="0" font-family="Source Code Pro" font-size="12px" font-weight="900" fill="#979797" fill-opacity="1" text-anchor="middle" id="83baae">
                <tspan x="48.5" y="12">83baae</tspan>
            </text>
        </g>
        <g id="Rectangle-6-+-simplegit.rb-2" transform="translate(452.000000, 285.000000)">
            <rect id="Rectangle-6" fill="#FFFFFF" x="0" y="0" width="65" height="15"/>
            <text stroke="#979797" stroke-width="0" font-family="Source Code Pro" font-size="12px" font-weight="900" fill="#979797" fill-opacity="1" text-anchor="middle" id="test.txt">
                <tspan x="32.5" y="11">test.txt</tspan>
            </text>
        </g>
        <g id="Rectangle-6-+-simplegit.rb-5" transform="translate(452.000000, 147.000000)">
            <rect id="Rectangle-6" fill="#FFFFFF" x="0" y="0" width="65" height="15"/>
            <text stroke="#979797" stroke-width="0" font-family="Source Code Pro" font-size="12px" font-weight="900" fill="#979797" fill-opacity="1" text-anchor="middle" id="test.txt">
                <tspan x="32.5" y="11">test.txt</tspan>
            </text>
        </g>
        <g id="Rectangle-6-+-simplegit.rb-6" transform="translate(452.000000, 85.000000)">
            <rect id="Rectangle-6" fill="#FFFFFF" x="0" y="0" width="65" height="15"/>
            <text stroke="#979797" stroke-width="0" font-family="Source Code Pro" font-size="12px" font-weight="900" fill="#979797" fill-opacity="1" text-anchor="middle" id="test.txt">
                <tspan x="32.5" y="11">test.txt</tspan>
            </text>
        </g>
        <g id="Rectangle-6-+-simplegit.rb-4" transform="translate(458.000000, 52.000000)">
            <rect id="Rectangle-6" fill="#FFFFFF" x="0" y="0" width="53" height="15"/>
            <text stroke="#979797" stroke-width="0" font-family="Source Code Pro" font-size="12px" font-weight="900" fill="#979797" fill-opacity="1" text-anchor="middle" id="new.txt">
                <tspan x="26.5" y="11">new.txt</tspan>
            </text>
        </g>
        <g id="Rectangle-6-+-simplegit.rb-7" transform="translate(458.000000, 187.000000)">
            <rect id="Rectangle-6" fill="#FFFFFF" x="0" y="0" width="53" height="15"/>
            <text stroke="#979797" stroke-width="0" font-family="Source Code Pro" font-size="12px" font-weight="900" fill="#979797" fill-opacity="1" text-anchor="middle" id="new.txt">
                <tspan x="26.5" y="11">new.txt</tspan>
            </text>
        </g>
        <g id="Rectangle-6-+-simplegit.rb-3" transform="translate(468.000000, 10.000000)">
            <rect id="Rectangle-6" fill="#FFFFFF" x="0" y="0" width="34" height="15"/>
            <text stroke="#979797" stroke-width="0" font-family="Source Code Pro" font-size="12px" font-weight="900" fill="#979797" fill-opacity="1" text-anchor="middle" id="bak">
                <tspan x="17" y="11">bak</tspan>
            </text>
        </g>
        <g id="brown-2" transform="translate(355.000000, 36.000000)">
            <rect id="Rectangle-1" fill="#159099" x="0" y="0" width="89" height="46" rx="10"/>
            <text stroke="#979797" stroke-width="0" font-family="Source Code Pro" font-size="12px" font-weight="900" fill="#979797" fill-opacity="1" text-anchor="middle" id="tree">
                <tspan x="44.5" y="29">tree</tspan>
            </text>
            <text stroke="#979797" stroke-width="0" font-family="Source Code Pro" font-size="12px" font-weight="900" fill="#979797" fill-opacity="1" text-anchor="middle" id="3c4e9c">
                <tspan x="44.5" y="12">3c4e9c</tspan>
            </text>
        </g>
        <g id="brown-6" transform="translate(194.000000, 36.000000)">
            <rect id="Rectangle-1" fill="#CD9F00" x="0" y="0" width="120" height="46" rx="10"/>
            <text stroke="#979797" stroke-width="0" font-family="Source Code Pro" font-size="12px" font-weight="900" fill="#979797" fill-opacity="1" text-anchor="middle" id="third-commit">
                <tspan x="60" y="28">third commit</tspan>
            </text>
            <text stroke="#979797" stroke-width="0" font-family="Source Code Pro" font-size="12px" font-weight="900" fill="#979797" fill-opacity="1" text-anchor="middle" id="1a410e">
                <tspan x="60" y="13">1a410e</tspan>
            </text>
        </g>
        <path id="Line-3" d="M346,176 L274,176 L274,175 L346,175 L346,171 L355,175.5 L346,180 L346,176 Z" fill="#8F8981" fill-rule="nonzero"/>
        <g id="brown-8" transform="translate(194.000000, 152.000000)">
            <rect id="Rectangle-1" fill="#CD9F00" x="0" y="0" width="120" height="46" rx="10"/>
            <text stroke="#979797" stroke-width="0" font-family="Source Code Pro" font-size="12px" font-weight="900" fill="#979797" fill-opacity="1" text-anchor="middle" id="second-commit">
                <tspan x="60" y="28">second commit</tspan>
            </text>
            <text stroke="#979797" stroke-width="0" font-family="Source Code Pro" font-size="12px" font-weight="900" fill="#979797" fill-opacity="1" text-anchor="middle" id="cac0ca">
                <tspan x="60" y="13">cac0ca</tspan>
            </text>
        </g>
        <path id="Line-3" d="M346,292 L274,292 L274,291 L346,291 L346,287 L355,291.5 L346,296 L346,292 Z" fill="#8F8981" fill-rule="nonzero"/>
        <g id="brown-8" transform="translate(194.000000, 268.000000)">
            <rect id="Rectangle-1" fill="#CD9F00" x="0" y="0" width="120" height="46" rx="10"/>
            <text stroke="#979797" stroke-width="0" font-family="Source Code Pro" font-size="12px" font-weight="900" fill="#979797" fill-opacity="1" text-anchor="middle" id="first-commit">
                <tspan x="60" y="28">first commit</tspan>
            </text>
            <text stroke="#979797" stroke-width="0" font-family="Source Code Pro" font-size="12px" font-weight="900" fill="#979797" fill-opacity="1" text-anchor="middle" id="fdf4fc">
                <tspan x="60" y="13">fdf4fc</tspan>
            </text>
        </g>
        <g id="Line-12-+-brown-9" transform="translate(10.000000, 152.000000)">
            <path id="Line-12" d="M175,24 L103,24 L103,23 L175,23 L175,19 L184,23.5 L175,28 L175,24 Z" fill="#8F8981" fill-rule="nonzero"/>
            <g id="brown-9">
                <rect id="Rectangle-1" fill="#F44D27" x="0" y="0" width="139" height="46" rx="10"/>
                <text stroke="#979797" stroke-width="0" font-family="Source Code Pro" font-size="12px" font-weight="900" fill="#979797" fill-opacity="1" text-anchor="middle" id="refs/heads/test">
                    <tspan x="69.5" y="27">refs/heads/test</tspan>
                </text>
            </g>
        </g>
        <g id="Line-12-+-brown-10" transform="translate(10.000000, 36.000000)">
            <path id="Line-12" d="M175,24 L103,24 L103,23 L175,23 L175,19 L184,23.5 L175,28 L175,24 Z" fill="#8F8981" fill-rule="nonzero"/>
            <g id="brown-9">
                <rect id="Rectangle-1" fill="#F44D27" x="0" y="0" width="139" height="46" rx="10"/>
                <text stroke="#979797" stroke-width="0" font-family="Source Code Pro" font-size="12px" font-weight="900" fill="#979797" fill-opacity="1" text-anchor="middle" id="refs/heads/master">
                    <tspan x="69.5" y="27">refs/heads/master</tspan>
                </text>
            </g>
        </g>
        <g id="brown-3" transform="translate(355.000000, 152.000000)">
            <rect id="Rectangle-1" fill="#159099" x="0" y="0" width="89" height="46" rx="10"/>
            <text stroke="#979797" stroke-width="0" font-family="Source Code Pro" font-size="12px" font-weight="900" fill="#979797" fill-opacity="1" text-anchor="middle" id="tree">
                <tspan x="44.5" y="28">tree</tspan>
            </text>
            <text stroke="#979797" stroke-width="0" font-family="Source Code Pro" font-size="12px" font-weight="900" fill="#979797" fill-opacity="1" text-anchor="middle" id="0155eb">
                <tspan x="44.5" y="12">0155eb</tspan>
            </text>
        </g>
        <g id="brown-7" transform="translate(355.000000, 268.000000)">
            <rect id="Rectangle-1" fill="#159099" x="0" y="0" width="89" height="46" rx="10"/>
            <text stroke="#979797" stroke-width="0" font-family="Source Code Pro" font-size="12px" font-weight="900" fill="#979797" fill-opacity="1" text-anchor="middle" id="tree">
                <tspan x="44.5" y="28">tree</tspan>
            </text>
            <text stroke="#979797" stroke-width="0" font-family="Source Code Pro" font-size="12px" font-weight="900" fill="#979797" fill-opacity="1" text-anchor="middle" id="d8329f">
                <tspan x="44.5" y="12">d8329f</tspan>
            </text>
        </g>
    </g>
</svg>
