<?xml version="1.0"?>
<svg xmlns="http://www.w3.org/2000/svg" xmlns:xlink="http://www.w3.org/1999/xlink" width="344px" height="255px" viewBox="0 0 344 255" version="1.1">
    <!-- Generator: Sketch 56.3 (81716) - https://sketch.com -->
    <title>images/data-model-1</title>
    <desc>Created with Sketch.</desc>
    <g id="11---Data-Model-1" stroke="none" stroke-width="1" fill="none" fill-rule="evenodd">
        <g id="brown" transform="translate(125.000000, 109.000000)">
            <rect id="Rectangle-1" fill="#EFEFE7" x="0" y="0" width="97" height="46" rx="10"/>
            <text stroke="none" font-family="Source Code Pro" font-size="12px" font-weight="900" fill="#979797" fill-opacity="1" text-anchor="middle" id="blob">
                <tspan x="48.5" y="29">blob</tspan>
            </text>
        </g>
        <g id="brown-4" transform="translate(10.000000, 109.000000)">
            <rect id="Rectangle-1" fill="#EFEFE7" x="0" y="0" width="97" height="46" rx="10"/>
            <text stroke="none" font-family="Source Code Pro" font-size="12px" font-weight="900" fill="#979797" fill-opacity="1" text-anchor="middle" id="blob">
                <tspan x="48.5" y="29">blob</tspan>
            </text>
        </g>
        <g id="brown-5" transform="translate(237.000000, 199.000000)">
            <rect id="Rectangle-1" fill="#EFEFE7" x="0" y="0" width="97" height="46" rx="10"/>
            <text stroke="none" font-family="Source Code Pro" font-size="12px" font-weight="900" fill="#979797" fill-opacity="1" text-anchor="middle" id="blob">
                <tspan x="48.5" y="29">blob</tspan>
            </text>
        </g>
        <path id="Line" d="M76.4571423,102.416214 L146.534096,38.7937158 L147.206284,39.5340965 L77.12933,103.156594 L79.8180811,106.118117 L70.1298096,108.836094 L73.7683912,99.4546908 L76.4571423,102.416214 Z" fill="#8F8981" fill-rule="nonzero"/>
        <path id="Line-3" d="M205.457142,99.4162137 L275.534096,35.7937158 L276.206284,36.5340965 L206.12933,100.156594 L208.818081,103.118117 L199.12981,105.836094 L202.768391,96.4546908 L205.457142,99.4162137 Z" fill="#8F8981" fill-rule="nonzero"/>
        <path id="Line-2" d="M173,100 L173,40 L174,40 L174,100 L178,100 L173.5,109 L169,100 L173,100 Z" fill="#8F8981" fill-rule="nonzero"/>
        <path id="Line-4" d="M285,190 L285,130 L286,130 L286,190 L290,190 L285.5,199 L281,190 L285,190 Z" fill="#8F8981" fill-rule="nonzero"/>
        <g id="Rectangle-6-+-simplegit.rb" transform="translate(239.000000, 162.000000)">
            <rect id="Rectangle-6" fill="#FFFFFF" x="0" y="0" width="94" height="15"/>
            <text stroke="none" font-family="Source Code Pro" font-size="12px" font-weight="900" fill="#979797" fill-opacity="1" text-anchor="middle" id="simplegit.rb">
                <tspan x="47" y="11">simplegit.rb</tspan>
            </text>
        </g>
        <g id="Rectangle-6-+-simplegit.rb-2" transform="translate(126.000000, 68.000000)">
            <rect id="Rectangle-6" fill="#FFFFFF" x="0" y="0" width="94" height="15"/>
            <text stroke="none" font-family="Source Code Pro" font-size="12px" font-weight="900" fill="#979797" fill-opacity="1" text-anchor="middle" id="Rakefile">
                <tspan x="47" y="11">Rakefile</tspan>
            </text>
        </g>
        <g id="Rectangle-6-+-simplegit.rb-4" transform="translate(81.000000, 68.000000)">
            <rect id="Rectangle-6" fill="#FFFFFF" x="0" y="0" width="53" height="15"/>
            <text stroke="none" font-family="Source Code Pro" font-size="12px" font-weight="900" fill="#979797" fill-opacity="1" text-anchor="middle" id="README">
                <tspan x="26.5" y="11">README</tspan>
            </text>
        </g>
        <g id="Rectangle-6-+-simplegit.rb-3" transform="translate(224.000000, 68.000000)">
            <rect id="Rectangle-6" fill="#FFFFFF" x="0" y="0" width="34" height="15"/>
            <text stroke="none" font-family="Source Code Pro" font-size="12px" font-weight="900" fill="#979797" fill-opacity="1" text-anchor="middle" id="lib">
                <tspan x="17" y="11">lib</tspan>
            </text>
        </g>
        <g id="brown-2" transform="translate(129.000000, 10.000000)">
            <rect id="Rectangle-1" fill="#159099" x="0" y="0" width="89" height="46" rx="10"/>
            <text stroke="none" font-family="Source Code Pro" font-size="12px" font-weight="900" fill="#979797" fill-opacity="1" text-anchor="middle" id="tree">
                <tspan x="44.5" y="29">tree</tspan>
            </text>
        </g>
        <g id="brown-3" transform="translate(241.000000, 106.000000)">
            <rect id="Rectangle-1" fill="#159099" x="0" y="0" width="89" height="46" rx="10"/>
            <text stroke="none" font-family="Source Code Pro" font-size="12px" font-weight="900" fill="#979797" fill-opacity="1" text-anchor="middle" id="tree">
                <tspan x="44.5" y="28">tree</tspan>
            </text>
        </g>
    </g>
</svg>
