<?xml version="1.0" encoding="UTF-8"?>
<svg id="svg2972" version="1.1" viewBox="0 0 344 255" xmlns="http://www.w3.org/2000/svg" xmlns:cc="http://creativecommons.org/ns#" xmlns:dc="http://purl.org/dc/elements/1.1/" xmlns:rdf="http://www.w3.org/1999/02/22-rdf-syntax-ns#">
 <metadata id="metadata2978">
  <rdf:RDF>
   <cc:Work rdf:about="">
    <dc:format>image/svg+xml</dc:format>
    <dc:type rdf:resource="http://purl.org/dc/dcmitype/StillImage"/>
    <dc:title>images/data-model-1</dc:title>
   </cc:Work>
  </rdf:RDF>
 </metadata>
 <!-- Generator: Sketch 56.3 (81716) - https://sketch.com -->
 <title id="title2908">images/data-model-1</title>
 <desc id="desc2910">Created with Sketch.</desc>
 <g id="11---Data-Model-1" fill="none" fill-rule="evenodd">
  <g id="brown" transform="translate(125 109)">
   <rect id="Rectangle-1" width="97" height="46" rx="10" fill="#EFEFE7"/>
   <text id="blob" transform="translate(0,-1.866)" font-size="12px" font-weight="700" style="fill:#979797;font-family:'Source Code Pro';font-size:12px;font-weight:700;text-anchor:middle"><tspan id="tspan2913" x="48.5" y="29" style="fill:gray">blob</tspan></text>
  </g>
  <g id="brown-4" transform="translate(10 109)">
   <rect id="rect2917" width="97" height="46" rx="10" fill="#EFEFE7"/>
   <text id="text2921" transform="translate(0,-1.866)" font-size="12px" font-weight="700" style="fill:#979797;font-family:'Source Code Pro';font-size:12px;font-weight:700;text-anchor:middle"><tspan id="tspan2919" x="48.5" y="29" style="fill:gray">blob</tspan></text>
  </g>
  <g id="brown-5" transform="translate(237 199)">
   <rect id="rect2924" width="97" height="46" rx="10" fill="#EFEFE7"/>
   <text id="text2928" transform="translate(0,-1.866)" font-size="12px" font-weight="700" style="fill:#979797;font-family:'Source Code Pro';font-size:12px;font-weight:700;text-anchor:middle"><tspan id="tspan2926" x="48.5" y="29" style="fill:gray">blob</tspan></text>
  </g>
  <path id="Line" d="m76.457 102.42 70.077-63.622.67219.74038-70.077 63.622 2.6888 2.9615-9.6883 2.718 3.6386-9.3814 2.6888 2.9615z" fill="#8F8981" fill-rule="nonzero"/>
  <path id="Line-3" transform="matrix(-1 0 0 1 475.34 0)" d="m205.46 99.416 70.077-63.622.67218.74038-70.077 63.622 2.6888 2.9615-9.6883 2.718 3.6386-9.3814z" style="fill-rule:nonzero;fill:#8f8981"/>
  <path id="Line-2" d="m173 100v-60h1v60h4l-4.5 9-4.5-9h4z" fill="#8F8981" fill-rule="nonzero"/>
  <path id="Line-4" d="m285 190v-60h1v60h4l-4.5 9-4.5-9h4z" fill="#8F8981" fill-rule="nonzero"/>
  <g id="Rectangle-6-+-simplegit.rb" transform="translate(239 162)">
   <rect id="Rectangle-6" width="94" height="15" fill="#FFFFFF"/>
   <text id="simplegit.rb" fill="#979797" font-family="Source Code Pro" font-size="12px" font-weight="700" text-anchor="middle" style="fill:#404040"><tspan id="tspan2936" x="47" y="11" fill="#808080" style="fill:#404040">simplegit.rb</tspan></text>
  </g>
  <g id="Rectangle-6-+-simplegit.rb-2" transform="translate(126,71.1)">
   <rect id="rect2940" width="94" height="15" style="fill:white"/>
   <text id="Rakefile" font-size="12px" font-weight="700" style="fill:#404040;font-family:'Source Code Pro';font-size:12px;font-weight:700;text-anchor:middle"><tspan id="tspan2942" x="47" y="11" style="fill:#404040">Rakefile</tspan></text>
  </g>
  <g id="Rectangle-6-+-simplegit.rb-4" transform="translate(68.3,71.1)">
   <rect id="rect2946" width="53" height="15" style="fill:white"/>
   <text id="README" font-size="12px" font-weight="700" style="fill:#404040;font-family:'Source Code Pro';font-size:12px;font-weight:700;text-anchor:middle"><tspan id="tspan2948" x="26.5" y="11" style="fill:#404040">README</tspan></text>
  </g>
  <g id="Rectangle-6-+-simplegit.rb-3" transform="translate(228.8,71.1)">
   <rect id="rect2952" width="34" height="15" style="fill:white"/>
   <text id="lib" font-size="12px" font-weight="700" style="fill:#404040;font-family:'Source Code Pro';font-size:12px;font-weight:700;text-anchor:middle"><tspan id="tspan2954" x="17" y="11" style="fill:#404040">lib</tspan></text>
  </g>
  <g id="brown-2" transform="translate(129 10)">
   <rect id="rect2958" width="89" height="46" rx="10" fill="#159099"/>
   <text id="tree" transform="translate(.021656 -2.184)" font-size="12px" font-weight="700" style="fill:#f0f0f0;font-family:'Source Code Pro';font-size:12px;font-weight:700;text-anchor:middle"><tspan id="tspan2960" x="44.5" y="29" style="fill:#f0f0f0">tree</tspan></text>
  </g>
  <g id="brown-3" transform="translate(241 106)">
   <rect id="rect2964" width="89" height="46" rx="10" fill="#159099"/>
   <text id="text2968" transform="translate(.021656 -1.184)" font-size="12px" font-weight="700" style="fill:#f0f0f0;font-family:'Source Code Pro';font-size:12px;font-weight:700;text-anchor:middle"><tspan id="tspan2966" x="44.5" y="28" style="fill:#f0f0f0">tree</tspan></text>
  </g>
 </g>
</svg>
