<?xml version="1.0"?>
<svg xmlns="http://www.w3.org/2000/svg" xmlns:cc="http://creativecommons.org/ns#" xmlns:dc="http://purl.org/dc/elements/1.1/" xmlns:rdf="http://www.w3.org/1999/02/22-rdf-syntax-ns#" width="471px" height="564px" version="1.1" viewBox="0 0 471 564">
 <metadata>
  <rdf:RDF>
   <cc:Work rdf:about="">
    <dc:format>image/svg+xml</dc:format>
    <dc:type rdf:resource="http://purl.org/dc/dcmitype/StillImage"/>
    <dc:title>images/distributed</dc:title>
   </cc:Work>
  </rdf:RDF>
 </metadata>
 <title>images/distributed</title>
 <desc>Created with Sketch.</desc>
 <g fill-rule="evenodd">
  <rect x="155.5" y="8.5" width="160" height="203" fill="#d8d8d8" stroke="#979797"/>
  <rect x="163.5" y="45.5" width="143" height="159" fill="white" stroke="#979797"/>
  <text transform="translate(155.77)" fill="#4d4d4d" font-family="'Source Code Pro'" font-size="12px" font-weight="700" text-anchor="middle"><tspan fill="#808080" x="80" y="67" fill-opacity="1">Version Database</tspan></text>
 </g>
 <g fill="none" fill-rule="evenodd">
  <g id="brown" transform="translate(191,77)">
   <rect width="89" height="33" rx="16.5" fill="#efefe7" fill-rule="evenodd"/>
   <text fill="#979797" font-family="'Source Code Pro'" font-size="12px" font-weight="700" text-anchor="middle"><tspan fill="#808080" x="44.5" y="21" fill-opacity="1">Version 3</tspan></text>
  </g>
  <g transform="translate(191,119)">
   <rect width="89" height="33" rx="16.5" fill="#efefe7" fill-rule="evenodd"/>
   <text fill="#979797" font-family="'Source Code Pro'" font-size="12px" font-weight="700" text-anchor="middle"><tspan fill="#808080" x="44.5" y="21" fill-opacity="1">Version 2</tspan></text>
  </g>
  <g transform="translate(191,161)">
   <rect width="89" height="33" rx="16.5" fill="#efefe7" fill-rule="evenodd"/>
   <text fill="#979797" font-family="'Source Code Pro'" font-size="12px" font-weight="700" text-anchor="middle"><tspan fill="#808080" x="44.5" y="21" fill-opacity="1">Version 1</tspan></text>
  </g>
 </g>
 <g fill-rule="evenodd">
  <path d="m235.5 110.5v8" fill="#8f8981" stroke="#8f8981" stroke-linecap="square"/>
  <path d="m235.5 152.5v8" fill="#8f8981" stroke="#8f8981" stroke-linecap="square"/>
  <text id="Server-Computer" transform="translate(155.52)" fill="#4d4d4d" font-family="'Source Code Pro'" font-size="12px" font-weight="700" text-anchor="middle"><tspan fill="#808080" x="80" y="32" fill-opacity="1">Server Computer</tspan></text>
  <rect transform="translate(9,301)" x=".5" y=".5" width="160" height="253" fill="#d8d8d8" stroke="#979797"/>
  <rect transform="translate(17,388)" x=".5" y=".5" width="143" height="159" fill="white" stroke="#979797"/>
  <text transform="translate(17,388)" fill="#4d4d4d" font-family="'Source Code Pro'" font-size="12px" font-weight="700" text-anchor="middle"><tspan fill="#808080" x="71.5" y="22" fill-opacity="1">Version Database</tspan></text>
 </g>
 <g fill="none" fill-rule="evenodd">
  <g transform="translate(45,420)">
   <rect width="89" height="33" rx="16.5" fill="#efefe7" fill-rule="evenodd"/>
   <text fill="#979797" font-family="'Source Code Pro'" font-size="12px" font-weight="700" text-anchor="middle"><tspan fill="#808080" x="44.5" y="21" fill-opacity="1">Version 3</tspan></text>
  </g>
  <g transform="translate(45,462)">
   <rect width="89" height="33" rx="16.5" fill="#efefe7" fill-rule="evenodd"/>
   <text fill="#979797" font-family="'Source Code Pro'" font-size="12px" font-weight="700" text-anchor="middle"><tspan fill="#808080" x="44.5" y="21" fill-opacity="1">Version 2</tspan></text>
  </g>
  <g transform="translate(45,504)">
   <rect width="89" height="33" rx="16.5" fill="#efefe7" fill-rule="evenodd"/>
   <text fill="#979797" font-family="'Source Code Pro'" font-size="12px" font-weight="700" text-anchor="middle"><tspan fill="#808080" x="44.5" y="21" fill-opacity="1">Version 1</tspan></text>
  </g>
 </g>
 <g fill-rule="evenodd">
  <g>
   <path transform="translate(17,388)" d="m72.5 65.5v8" fill="#8f8981" stroke="#8f8981" stroke-linecap="square"/>
   <path transform="translate(17,388)" d="m72.5 107.5v8" fill="#8f8981" stroke="#8f8981" stroke-linecap="square"/>
   <text id="Computer-A" transform="translate(9.1977 301)" fill="#4d4d4d" font-family="'Source Code Pro'" font-size="12px" font-weight="700" text-anchor="middle"><tspan fill="#f0f0f0" x="80" y="22" fill-opacity="1">Computer A</tspan></text>
  </g>
  <rect transform="translate(45,332)" width="89" height="33" rx="16.5" fill="#00909a"/>
  <text id="tree" transform="translate(45,332)" fill="white" fill-opacity=".8" font-family="'Source Code Pro'" font-size="12px" font-weight="700" text-anchor="middle"><tspan fill="#f0f0f0" x="44.5" y="20" fill-opacity="1">File</tspan></text>
 </g>
 <path id="Line" transform="translate(9,301)" d="m81 73v14h-1v-14h-4l4.5-9 4.5 9z" fill="#8f8981"/>
 <g fill-rule="evenodd">
  <rect transform="translate(301,301)" x=".5" y=".5" width="160" height="253" fill="#d8d8d8" stroke="#979797"/>
  <rect transform="translate(310,388)" x=".5" y=".5" width="143" height="159" fill="white" stroke="#979797"/>
  <text transform="translate(310,388)" fill="#4d4d4d" font-family="'Source Code Pro'" font-size="12px" font-weight="700" text-anchor="middle"><tspan fill="#808080" x="71.5" y="22" fill-opacity="1">Version Database</tspan></text>
 </g>
 <g fill="none" fill-rule="evenodd">
  <g transform="translate(338,420)">
   <rect width="89" height="33" rx="16.5" fill="#efefe7" fill-rule="evenodd"/>
   <text fill="#979797" font-family="'Source Code Pro'" font-size="12px" font-weight="700" text-anchor="middle"><tspan fill="#808080" x="44.5" y="21" fill-opacity="1">Version 3</tspan></text>
  </g>
  <g transform="translate(338,462)">
   <rect width="89" height="33" rx="16.5" fill="#efefe7" fill-rule="evenodd"/>
   <text fill="#979797" font-family="'Source Code Pro'" font-size="12px" font-weight="700" text-anchor="middle"><tspan fill="#808080" x="44.5" y="21" fill-opacity="1">Version 2</tspan></text>
  </g>
  <g transform="translate(338,504)">
   <rect width="89" height="33" rx="16.5" fill="#efefe7" fill-rule="evenodd"/>
   <text fill="#979797" font-family="'Source Code Pro'" font-size="12px" font-weight="700" text-anchor="middle"><tspan fill="#808080" x="44.5" y="21" fill-opacity="1">Version 1</tspan></text>
  </g>
 </g>
 <g fill-rule="evenodd">
  <g>
   <path transform="translate(310,388)" d="m72.5 65.5v8" fill="#8f8981" stroke="#8f8981" stroke-linecap="square"/>
   <path transform="translate(310,388)" d="m72.5 107.5v8" fill="#8f8981" stroke="#8f8981" stroke-linecap="square"/>
   <text id="Computer-B" transform="translate(301.39 301)" fill="#4d4d4d" font-family="'Source Code Pro'" font-size="12px" font-weight="700" text-anchor="middle"><tspan fill="#f0f0f0" x="80" y="22" fill-opacity="1">Computer B</tspan></text>
  </g>
  <rect transform="translate(337,332)" width="89" height="33" rx="16.5" fill="#00909a"/>
  <text transform="translate(337,332)" fill="white" fill-opacity=".8" font-family="'Source Code Pro'" font-size="12px" font-weight="700" text-anchor="middle"><tspan fill="#f0f0f0" x="44.5" y="20" fill-opacity="1">File</tspan></text>
 </g>
 <g fill="#8f8981">
  <path transform="translate(301,301)" d="m81 73v14h-1v-14h-4l4.5-9 4.5 9z"/>
  <path d="m158.27 289.45 28.527-69.28-3.6987-1.523 7.5878-6.6087.73431 10.035-3.6987-1.523-28.527 69.28 3.6987 1.523-7.5878 6.6087-.7343-10.035z"/>
  <path d="m311.92 291.77-28.778-73.179-3.7225 1.4639.89403-10.023 7.4816 6.7287-3.7225 1.4639 28.778 73.179 3.7225-1.4639-.89403 10.023-7.4816-6.7287z"/>
  <path d="m292 411h-113v4l-9-4.5 9-4.5v4h113v-4l9 4.5-9 4.5z"/>
 </g>
</svg>
