<?xml version="1.0" encoding="UTF-8"?>
<svg width="399px" height="220px" viewBox="0 0 399 220" version="1.1" xmlns="http://www.w3.org/2000/svg" xmlns:xlink="http://www.w3.org/1999/xlink">
    <!-- Generator: Sketch 56.3 (81716) - https://sketch.com -->
    <title>images/head-to-master</title>
    <desc>Created with Sketch.</desc>
    <g id="03---Branch-Progression-1" stroke="none" stroke-width="1" fill="none" fill-rule="evenodd">
        <path id="Line-7" d="M333,117 L333,88 L334,88 L334,117 L338,117 L333.5,126 L329,117 L333,117 Z" fill="#8F8981" fill-rule="nonzero"></path>
        <path id="Line-9" d="M333,56 L333,27 L334,27 L334,56 L338,56 L333.5,65 L329,56 L333,56 Z" fill="#8F8981" fill-rule="nonzero"></path>
        <path id="Line-8" d="M334,167 L334,197 L333,197 L333,167 L329,167 L333.5,158 L338,167 L334,167 Z" fill="#8F8981" fill-rule="nonzero"></path>
        <path id="Line" d="M240,142 L290,142 L290,143 L240,143 L240,147 L231,142.5 L240,138 L240,142 Z" fill="#8F8981" fill-rule="nonzero"></path>
        <path id="Line-2" d="M95,142 L145,142 L145,143 L95,143 L95,147 L86,142.5 L95,138 L95,142 Z" fill="#8F8981" fill-rule="nonzero"></path>
        <g id="ref" transform="translate(290.000000, 65.000000)">
            <rect id="Rectangle-2" fill="#F44D27" fill-rule="evenodd" x="0" y="0" width="106" height="33"></rect>
            <text id="master" stroke="#979797" stroke-width="1" font-family="RobotoMono-Regular, Roboto Mono" font-size="11.1428571" font-weight="normal" fill="#FFFFFF">
                <tspan x="33.1285461" y="20">master</tspan>
            </text>
        </g>
        <g id="ref" transform="translate(290.000000, 187.000000)">
            <rect id="Rectangle-2" fill="#F44D27" fill-rule="evenodd" x="0" y="0" width="106" height="33"></rect>
            <text id="master" stroke="#979797" stroke-width="1" font-family="RobotoMono-Regular, Roboto Mono" font-size="11.1428571" font-weight="normal" fill="#FFFFFF">
                <tspan x="29.7851449" y="20">testing</tspan>
            </text>
        </g>
        <g id="other" transform="translate(290.000000, 126.000000)">
            <rect id="Rectangle-2" fill="#EFEFE7" fill-rule="evenodd" x="0" y="0" width="86" height="33"></rect>
            <text id="master" stroke="#979797" stroke-width="1" font-family="RobotoMono-Regular, Roboto Mono" font-size="12" font-weight="normal" fill="#000000">
                <tspan x="24.9941406" y="21">f30ab</tspan>
            </text>
        </g>
        <g id="other" transform="translate(145.000000, 126.000000)">
            <rect id="Rectangle-2" fill="#EFEFE7" fill-rule="evenodd" x="0" y="0" width="86" height="33"></rect>
            <text id="master" stroke="#979797" stroke-width="1" font-family="RobotoMono-Regular, Roboto Mono" font-size="12" font-weight="normal" fill="#000000">
                <tspan x="24.9970703" y="21">34ac2</tspan>
            </text>
        </g>
        <g id="other" transform="translate(0.000000, 126.000000)">
            <rect id="Rectangle-2" fill="#EFEFE7" fill-rule="evenodd" x="0" y="0" width="86" height="33"></rect>
            <text id="master" stroke="#979797" stroke-width="1" font-family="RobotoMono-Regular, Roboto Mono" font-size="12" font-weight="normal" fill="#000000">
                <tspan x="24.9970703" y="21">98ca9</tspan>
            </text>
        </g>
        <g id="goldref" transform="translate(290.000000, 0.000000)">
            <rect id="Rectangle-3" fill="#CD9F00" fill-rule="evenodd" x="0" y="0" width="108" height="33"></rect>
            <text id="master-2" stroke="#979797" stroke-width="1" font-family="RobotoMono-Regular, Roboto Mono" font-size="11.1428571" font-weight="normal" fill="#FFFFFF">
                <tspan x="40.3124416" y="20">HEAD</tspan>
            </text>
        </g>
    </g>
</svg>