<?xml version="1.0"?>
<svg xmlns="http://www.w3.org/2000/svg" xmlns:xlink="http://www.w3.org/1999/xlink" width="399px" height="133px" viewBox="0 0 399 133" version="1.1">
    <!-- Generator: Sketch 56.3 (81716) - https://sketch.com -->
    <title>images/integration-manager</title>
    <desc>Created with Sketch.</desc>
    <g id="05---Workflows" stroke="none" stroke-width="1" fill="none" fill-rule="evenodd">
        <g id="Group">
            <g id="goldref-(2-line)" transform="translate(7.000000, 5.000000)">
                <rect id="Rectangle-4" fill="#CD9F00" fill-rule="evenodd" x="0" y="0" width="110.580108" height="38"/>
                <text stroke="#979797" stroke-width="0" font-family="Source Code Pro" font-size="12px" font-weight="900" fill="#979797" fill-opacity="1" text-anchor="middle" id="master-3">
                    <tspan x="55.290054" y="15.53125">blessed</tspan>
                    <tspan x="55.290054" y="28.53125">repository</tspan>
                </text>
            </g>
            <g id="ref-(2-line)" transform="translate(7.000000, 89.000000)">
                <rect id="Rectangle-2" fill="#F44D27" fill-rule="evenodd" x="0" y="0" width="110.580108" height="38"/>
                <text stroke="#979797" stroke-width="0" font-family="Source Code Pro" font-size="12px" font-weight="900" fill="#979797" fill-opacity="1" text-anchor="middle" id="master">
                    <tspan x="55.290054" y="15.53125">integration</tspan>
                    <tspan x="55.290054" y="28.53125">manager</tspan>
                </text>
            </g>
            <g id="symref-(2-line)" transform="translate(149.209946, 5.000000)">
                <rect id="Rectangle-2" fill="#00909A" fill-rule="evenodd" x="0" y="0" width="110.580108" height="38"/>
                <text stroke="#979797" stroke-width="0" font-family="Source Code Pro" font-size="12px" font-weight="900" fill="#979797" fill-opacity="1" text-anchor="middle" id="master">
                    <tspan x="55.290054" y="15">developer</tspan>
                    <tspan x="55.290054" y="28">public</tspan>
                </text>
            </g>
            <g id="other-(2-line)" transform="translate(149.000000, 89.000000)" stroke="#979797">
                <rect id="Rectangle-2" fill="#EFEFE7" fill-rule="evenodd" x="0.5" y="0.5" width="109.580108" height="37"/>
                <text stroke="#979797" stroke-width="0" font-family="Source Code Pro" font-size="12px" font-weight="900" fill="#979797" fill-opacity="1" text-anchor="middle" id="master-4">
                    <tspan x="54.790054" y="16.03125">developer</tspan>
                    <tspan x="54.790054" y="30.03125">private</tspan>
                </text>
            </g>
            <g id="symref-(2-line)-2-+-other-(2-line)-2-+-Line-4" transform="translate(149.000000, 5.000000)">
                <g id="symref-(2-line)" transform="translate(0.209946, 0.000000)">
                    <rect id="Rectangle-2" fill="#00909A" fill-rule="evenodd" x="0" y="0" width="110.580108" height="38"/>
                    <text stroke="#979797" stroke-width="0" font-family="Source Code Pro" font-size="12px" font-weight="900" fill="#979797" fill-opacity="1" text-anchor="middle" id="master">
                        <tspan x="55.290054" y="15">developer</tspan>
                        <tspan x="55.290054" y="28">public</tspan>
                    </text>
                </g>
                <g id="other-(2-line)" transform="translate(0.000000, 84.000000)" stroke="#979797">
                    <rect id="Rectangle-2" fill="#EFEFE7" fill-rule="evenodd" x="0.5" y="0.5" width="109.580108" height="37"/>
                    <text stroke="#979797" stroke-width="0" font-family="Source Code Pro" font-size="12px" font-weight="900" fill="#979797" fill-opacity="1" text-anchor="middle" id="master-4">
                        <tspan x="54.790054" y="16.03125">developer</tspan>
                        <tspan x="54.790054" y="30.03125">private</tspan>
                    </text>
                </g>
                <path id="Line-4" d="M57,47 L57,84 L56,84 L56,47 L52,47 L56.5,38 L61,47 L57,47 Z" fill="#8F8981" fill-rule="nonzero"/>
            </g>
            <path id="Line-7" d="M63.4198921,52 L63.4198921,89 L62.4198921,89 L62.4198921,52 L58.4198921,52 L62.9198921,43 L67.4198921,52 L63.4198921,52 Z" fill="#8F8981" fill-rule="nonzero"/>
            <path id="Line-8" d="M105.955315,82.9476209 L158.594337,42.7992143 L159.200786,43.5943365 L106.561764,83.7427432 L108.98756,86.9232322 L99.1024389,88.8032246 L103.529518,79.7671319 L105.955315,82.9476209 Z" fill="#8F8981" fill-rule="nonzero" opacity="0.5"/>
            <path id="Line-10" d="M158.477778,83.6845673 L106.798459,43.588544 L107.411456,42.7984589 L159.090775,82.8944821 L161.542764,79.7341415 L165.895043,88.8064985 L156.02579,86.8449079 L158.477778,83.6845673 Z" fill="#8F8981" fill-rule="nonzero" opacity="0.5"/>
            <path id="Line-11" d="M272.204949,86.578514 L116.879122,40.8383934 L117.161607,39.8791217 L272.487433,85.6192422 L273.617373,81.7821553 L280.979637,88.6412425 L271.075009,90.4156009 L272.204949,86.578514 Z" fill="#8F8981" fill-rule="nonzero" opacity="0.5"/>
            <path id="Line-9" d="M126.618336,86.9323898 L300.862236,42.8927229 L301.107278,43.8622355 L126.863378,87.9019024 L127.843544,91.7799526 L118.015244,89.6225208 L125.638169,83.0543396 L126.618336,86.9323898 Z" fill="#8F8981" fill-rule="nonzero" opacity="0.5"/>
            <g id="symref-(2-line)-2-+-other-(2-line)-2-+-Line-5" transform="translate(281.000000, 5.000000)">
                <g id="symref-(2-line)" transform="translate(0.209946, 0.000000)">
                    <rect id="Rectangle-2" fill="#00909A" fill-rule="evenodd" x="0" y="0" width="110.580108" height="38"/>
                    <text stroke="#979797" stroke-width="0" font-family="Source Code Pro" font-size="12px" font-weight="900" fill="#979797" fill-opacity="1" text-anchor="middle" id="master">
                        <tspan x="55.290054" y="15">developer</tspan>
                        <tspan x="55.290054" y="28">public</tspan>
                    </text>
                </g>
                <g id="other-(2-line)" transform="translate(0.000000, 84.000000)" stroke="#979797">
                    <rect id="Rectangle-2" fill="#EFEFE7" fill-rule="evenodd" x="0.5" y="0.5" width="109.580108" height="37"/>
                    <text stroke="#979797" stroke-width="0" font-family="Source Code Pro" font-size="12px" font-weight="900" fill="#979797" fill-opacity="1" text-anchor="middle" id="master-4">
                        <tspan x="54.790054" y="16.03125">developer</tspan>
                        <tspan x="54.790054" y="30.03125">private</tspan>
                    </text>
                </g>
                <path id="Line-5" d="M55.2099461,47 L55.2099461,84 L54.2099461,84 L54.2099461,47 L50.2099461,47 L54.7099461,38 L59.2099461,47 L55.2099461,47 Z" fill="#8F8981" fill-rule="nonzero"/>
            </g>
        </g>
    </g>
</svg>
