<?xml version="1.0" encoding="UTF-8"?>
<svg id="svg3257" version="1.1" viewBox="0 0 733 285" xmlns="http://www.w3.org/2000/svg" xmlns:cc="http://creativecommons.org/ns#" xmlns:dc="http://purl.org/dc/elements/1.1/" xmlns:rdf="http://www.w3.org/1999/02/22-rdf-syntax-ns#">
 <metadata id="metadata3263">
  <rdf:RDF>
   <cc:Work rdf:about="">
    <dc:format>image/svg+xml</dc:format>
    <dc:type rdf:resource="http://purl.org/dc/dcmitype/StillImage"/>
    <dc:title>images/interesting-rebase-2</dc:title>
   </cc:Work>
  </rdf:RDF>
 </metadata>
 <!-- Generator: Sketch 56.3 (81716) - https://sketch.com -->
 <title id="title3120">images/interesting-rebase-2</title>
 <desc id="desc3122">Created with Sketch.</desc>
 <g id="g3535" transform="translate(-10,-7)">
  <g id="brown" transform="translate(14,73)" style="fill-rule:evenodd;fill:none">
   <rect id="Rectangle-1" width="89" height="33" rx="16.5" ry="16.5" style="fill-rule:evenodd;fill:#efefe7"/>
   <text id="C6" font-size="12px" font-weight="700" style="fill:#979797;font-family:'Source Code Pro';font-size:12px;font-weight:700;text-anchor:middle"><tspan id="tspan3125" x="44.5" y="21" style="fill:gray">C1</tspan></text>
  </g>
  <g id="Line-+-brown-2" transform="translate(103,73)" style="fill-rule:evenodd;fill:none">
   <path id="Line" d="m9 15h35v1h-35v4l-9-4.5 9-4.5z" style="fill-rule:nonzero;fill:#8f8981"/>
   <g id="g3136" transform="translate(38)">
    <rect id="rect3130" width="89" height="33" rx="16.5" ry="16.5" style="fill-rule:evenodd;fill:#efefe7"/>
    <text id="text3134" font-size="12px" font-weight="700" style="fill:#979797;font-family:'Source Code Pro';font-size:12px;font-weight:700;text-anchor:middle"><tspan id="tspan3132" x="44.5" y="21" style="fill:gray">C2</tspan></text>
   </g>
  </g>
  <g id="Line-2-+-brown-3" transform="translate(230,73)" style="fill-rule:evenodd;fill:none">
   <path id="Line-2" d="m9 17h35v1h-35v4l-9-4.5 9-4.5z" style="fill-rule:nonzero;fill:#8f8981"/>
   <g id="g3146" transform="translate(38)">
    <rect id="rect3140" width="89" height="33" rx="16.5" ry="16.5" style="fill-rule:evenodd;fill:#efefe7"/>
    <text id="text3144" font-size="12px" font-weight="700" style="fill:#979797;font-family:'Source Code Pro';font-size:12px;font-weight:700;text-anchor:middle"><tspan id="tspan3142" x="44.5" y="21" style="fill:gray">C5</tspan></text>
   </g>
  </g>
  <g id="g3370">
   <path id="Line-7" transform="translate(397.1,11)" d="m43 53v-32h1v32h4l-4.5 9-4.5-9z" style="fill:#8f8981"/>
   <g id="g3363">
    <rect id="Rectangle-2" transform="matrix(.83962 0 0 1 396.1 11)" width="106" height="36" style="fill-rule:evenodd;fill:#f44d27"/>
    <text id="master" transform="translate(387.7 11.907)" font-size="12px" font-weight="700" style="fill-rule:evenodd;fill:#979797;font-family:'Source Code Pro';font-size:12px;font-weight:700;text-anchor:middle"><tspan id="tspan3151" x="53" y="20.90909" style="fill:#f0f0f0">master</tspan></text>
   </g>
  </g>
  <g id="Line-6-+-brown-4" transform="translate(357,73)" style="fill-rule:evenodd;fill:none">
   <path id="Line-6" d="m9 16h35v1h-35v4l-9-4.5 9-4.5z" style="fill-rule:nonzero;fill:#8f8981"/>
   <g id="g3163" transform="translate(39)">
    <rect id="rect3157" width="89" height="33" rx="16.5" ry="16.5" style="fill-rule:evenodd;fill:#efefe7"/>
    <text id="text3161" font-size="12px" font-weight="700" style="fill:#979797;font-family:'Source Code Pro';font-size:12px;font-weight:700;text-anchor:middle"><tspan id="tspan3159" x="44.5" y="21" style="fill:gray">C6</tspan></text>
   </g>
  </g>
  <g id="g3428">
   <path id="path3166" transform="translate(485,73)" d="m9 16h35v1h-35v4l-9-4.5 9-4.5z" style="fill:#8f8981"/>
   <g id="g3174" transform="translate(523,73)" style="fill-rule:evenodd;fill:none">
    <rect id="rect3168" width="89" height="33" rx="16.5" ry="16.5" style="fill-rule:evenodd;fill:#efefe7"/>
    <text id="text3172" font-size="12px" font-weight="700" style="fill:#979797;font-family:'Source Code Pro';font-size:12px;font-weight:700;text-anchor:middle"><tspan id="tspan3170" x="44.5" y="21" style="fill:gray">C8'</tspan></text>
   </g>
  </g>
  <g id="g3421">
   <path id="path3177" transform="translate(.7)" d="m620 89h35v1h-35v4l-9-4.5 9-4.5z" style="fill:#8f8981"/>
   <g id="g3185" transform="translate(650,73)" style="fill-rule:evenodd;fill:none">
    <rect id="rect3179" width="89" height="33" rx="16.5" ry="16.5" style="fill-rule:evenodd;fill:#efefe7"/>
    <text id="text3183" font-size="12px" font-weight="700" style="fill:#979797;font-family:'Source Code Pro';font-size:12px;font-weight:700;text-anchor:middle"><tspan id="tspan3181" x="44.5" y="21" style="fill:gray">C9'</tspan></text>
   </g>
  </g>
  <g id="g3452">
   <path id="Line-8" d="m232.15 107.81 44.054 39.648-.66896.7433-44.054-39.648-2.6759 2.9732-3.6793-9.3655 9.7 2.6759z" style="fill:#8f8981"/>
   <g id="g3194" transform="translate(268,137)" style="fill-rule:evenodd;fill:none">
    <rect id="rect3188" width="89" height="33" rx="16.5" ry="16.5" style="fill-rule:evenodd;fill:#efefe7"/>
    <text id="text3192" font-size="12px" font-weight="700" style="fill:#979797;font-family:'Source Code Pro';font-size:12px;font-weight:700;text-anchor:middle"><tspan id="tspan3190" x="44.5" y="21" style="fill:gray">C3</tspan></text>
   </g>
  </g>
  <g id="Line-6-+-brown-6" transform="translate(357,137)" style="fill-rule:evenodd;fill:none">
   <path id="path3196" d="m9 16h35v1h-35v4l-9-4.5 9-4.5z" style="fill-rule:nonzero;fill:#8f8981"/>
   <g id="g3204" transform="translate(39)">
    <rect id="rect3198" width="89" height="33" rx="16.5" ry="16.5" style="fill-rule:evenodd;fill:#efefe7"/>
    <text id="text3202" font-size="12px" font-weight="700" style="fill:#979797;font-family:'Source Code Pro';font-size:12px;font-weight:700;text-anchor:middle"><tspan id="tspan3200" x="44.5" y="21" style="fill:gray">C4</tspan></text>
   </g>
  </g>
  <g id="Group" transform="translate(349,168)" style="fill-rule:evenodd;fill:none;opacity:.5">
   <path id="Line-9" d="m5.4422 7.4336 54.747 87.224-.84698.53162-54.747-87.224-3.3879 2.1265-.97313-10.015 8.596 5.2306z" style="fill-rule:nonzero;fill:#8f8981"/>
   <g id="g3214" transform="translate(47,87)">
    <rect id="rect3208" width="89" height="33" rx="16.5" ry="16.5" style="fill-rule:evenodd;fill:#efefe7"/>
    <text id="text3212" font-size="12px" font-weight="700" style="fill:#979797;font-family:'Source Code Pro';font-size:12px;font-weight:700;text-anchor:middle"><tspan id="tspan3210" x="44.5" y="21" style="fill:gray">C8</tspan></text>
   </g>
   <path id="Line-10" transform="translate(1.1)" d="m144 103h35v1h-35v4l-9-4.5 9-4.5z" style="fill-rule:nonzero;fill:#8f8981"/>
   <g id="g3223" transform="translate(174,87)">
    <rect id="rect3217" width="89" height="33" rx="16.5" ry="16.5" style="fill-rule:evenodd;fill:#efefe7"/>
    <text id="text3221" font-size="12px" font-weight="700" style="fill:#979797;font-family:'Source Code Pro';font-size:12px;font-weight:700;text-anchor:middle"><tspan id="tspan3219" x="44.5" y="21" style="fill:gray">C9</tspan></text>
   </g>
  </g>
  <g id="g3435">
   <path id="Line-11" transform="translate(1)" d="m493 153h35v1h-35v4l-9-4.5 9-4.5z" style="fill:#8f8981"/>
   <g id="g3233" transform="translate(523,137)" style="fill-rule:evenodd;fill:none">
    <rect id="rect3227" width="89" height="33" rx="16.5" ry="16.5" style="fill-rule:evenodd;fill:#efefe7"/>
    <text id="text3231" font-size="12px" font-weight="700" style="fill:#979797;font-family:'Source Code Pro';font-size:12px;font-weight:700;text-anchor:middle"><tspan id="tspan3229" x="44.5" y="21" style="fill:gray">C10</tspan></text>
   </g>
  </g>
  <g id="g3392">
   <path id="Line-4" transform="translate(524,170)" d="m44 9v35h-1v-35h-4l4.5-9 4.5 9z" style="fill:#8f8981"/>
   <g id="g3385">
    <rect id="rect3236" transform="matrix(.83962 0 0 1 523 199)" width="106" height="33" style="fill-rule:evenodd;fill:#f44d27"/>
    <text id="text3240" transform="translate(514.49 198.48)" font-size="12px" font-weight="700" style="fill-rule:evenodd;fill:#979797;font-family:'Source Code Pro';font-size:12px;font-weight:700;text-anchor:middle"><tspan id="tspan3238" x="53" y="20" style="fill:#f0f0f0">server</tspan></text>
   </g>
  </g>
  <g id="g3414">
   <path id="path3245" transform="translate(650.9,106)" d="m44 9v35h-1v-35h-4l4.5-9 4.5 9z" style="fill:#8f8981"/>
   <g id="g3407">
    <rect id="rect3247" transform="matrix(.83962 0 0 1 649.9 135)" width="106" height="33" style="fill-rule:evenodd;fill:#f44d27"/>
    <text id="text3251" transform="translate(641.3 135.96)" font-size="12px" font-weight="700" style="fill-rule:evenodd;fill:#979797;font-family:'Source Code Pro';font-size:12px;font-weight:700;text-anchor:middle"><tspan id="tspan3249" x="53" y="20" style="fill:#f0f0f0">client</tspan></text>
   </g>
  </g>
 </g>
</svg>
