<?xml version="1.0" encoding="UTF-8"?>
<svg id="svg37952" version="1.1" viewBox="0 0 392.79 130" xmlns="http://www.w3.org/2000/svg" xmlns:cc="http://creativecommons.org/ns#" xmlns:dc="http://purl.org/dc/elements/1.1/" xmlns:rdf="http://www.w3.org/1999/02/22-rdf-syntax-ns#">
 <metadata id="metadata37958">
  <rdf:RDF>
   <cc:Work rdf:about="">
    <dc:format>image/svg+xml</dc:format>
    <dc:type rdf:resource="http://purl.org/dc/dcmitype/StillImage"/>
    <dc:title>images/integration-manager</dc:title>
   </cc:Work>
  </rdf:RDF>
 </metadata>
 <!-- Generator: Sketch 56.3 (81716) - https://sketch.com -->
 <title id="title37866">images/integration-manager</title>
 <desc id="desc37868">Created with Sketch.</desc>
 <g id="05---Workflows" transform="translate(-3,-1)" style="fill-rule:evenodd;fill:none">
  <g id="Group">
   <g id="g38145">
    <g id="symref-(2-line)" transform="translate(149.21 5)">
     <rect id="rect37884" width="110.58" height="38" style="fill-rule:evenodd;fill:#00909a"/>
     <text id="text37890" font-size="12px" font-weight="700" style="fill:#979797;font-family:'Source Code Pro';font-size:12px;font-weight:700;text-anchor:middle"><tspan id="tspan37886" x="55.290054" y="15" style="fill:#f0f0f0">developer</tspan> <tspan id="tspan37888" x="55.290054" y="28" style="fill:#f0f0f0">public</tspan></text>
    </g>
    <g id="other-(2-line)" transform="translate(149,89)" style="stroke:#979797">
     <rect id="rect37893" x=".5" y=".5" width="109.58" height="37" style="fill-rule:evenodd;fill:#efefe7"/>
     <text id="master-4" font-size="12px" font-weight="700" style="fill:#979797;font-family:'Source Code Pro';font-size:12px;font-weight:700;stroke:none;text-anchor:middle"><tspan id="tspan37895" x="54.790054" y="16.03125" style="fill:gray">developer</tspan> <tspan id="tspan37897" x="54.790054" y="30.03125" style="fill:gray">private</tspan></text>
    </g>
    <rect id="rect37911" transform="translate(149,89)" x=".5" y=".5" width="109.58" height="37" style="fill-rule:evenodd;fill:#efefe7;stroke:#979797"/>
    <path id="Line-4" transform="translate(149,5)" d="m57 47v37h-1v-37h-4l4.5-9 4.5 9z" style="fill-rule:nonzero;fill:#8f8981"/>
    <path id="Line-7" transform="matrix(1 0 0 1.0287 -.62984 -1.2326)" d="m63.42 52v37h-1v-37h-4l4.5-9 4.5 9z" style="fill-rule:nonzero;fill:#8f8981"/>
    <path id="Line-8" d="m105.96 82.948 52.639-40.148.60645.79512-52.639 40.148 2.4258 3.1805-9.8851 1.88 4.4271-9.0361z" style="fill-rule:nonzero;fill:#8f8981;opacity:.5"/>
    <path id="Line-10" d="m158.48 83.685-51.679-40.096.613-.79008 51.679 40.096 2.452-3.1603 4.3523 9.0724-9.8692-1.9616z" style="fill-rule:nonzero;fill:#8f8981;opacity:.5"/>
    <path id="Line-11" d="m272.2 86.579-155.33-45.74.28249-.95927 155.33 45.74 1.1299-3.8371 7.3623 6.8591-9.9046 1.7744z" style="fill-rule:nonzero;fill:#8f8981;opacity:.5"/>
    <path id="Line-9" d="m126.62 86.932 174.24-44.04.24504.96951-174.24 44.04.98016 3.8781-9.8283-2.1574 7.6229-6.5682z" style="fill-rule:nonzero;fill:#8f8981;opacity:.5"/>
    <rect id="rect37938" transform="translate(281,89)" x=".5" y=".5" width="109.58" height="37" style="fill-rule:evenodd;fill:#efefe7;stroke:#979797"/>
    <path id="Line-5" transform="translate(281,5)" d="m55.21 47v37h-1v-37h-4l4.5-9 4.5 9z" style="fill-rule:nonzero;fill:#8f8981"/>
    <g id="g37996">
     <rect id="Rectangle-4" transform="translate(7,5)" width="110.58" height="38" style="fill-rule:evenodd;fill:#cd9f00"/>
     <text id="text37984" transform="translate(-62.632 67.404)" x="124.39753" y="-47.361919" style="fill:#f0f0f0;font-family:'Source Code Pro';font-feature-settings:normal;font-size:12px;font-variant-caps:normal;font-variant-ligatures:normal;font-variant-numeric:normal;font-weight:bold;letter-spacing:0px;line-height:14px;text-align:center;text-anchor:middle;word-spacing:0px" xml:space="preserve"><tspan id="tspan37982" x="124.39753" y="-47.361919">blessed</tspan><tspan id="tspan37986" x="124.39753" y="-33.361919">repository</tspan></text>
    </g>
    <g id="g38012">
     <rect id="Rectangle-2" transform="translate(7,89)" width="110.58" height="38" style="fill-rule:evenodd;fill:#f44d27"/>
     <text id="text38000" transform="translate(-74.403 143.8)" x="136.57631" y="-39.532703" style="fill:#f0f0f0;font-family:'Source Code Pro';font-feature-settings:normal;font-size:12px;font-variant-caps:normal;font-variant-ligatures:normal;font-variant-numeric:normal;font-weight:bold;letter-spacing:0px;line-height:14px;text-align:center;text-anchor:middle;word-spacing:0px" xml:space="preserve"><tspan id="tspan37998" x="136.57631" y="-39.532703">integration</tspan><tspan id="tspan38002" x="136.57631" y="-25.532703">manager</tspan></text>
    </g>
    <g id="g38063">
     <rect id="rect37928" transform="translate(281.21 5)" width="110.58" height="38" style="fill-rule:evenodd;fill:#00909a"/>
     <text id="text38020" transform="translate(155.88 55.575)" x="180.65189" y="-35.47311" style="fill:#f0f0f0;font-family:'Source Code Pro';font-feature-settings:normal;font-size:12px;font-variant-caps:normal;font-variant-ligatures:normal;font-variant-numeric:normal;font-weight:bold;letter-spacing:0px;line-height:14px;text-align:center;text-anchor:middle;word-spacing:0px" xml:space="preserve"><tspan id="tspan38018" x="180.65189" y="-35.47311">developer</tspan><tspan id="tspan38022" x="180.65189" y="-21.47311">public</tspan></text>
    </g>
    <g id="g38069">
     <rect id="rect37901" transform="translate(149.21 5)" width="110.58" height="38" style="fill-rule:evenodd;fill:#00909a"/>
     <text id="text38020-2" transform="translate(23.876 55.575)" x="180.65189" y="-35.47311" style="fill:#f0f0f0;font-family:'Source Code Pro';font-feature-settings:normal;font-size:12px;font-variant-caps:normal;font-variant-ligatures:normal;font-variant-numeric:normal;font-weight:bold;letter-spacing:0px;line-height:14px;text-align:center;text-anchor:middle;word-spacing:0px" xml:space="preserve"><tspan id="tspan38018-8" x="180.65189" y="-35.47311">developer</tspan><tspan id="tspan38022-4" x="180.65189" y="-21.47311">public</tspan></text>
    </g>
    <text id="text38020-0" transform="translate(155.67 139.58)" x="180.65189" y="-35.47311" style="fill:gray;font-family:'Source Code Pro';font-feature-settings:normal;font-size:12px;font-variant-caps:normal;font-variant-ligatures:normal;font-variant-numeric:normal;font-weight:bold;letter-spacing:0px;line-height:14px;text-align:center;text-anchor:middle;word-spacing:0px" xml:space="preserve"><tspan id="tspan38018-3" x="180.65189" y="-35.47311">developer</tspan><tspan id="tspan38022-6" x="180.65189" y="-21.47311">private</tspan></text>
    <text id="text38020-0-8" transform="translate(23.666 139.58)" x="180.65189" y="-35.47311" style="fill:gray;font-family:'Source Code Pro';font-feature-settings:normal;font-size:12px;font-variant-caps:normal;font-variant-ligatures:normal;font-variant-numeric:normal;font-weight:bold;letter-spacing:0px;line-height:14px;text-align:center;text-anchor:middle;word-spacing:0px" xml:space="preserve"><tspan id="tspan38018-3-5" x="180.65189" y="-35.47311">developer</tspan><tspan id="tspan38022-6-9" x="180.65189" y="-21.47311">private</tspan></text>
   </g>
  </g>
 </g>
</svg>
