<?xml version="1.0" encoding="UTF-8"?>
<svg id="svg5493" version="1.1" viewBox="0 0 613 359" xmlns="http://www.w3.org/2000/svg" xmlns:cc="http://creativecommons.org/ns#" xmlns:dc="http://purl.org/dc/elements/1.1/" xmlns:rdf="http://www.w3.org/1999/02/22-rdf-syntax-ns#">
 <metadata id="metadata5499">
  <rdf:RDF>
   <cc:Work rdf:about="">
    <dc:format>image/svg+xml</dc:format>
    <dc:type rdf:resource="http://purl.org/dc/dcmitype/StillImage"/>
    <dc:title>images/large-merges-1</dc:title>
   </cc:Work>
  </rdf:RDF>
 </metadata>
 <!-- Generator: Sketch 56.3 (81716) - https://sketch.com -->
 <title id="title5311">images/large-merges-1</title>
 <desc id="desc5313">Created with Sketch.</desc>
 <g id="g5819" transform="translate(0,-4)">
  <path id="Line-2" transform="translate(125,8)" d="m42 44v-28h1v28h4l-4.5 9-4.5-9z" style="fill:#8f8981"/>
  <g id="g5614">
   <rect id="Rectangle-2" transform="matrix(.83962 0 0 1 123 8)" width="106" height="33" style="fill-rule:evenodd;fill:#f44d27"/>
   <text id="master" transform="translate(114.6 8.316)" font-size="12px" font-weight="700" style="fill-rule:evenodd;fill:#979797;font-family:'Source Code Pro';font-size:12px;font-weight:700;text-anchor:middle"><tspan id="tspan5317" x="53" y="20" style="fill:#f0f0f0">master</tspan></text>
  </g>
  <g id="g5646">
   <path id="path5322" transform="translate(451,114)" d="m9 16h58v1h-58v4l-9-4.5 9-4.5z" style="fill:#8f8981"/>
   <g id="g5639">
    <rect id="rect5324" transform="matrix(.93103 0 0 1 473.9 114)" width="145" height="33" style="fill-rule:evenodd;fill:#f44d27"/>
    <text id="text5328" transform="translate(468.9 113.8)" font-size="12px" font-weight="700" style="fill-rule:evenodd;fill:#979797;font-family:'Source Code Pro';font-size:12px;font-weight:700;text-anchor:middle"><tspan id="tspan5326" x="72.5" y="20" style="fill:#f0f0f0">tv/rebase-stat</tspan></text>
   </g>
  </g>
  <g id="g5658">
   <path id="path5333" transform="translate(450.7,167)" d="m9 16h58v1h-58v4l-9-4.5 9-4.5z" style="fill:#8f8981"/>
   <g id="g5651">
    <rect id="rect5335" transform="matrix(.93103 0 0 1 474 167)" width="145" height="33" style="fill-rule:evenodd;fill:#f44d27"/>
    <text id="text5339" transform="translate(469.05 166.85)" font-size="12px" font-weight="700" style="fill-rule:evenodd;fill:#979797;font-family:'Source Code Pro';font-size:12px;font-weight:700;text-anchor:middle"><tspan id="tspan5337" x="72.5" y="20" style="fill:#f0f0f0">jk/clone-checkout</tspan></text>
   </g>
  </g>
  <g id="g5678">
   <path id="path5344" transform="translate(450.7,220)" d="m9 16h58v1h-58v4l-9-4.5 9-4.5z" style="fill:#8f8981"/>
   <g id="g5671">
    <rect id="rect5346" transform="matrix(.93103 0 0 1 474 220)" width="145" height="33" style="fill-rule:evenodd;fill:#f44d27"/>
    <text id="text5350" transform="translate(469 219.66)" font-size="12px" font-weight="700" style="fill-rule:evenodd;fill:#979797;font-family:'Source Code Pro';font-size:12px;font-weight:700;text-anchor:middle"><tspan id="tspan5348" x="72.5" y="20" style="fill:#f0f0f0">db/push-cleanup</tspan></text>
   </g>
  </g>
  <g id="g5698">
   <path id="path5355" transform="translate(451,273)" d="m9 16h58v1h-58v4l-9-4.5 9-4.5z" style="fill:#8f8981"/>
   <g id="g5691">
    <rect id="rect5357" transform="matrix(.93103 0 0 1 473.9 273)" width="145" height="33" style="fill-rule:evenodd;fill:#f44d27"/>
    <text id="text5361" transform="translate(469.01 272.85)" font-size="12px" font-weight="700" style="fill-rule:evenodd;fill:#979797;font-family:'Source Code Pro';font-size:12px;font-weight:700;text-anchor:middle"><tspan id="tspan5359" x="72.5" y="20" style="fill:#f0f0f0">js/notes</tspan></text>
   </g>
  </g>
  <g id="g5718">
   <path id="path5366" transform="translate(451,326)" d="m9 16h58v1h-58v4l-9-4.5 9-4.5z" style="fill:#8f8981"/>
   <g id="g5711">
    <rect id="rect5368" transform="matrix(.93103 0 0 1 473.9 326)" width="145" height="33" style="fill-rule:evenodd;fill:#f44d27"/>
    <text id="text5372" transform="translate(468.78 325.66)" font-size="12px" font-weight="700" style="fill-rule:evenodd;fill:#979797;font-family:'Source Code Pro';font-size:12px;font-weight:700;text-anchor:middle"><tspan id="tspan5370" x="72.5" y="20" style="fill:#f0f0f0">ps/blame</tspan></text>
   </g>
  </g>
  <g id="brown" transform="translate(4,61)" style="fill-rule:evenodd;fill:none">
   <rect id="Rectangle-1" width="89" height="33" rx="16.5" ry="16.5" style="fill-rule:evenodd;fill:#efefe7"/>
   <text id="C6" font-size="12px" font-weight="700" style="fill:#979797;font-family:'Source Code Pro';font-size:12px;font-weight:700;text-anchor:middle"><tspan id="tspan5378" x="44.5" y="21" style="fill:gray">C1</tspan></text>
  </g>
  <path id="Line-5" d="m102 77h45v1h-45v4l-9-4.5 9-4.5z" style="fill:#8f8981"/>
  <g id="g5389" transform="translate(123,61)" style="fill-rule:evenodd;fill:none">
   <rect id="rect5383" width="89" height="33" rx="16.5" ry="16.5" style="fill-rule:evenodd;fill:#efefe7"/>
   <text id="text5387" font-size="12px" font-weight="700" style="fill:#979797;font-family:'Source Code Pro';font-size:12px;font-weight:700;text-anchor:middle"><tspan id="tspan5385" x="44.5" y="21" style="fill:gray">C2</tspan></text>
  </g>
  <path id="path5391" d="m202.38 101.08c5.2103 10.599 11.433 19.063 18.351 22.884 3.3786 1.8658 10.912 3.3388 21.29 4.4361 5.1375.54321 10.644.95998 16.151 1.2665 1.9276.10728 3.7174.1931 5.3234.25951.56196.0232 1.0607.0424 1.4906.0577.25764.009.43488.015.52596.0178l.49977.0153-.0306.99953-.49976-.0153c-.0927-.003-.27163-.009-.53096-.018-.43174-.0154-.93243-.0346-1.4963-.0579-1.6106-.0666-3.4052-.15265-5.3377-.26021-5.522-.30734-11.044-.7253-16.2-1.2705-10.52-1.1123-18.127-2.5998-21.668-4.5552-7.1571-3.9524-13.487-12.569-18.785-23.358l-3.6869 1.611.51997-10.049 7.7271 6.4453z" style="fill:#8f8981"/>
  <path id="Line-6" d="m189.7 102.47c6.1881 29.957 14.333 56.02 23.814 67.051 3.9265 4.5679 12.644 8.1589 24.683 10.84 5.9607 1.3277 12.351 2.3466 18.742 3.0958 2.2371.26229 4.3142.47212 6.178.63446.65196.0568 1.2306.10358 1.7291.14099.29853.0224.50366.0367.60871.0435l.49896.0322-.0644.99793-.49897-.0322c-.10849-.007-.3171-.0215-.61917-.0442-.50246-.0377-1.085-.0848-1.741-.14196-1.8733-.16318-3.9603-.374-6.2077-.63749-6.4221-.75297-12.845-1.777-18.842-3.113-12.24-2.7263-21.112-6.3808-25.224-11.165-9.641-11.216-17.81-37.36-24.038-67.512l-3.933.76299 2.7036-9.6923 6.1317 7.9783z" style="fill:#8f8981"/>
  <path id="Line-7" d="m179.32 103.25c2.5182 17.385 5.7595 36.183 9.633 53.882 5.5516 25.366 11.563 44.442 17.915 54.598 4.4474 7.111 14.264 12.669 27.834 16.823 6.7119 2.0548 13.908 3.6316 21.104 4.7913 2.5191.40594 4.8581.73067 6.9566.98191.73401.0879 1.3854.16027 1.9466.21816.33589.0346.56657.0567.68451.0672l.49805.0441-.0883.99609-.49804-.0442c-.12264-.0109-.35808-.0334-.69881-.0685-.56652-.0584-1.2233-.13144-1.9628-.21997-2.1115-.25279-4.4638-.57938-6.9968-.98756-7.2383-1.1664-14.477-2.7528-21.238-4.8224-13.781-4.2189-23.781-9.8801-28.389-17.249-6.4319-10.284-12.469-29.44-18.044-54.915-3.8799-17.728-7.1254-36.55-9.6468-53.959l-3.966.54759 3.2267-9.5309 5.6887 8.2999z" style="fill:#8f8981"/>
  <path id="Line-8" d="m170.16 103.98c2.674 23.187 6.23 49.077 10.556 73.85 6.3153 36.166 13.185 63.392 20.474 77.724 4.968 9.7693 15.894 17.377 31.001 23.065 7.4647 2.8105 15.467 4.9673 23.47 6.5535 2.8015.55522 5.4026.99936 7.7363 1.343.81619.12017 1.5404.21918 2.1644.29833.37337.0474.62971.0775.76064.0918l.49705.0542-.10838.99411-.49705-.0542c-.13668-.0149-.39883-.0457-.77811-.0939-.63046-.08-1.3613-.17988-2.1842-.30105-2.3494-.34593-4.9667-.79283-7.785-1.3514-8.0532-1.596-16.107-3.7667-23.628-6.5985-15.318-5.7674-26.434-13.507-31.54-23.548-7.3486-14.451-14.235-41.742-20.567-78.005-4.33-24.797-7.8886-50.706-10.565-73.912l-3.978.44105 3.4808-9.4411 5.4644 8.4493z" style="fill:#8f8981"/>
  <path id="Line-9" d="m161.09 104.7c2.8146 28.774 6.6494 61.681 11.374 93.537 6.9856 47.104 14.608 82.592 22.716 101.14 5.4352 12.433 17.365 22.096 33.856 29.319 8.143 3.5665 16.872 6.3033 25.602 8.316 3.0557.70448 5.8928 1.268 8.4382 1.704.89019.15247 1.6801.27808 2.3606.3785.40713.0601.68658.0983.82923.11642l.49603.0629-.12582.99205-.49603-.0629c-.14928-.0189-.43545-.0581-.8494-.11918-.68797-.10153-1.4855-.22835-2.3834-.38214-2.5635-.43907-5.4191-1.0063-8.494-1.7152-8.7863-2.0257-17.573-4.7805-25.779-8.3744-16.699-7.3141-28.817-17.129-34.371-29.834-8.1555-18.656-15.79-54.201-22.788-101.39-4.7273-31.876-8.564-64.8-11.38-93.59l-3.984.37667 3.6329-9.3836 5.3272 8.5365z" style="fill:#8f8981"/>
  <g id="g5403" transform="translate(242,114)" style="fill-rule:evenodd;fill:none">
   <rect id="rect5397" width="89" height="33" rx="16.5" ry="16.5" style="fill-rule:evenodd;fill:#efefe7"/>
   <text id="text5401" font-size="12px" font-weight="700" style="fill:#979797;font-family:'Source Code Pro';font-size:12px;font-weight:700;text-anchor:middle"><tspan id="tspan5399" x="44.5" y="21" style="fill:gray">C3</tspan></text>
  </g>
  <g id="g5411" transform="translate(242,167)" style="fill-rule:evenodd;fill:none">
   <rect id="rect5405" width="89" height="33" rx="16.5" ry="16.5" style="fill-rule:evenodd;fill:#efefe7"/>
   <text id="text5409" font-size="12px" font-weight="700" style="fill:#979797;font-family:'Source Code Pro';font-size:12px;font-weight:700;text-anchor:middle"><tspan id="tspan5407" x="44.5" y="21" style="fill:gray">C5</tspan></text>
  </g>
  <g id="g5419" transform="translate(242,220)" style="fill-rule:evenodd;fill:none">
   <rect id="rect5413" width="89" height="33" rx="16.5" ry="16.5" style="fill-rule:evenodd;fill:#efefe7"/>
   <text id="text5417" font-size="12px" font-weight="700" style="fill:#979797;font-family:'Source Code Pro';font-size:12px;font-weight:700;text-anchor:middle"><tspan id="tspan5415" x="44.5" y="21" style="fill:gray">C7</tspan></text>
  </g>
  <g id="g5427" transform="translate(242,273)" style="fill-rule:evenodd;fill:none">
   <rect id="rect5421" width="89" height="33" rx="16.5" ry="16.5" style="fill-rule:evenodd;fill:#efefe7"/>
   <text id="text5425" font-size="12px" font-weight="700" style="fill:#979797;font-family:'Source Code Pro';font-size:12px;font-weight:700;text-anchor:middle"><tspan id="tspan5423" x="44.5" y="21" style="fill:gray">C9</tspan></text>
  </g>
  <g id="g5435" transform="translate(242,326)" style="fill-rule:evenodd;fill:none">
   <rect id="rect5429" width="89" height="33" rx="16.5" ry="16.5" style="fill-rule:evenodd;fill:#efefe7"/>
   <text id="text5433" font-size="12px" font-weight="700" style="fill:#979797;font-family:'Source Code Pro';font-size:12px;font-weight:700;text-anchor:middle"><tspan id="tspan5431" x="44.5" y="21" style="fill:gray">C11</tspan></text>
  </g>
  <g id="Line-5-+-brown-17" transform="translate(332,114)" style="fill-rule:evenodd;fill:none">
   <path id="path5437" d="m9 16h45v1h-45v4l-9-4.5 9-4.5z" style="fill-rule:nonzero;fill:#8f8981"/>
   <g id="g5445" transform="translate(30)">
    <rect id="rect5439" width="89" height="33" rx="16.5" ry="16.5" style="fill-rule:evenodd;fill:#efefe7"/>
    <text id="text5443" font-size="12px" font-weight="700" style="fill:#979797;font-family:'Source Code Pro';font-size:12px;font-weight:700;text-anchor:middle"><tspan id="tspan5441" x="44.5" y="21" style="fill:gray">C4</tspan></text>
   </g>
  </g>
  <g id="Line-5-+-brown-16" transform="translate(332,167)" style="fill-rule:evenodd;fill:none">
   <path id="path5448" d="m9 16h45v1h-45v4l-9-4.5 9-4.5z" style="fill-rule:nonzero;fill:#8f8981"/>
   <g id="g5456" transform="translate(30)">
    <rect id="rect5450" width="89" height="33" rx="16.5" ry="16.5" style="fill-rule:evenodd;fill:#efefe7"/>
    <text id="text5454" font-size="12px" font-weight="700" style="fill:#979797;font-family:'Source Code Pro';font-size:12px;font-weight:700;text-anchor:middle"><tspan id="tspan5452" x="44.5" y="21" style="fill:gray">C6</tspan></text>
   </g>
  </g>
  <g id="Line-5-+-brown-15" transform="translate(332,220)" style="fill-rule:evenodd;fill:none">
   <path id="path5459" d="m9 16h45v1h-45v4l-9-4.5 9-4.5z" style="fill-rule:nonzero;fill:#8f8981"/>
   <g id="g5467" transform="translate(30)">
    <rect id="rect5461" width="89" height="33" rx="16.5" ry="16.5" style="fill-rule:evenodd;fill:#efefe7"/>
    <text id="text5465" font-size="12px" font-weight="700" style="fill:#979797;font-family:'Source Code Pro';font-size:12px;font-weight:700;text-anchor:middle"><tspan id="tspan5463" x="44.5" y="21" style="fill:gray">C8</tspan></text>
   </g>
  </g>
  <g id="Line-5-+-brown-14" transform="translate(332,273)" style="fill-rule:evenodd;fill:none">
   <path id="path5470" d="m9 16h45v1h-45v4l-9-4.5 9-4.5z" style="fill-rule:nonzero;fill:#8f8981"/>
   <g id="g5478" transform="translate(30)">
    <rect id="rect5472" width="89" height="33" rx="16.5" ry="16.5" style="fill-rule:evenodd;fill:#efefe7"/>
    <text id="text5476" font-size="12px" font-weight="700" style="fill:#979797;font-family:'Source Code Pro';font-size:12px;font-weight:700;text-anchor:middle"><tspan id="tspan5474" x="44.5" y="21" style="fill:gray">C10</tspan></text>
   </g>
  </g>
  <g id="Line-5-+-brown-13" transform="translate(332,326)" style="fill-rule:evenodd;fill:none">
   <path id="path5481" d="m9 16h45v1h-45v4l-9-4.5 9-4.5z" style="fill-rule:nonzero;fill:#8f8981"/>
   <g id="g5489" transform="translate(30)">
    <rect id="rect5483" width="89" height="33" rx="16.5" ry="16.5" style="fill-rule:evenodd;fill:#efefe7"/>
    <text id="text5487" font-size="12px" font-weight="700" style="fill:#979797;font-family:'Source Code Pro';font-size:12px;font-weight:700;text-anchor:middle"><tspan id="tspan5485" x="44.5" y="21" style="fill:gray">C12</tspan></text>
   </g>
  </g>
 </g>
</svg>
