<?xml version="1.0" encoding="UTF-8"?>
<svg width="815px" height="103px" viewBox="0 0 815 103" version="1.1" xmlns="http://www.w3.org/2000/svg" xmlns:xlink="http://www.w3.org/1999/xlink">
    <!-- Generator: Sketch 56.3 (81716) - https://sketch.com -->
    <title>images/lr-branches-1</title>
    <desc>Created with Sketch.</desc>
    <g id="03---Long-Running-Branches-1" stroke="none" stroke-width="1" fill="none" fill-rule="evenodd">
        <g id="brown" transform="translate(-2.000000, 70.000000)">
            <rect id="Rectangle-1" fill="#EFEFE7" fill-rule="evenodd" x="0" y="0" width="89" height="33" rx="16.5"></rect>
            <text id="C6" stroke="#979797" stroke-width="1" font-family="RobotoMono-Regular, Roboto Mono" font-size="12" font-weight="normal" fill="#000000">
                <tspan x="38.2988281" y="21">C1</tspan>
            </text>
        </g>
        <path id="Line" d="M96,86 L122,86 L122,87 L96,87 L96,91 L87,86.5 L96,82 L96,86 Z" fill="#8F8981" fill-rule="nonzero"></path>
        <g id="brown" transform="translate(116.000000, 70.000000)">
            <rect id="Rectangle-1" fill="#EFEFE7" fill-rule="evenodd" x="0" y="0" width="89" height="33" rx="16.5"></rect>
            <text id="C6" stroke="#979797" stroke-width="1" font-family="RobotoMono-Regular, Roboto Mono" font-size="12" font-weight="normal" fill="#000000">
                <tspan x="38.2988281" y="21">C2</tspan>
            </text>
        </g>
        <path id="Line" d="M214,86 L240,86 L240,87 L214,87 L214,91 L205,86.5 L214,82 L214,86 Z" fill="#8F8981" fill-rule="nonzero"></path>
        <g id="brown" transform="translate(234.000000, 70.000000)">
            <rect id="Rectangle-1" fill="#EFEFE7" fill-rule="evenodd" x="0" y="0" width="89" height="33" rx="16.5"></rect>
            <text id="C6" stroke="#979797" stroke-width="1" font-family="RobotoMono-Regular, Roboto Mono" font-size="12" font-weight="normal" fill="#000000">
                <tspan x="38.2988281" y="21">C3</tspan>
            </text>
        </g>
        <path id="Line" d="M332,86 L358,86 L358,87 L332,87 L332,91 L323,86.5 L332,82 L332,86 Z" fill="#8F8981" fill-rule="nonzero"></path>
        <g id="brown" transform="translate(352.000000, 70.000000)">
            <rect id="Rectangle-1" fill="#EFEFE7" fill-rule="evenodd" x="0" y="0" width="89" height="33" rx="16.5"></rect>
            <text id="C6" stroke="#979797" stroke-width="1" font-family="RobotoMono-Regular, Roboto Mono" font-size="12" font-weight="normal" fill="#000000">
                <tspan x="38.2988281" y="21">C4</tspan>
            </text>
        </g>
        <path id="Line" d="M450,86 L476,86 L476,87 L450,87 L450,91 L441,86.5 L450,82 L450,86 Z" fill="#8F8981" fill-rule="nonzero"></path>
        <g id="brown" transform="translate(470.000000, 70.000000)">
            <rect id="Rectangle-1" fill="#EFEFE7" fill-rule="evenodd" x="0" y="0" width="89" height="33" rx="16.5"></rect>
            <text id="C6" stroke="#979797" stroke-width="1" font-family="RobotoMono-Regular, Roboto Mono" font-size="12" font-weight="normal" fill="#000000">
                <tspan x="38.2988281" y="21">C5</tspan>
            </text>
        </g>
        <path id="Line" d="M568,86 L594,86 L594,87 L568,87 L568,91 L559,86.5 L568,82 L568,86 Z" fill="#8F8981" fill-rule="nonzero"></path>
        <g id="brown" transform="translate(588.000000, 70.000000)">
            <rect id="Rectangle-1" fill="#EFEFE7" fill-rule="evenodd" x="0" y="0" width="89" height="33" rx="16.5"></rect>
            <text id="C6" stroke="#979797" stroke-width="1" font-family="RobotoMono-Regular, Roboto Mono" font-size="12" font-weight="normal" fill="#000000">
                <tspan x="38.2988281" y="21">C6</tspan>
            </text>
        </g>
        <path id="Line" d="M686,86 L712,86 L712,87 L686,87 L686,91 L677,86.5 L686,82 L686,86 Z" fill="#8F8981" fill-rule="nonzero"></path>
        <g id="brown" transform="translate(706.000000, 70.000000)">
            <rect id="Rectangle-1" fill="#EFEFE7" fill-rule="evenodd" x="0" y="0" width="89" height="33" rx="16.5"></rect>
            <text id="C6" stroke="#979797" stroke-width="1" font-family="RobotoMono-Regular, Roboto Mono" font-size="12" font-weight="normal" fill="#000000">
                <tspan x="38.2988281" y="21">C7</tspan>
            </text>
        </g>
        <path id="Line-2" d="M43,61 L43,23 L44,23 L44,61 L48,61 L43.5,70 L39,61 L43,61 Z" fill="#8F8981" fill-rule="nonzero"></path>
        <g id="ref">
            <rect id="Rectangle-2" fill="#F44D27" fill-rule="evenodd" x="0" y="0" width="106" height="33"></rect>
            <text id="master" stroke="#979797" stroke-width="1" font-family="RobotoMono-Regular, Roboto Mono" font-size="11.1428571" font-weight="normal" fill="#FFFFFF">
                <tspan x="33.1285461" y="20">master</tspan>
            </text>
        </g>
        <path id="Line-2" d="M516,61 L516,23 L517,23 L517,61 L521,61 L516.5,70 L512,61 L516,61 Z" fill="#8F8981" fill-rule="nonzero"></path>
        <g id="ref" transform="translate(473.000000, 0.000000)">
            <rect id="Rectangle-2" fill="#F44D27" fill-rule="evenodd" x="0" y="0" width="106" height="33"></rect>
            <text id="master" stroke="#979797" stroke-width="1" font-family="RobotoMono-Regular, Roboto Mono" font-size="11.1428571" font-weight="normal" fill="#FFFFFF">
                <tspan x="29.7851449" y="20">develop</tspan>
            </text>
        </g>
        <path id="Line-2" d="M751,61 L751,23 L752,23 L752,61 L756,61 L751.5,70 L747,61 L751,61 Z" fill="#8F8981" fill-rule="nonzero"></path>
        <g id="ref" transform="translate(708.000000, 0.000000)">
            <rect id="Rectangle-2" fill="#F44D27" fill-rule="evenodd" x="0" y="0" width="106" height="33"></rect>
            <text id="master" stroke="#979797" stroke-width="1" font-family="RobotoMono-Regular, Roboto Mono" font-size="11.1428571" font-weight="normal" fill="#FFFFFF">
                <tspan x="36.4719473" y="20">topic</tspan>
            </text>
        </g>
    </g>
</svg>