<?xml version="1.0" encoding="UTF-8"?>
<svg id="svg7334" version="1.1" viewBox="0 0 805.2 111" xmlns="http://www.w3.org/2000/svg" xmlns:cc="http://creativecommons.org/ns#" xmlns:dc="http://purl.org/dc/elements/1.1/" xmlns:rdf="http://www.w3.org/1999/02/22-rdf-syntax-ns#">
 <metadata id="metadata7340">
  <rdf:RDF>
   <cc:Work rdf:about="">
    <dc:format>image/svg+xml</dc:format>
    <dc:type rdf:resource="http://purl.org/dc/dcmitype/StillImage"/>
    <dc:title>images/lr-branches-1</dc:title>
   </cc:Work>
  </rdf:RDF>
 </metadata>
 <!-- Generator: Sketch 56.3 (81716) - https://sketch.com -->
 <title id="title7239">images/lr-branches-1</title>
 <desc id="desc7241">Created with Sketch.</desc>
 <g id="g7506" transform="translate(6.2,4)">
  <g id="brown" transform="translate(-2,70)" style="fill-rule:evenodd;fill:none">
   <rect id="Rectangle-1" width="89" height="33" rx="16.5" ry="16.5" style="fill-rule:evenodd;fill:#efefe7"/>
   <text id="C6" font-size="12px" font-weight="700" style="fill:#979797;font-family:'Source Code Pro';font-size:12px;font-weight:700;text-anchor:middle"><tspan id="tspan7244" x="44.5" y="21" style="fill:gray">C1</tspan></text>
  </g>
  <path id="Line" d="m96 86h26v1h-26v4l-9-4.5 9-4.5z" style="fill:#8f8981"/>
  <g id="g7255" transform="translate(116,70)" style="fill-rule:evenodd;fill:none">
   <rect id="rect7249" width="89" height="33" rx="16.5" ry="16.5" style="fill-rule:evenodd;fill:#efefe7"/>
   <text id="text7253" font-size="12px" font-weight="700" style="fill:#979797;font-family:'Source Code Pro';font-size:12px;font-weight:700;text-anchor:middle"><tspan id="tspan7251" x="44.5" y="21" style="fill:gray">C2</tspan></text>
  </g>
  <path id="path7257" d="m214 86h26v1h-26v4l-9-4.5 9-4.5z" style="fill:#8f8981"/>
  <g id="g7265" transform="translate(234,70)" style="fill-rule:evenodd;fill:none">
   <rect id="rect7259" width="89" height="33" rx="16.5" ry="16.5" style="fill-rule:evenodd;fill:#efefe7"/>
   <text id="text7263" font-size="12px" font-weight="700" style="fill:#979797;font-family:'Source Code Pro';font-size:12px;font-weight:700;text-anchor:middle"><tspan id="tspan7261" x="44.5" y="21" style="fill:gray">C3</tspan></text>
  </g>
  <path id="path7267" d="m332 86h26v1h-26v4l-9-4.5 9-4.5z" style="fill:#8f8981"/>
  <g id="g7275" transform="translate(352,70)" style="fill-rule:evenodd;fill:none">
   <rect id="rect7269" width="89" height="33" rx="16.5" ry="16.5" style="fill-rule:evenodd;fill:#efefe7"/>
   <text id="text7273" font-size="12px" font-weight="700" style="fill:#979797;font-family:'Source Code Pro';font-size:12px;font-weight:700;text-anchor:middle"><tspan id="tspan7271" x="44.5" y="21" style="fill:gray">C4</tspan></text>
  </g>
  <path id="path7277" d="m450 86h26v1h-26v4l-9-4.5 9-4.5z" style="fill:#8f8981"/>
  <g id="g7285" transform="translate(470,70)" style="fill-rule:evenodd;fill:none">
   <rect id="rect7279" width="89" height="33" rx="16.5" ry="16.5" style="fill-rule:evenodd;fill:#efefe7"/>
   <text id="text7283" font-size="12px" font-weight="700" style="fill:#979797;font-family:'Source Code Pro';font-size:12px;font-weight:700;text-anchor:middle"><tspan id="tspan7281" x="44.5" y="21" style="fill:gray">C5</tspan></text>
  </g>
  <path id="path7287" d="m568 86h26v1h-26v4l-9-4.5 9-4.5z" style="fill:#8f8981"/>
  <g id="g7295" transform="translate(588,70)" style="fill-rule:evenodd;fill:none">
   <rect id="rect7289" width="89" height="33" rx="16.5" ry="16.5" style="fill-rule:evenodd;fill:#efefe7"/>
   <text id="text7293" font-size="12px" font-weight="700" style="fill:#979797;font-family:'Source Code Pro';font-size:12px;font-weight:700;text-anchor:middle"><tspan id="tspan7291" x="44.5" y="21" style="fill:gray">C6</tspan></text>
  </g>
  <path id="path7297" d="m686 86h26v1h-26v4l-9-4.5 9-4.5z" style="fill:#8f8981"/>
  <g id="g7305" transform="translate(706,70)" style="fill-rule:evenodd;fill:none">
   <rect id="rect7299" width="89" height="33" rx="16.5" ry="16.5" style="fill-rule:evenodd;fill:#efefe7"/>
   <text id="text7303" font-size="12px" font-weight="700" style="fill:#979797;font-family:'Source Code Pro';font-size:12px;font-weight:700;text-anchor:middle"><tspan id="tspan7301" x="44.5" y="21" style="fill:gray">C7</tspan></text>
  </g>
  <g id="g7418">
   <path id="Line-2" transform="translate(-1.2)" d="m43 61v-38h1v38h4l-4.5 9-4.5-9z" style="fill:#8f8981"/>
   <g id="g7411">
    <rect id="Rectangle-2" transform="matrix(.83962 0 0 1 -2.2 0)" width="106" height="33" style="fill-rule:evenodd;fill:#f44d27"/>
    <text id="master" transform="translate(-10.6 .316)" font-size="12px" font-weight="700" style="fill-rule:evenodd;fill:#979797;font-family:'Source Code Pro';font-size:12px;font-weight:700;text-anchor:middle"><tspan id="tspan7309" x="53" y="20" style="fill:#f0f0f0">master</tspan></text>
   </g>
  </g>
  <g id="g7435">
   <path id="path7313" transform="translate(-2.1)" d="m516 61v-38h1v38h4l-4.5 9-4.5-9z" style="fill:#8f8981"/>
   <g id="g7428">
    <rect id="rect7315" transform="matrix(.83962 0 0 1 469.9 0)" width="106" height="33" style="fill-rule:evenodd;fill:#f44d27"/>
    <text id="text7319" transform="translate(461.4 -.398)" font-size="12px" font-weight="700" style="fill-rule:evenodd;fill:#979797;font-family:'Source Code Pro';font-size:12px;font-weight:700;text-anchor:middle"><tspan id="tspan7317" x="53" y="20" style="fill:#f0f0f0">develop</tspan></text>
   </g>
  </g>
  <g id="g7452">
   <path id="path7323" transform="translate(-1.1)" d="m751 61v-38h1v38h4l-4.5 9-4.5-9z" style="fill:#8f8981"/>
   <g id="g7445">
    <rect id="rect7325" transform="matrix(.83962 0 0 1 705.9 0)" width="106" height="33" style="fill-rule:evenodd;fill:#f44d27"/>
    <text id="text7329" transform="translate(697.42 -.074)" font-size="12px" font-weight="700" style="fill-rule:evenodd;fill:#979797;font-family:'Source Code Pro';font-size:12px;font-weight:700;text-anchor:middle"><tspan id="tspan7327" x="53" y="20" style="fill:#f0f0f0">topic</tspan></text>
   </g>
  </g>
 </g>
</svg>
