<?xml version="1.0" encoding="UTF-8"?>
<svg id="svg8182" version="1.1" viewBox="0 0 1226 549" xmlns="http://www.w3.org/2000/svg" xmlns:cc="http://creativecommons.org/ns#" xmlns:dc="http://purl.org/dc/elements/1.1/" xmlns:rdf="http://www.w3.org/1999/02/22-rdf-syntax-ns#">
 <metadata id="metadata8186">
  <rdf:RDF>
   <cc:Work rdf:about="">
    <dc:format>image/svg+xml</dc:format>
    <dc:type rdf:resource="http://purl.org/dc/dcmitype/StillImage"/>
    <dc:title>images/lr-branches-2</dc:title>
   </cc:Work>
  </rdf:RDF>
 </metadata>
 <!-- Generator: Sketch 56.3 (81716) - https://sketch.com -->
 <title id="title8100">images/lr-branches-2</title>
 <desc id="desc8102">Created with Sketch.</desc>
 <g id="layer5">
  <g id="g8856">
   <g id="g8807">
    <g id="g8483">
     <path id="path8438-4" transform="translate(-62.316 362.84)" d="m1038.9-13.453v-17.768l216.14 60.109-216.14 59.731v-17.39h-202.5c-50.527 0-50.723.03736-75.113-41.863l-69.657-120.07h100.05l44.795 77.25z" style="fill:#009094"/>
     <path id="path8438-4-5" transform="translate(-62.316 207.84)" d="m1038.9-13.453v-17.768l216.14 60.109-216.14 59.731v-17.39l-747.75.10541c-50.527 0-50.723.03736-75.113-41.863l-60.935-105.53h100.05l36.073 62.713z" style="fill:#009094"/>
     <path id="path8438" transform="translate(-62.316 67.589)" d="m1038.9-13.453v-17.768l216.14 60.109-216.14 59.731v-17.39h-975.96v-84.683z" style="fill:#009094"/>
    </g>
    <text id="master" transform="matrix(1.1259 0 0 1.1259 29.305 -70.163)" font-size="12px" font-weight="700" style="fill-rule:evenodd;fill:#f0f0f0;font-family:'Source Code Pro';font-size:23.685px;font-weight:700;line-height:29.60627556px"><tspan id="tspan8172" x="853.29297" y="155" style="fill:#f0f0f0;font-size:24.869px;line-height:29.60627556px">master</tspan></text>
    <text id="develop" transform="translate(56.098 -32.126)" font-size="12px" font-weight="700" style="fill-rule:evenodd;fill:#f0f0f0;font-family:'Source Code Pro';font-size:12px;font-weight:700"><tspan id="tspan8175" x="933.5918" y="277" style="fill:#f0f0f0;font-size:28px">develop</tspan></text>
    <text id="topic" transform="translate(-25.903 -12.463)" font-size="12px" font-weight="700" style="fill-rule:evenodd;fill:#f0f0f0;font-family:'Source Code Pro';font-size:12px;font-weight:700"><tspan id="tspan8178" x="1015.4941" y="410" style="fill:#f0f0f0;font-size:28px">topic</tspan></text>
   </g>
  </g>
  <g id="g8843">
   <g id="brown" transform="matrix(1.1564 0 0 1.1564 32.234 79.071)" style="fill-rule:evenodd;fill:none">
    <rect id="Rectangle-1" width="89" height="33" rx="14.268" ry="15.052" style="fill-rule:evenodd;fill:#efefe7"/>
    <text id="C6" transform="translate(.031887 .010444)" font-size="12px" font-weight="700" style="fill:#979797;font-family:'Source Code Pro';font-feature-settings:normal;font-size:13.836px;font-variant-caps:normal;font-variant-ligatures:normal;font-variant-numeric:normal;font-weight:bold;text-align:center;text-anchor:middle"><tspan id="tspan8113" x="44.5" y="21" style="fill:gray;font-family:'Source Code Pro';font-feature-settings:normal;font-size:13.836px;font-variant-caps:normal;font-variant-ligatures:normal;font-variant-numeric:normal;font-weight:bold;text-align:center;text-anchor:middle">C1</tspan></text>
   </g>
   <path id="path8162" transform="translate(105.78 -12.768)" d="m741.47 402.94 18.526.05889v3l-18.526-.0946v4.2125l-17.474-5.6179 17.474-5.6934z" style="fill:#9b9b9b"/>
   <path id="path8162-0-7-6-2" transform="rotate(53.654 708.68 -333.39)" d="m741.47 402.94 113.01-.17194v3l-113.01.13623v4.2125l-17.474-5.6179 17.474-5.6934z" style="fill:#8f8f8f"/>
   <g id="brown-6" transform="matrix(1.1564 0 0 1.1564 184.63 218.54)" style="fill-rule:evenodd;fill:none">
    <rect id="Rectangle-1-5" width="89" height="33" rx="14.268" ry="15.052" style="fill-rule:evenodd;fill:#efefe7"/>
    <text id="C6-8" transform="translate(.031887 .010444)" font-size="12px" font-weight="700" style="fill:#979797;font-family:'Source Code Pro';font-feature-settings:normal;font-size:13.836px;font-variant-caps:normal;font-variant-ligatures:normal;font-variant-numeric:normal;font-weight:bold;text-align:center;text-anchor:middle"><tspan id="tspan8113-2" x="44.5" y="21" style="fill:gray;font-family:'Source Code Pro';font-feature-settings:normal;font-size:13.836px;font-variant-caps:normal;font-variant-ligatures:normal;font-variant-numeric:normal;font-weight:bold;text-align:center;text-anchor:middle">C2</tspan></text>
   </g>
   <path id="path8162-0-7-6" transform="translate(-436.6 -167.77)" d="m741.47 402.94 18.526.05889v3l-18.526-.0946v4.2125l-17.474-5.6179 17.474-5.6934z" style="fill:#9b9b9b"/>
   <g id="brown-6-2" transform="matrix(1.1564 0 0 1.1564 320.19 218.54)" style="fill-rule:evenodd;fill:none">
    <rect id="Rectangle-1-5-5" width="89" height="33" rx="14.268" ry="15.052" style="fill-rule:evenodd;fill:#efefe7"/>
    <text id="C6-8-4" transform="translate(.031887 .010444)" font-size="12px" font-weight="700" style="fill:#979797;font-family:'Source Code Pro';font-feature-settings:normal;font-size:13.836px;font-variant-caps:normal;font-variant-ligatures:normal;font-variant-numeric:normal;font-weight:bold;text-align:center;text-anchor:middle"><tspan id="tspan8113-2-2" x="44.5" y="21" style="fill:gray;font-family:'Source Code Pro';font-feature-settings:normal;font-size:13.836px;font-variant-caps:normal;font-variant-ligatures:normal;font-variant-numeric:normal;font-weight:bold;text-align:center;text-anchor:middle">C3</tspan></text>
   </g>
   <path id="path8162-0-7" transform="translate(-301.01 -167.77)" d="m741.47 402.94 18.526.05889v3l-18.526-.0946v4.2125l-17.474-5.6179 17.474-5.6934z" style="fill:#9b9b9b"/>
   <g id="brown-6-2-6" transform="matrix(1.1564 0 0 1.1564 455.89 218.54)" style="fill-rule:evenodd;fill:none">
    <rect id="Rectangle-1-5-5-3" width="89" height="33" rx="14.268" ry="15.052" style="fill-rule:evenodd;fill:#efefe7"/>
    <text id="C6-8-4-0" transform="translate(.031887 .010444)" font-size="12px" font-weight="700" style="fill:#979797;font-family:'Source Code Pro';font-feature-settings:normal;font-size:13.836px;font-variant-caps:normal;font-variant-ligatures:normal;font-variant-numeric:normal;font-weight:bold;text-align:center;text-anchor:middle"><tspan id="tspan8113-2-2-4" x="44.5" y="21" style="fill:gray;font-family:'Source Code Pro';font-feature-settings:normal;font-size:13.836px;font-variant-caps:normal;font-variant-ligatures:normal;font-variant-numeric:normal;font-weight:bold;text-align:center;text-anchor:middle">C4</tspan></text>
   </g>
   <path id="path8162-0" transform="translate(-165.43 -167.67)" d="m741.47 402.94 18.526.05889v3l-18.526-.0946v4.2125l-17.474-5.6179 17.474-5.6934z" style="fill:#9b9b9b"/>
   <g id="brown-6-2-6-7" transform="matrix(1.1564 0 0 1.1564 610.14 232.78)" style="fill-rule:evenodd;fill:none">
    <rect id="Rectangle-1-5-5-3-6" transform="translate(-16.276 -12.33)" width="89" height="33" rx="14.268" ry="15.052" style="fill-rule:evenodd;fill:#efefe7"/>
    <text id="C6-8-4-0-3" transform="translate(-16.182 -12.319)" font-size="12px" font-weight="700" style="fill:#979797;font-family:'Source Code Pro';font-feature-settings:normal;font-size:13.836px;font-variant-caps:normal;font-variant-ligatures:normal;font-variant-numeric:normal;font-weight:bold;text-align:center;text-anchor:middle"><tspan id="tspan8113-2-2-4-8" x="44.5" y="21" style="fill:gray;font-family:'Source Code Pro';font-feature-settings:normal;font-size:13.836px;font-variant-caps:normal;font-variant-ligatures:normal;font-variant-numeric:normal;font-weight:bold;text-align:center;text-anchor:middle">C5</tspan></text>
   </g>
   <path id="path8162-0-7-6-2-3" transform="rotate(62.743 826.29 296.63)" d="m741.47 402.94 117.82-.11375v3l-117.82.078v4.2125l-17.474-5.6178 17.474-5.6934z" style="fill:#8f8f8f"/>
   <g id="brown-6-2-6-7-1" transform="matrix(1.1564 0 0 1.1564 745.74 386.83)" style="fill-rule:evenodd;fill:none">
    <rect id="Rectangle-1-5-5-3-6-3" transform="translate(-16.276 -12.33)" width="89" height="33" rx="14.268" ry="15.052" style="fill-rule:evenodd;fill:#efefe7"/>
    <text id="C6-8-4-0-3-0" transform="translate(-16.182 -12.319)" font-size="12px" font-weight="700" style="fill:#979797;font-family:'Source Code Pro';font-feature-settings:normal;font-size:13.836px;font-variant-caps:normal;font-variant-ligatures:normal;font-variant-numeric:normal;font-weight:bold;text-align:center;text-anchor:middle"><tspan id="tspan8113-2-2-4-8-1" x="44.5" y="21" style="fill:gray;font-family:'Source Code Pro';font-feature-settings:normal;font-size:13.836px;font-variant-caps:normal;font-variant-ligatures:normal;font-variant-numeric:normal;font-weight:bold;text-align:center;text-anchor:middle">C6</tspan></text>
   </g>
   <g id="brown-6-2-6-7-1-1" transform="matrix(1.1564 0 0 1.1564 881.26 386.83)" style="fill-rule:evenodd;fill:none">
    <rect id="Rectangle-1-5-5-3-6-3-5" transform="translate(-16.276 -12.33)" width="89" height="33" rx="14.268" ry="15.052" style="fill-rule:evenodd;fill:#efefe7"/>
    <text id="C6-8-4-0-3-0-2" transform="translate(-16.182 -12.319)" font-size="12px" font-weight="700" style="fill:#979797;font-family:'Source Code Pro';font-feature-settings:normal;font-size:13.836px;font-variant-caps:normal;font-variant-ligatures:normal;font-variant-numeric:normal;font-weight:bold;text-align:center;text-anchor:middle"><tspan id="tspan8113-2-2-4-8-1-2" x="44.5" y="21" style="fill:gray;font-family:'Source Code Pro';font-feature-settings:normal;font-size:13.836px;font-variant-caps:normal;font-variant-ligatures:normal;font-variant-numeric:normal;font-weight:bold;text-align:center;text-anchor:middle">C7</tspan></text>
   </g>
  </g>
 </g>
</svg>
