<?xml version="1.0" encoding="UTF-8"?>
<svg width="712px" height="335px" viewBox="0 0 712 335" version="1.1" xmlns="http://www.w3.org/2000/svg" xmlns:xlink="http://www.w3.org/1999/xlink">
    <!-- Generator: Sketch 56.3 (81716) - https://sketch.com -->
    <title>images/managed-team-3</title>
    <desc>Created with Sketch.</desc>
    <g id="05---Managed-Team-3" stroke="none" stroke-width="1" fill="none" fill-rule="evenodd">
        <path id="Line-9" d="M575.340617,178.429896 L620.64486,148.807891 L621.192109,149.64486 L575.887866,179.266865 L578.076864,182.614744 L568.081515,183.773625 L573.15162,175.082017 L575.340617,178.429896 Z" fill="#8F8981" fill-rule="nonzero"></path>
        <path id="Line-6" d="M391.606058,238.888563 C415.668156,236.146144 437.914992,232.349222 451.366341,227.559571 C451.522895,227.503826 451.679735,227.447385 451.83686,227.390248 C459.337011,224.66292 467.331181,220.423203 475.525615,215.081883 C480.790209,211.6503 485.819628,207.972811 490.440607,204.295439 C492.05772,203.008542 493.508052,201.813768 494.770004,200.741861 C495.211331,200.366996 495.597479,200.034364 495.92575,199.747808 C496.122169,199.576349 496.255322,199.458645 496.322512,199.398537 L496.695158,199.065168 L497.361896,199.81046 L496.98925,200.143829 C496.919074,200.206608 496.782884,200.326998 496.583369,200.501159 C496.25175,200.790637 495.862194,201.126205 495.417388,201.504024 C494.147533,202.582645 492.689002,203.784173 491.063296,205.077909 C486.419076,208.773775 481.364687,212.469523 476.071676,215.919629 C467.81827,221.299387 459.759585,225.573321 452.178603,228.330042 C452.019385,228.387939 451.860444,228.445137 451.701783,228.501632 C438.152214,233.326256 415.852679,237.13194 391.710766,239.883103 L392.130063,243.8657 L382.708365,240.332768 L391.18773,234.915169 L391.606058,238.888563 Z" fill="#8F8981" fill-rule="nonzero"></path>
        <g id="brown" transform="translate(6.000000, 129.000000)">
            <rect id="Rectangle-1" fill="#EFEFE7" fill-rule="evenodd" x="0" y="0" width="89" height="33" rx="16.5"></rect>
            <text id="C6" stroke="#979797" stroke-width="1" font-family="RobotoMono-Regular, Roboto Mono" font-size="12" font-weight="normal" fill="#000000">
                <tspan x="27.4970703" y="21">4b078</tspan>
            </text>
        </g>
        <path id="Line-4" d="M104,145 L149,145 L149,146 L104,146 L104,150 L95,145.5 L104,141 L104,145 Z" fill="#8F8981" fill-rule="nonzero"></path>
        <g id="brown" transform="translate(125.000000, 129.000000)">
            <rect id="Rectangle-1" fill="#EFEFE7" fill-rule="evenodd" x="0" y="0" width="89" height="33" rx="16.5"></rect>
            <text id="C6" stroke="#979797" stroke-width="1" font-family="RobotoMono-Regular, Roboto Mono" font-size="12" font-weight="normal" fill="#000000">
                <tspan x="27.4970703" y="21">1edee</tspan>
            </text>
        </g>
        <g id="Line-+-brown-2" transform="translate(214.000000, 129.000000)">
            <path id="Line" d="M9,16 L54,16 L54,17 L9,17 L9,21 L0,16.5 L9,12 L9,16 Z" fill="#8F8981" fill-rule="nonzero"></path>
            <g id="jessica" transform="translate(30.000000, 0.000000)">
                <rect id="Rectangle-1" fill="#B8E986" fill-rule="evenodd" x="0" y="0" width="89" height="33" rx="16.5"></rect>
                <text id="C3'" stroke="#979797" stroke-width="1" font-family="RobotoMono-Regular, Roboto Mono" font-size="12" font-weight="normal" fill="#000000">
                    <tspan x="27.4970703" y="21">33009</tspan>
                </text>
            </g>
        </g>
        <g id="Line-+-brown-3" transform="translate(333.000000, 129.000000)">
            <path id="Line" d="M9,16 L54,16 L54,17 L9,17 L9,21 L0,16.5 L9,12 L9,16 Z" fill="#8F8981" fill-rule="nonzero"></path>
            <g id="john" transform="translate(30.000000, 0.000000)">
                <rect id="Rectangle-1" fill="#FCC161" fill-rule="evenodd" x="0" y="0" width="89" height="33" rx="16.5"></rect>
                <text id="C3'" stroke="#979797" stroke-width="1" font-family="RobotoMono-Regular, Roboto Mono" font-size="12" font-weight="normal" fill="#000000">
                    <tspan x="27.4970703" y="21">aad88</tspan>
                </text>
            </g>
        </g>
        <g id="Line-+-brown-4" transform="translate(452.000000, 129.000000)">
            <path id="Line" d="M9,16 L54,16 L54,17 L9,17 L9,21 L0,16.5 L9,12 L9,16 Z" fill="#8F8981" fill-rule="nonzero"></path>
            <g id="jessica" transform="translate(30.000000, 0.000000)">
                <rect id="Rectangle-1" fill="#B8E986" fill-rule="evenodd" x="0" y="0" width="89" height="33" rx="16.5"></rect>
                <text id="C3'" stroke="#979797" stroke-width="1" font-family="RobotoMono-Regular, Roboto Mono" font-size="12" font-weight="normal" fill="#000000">
                    <tspan x="27.4970703" y="21">774b3</tspan>
                </text>
            </g>
        </g>
        <path id="Line" d="M580,145 L625,145 L625,146 L580,146 L580,150 L571,145.5 L580,141 L580,145 Z" fill="#8F8981" fill-rule="nonzero"></path>
        <g id="brown" transform="translate(601.000000, 129.000000)">
            <rect id="Rectangle-1" fill="#EFEFE7" fill-rule="evenodd" x="0" y="0" width="89" height="33" rx="16.5"></rect>
            <text id="C6" stroke="#979797" stroke-width="1" font-family="RobotoMono-Regular, Roboto Mono" font-size="12" font-weight="normal" fill="#000000">
                <tspan x="27.4970703" y="21">5399e</tspan>
            </text>
        </g>
        <g id="Line-5-+-brown-5" transform="translate(333.000000, 177.000000)">
            <path id="Line-5" d="M9,16 L54,16 L54,17 L9,17 L9,21 L0,16.5 L9,12 L9,16 Z" fill="#8F8981" fill-rule="nonzero"></path>
            <g id="jessica" transform="translate(30.000000, 0.000000)">
                <rect id="Rectangle-1" fill="#B8E986" fill-rule="evenodd" x="0" y="0" width="89" height="33" rx="16.5"></rect>
                <text id="C3'" stroke="#979797" stroke-width="1" font-family="RobotoMono-Regular, Roboto Mono" font-size="12" font-weight="normal" fill="#000000">
                    <tspan x="27.4970703" y="21">85127</tspan>
                </text>
            </g>
        </g>
        <path id="Line-7" d="M461,193 L506,193 L506,194 L461,194 L461,198 L452,193.5 L461,189 L461,193 Z" fill="#8F8981" fill-rule="nonzero"></path>
        <g id="jessica" transform="translate(482.000000, 177.000000)">
            <rect id="Rectangle-1" fill="#B8E986" fill-rule="evenodd" x="0" y="0" width="89" height="33" rx="16.5"></rect>
            <text id="C3'" stroke="#979797" stroke-width="1" font-family="RobotoMono-Regular, Roboto Mono" font-size="12" font-weight="normal" fill="#000000">
                <tspan x="27.4970703" y="21">cd685</tspan>
            </text>
        </g>
        <path id="Line-8" d="M177.794081,170.488513 C186.694547,200.132019 197.332039,224.755255 208.081116,232.449762 C214.899009,237.33021 233.122471,240.302172 259.121603,241.682426 C275.452126,242.549388 292.754372,242.700119 308.297292,242.438645 C309.714392,242.414806 310.974738,242.389265 312.063048,242.363728 C312.443836,242.354793 312.775887,242.346498 313.057291,242.339055 C313.225961,242.334594 313.340385,242.331405 313.397994,242.329721 L313.89778,242.315109 L313.927004,243.314682 L313.427218,243.329294 C313.368248,243.331018 313.253337,243.33422 313.08373,243.338705 C312.801341,243.346174 312.468297,243.354494 312.086507,243.363453 C310.996022,243.389041 309.733467,243.414626 308.314112,243.438503 C292.749888,243.700335 275.426162,243.549418 259.068589,242.68102 C232.846804,241.288945 214.540668,238.303501 207.499047,233.262901 C201.274287,228.807034 194.978754,218.601809 188.742879,204.110613 C184.28688,193.75557 180.257053,182.163453 176.832489,170.763174 L172.979914,171.863592 L174.835035,161.973773 L181.633818,169.391761 L177.794081,170.488513 Z" fill="#8F8981" fill-rule="nonzero"></path>
        <g id="josie" transform="translate(294.000000, 225.000000)">
            <rect id="Rectangle-1" fill="#DEB9FF" fill-rule="evenodd" x="0" y="0" width="89" height="33" rx="16.5"></rect>
            <text id="C3'" stroke="#979797" stroke-width="1" font-family="RobotoMono-Regular, Roboto Mono" font-size="12" font-weight="normal" fill="#000000">
                <tspan x="27.4941406" y="21">fba9a</tspan>
            </text>
        </g>
        <path id="Line-3" d="M216.934939,160.649902 L268.190439,193.347377 L267.652623,194.190439 L216.397123,161.492965 L214.24586,164.865214 L209.078469,156.231092 L219.086201,157.277652 L216.934939,160.649902 Z" fill="#8F8981" fill-rule="nonzero"></path>
        <g id="jessica" transform="translate(244.000000, 177.000000)">
            <rect id="Rectangle-1" fill="#B8E986" fill-rule="evenodd" x="0" y="0" width="89" height="33" rx="16.5"></rect>
            <text id="C3'" stroke="#979797" stroke-width="1" font-family="RobotoMono-Regular, Roboto Mono" font-size="12" font-weight="normal" fill="#000000">
                <tspan x="27.4941406" y="21">e5b0f</tspan>
            </text>
        </g>
        <g id="Line-2-+-ref-4-+-ref-(2-line)-2" transform="translate(471.000000, 254.000000)">
            <g id="Line-2-+-ref-4" transform="translate(57.500000, 25.000000) scale(1, -1) translate(-57.500000, -25.000000) translate(56.000000, 0.000000)" fill="#8F8981" fill-rule="nonzero">
                <path id="Line-2" d="M1,41.0192308 L1,-0.0192307692 L2,-0.0192307692 L2,41.0192308 L6,41.0192308 L1.5,50.0192308 L-3,41.0192308 L1,41.0192308 Z"></path>
            </g>
            <g id="ref-(2-line)" transform="translate(0.000000, 31.000000)">
                <rect id="Rectangle-2" fill="#F44D27" fill-rule="evenodd" x="0" y="0" width="110.580108" height="38"></rect>
                <text id="master" stroke="#979797" stroke-width="1" font-family="RobotoMono-Regular, Roboto Mono" font-size="11.1428571" font-weight="normal" fill="#FFFFFF">
                    <tspan x="31.8862453" y="15.53125">origin/</tspan>
                    <tspan x="21.8533212" y="28.53125">featureBee</tspan>
                </text>
            </g>
        </g>
        <g id="Line-2-+-ref" transform="translate(469.000000, 210.000000)">
            <path id="Line-2" d="M58,9 L58,32 L57,32 L57,9 L53,9 L57.5,0 L62,9 L58,9 Z" fill="#8F8981" fill-rule="nonzero"></path>
            <g id="ref" transform="translate(0.000000, 22.000000)">
                <rect id="Rectangle-2" fill="#F44D27" x="0" y="0" width="116" height="38"></rect>
                <text id="master" stroke="#979797" font-family="RobotoMono-Regular, Roboto Mono" font-size="11.1428571" font-weight="normal" fill="#FFFFFF">
                    <tspan x="30.9128605" y="21.5151515">featureB</tspan>
                </text>
            </g>
        </g>
        <g id="Line-2-+-ref-2" transform="translate(111.000000, 68.000000)">
            <path id="Line-2" d="M57,52 L57,9 L58,9 L58,52 L62,52 L57.5,61 L53,52 L57,52 Z" fill="#8F8981" fill-rule="nonzero"></path>
            <g id="ref">
                <rect id="Rectangle-2" fill="#F44D27" x="0" y="0" width="116" height="38"></rect>
                <text id="master" stroke="#979797" font-family="RobotoMono-Regular, Roboto Mono" font-size="11.1428571" font-weight="normal" fill="#FFFFFF">
                    <tspan x="37.6023833" y="21.5151515">master</tspan>
                </text>
            </g>
        </g>
        <g id="Line-2-+-ref-4-+-ref-(2-line)" transform="translate(470.000000, 10.000000)">
            <g id="Line-2-+-ref-4" transform="translate(55.000000, 19.000000)" fill="#8F8981" fill-rule="nonzero">
                <path id="Line-2" d="M1,43 L1,-2.22044605e-16 L2,-2.22044605e-16 L2,43 L6,43 L1.5,52 L-3,43 L1,43 Z"></path>
            </g>
            <g id="ref-(2-line)">
                <rect id="Rectangle-2" fill="#F44D27" fill-rule="evenodd" x="0" y="0" width="110.580108" height="38"></rect>
                <text id="master" stroke="#979797" stroke-width="1" font-family="RobotoMono-Regular, Roboto Mono" font-size="11.1428571" font-weight="normal" fill="#FFFFFF">
                    <tspan x="31.8862453" y="15.53125">origin/</tspan>
                    <tspan x="28.5401237" y="28.53125">featureA</tspan>
                </text>
            </g>
        </g>
        <g id="Line-2-+-ref-4-+-ref-(2-line)-3" transform="translate(590.000000, 68.000000)">
            <g id="Line-2-+-ref-4" transform="translate(55.000000, 19.000000)" fill="#8F8981" fill-rule="nonzero">
                <path id="Line-2" d="M0,33.0961538 L0,-0.0961538462 L1,-0.0961538462 L1,33.0961538 L5,33.0961538 L0.5,42.0961538 L-4,33.0961538 L0,33.0961538 Z"></path>
            </g>
            <g id="ref-(2-line)">
                <rect id="Rectangle-2" fill="#F44D27" fill-rule="evenodd" x="0" y="0" width="110.580108" height="38"></rect>
                <text id="master" stroke="#979797" stroke-width="1" font-family="RobotoMono-Regular, Roboto Mono" font-size="11.1428571" font-weight="normal" fill="#FFFFFF">
                    <tspan x="31.8862453" y="15.53125">origin/</tspan>
                    <tspan x="35.2296466" y="28.53125">master</tspan>
                </text>
            </g>
        </g>
        <g id="Line-2-+-ref-3" transform="translate(469.000000, 68.000000)">
            <path id="Line-2" d="M57,52 L57,9 L58,9 L58,52 L62,52 L57.5,61 L53,52 L57,52 Z" fill="#8F8981" fill-rule="nonzero"></path>
            <g id="ref">
                <rect id="Rectangle-2" fill="#F44D27" x="0" y="0" width="116" height="38"></rect>
                <text id="master" stroke="#979797" font-family="RobotoMono-Regular, Roboto Mono" font-size="11.1428571" font-weight="normal" fill="#FFFFFF">
                    <tspan x="30.9128605" y="21.5151515">featureA</tspan>
                </text>
            </g>
        </g>
    </g>
</svg>