<?xml version="1.0" encoding="UTF-8"?>
<svg width="647px" height="220px" viewBox="0 0 647 220" version="1.1" xmlns="http://www.w3.org/2000/svg" xmlns:xlink="http://www.w3.org/1999/xlink">
    <!-- Generator: Sketch 56.3 (81716) - https://sketch.com -->
    <title>images/merging-workflows-5</title>
    <desc>Created with Sketch.</desc>
    <g id="05---Merging-Workflows-5" stroke="none" stroke-width="1" fill="none" fill-rule="evenodd">
        <g id="Line-+-brown-2" transform="translate(6.000000, 66.000000)">
            <g id="brown">
                <rect id="Rectangle-1" fill="#EFEFE7" fill-rule="evenodd" x="0" y="0" width="89" height="33" rx="16.5"></rect>
                <text id="C6" stroke="#979797" stroke-width="1" font-family="RobotoMono-Regular, Roboto Mono" font-size="12" font-weight="normal" fill="#000000">
                    <tspan x="38.2988281" y="21">C1</tspan>
                </text>
            </g>
        </g>
        <path id="Line-4" d="M104,82 L149,82 L149,83 L104,83 L104,87 L95,82.5 L104,78 L104,82 Z" fill="#8F8981" fill-rule="nonzero"></path>
        <g id="brown" transform="translate(125.000000, 66.000000)">
            <rect id="Rectangle-1" fill="#EFEFE7" fill-rule="evenodd" x="0" y="0" width="89" height="33" rx="16.5"></rect>
            <text id="C6" stroke="#979797" stroke-width="1" font-family="RobotoMono-Regular, Roboto Mono" font-size="12" font-weight="normal" fill="#000000">
                <tspan x="38.2988281" y="21">C2</tspan>
            </text>
        </g>
        <path id="Line-3" d="M223,82 L268,82 L268,83 L223,83 L223,87 L214,82.5 L223,78 L223,82 Z" fill="#8F8981" fill-rule="nonzero"></path>
        <g id="brown" transform="translate(244.000000, 66.000000)">
            <rect id="Rectangle-1" fill="#EFEFE7" fill-rule="evenodd" x="0" y="0" width="89" height="33" rx="16.5"></rect>
            <text id="C6" stroke="#979797" stroke-width="1" font-family="RobotoMono-Regular, Roboto Mono" font-size="12" font-weight="normal" fill="#000000">
                <tspan x="38.2988281" y="21">C5</tspan>
            </text>
        </g>
        <g id="Line-+-brown-5" transform="translate(209.000000, 94.000000)">
            <path id="Line" d="M7.83266063,4.82805823 L59.1939201,39.3640775 L58.6359225,40.1939201 L7.27466304,5.6579008 L5.04267269,8.97727107 L0.0850787153,0.221001205 L10.064651,1.50868795 L7.83266063,4.82805823 Z" fill="#8F8981" fill-rule="nonzero"></path>
            <g id="brown" transform="translate(35.000000, 23.000000)">
                <rect id="Rectangle-1" fill="#EFEFE7" fill-rule="evenodd" x="0" y="0" width="89" height="33" rx="16.5"></rect>
                <text id="C6" stroke="#979797" stroke-width="1" font-family="RobotoMono-Regular, Roboto Mono" font-size="12" font-weight="normal" fill="#000000">
                    <tspan x="38.2988281" y="21">C3</tspan>
                </text>
            </g>
        </g>
        <g id="Line-5-+-brown-5" transform="translate(333.000000, 117.000000)">
            <path id="Line-5" d="M9,16 L54,16 L54,17 L9,17 L9,21 L0,16.5 L9,12 L9,16 Z" fill="#8F8981" fill-rule="nonzero"></path>
            <g id="brown" transform="translate(30.000000, 0.000000)">
                <rect id="Rectangle-1" fill="#EFEFE7" fill-rule="evenodd" x="0" y="0" width="89" height="33" rx="16.5"></rect>
                <text id="C6" stroke="#979797" stroke-width="1" font-family="RobotoMono-Regular, Roboto Mono" font-size="12" font-weight="normal" fill="#000000">
                    <tspan x="38.2988281" y="21">C4</tspan>
                </text>
            </g>
        </g>
        <path id="Line-7" d="M343,82 L506,82 L506,83 L343,83 L343,87 L334,82.5 L343,78 L343,82 Z" fill="#8F8981" fill-rule="nonzero"></path>
        <path id="Line-6" d="M456.062965,118.075288 L505.608062,81.8011992 L506.198801,82.608062 L456.653703,118.882151 L459.016659,122.109602 L449.096569,123.795369 L453.700009,114.847837 L456.062965,118.075288 Z" fill="#8F8981" fill-rule="nonzero"></path>
        <g id="brown" transform="translate(481.000000, 66.000000)">
            <rect id="Rectangle-1" fill="#EFEFE7" fill-rule="evenodd" x="0" y="0" width="89" height="33" rx="16.5"></rect>
            <text id="C6" stroke="#979797" stroke-width="1" font-family="RobotoMono-Regular, Roboto Mono" font-size="12" font-weight="normal" fill="#000000">
                <tspan x="38.2988281" y="21">C6</tspan>
            </text>
        </g>
        <g id="Line-2-+-ref" transform="translate(547.000000, 9.000000)">
            <path id="Line-2" d="M9.1377574,48.404184 L26.2170572,4.85196964 L27.1480304,5.21705717 L10.0687306,48.7692716 L13.7926234,50.2296217 L6.31745624,56.9654866 L5.4138646,46.9438339 L9.1377574,48.404184 Z" fill="#8F8981" fill-rule="nonzero"></path>
            <g id="ref">
                <rect id="Rectangle-2" fill="#F44D27" fill-rule="evenodd" x="0" y="0" width="74.2990654" height="33"></rect>
                <text id="master" stroke="#979797" stroke-width="1" font-family="RobotoMono-Regular, Roboto Mono" font-size="11.1428571" font-weight="normal" fill="#FFFFFF">
                    <tspan x="13.8781682" y="20">develop</tspan>
                </text>
            </g>
        </g>
        <g id="Line-2-+-ref-4" transform="translate(449.000000, 9.000000)">
            <path id="Line-2" d="M47.4935571,47.986784 L27.836802,5.25470758 L28.7452924,4.83680197 L48.4020476,47.5688783 L52.0360094,45.8972559 L51.7089528,55.9542452 L43.8595953,49.6584064 L47.4935571,47.986784 Z" fill="#8F8981" fill-rule="nonzero"></path>
            <g id="ref">
                <rect id="Rectangle-2" fill="#F44D27" fill-rule="evenodd" x="0" y="0" width="78.2616822" height="33"></rect>
                <text id="master" stroke="#979797" stroke-width="1" font-family="RobotoMono-Regular, Roboto Mono" font-size="11.1428571" font-weight="normal" fill="#FFFFFF">
                    <tspan x="19.2099415" y="20">master</tspan>
                </text>
            </g>
        </g>
        <g id="Line-2-+-ref-2" transform="translate(365.000000, 150.000000)">
            <path id="Line-2" d="M43,9 L43,41 L42,41 L42,9 L38,9 L42.5,0 L47,9 L43,9 Z" fill="#8F8981" fill-rule="nonzero"></path>
            <g id="ref" transform="translate(0.000000, 24.000000)">
                <rect id="Rectangle-2" fill="#F44D27" fill-rule="evenodd" x="0" y="0" width="106" height="33"></rect>
                <text id="master" stroke="#979797" stroke-width="1" font-family="RobotoMono-Regular, Roboto Mono" font-size="11.1428571" font-weight="normal" fill="#FFFFFF">
                    <tspan x="16.41154" y="20">ruby_client</tspan>
                </text>
            </g>
        </g>
    </g>
</svg>