<?xml version="1.0" encoding="UTF-8"?>
<svg id="svg11416" version="1.1" viewBox="0 0 454 206" xmlns="http://www.w3.org/2000/svg" xmlns:cc="http://creativecommons.org/ns#" xmlns:dc="http://purl.org/dc/elements/1.1/" xmlns:rdf="http://www.w3.org/1999/02/22-rdf-syntax-ns#">
 <metadata id="metadata11422">
  <rdf:RDF>
   <cc:Work rdf:about="">
    <dc:format>image/svg+xml</dc:format>
    <dc:type rdf:resource="http://purl.org/dc/dcmitype/StillImage"/>
    <dc:title>images/merging-workflows-3</dc:title>
   </cc:Work>
  </rdf:RDF>
 </metadata>
 <!-- Generator: Sketch 56.3 (81716) - https://sketch.com -->
 <title id="title11337">images/merging-workflows-3</title>
 <desc id="desc11339">Created with Sketch.</desc>
 <g id="g11670" transform="translate(-2,-5)">
  <g id="Line-+-brown-2" transform="translate(6,66)" style="fill-rule:evenodd;fill:none">
   <g id="brown">
    <rect id="Rectangle-1" width="89" height="33" rx="16.5" ry="16.5" style="fill-rule:evenodd;fill:#efefe7"/>
    <text id="C6" font-size="12px" font-weight="700" style="fill:#979797;font-family:'Source Code Pro';font-size:12px;font-weight:700;text-anchor:middle"><tspan id="tspan11342" x="44.5" y="21" style="fill:gray">C1</tspan></text>
   </g>
  </g>
  <path id="Line" d="m104 82h45v1h-45v4l-9-4.5 9-4.5z" style="fill:#8f8981"/>
  <g id="g11354" transform="translate(125,66)" style="fill-rule:evenodd;fill:none">
   <rect id="rect11348" width="89" height="33" rx="16.5" ry="16.5" style="fill-rule:evenodd;fill:#efefe7"/>
   <text id="text11352" font-size="12px" font-weight="700" style="fill:#979797;font-family:'Source Code Pro';font-size:12px;font-weight:700;text-anchor:middle"><tspan id="tspan11350" x="44.5" y="21" style="fill:gray">C2</tspan></text>
  </g>
  <path id="Line-3" d="m223 82h45v1h-45v4l-9-4.5 9-4.5z" style="fill:#8f8981"/>
  <g id="g11363" transform="translate(244,66)" style="fill-rule:evenodd;fill:none">
   <rect id="rect11357" width="89" height="33" rx="16.5" ry="16.5" style="fill-rule:evenodd;fill:#efefe7"/>
   <text id="text11361" font-size="12px" font-weight="700" style="fill:#979797;font-family:'Source Code Pro';font-size:12px;font-weight:700;text-anchor:middle"><tspan id="tspan11359" x="44.5" y="21" style="fill:gray">C5</tspan></text>
  </g>
  <g id="Line-+-brown-5" transform="translate(209,94)" style="fill-rule:evenodd;fill:none">
   <path id="path11365" d="m7.8327 4.8281 51.361 34.536-.558.82984-51.361-34.536-2.232 3.3194-4.9576-8.7563 9.9796 1.2877z" style="fill-rule:nonzero;fill:#8f8981"/>
   <g id="g11373" transform="translate(35,23)">
    <rect id="rect11367" width="89" height="33" rx="16.5" ry="16.5" style="fill-rule:evenodd;fill:#efefe7"/>
    <text id="text11371" font-size="12px" font-weight="700" style="fill:#979797;font-family:'Source Code Pro';font-size:12px;font-weight:700;text-anchor:middle"><tspan id="tspan11369" x="44.5" y="21" style="fill:gray">C3</tspan></text>
   </g>
  </g>
  <path id="path11376" d="m342 133h45v1h-45v4l-9-4.5 9-4.5z" style="fill:#8f8981"/>
  <g id="g11384" transform="translate(363,117)" style="fill-rule:evenodd;fill:none">
   <rect id="rect11378" width="89" height="33" rx="16.5" ry="16.5" style="fill-rule:evenodd;fill:#efefe7"/>
   <text id="text11382" font-size="12px" font-weight="700" style="fill:#979797;font-family:'Source Code Pro';font-size:12px;font-weight:700;text-anchor:middle"><tspan id="tspan11380" x="44.5" y="21" style="fill:gray">C4</tspan></text>
  </g>
  <g id="g11602">
   <path id="Line-2" transform="translate(245.8,9)" d="m42 48v-43h1v43h4l-4.5 9-4.5-9z" style="fill:#8f8981"/>
   <g id="g11595">
    <rect id="Rectangle-2" transform="matrix(.83962 0 0 1 243.8 9)" width="106" height="33" style="fill-rule:evenodd;fill:#f44d27"/>
    <text id="master" transform="translate(235.3 8.602)" font-size="12px" font-weight="700" style="fill-rule:evenodd;fill:#979797;font-family:'Source Code Pro';font-size:12px;font-weight:700;text-anchor:middle"><tspan id="tspan11388" x="53" y="20" style="fill:#f0f0f0">develop</tspan></text>
   </g>
  </g>
  <g id="g11580">
   <path id="path11393" transform="translate(127,9)" d="m42 48v-43h1v43h4l-4.5 9-4.5-9z" style="fill:#8f8981"/>
   <g id="g11573">
    <rect id="rect11395" transform="matrix(.83962 0 0 1 125 9)" width="106" height="33" style="fill-rule:evenodd;fill:#f44d27"/>
    <text id="text11399" transform="translate(116.6 9.316)" font-size="12px" font-weight="700" style="fill-rule:evenodd;fill:#979797;font-family:'Source Code Pro';font-size:12px;font-weight:700;text-anchor:middle"><tspan id="tspan11397" x="53" y="20" style="fill:#f0f0f0">master</tspan></text>
   </g>
  </g>
  <g id="g11624">
   <path id="path11404" transform="translate(365,150)" d="m43 9v32h-1v-32h-4l4.5-9 4.5 9z" style="fill:#8f8981"/>
   <g id="g11617">
    <rect id="rect11406" transform="matrix(.83962 0 0 1 363 174)" width="106" height="33" style="fill-rule:evenodd;fill:#f44d27"/>
    <text id="text11410" transform="translate(354.1 173.87)" font-size="12px" font-weight="700" style="fill-rule:evenodd;fill:#979797;font-family:'Source Code Pro';font-size:12px;font-weight:700;text-anchor:middle"><tspan id="tspan11408" x="53" y="20" style="fill:#f0f0f0">ruby_client</tspan></text>
   </g>
  </g>
 </g>
</svg>
