<?xml version="1.0" encoding="UTF-8"?>
<svg id="svg10299" version="1.1" viewBox="0 0 566 335" xmlns="http://www.w3.org/2000/svg" xmlns:cc="http://creativecommons.org/ns#" xmlns:dc="http://purl.org/dc/elements/1.1/" xmlns:rdf="http://www.w3.org/1999/02/22-rdf-syntax-ns#">
 <metadata id="metadata10305">
  <rdf:RDF>
   <cc:Work rdf:about="">
    <dc:format>image/svg+xml</dc:format>
    <dc:type rdf:resource="http://purl.org/dc/dcmitype/StillImage"/>
    <dc:title>images/perils-of-rebasing-1</dc:title>
   </cc:Work>
  </rdf:RDF>
 </metadata>
 <!-- Generator: Sketch 56.3 (81716) - https://sketch.com -->
 <title id="title10230">images/perils-of-rebasing-1</title>
 <desc id="desc10232">Created with Sketch.</desc>
 <g id="03---Perils-of-Rebase-1" fill="none" fill-rule="evenodd">
  <rect id="Rectangle-10" x="16" y="17" width="535" height="111" stroke="#8F8981" stroke-linecap="square"/>
  <rect id="Rectangle-11" x="16" y="158" width="535" height="158" stroke="#8F8981" stroke-linecap="square"/>
  <g id="brown" transform="translate(46 67)">
   <rect id="Rectangle-1" width="89" height="33" rx="16.5" fill="#EFEFE7" fill-rule="evenodd"/>
   <text id="C6" fill="#979797" font-family="Source Code Pro" font-size="12px" font-weight="700" text-anchor="middle"><tspan id="tspan10237" x="44.5" y="21" fill="#808080">C1</tspan></text>
  </g>
  <path id="Line-2" d="m145 83h38v1h-38v4l-9-4.5 9-4.5v4z" fill="#8F8981" fill-rule="nonzero"/>
  <g id="ref" transform="translate(173 67)">
   <rect id="Rectangle-2" width="106" height="33" fill="#F44D27" fill-rule="evenodd"/>
   <text id="master" fill="#979797" font-family="Source Code Pro" font-size="12px" font-weight="700" text-anchor="middle"><tspan id="tspan10243" x="53" y="20" fill="#f0f0f0">master</tspan></text>
  </g>
  <g id="g10253" transform="translate(44 211)">
   <rect id="rect10247" width="89" height="33" rx="16.5" fill="#EFEFE7" fill-rule="evenodd"/>
   <text id="text10251" fill="#979797" font-family="Source Code Pro" font-size="12px" font-weight="700" text-anchor="middle"><tspan id="tspan10249" x="44.5" y="21" fill="#808080">C1</tspan></text>
  </g>
  <path id="Line-3" d="m136.64 244.15 35.563 26.249-.59385.80457-35.563-26.249-2.3754 3.2183-4.5688-8.9653 9.9135 1.7241-2.3754 3.2183z" fill="#8F8981" fill-rule="nonzero"/>
  <g id="g10262" transform="translate(161 262)">
   <rect id="rect10256" width="89" height="33" rx="16.5" fill="#EFEFE7" fill-rule="evenodd"/>
   <text id="text10260" fill="#979797" font-family="Source Code Pro" font-size="12px" font-weight="700" text-anchor="middle"><tspan id="tspan10258" x="44.5" y="21" fill="#808080">C2</tspan></text>
  </g>
  <path id="Line-4" d="m259 278h39v1h-39v4l-9-4.5 9-4.5v4z" fill="#8F8981" fill-rule="nonzero"/>
  <g id="g10271" transform="translate(278 262)">
   <rect id="rect10265" width="89" height="33" rx="16.5" fill="#EFEFE7" fill-rule="evenodd"/>
   <text id="text10269" fill="#979797" font-family="Source Code Pro" font-size="12px" font-weight="700" text-anchor="middle"><tspan id="tspan10267" x="44.5" y="21" fill="#808080">C3</tspan></text>
  </g>
  <g id="Line-5-+-ref-2" transform="translate(369 262)">
   <path id="Line-5" d="m9 16h39v1h-39v4l-9-4.5 9-4.5v4z" fill="#8F8981" fill-rule="nonzero"/>
   <g id="g10280" transform="translate(33)">
    <rect id="rect10274" width="106" height="33" fill="#F44D27" fill-rule="evenodd"/>
    <text id="text10278" fill="#979797" font-family="Source Code Pro" font-size="12px" font-weight="700" text-anchor="middle"><tspan id="tspan10276" x="53" y="20" fill="#f0f0f0">master</tspan></text>
   </g>
  </g>
  <g id="Line-6-+-ref-3" transform="translate(133 211)">
   <path id="Line-6" d="m9 16h38v1h-38v4l-9-4.5 9-4.5v4z" fill="#8F8981" fill-rule="nonzero"/>
   <g id="ref-3" transform="translate(38)">
    <rect id="rect10284" width="111" height="33" fill="#F44D27"/>
    <text id="text10288" fill="#979797" font-family="Source Code Pro" font-size="12px" font-weight="700" text-anchor="middle"><tspan id="tspan10286" x="55.5" y="20" fill="#f0f0f0">teamone/master</tspan></text>
   </g>
  </g>
  <text id="My-Computer" fill="#979797" font-family="Source Code Pro" font-size="12px" font-weight="700" text-anchor="middle" style="fill:#404040"><tspan id="tspan10292" x="267.5" y="179" fill="#f0f0f0" style="fill:#404040">My Computer</tspan></text>
  <text id="git.team1.ourcompany" fill="#979797" font-family="Source Code Pro" font-size="12px" font-weight="700" text-anchor="middle" style="fill:#404040"><tspan id="tspan10295" x="267.5" y="36" fill="#f0f0f0" style="fill:#404040">git.team1.ourcompany.com</tspan></text>
 </g>
</svg>
