<?xml version="1.0" encoding="UTF-8"?>
<svg id="svg11666" version="1.1" viewBox="0 0 630 399" xmlns="http://www.w3.org/2000/svg" xmlns:cc="http://creativecommons.org/ns#" xmlns:dc="http://purl.org/dc/elements/1.1/" xmlns:rdf="http://www.w3.org/1999/02/22-rdf-syntax-ns#">
 <metadata id="metadata11672">
  <rdf:RDF>
   <cc:Work rdf:about="">
    <dc:format>image/svg+xml</dc:format>
    <dc:type rdf:resource="http://purl.org/dc/dcmitype/StillImage"/>
    <dc:title>images/perils-of-rebasing-3</dc:title>
   </cc:Work>
  </rdf:RDF>
 </metadata>
 <!-- Generator: Sketch 56.3 (81716) - https://sketch.com -->
 <title id="title11496">images/perils-of-rebasing-3</title>
 <desc id="desc11498">Created with Sketch.</desc>
 <g id="03---Perils-of-Rebase-3" fill="none" fill-rule="evenodd">
  <rect id="Rectangle-10" x="16" y="17" width="599.48" height="151" stroke="#8F8981" stroke-linecap="square"/>
  <path id="Line-10" transform="translate(-18)" d="m370.37 315.52 33.829 27.909-.63639.77138-33.829-27.909-2.5455 3.0855-4.0786-9.1986 9.8061 2.2563z" style="fill-rule:nonzero;fill:#8f8981"/>
  <rect id="Rectangle-11" x="16" y="198" width="599.48" height="184" stroke="#8F8981" stroke-linecap="square"/>
  <g id="brown" transform="translate(46 107)">
   <rect id="Rectangle-1" width="89" height="33" rx="16.5" fill="#EFEFE7" fill-rule="evenodd"/>
   <text id="C6" fill="#979797" font-family="Source Code Pro" font-size="12px" font-weight="700" text-anchor="middle"><tspan id="tspan11504" x="44.5" y="21" fill="#808080">C1</tspan></text>
  </g>
  <g id="Line-2-+-ref" transform="translate(368 56)">
   <path id="Line-2" d="m9 16h38v1h-38v4l-9-4.5 9-4.5v4z" fill="#8F8981" fill-rule="nonzero"/>
   <g id="ref" transform="translate(37)">
    <rect id="Rectangle-2" width="106" height="33" fill="#F44D27" fill-rule="evenodd"/>
    <text id="master" fill="#979797" font-family="Source Code Pro" font-size="12px" font-weight="700" text-anchor="middle"><tspan id="tspan11510" x="53" y="20" fill="#f0f0f0">master</tspan></text>
   </g>
  </g>
  <g id="g11521" transform="translate(26,281)">
   <rect id="rect11515" width="89" height="33" rx="16.5" ry="16.5" style="fill-rule:evenodd;fill:#efefe7"/>
   <text id="text11519" font-size="12px" font-weight="700" style="fill:#979797;font-family:'Source Code Pro';font-size:12px;font-weight:700;text-anchor:middle"><tspan id="tspan11517" x="44.5" y="21" style="fill:gray">C1</tspan></text>
  </g>
  <path id="Line-3" transform="translate(-18)" d="m136.64 314.15 35.563 26.249-.59385.80457-35.563-26.249-2.3754 3.2183-4.5688-8.9653 9.9135 1.7241z" style="fill-rule:nonzero;fill:#8f8981"/>
  <g id="g11530" transform="translate(143,332)">
   <rect id="rect11524" width="89" height="33" rx="16.5" ry="16.5" style="fill-rule:evenodd;fill:#efefe7"/>
   <text id="text11528" font-size="12px" font-weight="700" style="fill:#979797;font-family:'Source Code Pro';font-size:12px;font-weight:700;text-anchor:middle"><tspan id="tspan11526" x="44.5" y="21" style="fill:gray">C2</tspan></text>
  </g>
  <g id="Line-4-+-brown-3" transform="translate(232,332)">
   <path id="Line-4" d="m9 16h39v1h-39v4l-9-4.5 9-4.5z" style="fill-rule:nonzero;fill:#8f8981"/>
   <g id="g11539" transform="translate(28)">
    <rect id="rect11533" width="89" height="33" rx="16.5" ry="16.5" style="fill-rule:evenodd;fill:#efefe7"/>
    <text id="text11537" font-size="12px" font-weight="700" style="fill:#979797;font-family:'Source Code Pro';font-size:12px;font-weight:700;text-anchor:middle"><tspan id="tspan11535" x="44.5" y="21" style="fill:gray">C3</tspan></text>
   </g>
  </g>
  <g id="Line-4-+-brown-8" transform="translate(349,332)">
   <path id="path11542" d="m9 16h39v1h-39v4l-9-4.5 9-4.5z" style="fill-rule:nonzero;fill:#8f8981"/>
   <g id="g11550" transform="translate(28)">
    <rect id="rect11544" width="89" height="33" rx="16.5" ry="16.5" style="fill-rule:evenodd;fill:#efefe7"/>
    <text id="text11548" font-size="12px" font-weight="700" style="fill:#979797;font-family:'Source Code Pro';font-size:12px;font-weight:700;text-anchor:middle"><tspan id="tspan11546" x="44.5" y="21" style="fill:gray">C7</tspan></text>
   </g>
  </g>
  <g id="Line-4-+-brown-9" transform="translate(253 56)">
   <path id="path11553" d="m9 16h39v1h-39v4l-9-4.5 9-4.5v4z" fill="#8F8981" fill-rule="nonzero"/>
   <g id="g11561" transform="translate(28)">
    <rect id="rect11555" width="89" height="33" rx="16.5" fill="#EFEFE7" fill-rule="evenodd"/>
    <text id="text11559" fill="#979797" font-family="Source Code Pro" font-size="12px" font-weight="700" text-anchor="middle"><tspan id="tspan11557" x="44.5" y="21" fill="#808080">C4'</tspan></text>
   </g>
  </g>
  <g id="Line-4-+-brown-10" transform="translate(233,231)">
   <path id="path11564" d="m9 16h39v1h-39v4l-9-4.5 9-4.5z" style="fill-rule:nonzero;fill:#8f8981"/>
   <g id="g11572" transform="translate(28)">
    <rect id="rect11566" width="89" height="33" rx="16.5" ry="16.5" style="fill-rule:evenodd;fill:#efefe7"/>
    <text id="text11570" font-size="12px" font-weight="700" style="fill:#979797;font-family:'Source Code Pro';font-size:12px;font-weight:700;text-anchor:middle"><tspan id="tspan11568" x="44.5" y="21" style="fill:gray">C4'</tspan></text>
   </g>
  </g>
  <path id="Line-11" d="m137.93 106.92 45.659-35.122.60971.79262-45.659 35.122 2.4388 3.1705-9.8773 1.9206 4.3899-9.0542 2.4388 3.1705z" fill="#8F8981" fill-rule="nonzero"/>
  <g id="g11582" transform="translate(164 56)">
   <rect id="rect11576" width="89" height="33" rx="16.5" fill="#EFEFE7" fill-rule="evenodd"/>
   <text id="text11580" fill="#979797" font-family="Source Code Pro" font-size="12px" font-weight="700" text-anchor="middle"><tspan id="tspan11578" x="44.5" y="21" fill="#808080">C5</tspan></text>
  </g>
  <g id="Line-4-+-brown-4-+-Line-7-+-Line-4-+-brown-5" transform="translate(136 84)" opacity=".5">
   <g id="Line-4-+-brown-4" transform="translate(0 23)">
    <path id="path11584" d="m9 16h39v1h-39v4l-9-4.5 9-4.5v4z" fill="#8F8981" fill-rule="nonzero"/>
    <g id="g11592" transform="translate(28)">
     <rect id="rect11586" width="89" height="33" rx="16.5" fill="#EFEFE7" fill-rule="evenodd"/>
     <text id="text11590" fill="#979797" font-family="Source Code Pro" font-size="12px" font-weight="700" text-anchor="middle"><tspan id="tspan11588" x="44.5" y="21" fill="#808080">C4</tspan></text>
    </g>
   </g>
   <path id="Line-7" d="m119.37 5.5236 33.829 27.909-.63638.77137-33.829-27.909-2.5455 3.0855-4.0786-9.1986 9.8061 2.2563-2.5455 3.0855z" fill="#8F8981" fill-rule="nonzero"/>
   <g id="Line-4-+-brown-5" transform="translate(117 23)">
    <path id="path11596" d="m9 16h39v1h-39v4l-9-4.5 9-4.5v4z" fill="#8F8981" fill-rule="nonzero"/>
    <g id="g11604" transform="translate(28)">
     <rect id="rect11598" width="89" height="33" rx="16.5" fill="#EFEFE7" fill-rule="evenodd"/>
     <text id="text11602" fill="#979797" font-family="Source Code Pro" font-size="12px" font-weight="700" text-anchor="middle"><tspan id="tspan11600" x="44.5" y="21" fill="#808080">C6</tspan></text>
    </g>
   </g>
  </g>
  <g id="Line-4-+-brown-7" transform="translate(116,282)">
   <path id="path11608" d="m9 16h39v1h-39v4l-9-4.5 9-4.5z" style="fill-rule:nonzero;fill:#8f8981"/>
   <g id="g11616" transform="translate(28)">
    <rect id="rect11610" width="89" height="33" rx="16.5" ry="16.5" style="fill-rule:evenodd;fill:#efefe7"/>
    <text id="text11614" font-size="12px" font-weight="700" style="fill:#979797;font-family:'Source Code Pro';font-size:12px;font-weight:700;text-anchor:middle"><tspan id="tspan11612" x="44.5" y="21" style="fill:gray">C4</tspan></text>
   </g>
  </g>
  <path id="Line-9" transform="translate(-18)" d="m135.93 281.92 45.659-35.122.60971.79263-45.659 35.122 2.4388 3.1705-9.8773 1.9206 4.3899-9.0542z" style="fill-rule:nonzero;fill:#8f8981"/>
  <path id="Line-8" transform="translate(-18)" d="m253.37 264.52 33.829 27.909-.63639.77138-33.829-27.909-2.5455 3.0855-4.0786-9.1986 9.8061 2.2563z" style="fill-rule:nonzero;fill:#8f8981"/>
  <g id="g11627" transform="translate(144,231)">
   <rect id="rect11621" width="89" height="33" rx="16.5" ry="16.5" style="fill-rule:evenodd;fill:#efefe7"/>
   <text id="text11625" font-size="12px" font-weight="700" style="fill:#979797;font-family:'Source Code Pro';font-size:12px;font-weight:700;text-anchor:middle"><tspan id="tspan11623" x="44.5" y="21" style="fill:gray">C5</tspan></text>
  </g>
  <g id="Line-4-+-brown-6" transform="translate(233,282)">
   <path id="path11629" d="m9 16h39v1h-39v4l-9-4.5 9-4.5z" style="fill-rule:nonzero;fill:#8f8981"/>
   <g id="g11637" transform="translate(28)">
    <rect id="rect11631" width="89" height="33" rx="16.5" ry="16.5" style="fill-rule:evenodd;fill:#efefe7"/>
    <text id="text11635" font-size="12px" font-weight="700" style="fill:#979797;font-family:'Source Code Pro';font-size:12px;font-weight:700;text-anchor:middle"><tspan id="tspan11633" x="44.5" y="21" style="fill:gray">C6</tspan></text>
   </g>
  </g>
  <g id="Line-5-+-ref-2" transform="translate(466,332)">
   <path id="Line-5" d="m9 16h39v1h-39v4l-9-4.5 9-4.5z" style="fill-rule:nonzero;fill:#8f8981"/>
   <g id="g11647" transform="translate(33)">
    <rect id="rect11641" width="106" height="33" style="fill-rule:evenodd;fill:#f44d27"/>
    <text id="text11645" font-size="12px" font-weight="700" style="fill:#979797;font-family:'Source Code Pro';font-size:12px;font-weight:700;text-anchor:middle"><tspan id="tspan11643" x="53" y="20" style="fill:#f0f0f0">master</tspan></text>
   </g>
  </g>
  <g id="Line-6-+-ref-3" transform="translate(349,231)">
   <path id="Line-6" d="m9 16h38v1h-38v4l-9-4.5 9-4.5z" style="fill-rule:nonzero;fill:#8f8981"/>
   <g id="ref-3" transform="translate(38)">
    <rect id="rect11651" width="111" height="33" style="fill:#f44d27"/>
    <text id="text11655" font-size="12px" font-weight="700" style="fill:#979797;font-family:'Source Code Pro';font-size:12px;font-weight:700;text-anchor:middle"><tspan id="tspan11653" x="55.5" y="20" style="fill:#f0f0f0">teamone/master</tspan></text>
   </g>
  </g>
  <text id="My-Computer" transform="translate(15.962)" font-size="12px" font-weight="700" style="fill:#404040;font-family:'Source Code Pro';font-size:12px;font-weight:700;text-anchor:middle"><tspan id="tspan11659" x="299.73767" y="219" style="fill:#404040">My Computer</tspan></text>
  <text id="git.team1.ourcompany" transform="translate(15.842)" font-size="12px" font-weight="700" style="fill:#404040;font-family:'Source Code Pro';font-size:12px;font-weight:700;text-anchor:middle"><tspan id="tspan11662" x="299.73767" y="36" style="fill:#404040">git.team1.ourcompany.com</tspan></text>
 </g>
</svg>
