<?xml version="1.0" encoding="UTF-8"?>
<svg id="svg11666" version="1.1" viewBox="0 0 608.48 374" xmlns="http://www.w3.org/2000/svg" xmlns:cc="http://creativecommons.org/ns#" xmlns:dc="http://purl.org/dc/elements/1.1/" xmlns:rdf="http://www.w3.org/1999/02/22-rdf-syntax-ns#">
 <metadata id="metadata11672">
  <rdf:RDF>
   <cc:Work rdf:about="">
    <dc:format>image/svg+xml</dc:format>
    <dc:type rdf:resource="http://purl.org/dc/dcmitype/StillImage"/>
    <dc:title>images/perils-of-rebasing-3</dc:title>
   </cc:Work>
  </rdf:RDF>
 </metadata>
 <!-- Generator: Sketch 56.3 (81716) - https://sketch.com -->
 <title id="title11496">images/perils-of-rebasing-3</title>
 <desc id="desc11498">Created with Sketch.</desc>
 <g id="g15262" transform="translate(-11.5,-12.5)">
  <g id="g15370">
   <rect id="Rectangle-10" x="16" y="17" width="599.48" height="151" style="fill:none;stroke-linecap:square;stroke:#8f8981"/>
   <rect id="Rectangle-11" x="16" y="198" width="599.48" height="184" style="fill:none;stroke-linecap:square;stroke:#8f8981"/>
   <g id="g15151" transform="translate(-1.2289 11.1)">
    <g id="brown" transform="translate(26,106)" style="fill-rule:evenodd;fill:none">
     <rect id="Rectangle-1" width="89" height="33" rx="16.5" ry="16.5" style="fill-rule:evenodd;fill:#efefe7"/>
     <text id="C6" font-size="12px" font-weight="700" style="fill:#979797;font-family:'Source Code Pro';font-size:12px;font-weight:700;text-anchor:middle"><tspan id="tspan11504" x="44.5" y="21" style="fill:gray">C1</tspan></text>
    </g>
    <g id="g15104">
     <path id="Line-2" transform="translate(351,56)" d="m9 16h38v1h-38v4l-9-4.5 9-4.5z" style="fill:#8f8981"/>
     <rect id="Rectangle-2" transform="matrix(1.0377 0 0 1 380 56)" width="106" height="33" style="fill-rule:evenodd;fill:#f44d27"/>
    </g>
    <text id="master" transform="translate(387.1 56.316)" font-size="12px" font-weight="700" style="fill-rule:evenodd;fill:#979797;font-family:'Source Code Pro';font-size:12px;font-weight:700;text-anchor:middle"><tspan id="tspan11510" x="53" y="20" style="fill:#f0f0f0">master</tspan></text>
    <g id="g15107">
     <path id="path11553" transform="translate(233,56)" d="m9 16h39v1h-39v4l-9-4.5 9-4.5z" style="fill:#8f8981"/>
    </g>
    <g id="g11561" transform="translate(262,56)" style="fill-rule:evenodd;fill:none">
     <rect id="rect11555" width="89" height="33" rx="16.5" ry="16.5" style="fill-rule:evenodd;fill:#efefe7"/>
     <text id="text11559" font-size="12px" font-weight="700" style="fill:#979797;font-family:'Source Code Pro';font-size:12px;font-weight:700;text-anchor:middle"><tspan id="tspan11557" x="44.5" y="21" style="fill:gray">C4'</tspan></text>
    </g>
    <g id="g15114">
     <path id="Line-8-7-9" transform="matrix(1 0 0 -1 -134.88 371.26)" d="m253.37 264.52 33.829 27.909-.63639.77138-33.829-27.909-2.5455 3.0855-4.0786-9.1986 9.8061 2.2563z" style="fill:#8f8981"/>
     <g id="g11582" transform="translate(144.01 56.016)" style="fill-rule:evenodd;fill:none">
      <rect id="rect11576" width="89" height="33" rx="16.5" ry="16.5" style="fill-rule:evenodd;fill:#efefe7"/>
      <text id="text11580" font-size="12px" font-weight="700" style="fill:#979797;font-family:'Source Code Pro';font-size:12px;font-weight:700;text-anchor:middle"><tspan id="tspan11578" x="44.5" y="21" style="fill:gray">C5</tspan></text>
     </g>
    </g>
    <g id="g14935" style="opacity:.5">
     <g id="g14912">
      <path id="path11584" transform="translate(114.91 106.2)" d="m9 16h39v1h-39v4l-9-4.5 9-4.5z" style="fill:#8f8981"/>
      <g id="g11592" transform="translate(144.01 106)" style="fill-rule:evenodd;fill:none">
       <rect id="rect11586" width="89" height="33" rx="16.5" ry="16.5" style="fill-rule:evenodd;fill:#efefe7"/>
       <text id="text11590" font-size="12px" font-weight="700" style="fill:#979797;font-family:'Source Code Pro';font-size:12px;font-weight:700;text-anchor:middle"><tspan id="tspan11588" x="44.5" y="21" style="fill:gray">C4</tspan></text>
      </g>
     </g>
     <g id="g14920">
      <path id="Line-7" transform="translate(117.11 82.801)" d="m119.37 5.5236 33.829 27.909-.63638.77137-33.829-27.909-2.5455 3.0855-4.0786-9.1986 9.8061 2.2563-2.5455 3.0855z" style="fill:#8f8981"/>
      <path id="path11596" transform="translate(233.01 106.2)" d="m9 16h39v1h-39v4l-9-4.5 9-4.5z" style="fill:#8f8981"/>
      <g id="g11604" transform="translate(262.01 106)" style="fill-rule:evenodd;fill:none">
       <rect id="rect11598" width="89" height="33" rx="16.5" ry="16.5" style="fill-rule:evenodd;fill:#efefe7"/>
       <text id="text11602" font-size="12px" font-weight="700" style="fill:#979797;font-family:'Source Code Pro';font-size:12px;font-weight:700;text-anchor:middle"><tspan id="tspan11600" x="44.5" y="21" style="fill:gray">C6</tspan></text>
      </g>
     </g>
    </g>
   </g>
   <g id="g15034" transform="translate(-1.2289)">
    <g id="g11521" transform="translate(26,281)" style="fill-rule:evenodd;fill:none">
     <rect id="rect11515" width="89" height="33" rx="16.5" ry="16.5" style="fill-rule:evenodd;fill:#efefe7"/>
     <text id="text11519" font-size="12px" font-weight="700" style="fill:#979797;font-family:'Source Code Pro';font-size:12px;font-weight:700;text-anchor:middle"><tspan id="tspan11517" x="44.5" y="21" style="fill:gray">C1</tspan></text>
    </g>
    <g id="g14837">
     <path id="Line-8-8-6" transform="translate(-134.88 48.652)" d="m253.37 264.52 33.829 27.909-.63639.77138-33.829-27.909-2.5455 3.0855-4.0786-9.1986 9.8061 2.2563z" style="fill:#8f8981"/>
     <g id="g11530" transform="translate(144.01 331.02)" style="fill-rule:evenodd;fill:none">
      <rect id="rect11524" width="89" height="33" rx="16.5" ry="16.5" style="fill-rule:evenodd;fill:#efefe7"/>
      <text id="text11528" font-size="12px" font-weight="700" style="fill:#979797;font-family:'Source Code Pro';font-size:12px;font-weight:700;text-anchor:middle"><tspan id="tspan11526" x="44.5" y="21" style="fill:gray">C2</tspan></text>
     </g>
    </g>
    <g id="g14830">
     <path id="Line-4" transform="translate(233 331.03)" d="m9 16h39v1h-39v4l-9-4.5 9-4.5z" style="fill:#8f8981"/>
     <g id="g11539" transform="translate(262 331.03)" style="fill-rule:evenodd;fill:none">
      <rect id="rect11533" width="89" height="33" rx="16.5" ry="16.5" style="fill-rule:evenodd;fill:#efefe7"/>
      <text id="text11537" font-size="12px" font-weight="700" style="fill:#979797;font-family:'Source Code Pro';font-size:12px;font-weight:700;text-anchor:middle"><tspan id="tspan11535" x="44.5" y="21" style="fill:gray">C3</tspan></text>
     </g>
    </g>
    <g id="g14864">
     <path id="Line-8-8-9" transform="translate(101.1 48.865)" d="m253.37 264.52 33.829 27.909-.63639.77138-33.829-27.909-2.5455 3.0855-4.0786-9.1986 9.8061 2.2563z" style="fill:#8f8981"/>
     <path id="path11542" transform="translate(351 331.02)" d="m9 16h39v1h-39v4l-9-4.5 9-4.5z" style="fill:#8f8981"/>
     <g id="g11550" transform="translate(379.96 331.02)" style="fill-rule:evenodd;fill:none">
      <rect id="rect11544" width="89" height="33" rx="16.5" ry="16.5" style="fill-rule:evenodd;fill:#efefe7"/>
      <text id="text11548" font-size="12px" font-weight="700" style="fill:#979797;font-family:'Source Code Pro';font-size:12px;font-weight:700;text-anchor:middle"><tspan id="tspan11546" x="44.5" y="21" style="fill:gray">C7</tspan></text>
     </g>
    </g>
    <g id="g14962">
     <path id="path11564" transform="translate(233,231)" d="m9 16h39v1h-39v4l-9-4.5 9-4.5z" style="fill:#8f8981"/>
     <g id="g11572" transform="translate(262 231)" style="fill-rule:evenodd;fill:none">
      <rect id="rect11566" width="89" height="33" rx="16.5" ry="16.5" style="fill-rule:evenodd;fill:#efefe7"/>
      <text id="text11570" font-size="12px" font-weight="700" style="fill:#979797;font-family:'Source Code Pro';font-size:12px;font-weight:700;text-anchor:middle"><tspan id="tspan11568" x="44.5" y="21" style="fill:gray">C4'</tspan></text>
     </g>
    </g>
    <g id="g14844">
     <path id="path11608" transform="translate(115,281)" d="m9 16h39v1h-39v4l-9-4.5 9-4.5z" style="fill:#8f8981"/>
     <g id="g11616" transform="translate(144,281)" style="fill-rule:evenodd;fill:none">
      <rect id="rect11610" width="89" height="33" rx="16.5" ry="16.5" style="fill-rule:evenodd;fill:#efefe7"/>
      <text id="text11614" font-size="12px" font-weight="700" style="fill:#979797;font-family:'Source Code Pro';font-size:12px;font-weight:700;text-anchor:middle"><tspan id="tspan11612" x="44.5" y="21" style="fill:gray">C4</tspan></text>
     </g>
    </g>
    <g id="g14851">
     <path id="Line-8-7-3" transform="matrix(1 0 0 -1 -134.88 546.33)" d="m253.37 264.52 33.829 27.909-.63639.77138-33.829-27.909-2.5455 3.0855-4.0786-9.1986 9.8061 2.2563z" style="fill:#8f8981"/>
     <g id="g11627" transform="translate(144,231)" style="fill-rule:evenodd;fill:none">
      <rect id="rect11621" width="89" height="33" rx="16.5" ry="16.5" style="fill-rule:evenodd;fill:#efefe7"/>
      <text id="text11625" font-size="12px" font-weight="700" style="fill:#979797;font-family:'Source Code Pro';font-size:12px;font-weight:700;text-anchor:middle"><tspan id="tspan11623" x="44.5" y="21" style="fill:gray">C5</tspan></text>
     </g>
    </g>
    <g id="g14971">
     <path id="Line-8-8-7" transform="translate(-16.866 -1.3116)" d="m253.37 264.52 33.829 27.909-.63639.77138-33.829-27.909-2.5455 3.0855-4.0786-9.1986 9.8061 2.2563z" style="fill:#8f8981"/>
     <g id="g14818">
      <path id="path11629" transform="translate(233 281)" d="m9 16h39v1h-39v4l-9-4.5 9-4.5z" style="fill:#8f8981"/>
      <g id="g11637" transform="translate(262 281)" style="fill-rule:evenodd;fill:none">
       <rect id="rect11631" width="89" height="33" rx="16.5" ry="16.5" style="fill-rule:evenodd;fill:#efefe7"/>
       <text id="text11635" font-size="12px" font-weight="700" style="fill:#979797;font-family:'Source Code Pro';font-size:12px;font-weight:700;text-anchor:middle"><tspan id="tspan11633" x="44.5" y="21" style="fill:gray">C6</tspan></text>
      </g>
     </g>
    </g>
    <g id="g14882">
     <path id="Line-5" transform="translate(468.97 331.02)" d="m9 16h39v1h-39v4l-9-4.5 9-4.5z" style="fill:#8f8981"/>
     <g id="g14875">
      <rect id="rect11641" transform="matrix(1.0377 0 0 1 497.94 331.02)" width="106" height="33" style="fill-rule:evenodd;fill:#f44d27"/>
      <text id="text11645" transform="translate(501.1 332.32)" font-size="12px" font-weight="700" style="fill-rule:evenodd;fill:#979797;font-family:'Source Code Pro';font-size:12px;font-weight:700;text-anchor:middle"><tspan id="tspan11643" x="53" y="20" style="fill:#f0f0f0">master</tspan></text>
     </g>
    </g>
    <g id="g14811">
     <path id="Line-6" transform="translate(350.9 231.01)" d="m9 16h38v1h-38v4l-9-4.5 9-4.5z" style="fill:#8f8981"/>
     <g id="g14774" transform="translate(-7.0404 .00839)">
      <rect id="rect11651" transform="matrix(.99099 0 0 1 387 231)" width="111" height="33" style="fill-rule:evenodd;fill:#f44d27"/>
      <text id="text11655" transform="translate(386.52 230.8)" font-size="12px" font-weight="700" style="fill-rule:evenodd;fill:#979797;font-family:'Source Code Pro';font-size:12px;font-weight:700;text-anchor:middle"><tspan id="tspan11653" x="55.5" y="20" style="fill:#f0f0f0">teamone/master</tspan></text>
     </g>
    </g>
   </g>
   <text id="My-Computer" transform="translate(15.964)" font-size="12px" font-weight="700" style="fill-rule:evenodd;fill:#404040;font-family:'Source Code Pro';font-size:12px;font-weight:700;text-anchor:middle"><tspan id="tspan11659" x="299.73767" y="219" style="fill:#404040">My Computer</tspan></text>
   <text id="git.team1.ourcompany" transform="translate(15.844)" font-size="12px" font-weight="700" style="fill-rule:evenodd;fill:#404040;font-family:'Source Code Pro';font-size:12px;font-weight:700;text-anchor:middle"><tspan id="tspan11662" x="299.73767" y="36" style="fill:#404040">git.team1.ourcompany.com</tspan></text>
  </g>
 </g>
</svg>
