<?xml version="1.0" encoding="UTF-8"?>
<svg id="svg10299" version="1.1" viewBox="0 0 566 335" xmlns="http://www.w3.org/2000/svg" xmlns:cc="http://creativecommons.org/ns#" xmlns:dc="http://purl.org/dc/elements/1.1/" xmlns:rdf="http://www.w3.org/1999/02/22-rdf-syntax-ns#">
 <metadata id="metadata10305">
  <rdf:RDF>
   <cc:Work rdf:about="">
    <dc:format>image/svg+xml</dc:format>
    <dc:type rdf:resource="http://purl.org/dc/dcmitype/StillImage"/>
    <dc:title>images/perils-of-rebasing-1</dc:title>
   </cc:Work>
  </rdf:RDF>
 </metadata>
 <!-- Generator: Sketch 56.3 (81716) - https://sketch.com -->
 <title id="title10230">images/perils-of-rebasing-1</title>
 <desc id="desc10232">Created with Sketch.</desc>
 <g id="g12824">
  <rect id="Rectangle-10" x="16" y="17" width="535" height="111" style="fill:none;stroke-linecap:square;stroke:#8f8981"/>
  <rect id="Rectangle-11" x="16" y="158" width="535" height="158" style="fill:none;stroke-linecap:square;stroke:#8f8981"/>
  <g id="brown" transform="translate(46,67)" style="fill-rule:evenodd;fill:none">
   <rect id="Rectangle-1" width="89" height="33" rx="16.5" style="fill-rule:evenodd;fill:#efefe7"/>
   <text id="C6" font-size="12px" font-weight="700" style="fill:#979797;font-family:'Source Code Pro';font-size:12px;font-weight:700;text-anchor:middle"><tspan id="tspan10237" x="44.5" y="21" style="fill:gray">C1</tspan></text>
  </g>
  <g id="g12746">
   <path id="Line-2" transform="translate(-1)" d="m145 83h38v1h-38v4l-9-4.5 9-4.5z" style="fill:#8f8981"/>
   <g id="g12737">
    <rect id="Rectangle-2" transform="matrix(1.0377 0 0 1 170.8 67)" width="106" height="33" style="fill-rule:evenodd;fill:#f44d27"/>
    <text id="master" transform="translate(172.9 67.316)" font-size="12px" font-weight="700" style="fill-rule:evenodd;fill:#979797;font-family:'Source Code Pro';font-size:12px;font-weight:700;text-anchor:middle"><tspan id="tspan10243" x="53" y="20" style="fill:#f0f0f0">master</tspan></text>
   </g>
  </g>
  <g id="g10253" transform="translate(45.9,211)" style="fill-rule:evenodd;fill:none">
   <rect id="rect10247" width="89" height="33" rx="16.5" ry="16.5" style="fill-rule:evenodd;fill:#efefe7"/>
   <text id="text10251" font-size="12px" font-weight="700" style="fill:#979797;font-family:'Source Code Pro';font-size:12px;font-weight:700;text-anchor:middle"><tspan id="tspan10249" x="44.5" y="21" style="fill:gray">C1</tspan></text>
  </g>
  <path id="Line-3" d="m136.64 244.15 35.563 26.249-.59385.80457-35.563-26.249-2.3754 3.2183-4.5688-8.9653 9.9135 1.7241-2.3754 3.2183z" style="fill:#8f8981"/>
  <g id="g10262" transform="translate(161,262)" style="fill-rule:evenodd;fill:none">
   <rect id="rect10256" width="89" height="33" rx="16.5" style="fill-rule:evenodd;fill:#efefe7"/>
   <text id="text10260" font-size="12px" font-weight="700" style="fill:#979797;font-family:'Source Code Pro';font-size:12px;font-weight:700;text-anchor:middle"><tspan id="tspan10258" x="44.5" y="21" style="fill:gray">C2</tspan></text>
  </g>
  <path id="Line-4" d="m259 278h39v1h-39v4l-9-4.5 9-4.5z" style="fill:#8f8981"/>
  <g id="g10271" transform="translate(278,262)" style="fill-rule:evenodd;fill:none">
   <rect id="rect10265" width="89" height="33" rx="16.5" style="fill-rule:evenodd;fill:#efefe7"/>
   <text id="text10269" font-size="12px" font-weight="700" style="fill:#979797;font-family:'Source Code Pro';font-size:12px;font-weight:700;text-anchor:middle"><tspan id="tspan10267" x="44.5" y="21" style="fill:gray">C3</tspan></text>
  </g>
  <g id="g12780">
   <path id="Line-5" transform="translate(367.1,262)" d="m9 16h39v1h-39v4l-9-4.5 9-4.5z" style="fill:#8f8981"/>
   <g id="g12773">
    <rect id="rect10274" transform="matrix(1.0377 0 0 1 400.1 262)" width="106" height="33" style="fill-rule:evenodd;fill:#f44d27"/>
    <text id="text10278" transform="translate(402.2 262.32)" font-size="12px" font-weight="700" style="fill-rule:evenodd;fill:#979797;font-family:'Source Code Pro';font-size:12px;font-weight:700;text-anchor:middle"><tspan id="tspan10276" x="53" y="20" style="fill:#f0f0f0">master</tspan></text>
   </g>
  </g>
  <g id="g12758">
   <path id="Line-6" transform="translate(134.9,211)" d="m9 16h38v1h-38v4l-9-4.5 9-4.5z" style="fill:#8f8981"/>
   <g id="g12720">
    <rect id="rect10284" transform="matrix(.99099 0 0 1 171 211)" width="111" height="33" style="fill-rule:evenodd;fill:#f44d27"/>
    <text id="text10288" transform="translate(170.52 210.8)" font-size="12px" font-weight="700" style="fill-rule:evenodd;fill:#979797;font-family:'Source Code Pro';font-size:12px;font-weight:700;text-anchor:middle"><tspan id="tspan10286" x="55.5" y="20" style="fill:#f0f0f0">teamone/master</tspan></text>
   </g>
  </g>
  <text id="My-Computer" transform="translate(15.962)" font-size="12px" font-weight="700" style="fill-rule:evenodd;fill:#404040;font-family:'Source Code Pro';font-size:12px;font-weight:700;text-anchor:middle"><tspan id="tspan10292" x="267.5" y="179" style="fill:#404040">My Computer</tspan></text>
  <text id="git.team1.ourcompany" transform="translate(15.842)" font-size="12px" font-weight="700" style="fill-rule:evenodd;fill:#404040;font-family:'Source Code Pro';font-size:12px;font-weight:700;text-anchor:middle"><tspan id="tspan10295" x="267.5" y="36" style="fill:#404040">git.team1.ourcompany.com</tspan></text>
 </g>
</svg>
