<?xml version="1.0" encoding="UTF-8"?>
<svg id="svg12162" version="1.1" viewBox="0 0 734.89 374" xmlns="http://www.w3.org/2000/svg" xmlns:cc="http://creativecommons.org/ns#" xmlns:dc="http://purl.org/dc/elements/1.1/" xmlns:rdf="http://www.w3.org/1999/02/22-rdf-syntax-ns#">
 <metadata id="metadata12168">
  <rdf:RDF>
   <cc:Work rdf:about="">
    <dc:format>image/svg+xml</dc:format>
    <dc:type rdf:resource="http://purl.org/dc/dcmitype/StillImage"/>
    <dc:title>images/perils-of-rebasing-4</dc:title>
   </cc:Work>
  </rdf:RDF>
 </metadata>
 <!-- Generator: Sketch 56.3 (81716) - https://sketch.com -->
 <title id="title11980">images/perils-of-rebasing-4</title>
 <desc id="desc11982">Created with Sketch.</desc>
 <g id="g1816" transform="translate(-11.5,-12.5)">
  <rect id="Rectangle-10" x="16" y="17" width="725.89" height="151" style="fill:none;stroke-linecap:square;stroke:#8f8981"/>
  <rect id="Rectangle-11" x="16" y="198" width="725.89" height="184" style="fill:none;stroke-linecap:square;stroke:#8f8981"/>
  <g id="g1633" transform="translate(-7.9999)">
   <g id="brown" transform="translate(37,117.1)" style="fill-rule:evenodd;fill:none">
    <rect id="Rectangle-1" width="89" height="33" rx="16.5" ry="16.5" style="fill-rule:evenodd;fill:#efefe7"/>
    <text id="C6" font-size="12px" font-weight="700" style="fill:#979797;font-family:'Source Code Pro';font-size:12px;font-weight:700;text-anchor:middle"><tspan id="tspan11989" x="44.5" y="21" style="fill:gray">C1</tspan></text>
   </g>
   <path id="Line-2" transform="translate(362,66.1)" d="m9 16h38v1h-38v4l-9-4.5 9-4.5z" style="fill:#8f8981"/>
   <g id="g1173" transform="translate(-14,10.1)">
    <rect id="Rectangle-2" transform="matrix(1.0377 0 0 1 405 56)" width="106" height="33" style="fill-rule:evenodd;fill:#f44d27"/>
    <text id="master" transform="translate(407.1 56.316)" font-size="12px" font-weight="700" style="fill-rule:evenodd;fill:#979797;font-family:'Source Code Pro';font-size:12px;font-weight:700;text-anchor:middle"><tspan id="tspan11995" x="53" y="20" style="fill:#f0f0f0">master</tspan></text>
   </g>
   <g id="g1584">
    <path id="path12049" transform="translate(244 66.07)" d="m9 16h39v1h-39v4l-9-4.5 9-4.5z" style="fill:#8f8981"/>
    <g id="g12057" transform="translate(273.02 66.07)" style="fill-rule:evenodd;fill:none">
     <rect id="rect12051" width="89" height="33" rx="16.5" ry="16.5" style="fill-rule:evenodd;fill:#efefe7"/>
     <text id="text12055" font-size="12px" font-weight="700" style="fill:#979797;font-family:'Source Code Pro';font-size:12px;font-weight:700;text-anchor:middle"><tspan id="tspan12053" x="44.5" y="21" style="fill:gray">C4'</tspan></text>
    </g>
   </g>
   <g id="g1572">
    <path id="Line-11" transform="translate(-8.9562 10.287)" d="m137.93 106.92 45.659-35.122.60971.79262-45.659 35.122 2.4388 3.1705-9.8773 1.9206 4.3899-9.0542 2.4388 3.1705z" style="fill:#8f8981"/>
   </g>
   <g id="g12078" transform="translate(155,66.1)" style="fill-rule:evenodd;fill:none">
    <rect id="rect12072" width="89" height="33" rx="16.5" ry="16.5" style="fill-rule:evenodd;fill:#efefe7"/>
    <text id="text12076" font-size="12px" font-weight="700" style="fill:#979797;font-family:'Source Code Pro';font-size:12px;font-weight:700;text-anchor:middle"><tspan id="tspan12074" x="44.5" y="21" style="fill:gray">C5</tspan></text>
   </g>
   <g id="g1569" style="opacity:.5">
    <g id="g1554">
     <path id="path12080" transform="translate(125.9 117.1)" d="m9 16h39v1h-39v4l-9-4.5 9-4.5z" style="fill:#8f8981"/>
     <g id="g12088" transform="translate(155.02 117.1)" style="fill-rule:evenodd;fill:none">
      <rect id="rect12082" width="89" height="33" rx="16.5" ry="16.5" style="fill-rule:evenodd;fill:#efefe7"/>
      <text id="text12086" font-size="12px" font-weight="700" style="fill:#979797;font-family:'Source Code Pro';font-size:12px;font-weight:700;text-anchor:middle"><tspan id="tspan12084" x="44.5" y="21" style="fill:gray">C4</tspan></text>
     </g>
    </g>
    <g id="g1547">
     <path id="Line-7" transform="translate(128.16 92.646)" d="m119.37 5.5236 33.829 27.909-.63638.77137-33.829-27.909-2.5455 3.0855-4.0786-9.1986 9.8061 2.2563-2.5455 3.0855z" style="fill:#8f8981"/>
     <path id="path12092" transform="translate(244.1,117.1)" d="m9 16h39v1h-39v4l-9-4.5 9-4.5z" style="fill:#8f8981"/>
     <g id="g12100" transform="translate(273,117.1)" style="fill-rule:evenodd;fill:none">
      <rect id="rect12094" width="89" height="33" rx="16.5" ry="16.5" style="fill-rule:evenodd;fill:#efefe7"/>
      <text id="text12098" font-size="12px" font-weight="700" style="fill:#979797;font-family:'Source Code Pro';font-size:12px;font-weight:700;text-anchor:middle"><tspan id="tspan12096" x="44.5" y="21" style="fill:gray">C6</tspan></text>
     </g>
    </g>
   </g>
  </g>
  <g id="g1703" transform="translate(-8.0785)">
   <g id="g12006" transform="translate(37.079 282)" style="fill-rule:evenodd;fill:none">
    <rect id="rect12000" width="89" height="33" rx="16.5" ry="16.5" style="fill-rule:evenodd;fill:#efefe7"/>
    <text id="text12004" font-size="12px" font-weight="700" style="fill:#979797;font-family:'Source Code Pro';font-size:12px;font-weight:700;text-anchor:middle"><tspan id="tspan12002" x="44.5" y="21" style="fill:gray">C1</tspan></text>
   </g>
   <g id="g1386">
    <path id="Line-3" transform="translate(-6.9593 -.14305)" d="m136.64 314.15 35.563 26.249-.59385.80457-35.563-26.249-2.3754 3.2183-4.5688-8.9653 9.9135 1.7241z" style="fill:#8f8981"/>
    <g id="g12015" transform="translate(154.97 333)" style="fill-rule:evenodd;fill:none">
     <rect id="rect12009" width="89" height="33" rx="16.5" ry="16.5" style="fill-rule:evenodd;fill:#efefe7"/>
     <text id="text12013" font-size="12px" font-weight="700" style="fill:#979797;font-family:'Source Code Pro';font-size:12px;font-weight:700;text-anchor:middle"><tspan id="tspan12011" x="44.5" y="21" style="fill:gray">C2</tspan></text>
    </g>
   </g>
   <g id="g1379">
    <path id="Line-4" transform="translate(243.92 333)" d="m9 16h39v1h-39v4l-9-4.5 9-4.5z" style="fill:#8f8981"/>
    <g id="g12024" transform="translate(273.02 333)" style="fill-rule:evenodd;fill:none">
     <rect id="rect12018" width="89" height="33" rx="16.5" ry="16.5" style="fill-rule:evenodd;fill:#efefe7"/>
     <text id="text12022" font-size="12px" font-weight="700" style="fill:#979797;font-family:'Source Code Pro';font-size:12px;font-weight:700;text-anchor:middle"><tspan id="tspan12020" x="44.5" y="21" style="fill:gray">C3</tspan></text>
    </g>
   </g>
   <g id="g1427">
    <path id="Line-10" transform="translate(-4.8771 -1.3)" d="m370.37 315.52 33.829 27.909-.63639.77138-33.829-27.909-2.5455 3.0855-4.0786-9.1986 9.8061 2.2563z" style="fill:#8f8981"/>
    <path id="path12027" transform="translate(362 333)" d="m9 16h39v1h-39v4l-9-4.5 9-4.5z" style="fill:#8f8981"/>
    <g id="g12035" transform="translate(390.99 333)" style="fill-rule:evenodd;fill:none">
     <rect id="rect12029" width="89" height="33" rx="16.5" ry="16.5" style="fill-rule:evenodd;fill:#efefe7"/>
     <text id="text12033" font-size="12px" font-weight="700" style="fill:#979797;font-family:'Source Code Pro';font-size:12px;font-weight:700;text-anchor:middle"><tspan id="tspan12031" x="44.5" y="21" style="fill:gray">C7</tspan></text>
    </g>
   </g>
   <g id="g1419">
    <path id="Line-12" transform="translate(-5.8284 -.4)" d="m372.15 262.23 153.03 86.078-.49026.87158-153.03-86.078-1.961 3.4863-5.638-8.3344 10.05.49026z" style="fill:#8f8981"/>
    <path id="path12038" transform="translate(480 333)" d="m9 16h39v1h-39v4l-9-4.5 9-4.5z" style="fill:#8f8981"/>
    <g id="g1394">
     <rect id="rect12040" transform="matrix(1 0 0 .86842 508.98 333)" width="89" height="38" rx="19" ry="21.879" style="fill-rule:evenodd;fill:#efefe7"/>
     <text id="text12044" transform="translate(509.01 330.9)" font-size="12px" font-weight="700" style="fill-rule:evenodd;fill:#979797;font-family:'Source Code Pro';font-size:12px;font-weight:700;text-anchor:middle"><tspan id="tspan12042" x="44.5" y="22.515152" style="fill:gray">C8</tspan></text>
    </g>
   </g>
   <g id="g1465">
    <path id="path12060" transform="translate(244 230.98)" d="m9 16h39v1h-39v4l-9-4.5 9-4.5z" style="fill:#8f8981"/>
    <g id="g12068" transform="translate(273.02 230.98)" style="fill-rule:evenodd;fill:none">
     <rect id="rect12062" width="89" height="33" rx="16.5" ry="16.5" style="fill-rule:evenodd;fill:#efefe7"/>
     <text id="text12066" font-size="12px" font-weight="700" style="fill:#979797;font-family:'Source Code Pro';font-size:12px;font-weight:700;text-anchor:middle"><tspan id="tspan12064" x="44.5" y="21" style="fill:gray">C4'</tspan></text>
    </g>
   </g>
   <g id="g1434">
    <path id="path12104" transform="translate(126,282)" d="m9 16h39v1h-39v4l-9-4.5 9-4.5z" style="fill:#8f8981"/>
    <g id="g12112" transform="translate(155,282)" style="fill-rule:evenodd;fill:none">
     <rect id="rect12106" width="89" height="33" rx="16.5" ry="16.5" style="fill-rule:evenodd;fill:#efefe7"/>
     <text id="text12110" font-size="12px" font-weight="700" style="fill:#979797;font-family:'Source Code Pro';font-size:12px;font-weight:700;text-anchor:middle"><tspan id="tspan12108" x="44.5" y="21" style="fill:gray">C4</tspan></text>
    </g>
   </g>
   <path id="Line-8" transform="translate(-5.8583 -1.277)" d="m253.37 264.52 33.829 27.909-.63639.77138-33.829-27.909-2.5455 3.0855-4.0786-9.1986 9.8061 2.2563z" style="fill:#8f8981"/>
   <g id="g1472">
    <path id="Line-9" transform="translate(-6.9657 .17967)" d="m135.93 281.92 45.659-35.122.60971.79263-45.659 35.122 2.4388 3.1705-9.8773 1.9206 4.3899-9.0542z" style="fill:#8f8981"/>
    <g id="g12123" transform="translate(154.97 230.98)" style="fill-rule:evenodd;fill:none">
     <rect id="rect12117" width="89" height="33" rx="16.5" ry="16.5" style="fill-rule:evenodd;fill:#efefe7"/>
     <text id="text12121" font-size="12px" font-weight="700" style="fill:#979797;font-family:'Source Code Pro';font-size:12px;font-weight:700;text-anchor:middle"><tspan id="tspan12119" x="44.5" y="21" style="fill:gray">C5</tspan></text>
    </g>
   </g>
   <g id="g1453">
    <path id="path12125" transform="translate(244 282)" d="m9 16h39v1h-39v4l-9-4.5 9-4.5z" style="fill:#8f8981"/>
    <g id="g12133" transform="translate(273.02 282)" style="fill-rule:evenodd;fill:none">
     <rect id="rect12127" width="89" height="33" rx="16.5" ry="16.5" style="fill-rule:evenodd;fill:#efefe7"/>
     <text id="text12131" font-size="12px" font-weight="700" style="fill:#979797;font-family:'Source Code Pro';font-size:12px;font-weight:700;text-anchor:middle"><tspan id="tspan12129" x="44.5" y="21" style="fill:gray">C6</tspan></text>
    </g>
   </g>
   <g id="g1411">
    <path id="Line-5" transform="translate(598,332)" d="m9 16h39v1h-39v4l-9-4.5 9-4.5z" style="fill:#8f8981"/>
    <g id="g1404">
     <rect id="rect12137" transform="matrix(1.0377 0 0 1 626.97 333)" width="106" height="33" style="fill-rule:evenodd;fill:#f44d27"/>
     <text id="text12141" transform="translate(629.07 333.32)" font-size="12px" font-weight="700" style="fill-rule:evenodd;fill:#979797;font-family:'Source Code Pro';font-size:12px;font-weight:700;text-anchor:middle"><tspan id="tspan12139" x="53" y="20" style="fill:#f0f0f0">master</tspan></text>
    </g>
   </g>
   <g id="g1497">
    <path id="Line-6" transform="translate(362,231)" d="m9 16h38v1h-38v4l-9-4.5 9-4.5z" style="fill:#8f8981"/>
    <g id="g1489">
     <g id="g1160" transform="translate(-7)">
      <rect id="rect12147" transform="matrix(.99099 0 0 1 398 231)" width="111" height="33" style="fill-rule:evenodd;fill:#f44d27"/>
     </g>
     <text id="text12151" transform="translate(390.52 230.8)" font-size="12px" font-weight="700" style="fill-rule:evenodd;fill:#979797;font-family:'Source Code Pro';font-size:12px;font-weight:700;text-anchor:middle"><tspan id="tspan12149" x="55.5" y="20" style="fill:#f0f0f0">teamone/master</tspan></text>
    </g>
   </g>
  </g>
  <text id="My-Computer" transform="translate(15.961)" font-size="12px" font-weight="700" style="fill-rule:evenodd;fill:#404040;font-family:'Source Code Pro';font-size:12px;font-weight:700;text-anchor:middle"><tspan id="tspan12155" x="362.94543" y="219" style="fill:#404040">My Computer</tspan></text>
  <text id="git.team1.ourcompany" transform="translate(15.841)" font-size="12px" font-weight="700" style="fill-rule:evenodd;fill:#404040;font-family:'Source Code Pro';font-size:12px;font-weight:700;text-anchor:middle"><tspan id="tspan12158" x="362.94543" y="36" style="fill:#404040">git.team1.ourcompany.com</tspan></text>
 </g>
</svg>
