<?xml version="1.0" encoding="UTF-8"?>
<svg width="729px" height="220px" viewBox="0 0 729 220" version="1.1" xmlns="http://www.w3.org/2000/svg" xmlns:xlink="http://www.w3.org/1999/xlink">
    <!-- Generator: Sketch 56.3 (81716) - https://sketch.com -->
    <title>images/public-small-3</title>
    <desc>Created with Sketch.</desc>
    <g id="05---Public-Small-3" stroke="none" stroke-width="1" fill="none" fill-rule="evenodd">
        <g id="brown" transform="translate(5.000000, 74.000000)">
            <rect id="Rectangle-1" fill="#EFEFE7" fill-rule="evenodd" x="0" y="0" width="89" height="33" rx="16.5"></rect>
            <text id="C6" stroke="#979797" stroke-width="1" font-family="RobotoMono-Regular, Roboto Mono" font-size="12" font-weight="normal" fill="#000000">
                <tspan x="27.4970703" y="21">4b078</tspan>
            </text>
        </g>
        <path id="Line-4" d="M103,90 L148,90 L148,91 L103,91 L103,95 L94,90.5 L103,86 L103,90 Z" fill="#8F8981" fill-rule="nonzero"></path>
        <g id="brown" transform="translate(124.000000, 74.000000)">
            <rect id="Rectangle-1" fill="#EFEFE7" fill-rule="evenodd" x="0" y="0" width="89" height="33" rx="16.5"></rect>
            <text id="C6" stroke="#979797" stroke-width="1" font-family="RobotoMono-Regular, Roboto Mono" font-size="12" font-weight="normal" fill="#000000">
                <tspan x="27.4970703" y="21">1edee</tspan>
            </text>
        </g>
        <g id="Line-+-brown-2" transform="translate(213.000000, 74.000000)">
            <path id="Line" d="M9,16 L54,16 L54,17 L9,17 L9,21 L0,16.5 L9,12 L9,16 Z" fill="#8F8981" fill-rule="nonzero"></path>
            <g id="brown" transform="translate(30.000000, 0.000000)">
                <rect id="Rectangle-1" fill="#EFEFE7" fill-rule="evenodd" x="0" y="0" width="89" height="33" rx="16.5"></rect>
                <text id="C6" stroke="#979797" stroke-width="1" font-family="RobotoMono-Regular, Roboto Mono" font-size="12" font-weight="normal" fill="#000000">
                    <tspan x="27.4970703" y="21">33009</tspan>
                </text>
            </g>
        </g>
        <g id="Line-5-+-brown-5" transform="translate(452.000000, 122.000000)">
            <path id="Line-5" d="M9,16 L54,16 L54,17 L9,17 L9,21 L0,16.5 L9,12 L9,16 Z" fill="#8F8981" fill-rule="nonzero"></path>
            <g id="brown" transform="translate(30.000000, 0.000000)">
                <rect id="Rectangle-1" fill="#EFEFE7" fill-rule="evenodd" x="0" y="0" width="89" height="33" rx="16.5"></rect>
                <text id="C6" stroke="#979797" stroke-width="1" font-family="RobotoMono-Regular, Roboto Mono" font-size="12" font-weight="normal" fill="#000000">
                    <tspan x="27.4970703" y="21">5399e</tspan>
                </text>
            </g>
        </g>
        <g id="Line-5-+-brown-6" transform="translate(332.000000, 53.000000)">
            <path id="Line-5" d="M8.5560803,28.7432682 L54.847937,15.8844191 L55.1155809,16.847937 L8.82372416,29.7067861 L9.89429962,33.5608578 L0.0182410452,31.6338219 L7.48550484,24.8891966 L8.5560803,28.7432682 Z" fill="#8F8981" fill-rule="nonzero"></path>
            <g id="brown" transform="translate(31.000000, 0.000000)">
                <rect id="Rectangle-1" fill="#EFEFE7" fill-rule="evenodd" x="0" y="0" width="89" height="33" rx="16.5"></rect>
                <text id="C6" stroke="#979797" stroke-width="1" font-family="RobotoMono-Regular, Roboto Mono" font-size="12" font-weight="normal" fill="#000000">
                    <tspan x="27.4941406" y="21">17f4d</tspan>
                </text>
            </g>
        </g>
        <path id="Line-8" d="M176.794081,115.488513 C185.694547,145.132019 196.332039,169.755255 207.081116,177.449762 C213.899009,182.33021 232.122471,185.302172 258.121603,186.682426 C274.452126,187.549388 291.754372,187.700119 307.297292,187.438645 C308.714392,187.414806 309.974738,187.389265 311.063048,187.363728 C311.443836,187.354793 311.775887,187.346498 312.057291,187.339055 C312.225961,187.334594 312.340385,187.331405 312.397994,187.329721 L312.89778,187.315109 L312.927004,188.314682 L312.427218,188.329294 C312.368248,188.331018 312.253337,188.33422 312.08373,188.338705 C311.801341,188.346174 311.468297,188.354494 311.086507,188.363453 C309.996022,188.389041 308.733467,188.414626 307.314112,188.438503 C291.749888,188.700335 274.426162,188.549418 258.068589,187.68102 C231.846804,186.288945 213.540668,183.303501 206.499047,178.262901 C200.274287,173.807034 193.978754,163.601809 187.742879,149.110613 C183.28688,138.75557 179.257053,127.163453 175.832489,115.763174 L171.979914,116.863592 L173.835035,106.973773 L180.633818,114.391761 L176.794081,115.488513 Z" fill="#8F8981" fill-rule="nonzero"></path>
        <g id="brown" transform="translate(243.000000, 172.000000)">
            <rect id="Rectangle-1" fill="#EFEFE7" fill-rule="evenodd" x="0" y="0" width="89" height="33" rx="16.5"></rect>
            <text id="C6" stroke="#979797" stroke-width="1" font-family="RobotoMono-Regular, Roboto Mono" font-size="12" font-weight="normal" fill="#000000">
                <tspan x="27.4941406" y="21">e5b0f</tspan>
            </text>
        </g>
        <path id="Line-3" d="M335.934939,105.649902 L387.190439,138.347377 L386.652623,139.190439 L335.397123,106.492965 L333.24586,109.865214 L328.078469,101.231092 L338.086201,102.277652 L335.934939,105.649902 Z" fill="#8F8981" fill-rule="nonzero"></path>
        <g id="brown" transform="translate(363.000000, 122.000000)">
            <rect id="Rectangle-1" fill="#EFEFE7" fill-rule="evenodd" x="0" y="0" width="89" height="33" rx="16.5"></rect>
            <text id="C6" stroke="#979797" stroke-width="1" font-family="RobotoMono-Regular, Roboto Mono" font-size="12" font-weight="normal" fill="#000000">
                <tspan x="27.4970703" y="21">dee6b</tspan>
            </text>
        </g>
        <g id="Line-2-+-ref-2" transform="translate(110.000000, 13.000000)">
            <path id="Line-2" d="M57,52 L57,9 L58,9 L58,52 L62,52 L57.5,61 L53,52 L57,52 Z" fill="#8F8981" fill-rule="nonzero"></path>
            <g id="ref">
                <rect id="Rectangle-2" fill="#F44D27" x="0" y="0" width="116" height="38"></rect>
                <text id="master" stroke="#979797" font-family="RobotoMono-Regular, Roboto Mono" font-size="11.1428571" font-weight="normal" fill="#FFFFFF">
                    <tspan x="37.6023833" y="21.5151515">master</tspan>
                </text>
            </g>
        </g>
        <g id="Line-2-+-ref-4-+-ref-(2-line)-3" transform="translate(232.000000, 13.000000)">
            <g id="Line-2-+-ref-4" transform="translate(55.000000, 19.000000)" fill="#8F8981" fill-rule="nonzero">
                <path id="Line-2" d="M0,33.0961538 L0,-0.0961538462 L1,-0.0961538462 L1,33.0961538 L5,33.0961538 L0.5,42.0961538 L-4,33.0961538 L0,33.0961538 Z"></path>
            </g>
            <g id="ref-(2-line)">
                <rect id="Rectangle-2" fill="#F44D27" fill-rule="evenodd" x="0" y="0" width="110.580108" height="38"></rect>
                <text id="master" stroke="#979797" stroke-width="1" font-family="RobotoMono-Regular, Roboto Mono" font-size="11.1428571" font-weight="normal" fill="#FFFFFF">
                    <tspan x="31.8862453" y="15.53125">origin/</tspan>
                    <tspan x="35.2296466" y="28.53125">master</tspan>
                </text>
            </g>
        </g>
        <g id="Line-2-+-ref-3" transform="translate(571.000000, 120.000000)">
            <path id="Line-2" d="M9,19 L85,19 L85,20 L9,20 L9,24 L0,19.5 L9,15 L9,19 Z" fill="#8F8981" fill-rule="nonzero"></path>
            <g id="ref" transform="translate(27.000000, 0.000000)">
                <rect id="Rectangle-2" fill="#F44D27" x="0" y="0" width="116" height="38"></rect>
                <text id="master" stroke="#979797" font-family="RobotoMono-Regular, Roboto Mono" font-size="11.1428571" font-weight="normal" fill="#FFFFFF">
                    <tspan x="30.9128605" y="21.5151515">featureA</tspan>
                </text>
            </g>
        </g>
        <g id="Line-2-+-ref-5" transform="translate(332.000000, 170.000000)">
            <path id="Line-2" d="M9,19 L85,19 L85,20 L9,20 L9,24 L0,19.5 L9,15 L9,19 Z" fill="#8F8981" fill-rule="nonzero"></path>
            <g id="ref" transform="translate(27.000000, 0.000000)">
                <rect id="Rectangle-2" fill="#F44D27" x="0" y="0" width="116" height="38"></rect>
                <text id="master" stroke="#979797" font-family="RobotoMono-Regular, Roboto Mono" font-size="11.1428571" font-weight="normal" fill="#FFFFFF">
                    <tspan x="30.9128605" y="21.5151515">featureB</tspan>
                </text>
            </g>
        </g>
        <g id="Line-2-+-ref-6" transform="translate(452.000000, 50.000000)">
            <path id="Line-2" d="M9,19 L85,19 L85,20 L9,20 L9,24 L0,19.5 L9,15 L9,19 Z" fill="#8F8981" fill-rule="nonzero"></path>
            <g id="ref" transform="translate(27.000000, 0.000000)">
                <rect id="Rectangle-2" fill="#F44D27" x="0" y="0" width="116" height="38"></rect>
                <text id="master" stroke="#979797" font-family="RobotoMono-Regular, Roboto Mono" font-size="11.1428571" font-weight="normal" fill="#FFFFFF">
                    <tspan x="24.226058" y="21.5151515">featureBv2</tspan>
                </text>
            </g>
        </g>
    </g>
</svg>