<?xml version="1.0" encoding="UTF-8"?>
<svg width="607px" height="220px" viewBox="0 0 607 220" version="1.1" xmlns="http://www.w3.org/2000/svg" xmlns:xlink="http://www.w3.org/1999/xlink">
    <!-- Generator: Sketch 56.3 (81716) - https://sketch.com -->
    <title>images/public-small-1</title>
    <desc>Created with Sketch.</desc>
    <g id="05---Public-Small-1" stroke="none" stroke-width="1" fill="none" fill-rule="evenodd">
        <g id="brown" transform="translate(6.000000, 74.000000)">
            <rect id="Rectangle-1" fill="#EFEFE7" fill-rule="evenodd" x="0" y="0" width="89" height="33" rx="16.5"></rect>
            <text id="C6" stroke="#979797" stroke-width="1" font-family="RobotoMono-Regular, Roboto Mono" font-size="12" font-weight="normal" fill="#000000">
                <tspan x="27.4970703" y="21">4b078</tspan>
            </text>
        </g>
        <path id="Line-4" d="M104,90 L149,90 L149,91 L104,91 L104,95 L95,90.5 L104,86 L104,90 Z" fill="#8F8981" fill-rule="nonzero"></path>
        <g id="brown" transform="translate(125.000000, 74.000000)">
            <rect id="Rectangle-1" fill="#EFEFE7" fill-rule="evenodd" x="0" y="0" width="89" height="33" rx="16.5"></rect>
            <text id="C6" stroke="#979797" stroke-width="1" font-family="RobotoMono-Regular, Roboto Mono" font-size="12" font-weight="normal" fill="#000000">
                <tspan x="27.4970703" y="21">1edee</tspan>
            </text>
        </g>
        <g id="Line-+-brown-2" transform="translate(214.000000, 74.000000)">
            <path id="Line" d="M9,16 L54,16 L54,17 L9,17 L9,21 L0,16.5 L9,12 L9,16 Z" fill="#8F8981" fill-rule="nonzero"></path>
            <g id="brown" transform="translate(30.000000, 0.000000)">
                <rect id="Rectangle-1" fill="#EFEFE7" fill-rule="evenodd" x="0" y="0" width="89" height="33" rx="16.5"></rect>
                <text id="C6" stroke="#979797" stroke-width="1" font-family="RobotoMono-Regular, Roboto Mono" font-size="12" font-weight="normal" fill="#000000">
                    <tspan x="27.4970703" y="21">33009</tspan>
                </text>
            </g>
        </g>
        <g id="Line-5-+-brown-5" transform="translate(333.000000, 122.000000)">
            <path id="Line-5" d="M9,16 L54,16 L54,17 L9,17 L9,21 L0,16.5 L9,12 L9,16 Z" fill="#8F8981" fill-rule="nonzero"></path>
            <g id="brown" transform="translate(30.000000, 0.000000)">
                <rect id="Rectangle-1" fill="#EFEFE7" fill-rule="evenodd" x="0" y="0" width="89" height="33" rx="16.5"></rect>
                <text id="C6" stroke="#979797" stroke-width="1" font-family="RobotoMono-Regular, Roboto Mono" font-size="12" font-weight="normal" fill="#000000">
                    <tspan x="27.4970703" y="21">0d708</tspan>
                </text>
            </g>
        </g>
        <path id="Line-8" d="M177.794081,115.488513 C186.694547,145.132019 197.332039,169.755255 208.081116,177.449762 C214.899009,182.33021 233.122471,185.302172 259.121603,186.682426 C275.452126,187.549388 292.754372,187.700119 308.297292,187.438645 C309.714392,187.414806 310.974738,187.389265 312.063048,187.363728 C312.443836,187.354793 312.775887,187.346498 313.057291,187.339055 C313.225961,187.334594 313.340385,187.331405 313.397994,187.329721 L313.89778,187.315109 L313.927004,188.314682 L313.427218,188.329294 C313.368248,188.331018 313.253337,188.33422 313.08373,188.338705 C312.801341,188.346174 312.468297,188.354494 312.086507,188.363453 C310.996022,188.389041 309.733467,188.414626 308.314112,188.438503 C292.749888,188.700335 275.426162,188.549418 259.068589,187.68102 C232.846804,186.288945 214.540668,183.303501 207.499047,178.262901 C201.274287,173.807034 194.978754,163.601809 188.742879,149.110613 C184.28688,138.75557 180.257053,127.163453 176.832489,115.763174 L172.979914,116.863592 L174.835035,106.973773 L181.633818,114.391761 L177.794081,115.488513 Z" fill="#8F8981" fill-rule="nonzero"></path>
        <g id="brown" transform="translate(244.000000, 172.000000)">
            <rect id="Rectangle-1" fill="#EFEFE7" fill-rule="evenodd" x="0" y="0" width="89" height="33" rx="16.5"></rect>
            <text id="C6" stroke="#979797" stroke-width="1" font-family="RobotoMono-Regular, Roboto Mono" font-size="12" font-weight="normal" fill="#000000">
                <tspan x="27.4941406" y="21">e5b0f</tspan>
            </text>
        </g>
        <path id="Line-3" d="M216.934939,105.649902 L268.190439,138.347377 L267.652623,139.190439 L216.397123,106.492965 L214.24586,109.865214 L209.078469,101.231092 L219.086201,102.277652 L216.934939,105.649902 Z" fill="#8F8981" fill-rule="nonzero"></path>
        <g id="brown" transform="translate(244.000000, 122.000000)">
            <rect id="Rectangle-1" fill="#EFEFE7" fill-rule="evenodd" x="0" y="0" width="89" height="33" rx="16.5"></rect>
            <text id="C6" stroke="#979797" stroke-width="1" font-family="RobotoMono-Regular, Roboto Mono" font-size="12" font-weight="normal" fill="#000000">
                <tspan x="27.4970703" y="21">a2de3</tspan>
            </text>
        </g>
        <g id="Line-2-+-ref-2" transform="translate(111.000000, 13.000000)">
            <path id="Line-2" d="M57,52 L57,9 L58,9 L58,52 L62,52 L57.5,61 L53,52 L57,52 Z" fill="#8F8981" fill-rule="nonzero"></path>
            <g id="ref">
                <rect id="Rectangle-2" fill="#F44D27" x="0" y="0" width="116" height="38"></rect>
                <text id="master" stroke="#979797" font-family="RobotoMono-Regular, Roboto Mono" font-size="11.1428571" font-weight="normal" fill="#FFFFFF">
                    <tspan x="37.6023833" y="21.5151515">master</tspan>
                </text>
            </g>
        </g>
        <g id="Line-2-+-ref-4-+-ref-(2-line)-3" transform="translate(233.000000, 13.000000)">
            <g id="Line-2-+-ref-4" transform="translate(55.000000, 19.000000)" fill="#8F8981" fill-rule="nonzero">
                <path id="Line-2" d="M0,33.0961538 L0,-0.0961538462 L1,-0.0961538462 L1,33.0961538 L5,33.0961538 L0.5,42.0961538 L-4,33.0961538 L0,33.0961538 Z"></path>
            </g>
            <g id="ref-(2-line)">
                <rect id="Rectangle-2" fill="#F44D27" fill-rule="evenodd" x="0" y="0" width="110.580108" height="38"></rect>
                <text id="master" stroke="#979797" stroke-width="1" font-family="RobotoMono-Regular, Roboto Mono" font-size="11.1428571" font-weight="normal" fill="#FFFFFF">
                    <tspan x="31.8862453" y="15.53125">origin/</tspan>
                    <tspan x="35.2296466" y="28.53125">master</tspan>
                </text>
            </g>
        </g>
        <g id="Line-2-+-ref-3" transform="translate(452.000000, 120.000000)">
            <path id="Line-2" d="M9,19 L85,19 L85,20 L9,20 L9,24 L0,19.5 L9,15 L9,19 Z" fill="#8F8981" fill-rule="nonzero"></path>
            <g id="ref" transform="translate(27.000000, 0.000000)">
                <rect id="Rectangle-2" fill="#F44D27" x="0" y="0" width="116" height="38"></rect>
                <text id="master" stroke="#979797" font-family="RobotoMono-Regular, Roboto Mono" font-size="11.1428571" font-weight="normal" fill="#FFFFFF">
                    <tspan x="30.9128605" y="21.5151515">featureA</tspan>
                </text>
            </g>
        </g>
        <g id="Line-2-+-ref-5" transform="translate(333.000000, 170.000000)">
            <path id="Line-2" d="M9,19 L85,19 L85,20 L9,20 L9,24 L0,19.5 L9,15 L9,19 Z" fill="#8F8981" fill-rule="nonzero"></path>
            <g id="ref" transform="translate(27.000000, 0.000000)">
                <rect id="Rectangle-2" fill="#F44D27" x="0" y="0" width="116" height="38"></rect>
                <text id="master" stroke="#979797" font-family="RobotoMono-Regular, Roboto Mono" font-size="11.1428571" font-weight="normal" fill="#FFFFFF">
                    <tspan x="30.9128605" y="21.5151515">featureB</tspan>
                </text>
            </g>
        </g>
    </g>
</svg>