<?xml version="1.0" encoding="UTF-8"?>
<svg id="svg3569" version="1.1" viewBox="0 0 692.08 195.03" xmlns="http://www.w3.org/2000/svg" xmlns:cc="http://creativecommons.org/ns#" xmlns:dc="http://purl.org/dc/elements/1.1/" xmlns:rdf="http://www.w3.org/1999/02/22-rdf-syntax-ns#">
 <metadata id="metadata3575">
  <rdf:RDF>
   <cc:Work rdf:about="">
    <dc:format>image/svg+xml</dc:format>
    <dc:type rdf:resource="http://purl.org/dc/dcmitype/StillImage"/>
    <dc:title>images/public-small-2</dc:title>
   </cc:Work>
  </rdf:RDF>
 </metadata>
 <!-- Generator: Sketch 56.3 (81716) - https://sketch.com -->
 <title id="title3470">images/public-small-2</title>
 <desc id="desc3472">Created with Sketch.</desc>
 <g id="g3818" transform="translate(-1 -13.966)">
  <g id="brown" transform="translate(5,74)" style="fill-rule:evenodd;fill:none">
   <rect id="Rectangle-1" width="89" height="33" rx="16.5" ry="16.5" style="fill-rule:evenodd;fill:#efefe7"/>
   <text id="C6" font-size="12px" font-weight="700" style="fill:#979797;font-family:'Source Code Pro';font-size:12px;font-weight:700;text-anchor:middle"><tspan id="tspan3475" x="44.5" y="21" style="fill:gray">4b078</tspan></text>
  </g>
  <path id="Line-4" d="m103 90h45v1h-45v4l-9-4.5 9-4.5z" style="fill:#8f8981"/>
  <g id="g3486" transform="translate(124,74)" style="fill-rule:evenodd;fill:none">
   <rect id="rect3480" width="89" height="33" rx="16.5" ry="16.5" style="fill-rule:evenodd;fill:#efefe7"/>
   <text id="text3484" font-size="12px" font-weight="700" style="fill:#979797;font-family:'Source Code Pro';font-size:12px;font-weight:700;text-anchor:middle"><tspan id="tspan3482" x="44.5" y="21" style="fill:gray">1edee</tspan></text>
  </g>
  <path id="Line" transform="translate(213,74)" d="m9 16h45v1h-45v4l-9-4.5 9-4.5z" style="fill:#8f8981"/>
  <g id="g3495" transform="translate(243,74)" style="fill-rule:evenodd;fill:none">
   <rect id="rect3489" width="89" height="33" rx="16.5" ry="16.5" style="fill-rule:evenodd;fill:#efefe7"/>
   <text id="text3493" font-size="12px" font-weight="700" style="fill:#979797;font-family:'Source Code Pro';font-size:12px;font-weight:700;text-anchor:middle"><tspan id="tspan3491" x="44.5" y="21" style="fill:gray">33009</tspan></text>
  </g>
  <g id="g3725">
   <path id="Line-5" transform="translate(451,122)" d="m9 16h45v1h-45v4l-9-4.5 9-4.5z" style="fill:#8f8981"/>
   <g id="g3505" transform="translate(481.1,122)" style="fill-rule:evenodd;fill:none">
    <rect id="rect3499" width="89" height="33" rx="16.5" ry="16.5" style="fill-rule:evenodd;fill:#efefe7"/>
    <text id="text3503" font-size="12px" font-weight="700" style="fill:#979797;font-family:'Source Code Pro';font-size:12px;font-weight:700;text-anchor:middle"><tspan id="tspan3501" x="44.5" y="21" style="fill:gray">5399e</tspan></text>
   </g>
  </g>
  <path id="Line-8" d="m176.79 115.49c8.9005 29.644 19.538 54.267 30.287 61.961 6.8179 4.8804 25.041 7.8524 51.04 9.2327 16.331.86696 33.633 1.0177 49.176.75621 1.4171-.0238 2.6774-.0494 3.7658-.0749.38079-.009.71284-.0172.99424-.0247.16867-.004.2831-.008.3407-.009l.49979-.0146.0292.99957-.49978.0146c-.059.002-.17388.005-.34349.009-.28239.007-.61543.0158-.99722.0248-1.0905.0256-2.353.0512-3.7724.0751-15.564.26183-32.888.11092-49.246-.75748-26.222-1.3921-44.528-4.3775-51.57-9.4181-6.2248-4.4559-12.52-14.661-18.756-29.152-4.456-10.355-8.4858-21.947-11.91-33.347l-3.8526 1.1004 1.8551-9.8898 6.7988 7.418z" style="fill:#8f8981"/>
  <g id="g3515" transform="translate(243,172)" style="fill-rule:evenodd;fill:none">
   <rect id="rect3509" width="89" height="33" rx="16.5" ry="16.5" style="fill-rule:evenodd;fill:#efefe7"/>
   <text id="text3513" font-size="12px" font-weight="700" style="fill:#979797;font-family:'Source Code Pro';font-size:12px;font-weight:700;text-anchor:middle"><tspan id="tspan3511" x="44.5" y="21" style="fill:gray">e5b0f</tspan></text>
  </g>
  <path id="Line-3" d="m335.93 105.65 51.256 32.697-.53782.84306-51.256-32.697-2.1513 3.3722-5.1674-8.6341 10.008 1.0466z" style="fill:#8f8981"/>
  <g id="g3524" transform="translate(362,122)" style="fill-rule:evenodd;fill:none">
   <rect id="rect3518" width="89" height="33" rx="16.5" ry="16.5" style="fill-rule:evenodd;fill:#efefe7"/>
   <text id="text3522" font-size="12px" font-weight="700" style="fill:#979797;font-family:'Source Code Pro';font-size:12px;font-weight:700;text-anchor:middle"><tspan id="tspan3520" x="44.5" y="21" style="fill:gray">dee6b</tspan></text>
  </g>
  <g id="g3683" transform="translate(1)">
   <path id="Line-2" transform="translate(110,13)" d="m57 52v-43h1v43h4l-4.5 9-4.5-9z" style="fill:#8f8981"/>
   <rect id="Rectangle-2" transform="matrix(.76724 0 0 .86842 123 18)" width="116" height="38" style="fill-rule:evenodd;fill:#f44d27"/>
   <text id="master" transform="translate(109.6 16.801)" font-size="12px" font-weight="700" style="fill-rule:evenodd;fill:#979797;font-family:'Source Code Pro';font-size:12px;font-weight:700;text-anchor:middle"><tspan id="tspan3528" x="58" y="21.515152" style="fill:#f0f0f0">master</tspan></text>
  </g>
  <g id="g3761">
   <path id="path3546" transform="translate(570,119)" d="m9 19h76v1h-76v4l-9-4.5 9-4.5z" style="fill:#8f8981"/>
   <g id="g3742" transform="translate(2.0766 -3)">
    <rect id="rect3548" transform="matrix(.76724 0 0 .86842 598 125)" width="116" height="38" style="fill-rule:evenodd;fill:#f44d27"/>
    <text id="text3552" transform="translate(584.06 124.19)" font-size="12px" font-weight="700" style="fill-rule:evenodd;fill:#979797;font-family:'Source Code Pro';font-size:12px;font-weight:700;text-anchor:middle"><tspan id="tspan3550" x="58" y="21.515152" style="fill:#f0f0f0">featureA</tspan></text>
   </g>
  </g>
  <g id="g3718">
   <path id="path3557" transform="translate(332,169)" d="m9 19h76v1h-76v4l-9-4.5 9-4.5z" style="fill:#8f8981"/>
   <g id="g3711" transform="translate(0,-3)">
    <rect id="rect3559" transform="matrix(.76724 0 0 .86842 362 175)" width="116" height="38" style="fill-rule:evenodd;fill:#f44d27"/>
    <text id="text3563" transform="translate(348.23 174.19)" font-size="12px" font-weight="700" style="fill-rule:evenodd;fill:#979797;font-family:'Source Code Pro';font-size:12px;font-weight:700;text-anchor:middle"><tspan id="tspan3561" x="58" y="21.515152" style="fill:#f0f0f0">featureB</tspan></text>
   </g>
  </g>
  <g id="g3677">
   <g id="Line-2-+-ref-4" transform="translate(287,32)" style="fill:#8f8981">
    <path id="path3533" d="m0 33.096v-33.192h1v33.192h4l-4.5 9-4.5-9z"/>
   </g>
   <g id="g3438" transform="translate(-1.0002 -.03431)">
    <rect id="rect2699" transform="matrix(.80485 0 0 .86842 244 18)" width="110.58" height="38" style="fill-rule:evenodd;fill:#f44d27"/>
    <text id="text2825" transform="translate(-90.018,19.575)" x="378.6778" y="12.849665" style="fill:#f0f0f0;font-family:'Source Code Pro';font-feature-settings:normal;font-size:12px;font-variant-caps:normal;font-variant-ligatures:normal;font-variant-numeric:normal;font-weight:bold;letter-spacing:0px;line-height:13.0666666px;text-align:center;text-anchor:middle;word-spacing:0px" xml:space="preserve"><tspan id="tspan2823" x="378.6778" y="12.849665">origin/</tspan><tspan id="tspan2827" x="378.6778" y="25.916332">master</tspan></text>
   </g>
  </g>
 </g>
</svg>
