<?xml version="1.0" encoding="UTF-8"?>
<svg id="svg2732" version="1.1" viewBox="0 0 572.93 195" xmlns="http://www.w3.org/2000/svg" xmlns:cc="http://creativecommons.org/ns#" xmlns:dc="http://purl.org/dc/elements/1.1/" xmlns:rdf="http://www.w3.org/1999/02/22-rdf-syntax-ns#">
 <metadata id="metadata2738">
  <rdf:RDF>
   <cc:Work rdf:about="">
    <dc:format>image/svg+xml</dc:format>
    <dc:type rdf:resource="http://purl.org/dc/dcmitype/StillImage"/>
    <dc:title>images/public-small-1</dc:title>
   </cc:Work>
  </rdf:RDF>
 </metadata>
 <!-- Generator: Sketch 56.3 (81716) - https://sketch.com -->
 <title id="title2633">images/public-small-1</title>
 <desc id="desc2635">Created with Sketch.</desc>
 <g id="g3035" transform="translate(-2,-14)">
  <g id="brown" transform="translate(6,74)" style="fill-rule:evenodd;fill:none">
   <rect id="Rectangle-1" width="89" height="33" rx="16.5" ry="16.5" style="fill-rule:evenodd;fill:#efefe7"/>
   <text id="C6" font-size="12px" font-weight="700" style="fill:#979797;font-family:'Source Code Pro';font-size:12px;font-weight:700;text-anchor:middle"><tspan id="tspan2638" x="44.5" y="21" style="fill:gray">4b078</tspan></text>
  </g>
  <g id="g2876">
   <path id="Line-4" d="m104 90h45v1h-45v4l-9-4.5 9-4.5z" style="fill:#8f8981"/>
   <g id="g2649" transform="translate(125,74)" style="fill-rule:evenodd;fill:none">
    <rect id="rect2643" width="89" height="33" rx="16.5" ry="16.5" style="fill-rule:evenodd;fill:#efefe7"/>
    <text id="text2647" font-size="12px" font-weight="700" style="fill:#979797;font-family:'Source Code Pro';font-size:12px;font-weight:700;text-anchor:middle"><tspan id="tspan2645" x="44.5" y="21" style="fill:gray">1edee</tspan></text>
   </g>
  </g>
  <g id="g2869">
   <path id="Line" transform="translate(214,74)" d="m9 16h45v1h-45v4l-9-4.5 9-4.5z" style="fill:#8f8981"/>
   <g id="g2658" transform="translate(244,74)" style="fill-rule:evenodd;fill:none">
    <rect id="rect2652" width="89" height="33" rx="16.5" ry="16.5" style="fill-rule:evenodd;fill:#efefe7"/>
    <text id="text2656" font-size="12px" font-weight="700" style="fill:#979797;font-family:'Source Code Pro';font-size:12px;font-weight:700;text-anchor:middle"><tspan id="tspan2654" x="44.5" y="21" style="fill:gray">33009</tspan></text>
   </g>
  </g>
  <g id="g2902">
   <path id="Line-5" transform="translate(333,122)" d="m9 16h45v1h-45v4l-9-4.5 9-4.5z" style="fill:#8f8981"/>
   <g id="g2668" transform="translate(363,122)" style="fill-rule:evenodd;fill:none">
    <rect id="rect2662" width="89" height="33" rx="16.5" ry="16.5" style="fill-rule:evenodd;fill:#efefe7"/>
    <text id="text2666" font-size="12px" font-weight="700" style="fill:#979797;font-family:'Source Code Pro';font-size:12px;font-weight:700;text-anchor:middle"><tspan id="tspan2664" x="44.5" y="21" style="fill:gray">0d708</tspan></text>
   </g>
  </g>
  <path id="Line-8" d="m177.79 115.49c8.9005 29.644 19.538 54.267 30.287 61.961 6.8179 4.8804 25.041 7.8524 51.04 9.2327 16.331.86696 33.633 1.0177 49.176.75621 1.4171-.0238 2.6774-.0494 3.7658-.0749.38079-.009.71284-.0172.99424-.0247.16867-.004.2831-.008.3407-.009l.49979-.0146.0292.99957-.49978.0146c-.059.002-.17388.005-.34349.009-.28239.007-.61543.0158-.99722.0248-1.0905.0256-2.353.0512-3.7724.0751-15.564.26183-32.888.11092-49.246-.75748-26.222-1.3921-44.528-4.3775-51.57-9.4181-6.2248-4.4559-12.52-14.661-18.756-29.152-4.456-10.355-8.4858-21.947-11.91-33.347l-3.8526 1.1004 1.8551-9.8898 6.7988 7.418z" style="fill:#8f8981"/>
  <g id="g2678" transform="translate(244,172)" style="fill-rule:evenodd;fill:none">
   <rect id="rect2672" width="89" height="33" rx="16.5" ry="16.5" style="fill-rule:evenodd;fill:#efefe7"/>
   <text id="text2676" font-size="12px" font-weight="700" style="fill:#979797;font-family:'Source Code Pro';font-size:12px;font-weight:700;text-anchor:middle"><tspan id="tspan2674" x="44.5" y="21" style="fill:gray">e5b0f</tspan></text>
  </g>
  <path id="Line-3" d="m216.93 105.65 51.256 32.697-.53782.84306-51.256-32.697-2.1513 3.3722-5.1674-8.6341 10.008 1.0466z" style="fill:#8f8981"/>
  <g id="g2687" transform="translate(244,122)" style="fill-rule:evenodd;fill:none">
   <rect id="rect2681" width="89" height="33" rx="16.5" ry="16.5" style="fill-rule:evenodd;fill:#efefe7"/>
   <text id="text2685" font-size="12px" font-weight="700" style="fill:#979797;font-family:'Source Code Pro';font-size:12px;font-weight:700;text-anchor:middle"><tspan id="tspan2683" x="44.5" y="21" style="fill:gray">a2de3</tspan></text>
  </g>
  <g id="g2971">
   <path id="Line-2" transform="translate(112,13)" d="m57 52v-43h1v43h4l-4.5 9-4.5-9z" style="fill:#8f8981"/>
   <g id="g2964">
    <rect id="Rectangle-2" transform="matrix(.76724 0 0 .86842 125 18)" width="116" height="38" style="fill-rule:evenodd;fill:#f44d27"/>
    <text id="master" transform="translate(111.6 16.801)" font-size="12px" font-weight="700" style="fill-rule:evenodd;fill:#979797;font-family:'Source Code Pro';font-size:12px;font-weight:700;text-anchor:middle"><tspan id="tspan2691" x="58" y="21.515152" style="fill:#f0f0f0">master</tspan></text>
   </g>
  </g>
  <g id="g2940">
   <path id="path2709" transform="translate(452,119)" d="m9 19h76v1h-76v4l-9-4.5 9-4.5z" style="fill:#8f8981"/>
   <g id="g2933" transform="translate(2.9326 -3)">
    <rect id="rect2711" transform="matrix(.76724 0 0 .86842 479 125)" width="116" height="38" style="fill-rule:evenodd;fill:#f44d27"/>
    <text id="text2715" transform="translate(465.06 124.19)" font-size="12px" font-weight="700" style="fill-rule:evenodd;fill:#979797;font-family:'Source Code Pro';font-size:12px;font-weight:700;text-anchor:middle"><tspan id="tspan2713" x="58" y="21.515152" style="fill:#f0f0f0">featureA</tspan></text>
   </g>
  </g>
  <g id="g2924">
   <path id="path2720" transform="translate(333,169)" d="m9 19h76v1h-76v4l-9-4.5 9-4.5z" style="fill:#8f8981"/>
   <g id="g2917" transform="translate(2.9864 -3)">
    <rect id="rect2722" transform="matrix(.76724 0 0 .86842 360 175)" width="116" height="38" style="fill-rule:evenodd;fill:#f44d27"/>
    <text id="text2726" transform="translate(346.23 174.19)" font-size="12px" font-weight="700" style="fill-rule:evenodd;fill:#979797;font-family:'Source Code Pro';font-size:12px;font-weight:700;text-anchor:middle"><tspan id="tspan2724" x="58" y="21.515152" style="fill:#f0f0f0">featureB</tspan></text>
   </g>
  </g>
  <g id="g3460">
   <g id="Line-2-+-ref-4" transform="translate(288,32)" style="fill:#8f8981">
    <path id="path2696" d="m0 33.096v-33.192h1v33.192h4l-4.5 9-4.5-9z"/>
   </g>
   <g id="g3438">
    <rect id="rect2699" transform="matrix(.80485 0 0 .86842 244 18)" width="110.58" height="38" style="fill-rule:evenodd;fill:#f44d27"/>
    <text id="text2825" transform="translate(-90.018 19.575)" x="378.6778" y="12.849665" style="fill:#f0f0f0;font-family:'Source Code Pro';font-feature-settings:normal;font-size:12px;font-variant-caps:normal;font-variant-ligatures:normal;font-variant-numeric:normal;font-weight:bold;letter-spacing:0px;line-height:13.0666666px;text-align:center;text-anchor:middle;word-spacing:0px" xml:space="preserve"><tspan id="tspan2823" x="378.6778" y="12.849665">origin/</tspan><tspan id="tspan2827" x="378.6778" y="25.916332">master</tspan></text>
   </g>
  </g>
 </g>
</svg>
