<?xml version="1.0" encoding="UTF-8"?>
<svg id="svg7634" version="1.1" viewBox="0 0 454 206" xmlns="http://www.w3.org/2000/svg" xmlns:cc="http://creativecommons.org/ns#" xmlns:dc="http://purl.org/dc/elements/1.1/" xmlns:rdf="http://www.w3.org/1999/02/22-rdf-syntax-ns#">
 <metadata id="metadata7640">
  <rdf:RDF>
   <cc:Work rdf:about="">
    <dc:format>image/svg+xml</dc:format>
    <dc:type rdf:resource="http://purl.org/dc/dcmitype/StillImage"/>
    <dc:title>images/rebasing-1</dc:title>
   </cc:Work>
  </rdf:RDF>
 </metadata>
 <!-- Generator: Sketch 56.3 (81716) - https://sketch.com -->
 <title id="title7568">images/rebasing-1</title>
 <desc id="desc7570">Created with Sketch.</desc>
 <g id="g7751" transform="translate(-2,-5)">
  <g id="Line-+-brown-2" transform="translate(6,66)" style="fill-rule:evenodd;fill:none">
   <g id="brown">
    <rect id="Rectangle-1" width="89" height="33" rx="16.5" ry="16.5" style="fill-rule:evenodd;fill:#efefe7"/>
    <text id="C6" font-size="12px" font-weight="700" style="fill:#979797;font-family:'Source Code Pro';font-size:12px;font-weight:700;text-anchor:middle"><tspan id="tspan7573" x="44.5" y="21" style="fill:gray">0b743</tspan></text>
   </g>
  </g>
  <path id="Line-4" d="m104 82h45v1h-45v4l-9-4.5 9-4.5z" style="fill:#8f8981"/>
  <g id="g7585" transform="translate(125,66)" style="fill-rule:evenodd;fill:none">
   <rect id="rect7579" width="89" height="33" rx="16.5" ry="16.5" style="fill-rule:evenodd;fill:#efefe7"/>
   <text id="text7583" font-size="12px" font-weight="700" style="fill:#979797;font-family:'Source Code Pro';font-size:12px;font-weight:700;text-anchor:middle"><tspan id="tspan7581" x="44.5" y="21" style="fill:gray">a6b4c</tspan></text>
  </g>
  <path id="Line-3" d="m223 82h45v1h-45v4l-9-4.5 9-4.5z" style="fill:#8f8981"/>
  <g id="g7594" transform="translate(244,66)" style="fill-rule:evenodd;fill:none">
   <rect id="rect7588" width="89" height="33" rx="16.5" ry="16.5" style="fill-rule:evenodd;fill:#efefe7"/>
   <text id="text7592" font-size="12px" font-weight="700" style="fill:#979797;font-family:'Source Code Pro';font-size:12px;font-weight:700;text-anchor:middle"><tspan id="tspan7590" x="44.5" y="21" style="fill:gray">f42c5</tspan></text>
  </g>
  <g id="Line-+-brown-5" transform="translate(209,94)" style="fill-rule:evenodd;fill:none">
   <path id="Line" d="m7.8327 4.8281 51.361 34.536-.558.82984-51.361-34.536-2.232 3.3194-4.9576-8.7563 9.9796 1.2877z" style="fill-rule:nonzero;fill:#8f8981"/>
   <g id="g7603" transform="translate(35,23)">
    <rect id="rect7597" width="89" height="33" rx="16.5" ry="16.5" style="fill-rule:evenodd;fill:#efefe7"/>
    <text id="text7601" font-size="12px" font-weight="700" style="fill:#979797;font-family:'Source Code Pro';font-size:12px;font-weight:700;text-anchor:middle"><tspan id="tspan7599" x="44.5" y="21" style="fill:gray">e43a6</tspan></text>
   </g>
  </g>
  <path id="Line-5" d="m342 133h45v1h-45v4l-9-4.5 9-4.5z" style="fill:#8f8981"/>
  <g id="g7613" transform="translate(363,117)" style="fill-rule:evenodd;fill:none">
   <rect id="rect7607" width="89" height="33" rx="16.5" ry="16.5" style="fill-rule:evenodd;fill:#efefe7"/>
   <text id="text7611" font-size="12px" font-weight="700" style="fill:#979797;font-family:'Source Code Pro';font-size:12px;font-weight:700;text-anchor:middle"><tspan id="tspan7609" x="44.5" y="21" style="fill:gray">5ddae</tspan></text>
  </g>
  <g id="g7692">
   <path id="Line-2" transform="translate(246,9)" d="m42 48v-43h1v43h4l-4.5 9-4.5-9z" style="fill:#8f8981"/>
   <rect id="Rectangle-2" transform="matrix(.83962 0 0 1 244 9)" width="106" height="33" style="fill-rule:evenodd;fill:#f44d27"/>
   <text id="master" transform="translate(235.6 9.316)" font-size="12px" font-weight="700" style="fill-rule:evenodd;fill:#979797;font-family:'Source Code Pro';font-size:12px;font-weight:700;text-anchor:middle"><tspan id="tspan7617" x="53" y="20" style="fill:#f0f0f0">master</tspan></text>
  </g>
  <g id="g7712" transform="translate(-2)">
   <path id="path7622" transform="translate(367,150)" d="m43 9v32h-1v-32h-4l4.5-9 4.5 9z" style="fill:#8f8981"/>
   <g id="g7705">
    <rect id="rect7624" transform="matrix(.83962 0 0 1 365 174)" width="106" height="33" style="fill-rule:evenodd;fill:#f44d27"/>
    <text id="text7628" transform="translate(356.1 173.87)" font-size="12px" font-weight="700" style="fill-rule:evenodd;fill:#979797;font-family:'Source Code Pro';font-size:12px;font-weight:700;text-anchor:middle"><tspan id="tspan7626" x="53" y="20" style="fill:#f0f0f0">ruby_client</tspan></text>
   </g>
  </g>
 </g>
</svg>
