<?xml version="1.0" encoding="UTF-8"?>
<svg id="svg13978" version="1.1" viewBox="0 0 635.45 462" xmlns="http://www.w3.org/2000/svg" xmlns:cc="http://creativecommons.org/ns#" xmlns:dc="http://purl.org/dc/elements/1.1/" xmlns:rdf="http://www.w3.org/1999/02/22-rdf-syntax-ns#">
 <metadata id="metadata13984">
  <rdf:RDF>
   <cc:Work rdf:about="">
    <dc:format>image/svg+xml</dc:format>
    <dc:type rdf:resource="http://purl.org/dc/dcmitype/StillImage"/>
    <dc:title>images/remote-branches-3</dc:title>
   </cc:Work>
  </rdf:RDF>
 </metadata>
 <!-- Generator: Sketch 56.3 (81716) - https://sketch.com -->
 <title id="title13831">images/remote-branches-3</title>
 <desc id="desc13833">Created with Sketch.</desc>
 <g id="g9865">
  <g id="g13889" transform="translate(31.765,282.5)" style="fill-rule:evenodd;fill:none">
   <rect id="rect13883" width="89" height="33" rx="16.5" ry="16.5" style="fill-rule:evenodd;fill:#efefe7"/>
   <text id="text13887" font-size="12px" font-weight="700" style="fill:#979797;font-family:'Source Code Pro';font-size:12px;font-weight:700;text-anchor:middle"><tspan id="tspan13885" x="44.5" y="21" style="fill:gray">0b743</tspan></text>
  </g>
  <path id="Line-5" transform="translate(-14.235,-12.5)" d="m144 311h39v1h-39v4l-9-4.5 9-4.5z" style="fill:#8f8981"/>
  <g id="g13898" transform="translate(148.76 282.5)" style="fill-rule:evenodd;fill:none">
   <rect id="rect13892" width="89" height="33" rx="16.5" ry="16.5" style="fill-rule:evenodd;fill:#efefe7"/>
   <text id="text13896" font-size="12px" font-weight="700" style="fill:#979797;font-family:'Source Code Pro';font-size:12px;font-weight:700;text-anchor:middle"><tspan id="tspan13894" x="44.5" y="21" style="fill:gray">a6b4c</tspan></text>
  </g>
  <g id="Line-4-+-brown-3" transform="translate(237.76 282.5)" style="fill-rule:evenodd;fill:none">
   <path id="Line-4" d="m9 16h39v1h-39v4l-9-4.5 9-4.5z" style="fill-rule:nonzero;fill:#8f8981"/>
   <g id="g13907" transform="translate(28)">
    <rect id="rect13901" width="89" height="33" rx="16.5" ry="16.5" style="fill-rule:evenodd;fill:#efefe7"/>
    <text id="text13905" font-size="12px" font-weight="700" style="fill:#979797;font-family:'Source Code Pro';font-size:12px;font-weight:700;text-anchor:middle"><tspan id="tspan13903" x="44.5" y="21" style="fill:gray">f4265</tspan></text>
   </g>
  </g>
  <path id="Line-11" transform="translate(-15.435,-12.5)" d="m379 311h39v1h-39v4l-9-4.5 9-4.5z" style="fill:#8f8981"/>
  <path id="Line-14" transform="translate(-14.235,-12.5)" d="m370.17 330.79 41.035 36.669-.66633.74566-41.035-36.669-2.6653 2.9826-3.7124-9.3524 9.7094 2.6415-2.6653 2.9826z" style="fill:#8f8981"/>
  <g id="g13918" transform="translate(383.76 282.5)" style="fill-rule:evenodd;fill:none">
   <rect id="rect13912" width="89" height="33" rx="16.5" ry="16.5" style="fill-rule:evenodd;fill:#efefe7"/>
   <text id="text13916" font-size="12px" font-weight="700" style="fill:#979797;font-family:'Source Code Pro';font-size:12px;font-weight:700;text-anchor:middle"><tspan id="tspan13914" x="44.5" y="21" style="fill:gray">31b8e</tspan></text>
  </g>
  <path id="Line-12" transform="translate(-14.235,-12.5)" d="m496 311h39v1h-39v4l-9-4.5 9-4.5z" style="fill:#8f8981"/>
  <g id="g13927" transform="translate(500.76 282.5)" style="fill-rule:evenodd;fill:none">
   <rect id="rect13921" width="89" height="33" rx="16.5" ry="16.5" style="fill-rule:evenodd;fill:#efefe7"/>
   <text id="text13925" font-size="12px" font-weight="700" style="fill:#979797;font-family:'Source Code Pro';font-size:12px;font-weight:700;text-anchor:middle"><tspan id="tspan13923" x="44.5" y="21" style="fill:gray">190a3</tspan></text>
  </g>
  <g id="g13935" transform="translate(383.86 339.5)" style="fill-rule:evenodd;fill:none">
   <rect id="rect13929" width="89" height="33" rx="16.5" ry="16.5" style="fill-rule:evenodd;fill:#efefe7"/>
   <text id="text13933" font-size="12px" font-weight="700" style="fill:#979797;font-family:'Source Code Pro';font-size:12px;font-weight:700;text-anchor:middle"><tspan id="tspan13931" x="44.5" y="21" style="fill:gray">a38de</tspan></text>
  </g>
  <path id="Line-13" transform="translate(-14.235,-12.5)" d="m496 368h39v1h-39v4l-9-4.5 9-4.5z" style="fill:#8f8981"/>
  <g id="g13944" transform="translate(500.76 339.5)" style="fill-rule:evenodd;fill:none">
   <rect id="rect13938" width="89" height="33" rx="16.5" ry="16.5" style="fill-rule:evenodd;fill:#efefe7"/>
   <text id="text13942" font-size="12px" font-weight="700" style="fill:#979797;font-family:'Source Code Pro';font-size:12px;font-weight:700;text-anchor:middle"><tspan id="tspan13940" x="44.5" y="21" style="fill:gray">893cf</tspan></text>
  </g>
  <g id="g9587">
   <path id="Line-3" transform="translate(501.76 372.5)" d="m44 9v25h-1v-25h-4l4.5-9 4.5 9z" style="fill:#8f8981"/>
   <g id="g9580" transform="translate(-1)">
    <rect id="rect13947" transform="matrix(.83962 0 0 1 501.76 392.5)" width="106" height="33" style="fill-rule:evenodd;fill:#f44d27"/>
    <text id="text13951" transform="translate(493.36 392.82)" font-size="12px" font-weight="700" style="fill-rule:evenodd;fill:#979797;font-family:'Source Code Pro';font-size:12px;font-weight:700;text-anchor:middle"><tspan id="tspan13949" x="53" y="20" style="fill:#f0f0f0">master</tspan></text>
   </g>
  </g>
  <g id="g9567" transform="translate(1)">
   <path id="Line-6" transform="translate(489.76 229.5)" d="m54 44v-27h1v27h4l-4.5 9-4.5-9z" style="fill:#8f8981"/>
   <g id="g9560" transform="translate(4.5)">
    <rect id="rect13957" transform="matrix(.9009 0 0 1 489.76 229.5)" width="111" height="33" style="fill-rule:evenodd;fill:#f44d27"/>
    <text id="text13961" transform="translate(484.29 229.26)" font-size="12px" font-weight="700" style="fill-rule:evenodd;fill:#979797;font-family:'Source Code Pro';font-size:12px;font-weight:700;text-anchor:middle"><tspan id="tspan13959" x="55.5" y="20" style="fill:#f0f0f0">origin/master</tspan></text>
   </g>
  </g>
  <rect id="Rectangle-11" transform="translate(-14.235,-12.5)" x="18.735" y="208" width="626.45" height="262" style="fill:none;stroke-linecap:square;stroke:#8f8981"/>
  <text id="My-Computer" transform="translate(4.4612 -12.5)" font-size="12px" font-weight="700" style="fill-rule:evenodd;fill:#404040;font-family:'Source Code Pro';font-size:12px;font-weight:700;text-anchor:middle"><tspan id="tspan13967" x="313.22549" y="225" style="fill:#404040">My Computer</tspan></text>
  <g id="brown" transform="translate(31.765,96.5)" style="fill-rule:evenodd;fill:none">
   <rect id="Rectangle-1" width="89" height="33" rx="16.5" ry="16.5" style="fill-rule:evenodd;fill:#efefe7"/>
   <text id="C6" font-size="12px" font-weight="700" style="fill:#979797;font-family:'Source Code Pro';font-size:12px;font-weight:700;text-anchor:middle"><tspan id="tspan13836" x="44.5" y="21" style="fill:gray">0b743</tspan></text>
  </g>
  <path id="Line-7" transform="translate(-14.235,-12.5)" d="m144 125h39v1h-39v4l-9-4.5 9-4.5z" style="fill:#8f8981"/>
  <g id="g13847" transform="translate(148.76 96.5)" style="fill-rule:evenodd;fill:none">
   <rect id="rect13841" width="89" height="33" rx="16.5" ry="16.5" style="fill-rule:evenodd;fill:#efefe7"/>
   <text id="text13845" font-size="12px" font-weight="700" style="fill:#979797;font-family:'Source Code Pro';font-size:12px;font-weight:700;text-anchor:middle"><tspan id="tspan13843" x="44.5" y="21" style="fill:gray">a6b4c</tspan></text>
  </g>
  <path id="Line-8" transform="translate(-14.235,-12.5)" d="m261 125h39v1h-39v4l-9-4.5 9-4.5z" style="fill:#8f8981"/>
  <g id="g13856" transform="translate(265.76 96.5)" style="fill-rule:evenodd;fill:none">
   <rect id="rect13850" width="89" height="33" rx="16.5" ry="16.5" style="fill-rule:evenodd;fill:#efefe7"/>
   <text id="text13854" font-size="12px" font-weight="700" style="fill:#979797;font-family:'Source Code Pro';font-size:12px;font-weight:700;text-anchor:middle"><tspan id="tspan13852" x="44.5" y="21" style="fill:gray">f4265</tspan></text>
  </g>
  <path id="Line-9" transform="translate(-14.235,-12.5)" d="m376 125h39v1h-39v4l-9-4.5 9-4.5z" style="fill:#8f8981"/>
  <g id="g13865" transform="translate(383.86 96.5)" style="fill-rule:evenodd;fill:none">
   <rect id="rect13859" width="89" height="33" rx="16.5" ry="16.5" style="fill-rule:evenodd;fill:#efefe7"/>
   <text id="text13863" font-size="12px" font-weight="700" style="fill:#979797;font-family:'Source Code Pro';font-size:12px;font-weight:700;text-anchor:middle"><tspan id="tspan13861" x="44.5" y="21" style="fill:gray">31b8e</tspan></text>
  </g>
  <path id="Line-10" transform="translate(-10.635,-12.5)" d="m492 125h39v1h-39v4l-9-4.5 9-4.5z" style="fill:#8f8981"/>
  <g id="g13874" transform="translate(500.86 96.5)" style="fill-rule:evenodd;fill:none">
   <rect id="rect13868" width="89" height="33" rx="16.5" ry="16.5" style="fill-rule:evenodd;fill:#efefe7"/>
   <text id="text13872" font-size="12px" font-weight="700" style="fill:#979797;font-family:'Source Code Pro';font-size:12px;font-weight:700;text-anchor:middle"><tspan id="tspan13870" x="44.5" y="21" style="fill:gray">190a3</tspan></text>
  </g>
  <g id="g9497" transform="translate(2.1)">
   <path id="Line-2" transform="translate(500.76 43.5)" d="m42 44v-24h1v24h4l-4.5 9-4.5-9z" style="fill:#8f8981"/>
   <g id="g9490">
    <rect id="Rectangle-2" transform="matrix(.83962 0 0 1 498.76 43.5)" width="106" height="33" style="fill-rule:evenodd;fill:#f44d27"/>
    <text id="master" transform="translate(490.36 43.816)" font-size="12px" font-weight="700" style="fill-rule:evenodd;fill:#979797;font-family:'Source Code Pro';font-size:12px;font-weight:700;text-anchor:middle"><tspan id="tspan13878" x="53" y="20" style="fill:#f0f0f0">master</tspan></text>
   </g>
  </g>
  <rect id="Rectangle-10" transform="translate(-14.235,-12.5)" x="18.735" y="17" width="626.45" height="144.97" style="fill:none;stroke-linecap:square;stroke:#8f8981"/>
  <text id="git.ourcompany.com" transform="translate(4.342,-12.5)" font-size="12px" font-weight="700" style="fill-rule:evenodd;fill:#404040;font-family:'Source Code Pro';font-size:12px;font-weight:700;text-anchor:middle"><tspan id="tspan13970" x="313.22549" y="33" style="fill:#404040">git.ourcompany.com</tspan></text>
  <text id="git-fetch-origin" transform="translate(-.435 -15.5)" font-size="12px" font-weight="700" style="fill-rule:evenodd;fill:#404040;font-family:'Source Code Pro';font-size:12px;font-weight:700;text-anchor:middle"><tspan id="tspan13974" x="313.22549" y="190" style="fill:#404040">git fetch origin</tspan></text>
  <path id="path13358" transform="matrix(1 0 0 .89295 56.69 8.042)" d="m162.05 180.34v-21.839h7.7029v21.839h3.8616l-7.7 29.312-7.6903-29.312z" style="fill:#8f8981"/>
 </g>
</svg>
