<?xml version="1.0" encoding="UTF-8"?>
<svg id="svg14736" version="1.1" viewBox="0 0 683 478" xmlns="http://www.w3.org/2000/svg" xmlns:cc="http://creativecommons.org/ns#" xmlns:dc="http://purl.org/dc/elements/1.1/" xmlns:rdf="http://www.w3.org/1999/02/22-rdf-syntax-ns#">
 <metadata id="metadata14742">
  <rdf:RDF>
   <cc:Work rdf:about="">
    <dc:format>image/svg+xml</dc:format>
    <dc:type rdf:resource="http://purl.org/dc/dcmitype/StillImage"/>
    <dc:title>images/remote-branches-5</dc:title>
   </cc:Work>
  </rdf:RDF>
 </metadata>
 <!-- Generator: Sketch 56.3 (81716) - https://sketch.com -->
 <title id="title14555">images/remote-branches-5</title>
 <desc id="desc14557">Created with Sketch.</desc>
 <g id="g11422">
  <path id="path13358" transform="matrix(1 0 0 .98453 283.58 4.797)" d="m162.05 180.34v-33.369h7.7029v33.369h3.8616l-7.7 29.312-7.6903-29.312z" style="fill:#8f8981"/>
  <g id="g11312" transform="translate(4.21)">
   <g id="brown" transform="translate(51.5,298.5)" style="fill-rule:evenodd;fill:none">
    <rect id="Rectangle-1" width="89" height="33" rx="16.5" ry="16.5" style="fill-rule:evenodd;fill:#efefe7"/>
    <text id="C6" font-size="12px" font-weight="700" style="fill:#979797;font-family:'Source Code Pro';font-size:12px;font-weight:700;text-anchor:middle"><tspan id="tspan14560" x="44.5" y="21" style="fill:gray">0b743</tspan></text>
   </g>
   <path id="Line-5" transform="translate(-5.5,-7.5)" d="m155 322h39v1h-39v4l-9-4.5 9-4.5z" style="fill:#8f8981"/>
   <g id="g14571" transform="translate(168.5,298.5)" style="fill-rule:evenodd;fill:none">
    <rect id="rect14565" width="89" height="33" rx="16.5" ry="16.5" style="fill-rule:evenodd;fill:#efefe7"/>
    <text id="text14569" font-size="12px" font-weight="700" style="fill:#979797;font-family:'Source Code Pro';font-size:12px;font-weight:700;text-anchor:middle"><tspan id="tspan14567" x="44.5" y="21" style="fill:gray">a6b4c</tspan></text>
   </g>
   <g id="Line-4-+-brown-3" transform="translate(257.5,298.5)" style="fill-rule:evenodd;fill:none">
    <path id="Line-4" d="m9 16h39v1h-39v4l-9-4.5 9-4.5z" style="fill-rule:nonzero;fill:#8f8981"/>
    <g id="g14580" transform="translate(28)">
     <rect id="rect14574" width="89" height="33" rx="16.5" ry="16.5" style="fill-rule:evenodd;fill:#efefe7"/>
     <text id="text14578" font-size="12px" font-weight="700" style="fill:#979797;font-family:'Source Code Pro';font-size:12px;font-weight:700;text-anchor:middle"><tspan id="tspan14576" x="44.5" y="21" style="fill:gray">f4265</tspan></text>
    </g>
   </g>
   <path id="Line-11" transform="translate(-5.5,-7.5)" d="m390 322h39v1h-39v4l-9-4.5 9-4.5z" style="fill:#8f8981"/>
   <path id="Line-14" transform="translate(-5.5,-7.5)" d="m381.17 341.79 41.035 36.669-.66633.74566-41.035-36.669-2.6653 2.9826-3.7124-9.3524 9.7094 2.6415-2.6653 2.9826z" style="fill:#8f8981"/>
   <g id="g14591" transform="translate(403.5,298.5)" style="fill-rule:evenodd;fill:none">
    <rect id="rect14585" width="89" height="33" rx="16.5" ry="16.5" style="fill-rule:evenodd;fill:#efefe7"/>
    <text id="text14589" font-size="12px" font-weight="700" style="fill:#979797;font-family:'Source Code Pro';font-size:12px;font-weight:700;text-anchor:middle"><tspan id="tspan14587" x="44.5" y="21" style="fill:gray">31b8e</tspan></text>
   </g>
   <path id="Line-12" transform="translate(-5.5,-7.5)" d="m507 322h39v1h-39v4l-9-4.5 9-4.5z" style="fill:#8f8981"/>
   <g id="g14600" transform="translate(520.5,298.5)" style="fill-rule:evenodd;fill:none">
    <rect id="rect14594" width="89" height="33" rx="16.5" ry="16.5" style="fill-rule:evenodd;fill:#efefe7"/>
    <text id="text14598" font-size="12px" font-weight="700" style="fill:#979797;font-family:'Source Code Pro';font-size:12px;font-weight:700;text-anchor:middle"><tspan id="tspan14596" x="44.5" y="21" style="fill:gray">190a3</tspan></text>
   </g>
   <g id="g14608" transform="translate(403.5,355.5)" style="fill-rule:evenodd;fill:none">
    <rect id="rect14602" width="89" height="33" rx="16.5" ry="16.5" style="fill-rule:evenodd;fill:#efefe7"/>
    <text id="text14606" font-size="12px" font-weight="700" style="fill:#979797;font-family:'Source Code Pro';font-size:12px;font-weight:700;text-anchor:middle"><tspan id="tspan14604" x="44.5" y="21" style="fill:gray">a38de</tspan></text>
   </g>
   <path id="Line-13" transform="translate(-5.5,-7.5)" d="m507 379h39v1h-39v4l-9-4.5 9-4.5z" style="fill:#8f8981"/>
   <g id="g14617" transform="translate(520.5,355.5)" style="fill-rule:evenodd;fill:none">
    <rect id="rect14611" width="89" height="33" rx="16.5" ry="16.5" style="fill-rule:evenodd;fill:#efefe7"/>
    <text id="text14615" font-size="12px" font-weight="700" style="fill:#979797;font-family:'Source Code Pro';font-size:12px;font-weight:700;text-anchor:middle"><tspan id="tspan14613" x="44.5" y="21" style="fill:gray">893cf</tspan></text>
   </g>
   <g id="g11225">
    <path id="Line-3" transform="translate(521.5,388.5)" d="m44 9v25h-1v-25h-4l4.5-9 4.5 9z" style="fill:#8f8981"/>
    <g id="g11218">
     <rect id="Rectangle-2" transform="matrix(.83962 0 0 1 520.5 408.5)" width="106" height="33" style="fill-rule:evenodd;fill:#f44d27"/>
     <text id="master" transform="translate(512.1 408.82)" font-size="12px" font-weight="700" style="fill-rule:evenodd;fill:#979797;font-family:'Source Code Pro';font-size:12px;font-weight:700;text-anchor:middle"><tspan id="tspan14621" x="53" y="20" style="fill:#f0f0f0">master</tspan></text>
    </g>
   </g>
   <g id="g11258" transform="translate(1)">
    <path id="Line-6" transform="translate(509.5,244.5)" d="m54 44v-27h1v27h4l-4.5 9-4.5-9z" style="fill:#8f8981"/>
    <g id="g11251" transform="translate(4.5)">
     <rect id="rect14627" transform="matrix(.9009 0 0 1 509.5 244.5)" width="111" height="33" style="fill-rule:evenodd;fill:#f44d27"/>
     <text id="text14631" transform="translate(504.03 244.5)" font-size="12px" font-weight="700" style="fill-rule:evenodd;fill:#979797;font-family:'Source Code Pro';font-size:12px;font-weight:700;text-anchor:middle"><tspan id="tspan14629" x="55.5" y="20" style="fill:#f0f0f0">origin/master</tspan></text>
    </g>
   </g>
   <path id="path14635" transform="translate(393.5,244.5)" d="m54 44v-27h1v27h4l-4.5 9-4.5-9z" style="fill:#8f8981"/>
   <g id="g11238" transform="translate(.5)">
    <rect id="rect14637" transform="matrix(.99099 0 0 1 392.5 244.5)" width="111" height="33" style="fill-rule:evenodd;fill:#f44d27"/>
    <text id="text14641" transform="translate(392.02 244.3)" font-size="12px" font-weight="700" style="fill-rule:evenodd;fill:#979797;font-family:'Source Code Pro';font-size:12px;font-weight:700;text-anchor:middle"><tspan id="tspan14639" x="55.5" y="20" style="fill:#f0f0f0">teamone/master</tspan></text>
   </g>
  </g>
  <rect id="Rectangle-11" transform="translate(-5.5,-7.5)" x="29.735" y="219" width="626.45" height="262" style="fill:none;stroke-linecap:square;stroke:#8f8981"/>
  <text id="My-Computer" transform="translate(24.197,-7.5)" font-size="12px" font-weight="700" style="fill-rule:evenodd;fill:#404040;font-family:'Source Code Pro';font-size:12px;font-weight:700;text-anchor:middle"><tspan id="tspan14647" x="313.22549" y="236" style="fill:#404040">My Computer</tspan></text>
  <text id="git-fetch-teamone" transform="translate(32.5,-7.5)" font-size="12px" font-weight="700" style="fill-rule:evenodd;fill:#404040;font-family:'Source Code Pro';font-feature-settings:normal;font-size:16px;font-variant-caps:normal;font-variant-ligatures:normal;font-variant-numeric:normal;font-weight:500;text-align:center;text-anchor:middle"><tspan id="tspan14650" x="313.22549" y="198" style="fill:#404040;font-family:'Source Code Pro';font-feature-settings:normal;font-size:16px;font-variant-caps:normal;font-variant-ligatures:normal;font-variant-numeric:normal;font-weight:500;line-height:15px;text-align:center;text-anchor:middle">git fetch teamone</tspan></text>
  <g id="g11090" transform="translate(6.0038)">
   <path id="Line-8" transform="translate(18.5,43.5)" d="m0 69.5 9-4.5v9zm47.5-.5v1h-2v-1zm-4 0v1h-2v-1zm-4 0v1h-2v-1zm-4 0v1h-2v-1zm-4 0v1h-2v-1zm-4 0v1h-2v-1zm-4 0v1h-2v-1zm-4 0v1h-2v-1zm-4 0v1h-2v-1zm-4 0v1h-2v-1z" style="fill:#8f8981"/>
   <g id="g14661" transform="translate(46.5,96.5)" style="fill-rule:evenodd;fill:none">
    <rect id="rect14655" width="89" height="33" rx="16.5" ry="16.5" style="fill-rule:evenodd;fill:#efefe7"/>
    <text id="text14659" font-size="12px" font-weight="700" style="fill:#979797;font-family:'Source Code Pro';font-size:12px;font-weight:700;text-anchor:middle"><tspan id="tspan14657" x="44.5" y="21" style="fill:gray">f4265</tspan></text>
   </g>
   <path id="Line-9" transform="translate(18.5,43.5)" d="m124 69h39v1h-39v4l-9-4.5 9-4.5z" style="fill:#8f8981"/>
   <g id="g14670" transform="translate(161.5,96.5)" style="fill-rule:evenodd;fill:none">
    <rect id="rect14664" width="89" height="33" rx="16.5" ry="16.5" style="fill-rule:evenodd;fill:#efefe7"/>
    <text id="text14668" font-size="12px" font-weight="700" style="fill:#979797;font-family:'Source Code Pro';font-size:12px;font-weight:700;text-anchor:middle"><tspan id="tspan14666" x="44.5" y="21" style="fill:gray">31b8e</tspan></text>
   </g>
   <path id="Line-10" transform="translate(18.5,43.5)" d="m240 69h39v1h-39v4l-9-4.5 9-4.5z" style="fill:#8f8981"/>
   <g id="g14679" transform="translate(277.5,96.5)" style="fill-rule:evenodd;fill:none">
    <rect id="rect14673" width="89" height="33" rx="16.5" ry="16.5" style="fill-rule:evenodd;fill:#efefe7"/>
    <text id="text14677" font-size="12px" font-weight="700" style="fill:#979797;font-family:'Source Code Pro';font-size:12px;font-weight:700;text-anchor:middle"><tspan id="tspan14675" x="44.5" y="21" style="fill:gray">190a3</tspan></text>
   </g>
   <g id="g11067">
    <path id="Line-2" transform="translate(279.5,43.5)" d="m42 44v-24h1v24h4l-4.5 9-4.5-9z" style="fill:#8f8981"/>
    <g id="g11060" transform="translate(-2)">
     <rect id="rect14682" transform="matrix(.83962 0 0 1 279.5 43.5)" width="106" height="33" style="fill-rule:evenodd;fill:#f44d27"/>
     <text id="text14686" transform="translate(271.1 43.816)" font-size="12px" font-weight="700" style="fill-rule:evenodd;fill:#979797;font-family:'Source Code Pro';font-size:12px;font-weight:700;text-anchor:middle"><tspan id="tspan14684" x="53" y="20" style="fill:#f0f0f0">master</tspan></text>
    </g>
   </g>
  </g>
  <rect id="Rectangle-10" transform="translate(-5.4962 -7.5)" x="10" y="12" width="388" height="144.97" style="fill:none;stroke-linecap:square;stroke:#8f8981"/>
  <text id="git.ourcompany.com" transform="translate(-114.88,-7.5)" font-size="12px" font-weight="700" style="fill-rule:evenodd;fill:#404040;font-family:'Source Code Pro';font-size:12px;font-weight:700;text-anchor:middle"><tspan id="tspan14693" x="313.22549" y="28" style="fill:#404040">git.ourcompany.com</tspan></text>
  <text id="origin" transform="translate(-114.65,-7.5)" font-size="12px" font-weight="700" style="fill-rule:evenodd;fill:#404040;font-family:'Source Code Pro';font-size:12px;font-weight:700;text-anchor:middle"><tspan id="tspan14696" x="313.22549" y="170" style="fill:#404040">origin</tspan></text>
  <g id="g11149" transform="translate(6)">
   <path id="Line-15" transform="translate(-5.5,-7.5)" d="m426 120.5 9-4.5v9zm47.5-.5v1h-2v-1zm-4 0v1h-2v-1zm-4 0v1h-2v-1zm-4 0v1h-2v-1zm-4 0v1h-2v-1zm-4 0v1h-2v-1zm-4 0v1h-2v-1zm-4 0v1h-2v-1zm-4 0v1h-2v-1zm-4 0v1h-2v-1z" style="fill:#8f8981"/>
   <g id="g14706" transform="translate(448.5,96.5)" style="fill-rule:evenodd;fill:none">
    <rect id="rect14700" width="89" height="33" rx="16.5" ry="16.5" style="fill-rule:evenodd;fill:#efefe7"/>
    <text id="text14704" font-size="12px" font-weight="700" style="fill:#979797;font-family:'Source Code Pro';font-size:12px;font-weight:700;text-anchor:middle"><tspan id="tspan14702" x="44.5" y="21" style="fill:gray">f4265</tspan></text>
   </g>
   <path id="Line-16" transform="translate(-5.5,-7.5)" d="m550 120h39v1h-39v4l-9-4.5 9-4.5z" style="fill:#8f8981"/>
   <g id="g14715" transform="translate(563.5,96.5)" style="fill-rule:evenodd;fill:none">
    <rect id="rect14709" width="89" height="33" rx="16.5" ry="16.5" style="fill-rule:evenodd;fill:#efefe7"/>
    <text id="text14713" font-size="12px" font-weight="700" style="fill:#979797;font-family:'Source Code Pro';font-size:12px;font-weight:700;text-anchor:middle"><tspan id="tspan14711" x="44.5" y="21" style="fill:gray">31b8e</tspan></text>
   </g>
   <g id="g11131">
    <path id="path14717" transform="translate(565.5,43.5)" d="m42 44v-24h1v24h4l-4.5 9-4.5-9z" style="fill:#8f8981"/>
    <g id="g11124" transform="translate(-2)">
     <rect id="rect14719" transform="matrix(.83962 0 0 1 565.5 43.5)" width="106" height="33" style="fill-rule:evenodd;fill:#f44d27"/>
     <text id="text14723" transform="translate(557.1 43.816)" font-size="12px" font-weight="700" style="fill-rule:evenodd;fill:#979797;font-family:'Source Code Pro';font-size:12px;font-weight:700;text-anchor:middle"><tspan id="tspan14721" x="53" y="20" style="fill:#f0f0f0">master</tspan></text>
    </g>
   </g>
  </g>
  <rect id="Rectangle-12" transform="translate(-5.5,-7.5)" x="412" y="12" width="272" height="144.97" style="fill:none;stroke-linecap:square;stroke:#8f8981"/>
  <text id="git.team1.ourcompany" transform="translate(229.12,-7.5)" font-size="12px" font-weight="700" style="fill-rule:evenodd;fill:#404040;font-family:'Source Code Pro';font-size:12px;font-weight:700;text-anchor:middle"><tspan id="tspan14729" x="313.22549" y="28" style="fill:#404040">git.team1.ourcompany.com</tspan></text>
  <text id="teamone" transform="translate(229.3,-7.5)" font-size="12px" font-weight="700" style="fill-rule:evenodd;fill:#404040;font-family:'Source Code Pro';font-size:12px;font-weight:700;text-anchor:middle"><tspan id="tspan14732" x="313.22549" y="170" style="fill:#404040">teamone</tspan></text>
 </g>
</svg>
