<?xml version="1.0" encoding="UTF-8"?>
<svg id="svg14350" version="1.1" viewBox="0 0 694 498" xmlns="http://www.w3.org/2000/svg" xmlns:cc="http://creativecommons.org/ns#" xmlns:dc="http://purl.org/dc/elements/1.1/" xmlns:rdf="http://www.w3.org/1999/02/22-rdf-syntax-ns#">
 <metadata id="metadata14356">
  <rdf:RDF>
   <cc:Work rdf:about="">
    <dc:format>image/svg+xml</dc:format>
    <dc:type rdf:resource="http://purl.org/dc/dcmitype/StillImage"/>
    <dc:title>images/remote-branches-4</dc:title>
   </cc:Work>
  </rdf:RDF>
 </metadata>
 <!-- Generator: Sketch 56.3 (81716) - https://sketch.com -->
 <title id="title14176">images/remote-branches-4</title>
 <desc id="desc14178">Created with Sketch.</desc>
 <g id="03---Remote-Branches-4" fill="none" fill-rule="evenodd">
  <g id="Group" transform="translate(30 219)">
   <g id="brown" transform="translate(27 87)">
    <rect id="Rectangle-1" width="89" height="33" rx="16.5" fill="#EFEFE7" fill-rule="evenodd"/>
    <text id="C6" fill="#979797" font-family="Source Code Pro" font-size="12px" font-weight="700" text-anchor="middle"><tspan id="tspan14181" x="44.5" y="21" fill="#808080">0b743</tspan></text>
   </g>
   <path id="Line-5" d="m125 103h39v1h-39v4l-9-4.5 9-4.5v4z" fill="#8F8981" fill-rule="nonzero"/>
   <g id="g14192" transform="translate(144 87)">
    <rect id="rect14186" width="89" height="33" rx="16.5" fill="#EFEFE7" fill-rule="evenodd"/>
    <text id="text14190" fill="#979797" font-family="Source Code Pro" font-size="12px" font-weight="700" text-anchor="middle"><tspan id="tspan14188" x="44.5" y="21" fill="#808080">a6b4c</tspan></text>
   </g>
   <g id="Line-4-+-brown-3" transform="translate(233 87)">
    <path id="Line-4" d="m9 16h39v1h-39v4l-9-4.5 9-4.5v4z" fill="#8F8981" fill-rule="nonzero"/>
    <g id="g14201" transform="translate(28)">
     <rect id="rect14195" width="89" height="33" rx="16.5" fill="#EFEFE7" fill-rule="evenodd"/>
     <text id="text14199" fill="#979797" font-family="Source Code Pro" font-size="12px" font-weight="700" text-anchor="middle"><tspan id="tspan14197" x="44.5" y="21" fill="#808080">f4265</tspan></text>
    </g>
   </g>
   <path id="Line-11" d="m360 103h39v1h-39v4l-9-4.5 9-4.5v4z" fill="#8F8981" fill-rule="nonzero"/>
   <path id="Line-14" d="m351.17 122.79 41.035 36.669-.66633.74566-41.035-36.669-2.6653 2.9826-3.7124-9.3524 9.7094 2.6415-2.6653 2.9826z" fill="#8F8981" fill-rule="nonzero"/>
   <g id="g14212" transform="translate(379 87)">
    <rect id="rect14206" width="89" height="33" rx="16.5" fill="#EFEFE7" fill-rule="evenodd"/>
    <text id="text14210" fill="#979797" font-family="Source Code Pro" font-size="12px" font-weight="700" text-anchor="middle"><tspan id="tspan14208" x="44.5" y="21" fill="#808080">31b8e</tspan></text>
   </g>
   <path id="Line-12" d="m477 103h39v1h-39v4l-9-4.5 9-4.5v4z" fill="#8F8981" fill-rule="nonzero"/>
   <g id="g14221" transform="translate(496 87)">
    <rect id="rect14215" width="89" height="33" rx="16.5" fill="#EFEFE7" fill-rule="evenodd"/>
    <text id="text14219" fill="#979797" font-family="Source Code Pro" font-size="12px" font-weight="700" text-anchor="middle"><tspan id="tspan14217" x="44.5" y="21" fill="#808080">190a3</tspan></text>
   </g>
   <g id="g14229" transform="translate(379 144)">
    <rect id="rect14223" width="89" height="33" rx="16.5" fill="#EFEFE7" fill-rule="evenodd"/>
    <text id="text14227" fill="#979797" font-family="Source Code Pro" font-size="12px" font-weight="700" text-anchor="middle"><tspan id="tspan14225" x="44.5" y="21" fill="#808080">a38de</tspan></text>
   </g>
   <path id="Line-13" d="m477 160h39v1h-39v4l-9-4.5 9-4.5v4z" fill="#8F8981" fill-rule="nonzero"/>
   <g id="g14238" transform="translate(496 144)">
    <rect id="rect14232" width="89" height="33" rx="16.5" fill="#EFEFE7" fill-rule="evenodd"/>
    <text id="text14236" fill="#979797" font-family="Source Code Pro" font-size="12px" font-weight="700" text-anchor="middle"><tspan id="tspan14234" x="44.5" y="21" fill="#808080">893cf</tspan></text>
   </g>
   <g id="Line-3-+-ref-2" transform="translate(497 177)">
    <path id="Line-3" d="m44 9v25h-1v-25h-4l4.5-9 4.5 9h-4z" fill="#8F8981" fill-rule="nonzero"/>
    <g id="ref" transform="translate(0 20)">
     <rect id="Rectangle-2" width="106" height="33" fill="#F44D27" fill-rule="evenodd"/>
     <text id="master" fill="#979797" font-family="Source Code Pro" font-size="12px" font-weight="700" text-anchor="middle"><tspan id="tspan14242" x="53" y="20" fill="#f0f0f0">master</tspan></text>
    </g>
   </g>
   <g id="Line-6-+-ref-3" transform="translate(485 34)">
    <path id="Line-6" d="m54 44v-27h1v27h4l-4.5 9-4.5-9h4z" fill="#8F8981" fill-rule="nonzero"/>
    <g id="ref-3">
     <rect id="rect14248" width="111" height="33" fill="#F44D27"/>
     <text id="text14252" fill="#979797" font-family="Source Code Pro" font-size="12px" font-weight="700" text-anchor="middle"><tspan id="tspan14250" x="55.5" y="20" fill="#f0f0f0">origin/master</tspan></text>
    </g>
   </g>
   <rect id="Rectangle-11" x="-.26502" width="626.45" height="262" stroke="#8F8981" stroke-linecap="square"/>
   <text id="My-Computer" transform="translate(-.30336)" font-size="12px" font-weight="700" style="fill:#404040;font-family:'Source Code Pro';font-size:12px;font-weight:700;text-anchor:middle"><tspan id="tspan14257" x="313.22549" y="17" style="fill:#404040">My Computer</tspan></text>
  </g>
  <text id="git-remote-add-teamo" transform="translate(148.8)" font-size="12px" font-weight="700" style="fill:#404040;font-family:'Source Code Pro';font-feature-settings:normal;font-size:12px;font-variant-caps:normal;font-variant-ligatures:normal;font-variant-numeric:normal;font-weight:500;text-align:center;text-anchor:middle;writing-mode:lr"><tspan id="tspan14261" x="194" y="206" style="fill:#404040;font-family:'Source Code Pro';font-feature-settings:normal;font-size:12px;font-variant-caps:normal;font-variant-ligatures:normal;font-variant-numeric:normal;font-weight:500;text-align:center;text-anchor:middle;writing-mode:lr">git remote add teamone git://git.team1.ourcompany.com</tspan></text>
  <g id="g14301" transform="translate(24 51)">
   <path id="Line-8" d="m0 69.5 9-4.5v9l-9-4.5zm47.5-.5v1h-2v-1h2zm-4 0v1h-2v-1h2zm-4 0v1h-2v-1h2zm-4 0v1h-2v-1h2zm-4 0v1h-2v-1h2zm-4 0v1h-2v-1h2zm-4 0v1h-2v-1h2zm-4 0v1h-2v-1h2zm-4 0v1h-2v-1h2zm-4 0v1h-2v-1h2z" fill="#8F8981" fill-rule="nonzero"/>
   <g id="g14271" transform="translate(28 53)">
    <rect id="rect14265" width="89" height="33" rx="16.5" fill="#EFEFE7" fill-rule="evenodd"/>
    <text id="text14269" fill="#979797" font-family="Source Code Pro" font-size="12px" font-weight="700" text-anchor="middle"><tspan id="tspan14267" x="44.5" y="21" fill="#808080">f4265</tspan></text>
   </g>
   <path id="Line-9" d="m124 69h39v1h-39v4l-9-4.5 9-4.5v4z" fill="#8F8981" fill-rule="nonzero"/>
   <g id="g14280" transform="translate(143 53)">
    <rect id="rect14274" width="89" height="33" rx="16.5" fill="#EFEFE7" fill-rule="evenodd"/>
    <text id="text14278" fill="#979797" font-family="Source Code Pro" font-size="12px" font-weight="700" text-anchor="middle"><tspan id="tspan14276" x="44.5" y="21" fill="#808080">31b8e</tspan></text>
   </g>
   <path id="Line-10" d="m240 69h39v1h-39v4l-9-4.5 9-4.5v4z" fill="#8F8981" fill-rule="nonzero"/>
   <g id="g14289" transform="translate(259 53)">
    <rect id="rect14283" width="89" height="33" rx="16.5" fill="#EFEFE7" fill-rule="evenodd"/>
    <text id="text14287" fill="#979797" font-family="Source Code Pro" font-size="12px" font-weight="700" text-anchor="middle"><tspan id="tspan14285" x="44.5" y="21" fill="#808080">190a3</tspan></text>
   </g>
   <g id="Line-2-+-ref" transform="translate(261)">
    <path id="Line-2" d="m42 44v-24h1v24h4l-4.5 9-4.5-9h4z" fill="#8F8981" fill-rule="nonzero"/>
    <g id="g14298">
     <rect id="rect14292" width="106" height="33" fill="#F44D27" fill-rule="evenodd"/>
     <text id="text14296" fill="#979797" font-family="Source Code Pro" font-size="12px" font-weight="700" text-anchor="middle"><tspan id="tspan14294" x="53" y="20" fill="#f0f0f0">master</tspan></text>
    </g>
   </g>
  </g>
  <rect id="Rectangle-10" x="9.735" y="12" width="388" height="144.97" stroke="#8F8981" stroke-linecap="square"/>
  <text id="git.ourcompany.com" transform="translate(9.5766)" font-size="12px" font-weight="700" style="fill:#404040;font-family:'Source Code Pro';font-size:12px;font-weight:700;text-anchor:middle"><tspan id="tspan14304" x="194" y="28" style="fill:#404040">git.ourcompany.com</tspan></text>
  <text id="origin" transform="translate(9.8106)" font-size="12px" font-weight="700" style="fill:#404040;font-family:'Source Code Pro';font-size:12px;font-weight:700;text-anchor:middle"><tspan id="tspan14307" x="194" y="170" style="fill:#404040">origin</tspan></text>
  <path id="path14310" d="m426 120.5 9-4.5v9l-9-4.5zm47.5-.5v1h-2v-1h2zm-4 0v1h-2v-1h2zm-4 0v1h-2v-1h2zm-4 0v1h-2v-1h2zm-4 0v1h-2v-1h2zm-4 0v1h-2v-1h2zm-4 0v1h-2v-1h2zm-4 0v1h-2v-1h2zm-4 0v1h-2v-1h2zm-4 0v1h-2v-1h2z" fill="#8F8981" fill-rule="nonzero"/>
  <g id="g14318" transform="translate(454 104)">
   <rect id="rect14312" width="89" height="33" rx="16.5" fill="#EFEFE7" fill-rule="evenodd"/>
   <text id="text14316" fill="#979797" font-family="Source Code Pro" font-size="12px" font-weight="700" text-anchor="middle"><tspan id="tspan14314" x="44.5" y="21" fill="#808080">f4265</tspan></text>
  </g>
  <path id="path14320" d="m550 120h39v1h-39v4l-9-4.5 9-4.5v4z" fill="#8F8981" fill-rule="nonzero"/>
  <g id="g14328" transform="translate(569 104)">
   <rect id="rect14322" width="89" height="33" rx="16.5" fill="#EFEFE7" fill-rule="evenodd"/>
   <text id="text14326" fill="#979797" font-family="Source Code Pro" font-size="12px" font-weight="700" text-anchor="middle"><tspan id="tspan14324" x="44.5" y="21" fill="#808080">31b8e</tspan></text>
  </g>
  <g id="g14340" transform="translate(571 51)">
   <path id="path14330" d="m42 44v-24h1v24h4l-4.5 9-4.5-9h4z" fill="#8F8981" fill-rule="nonzero"/>
   <g id="g14338">
    <rect id="rect14332" width="106" height="33" fill="#F44D27" fill-rule="evenodd"/>
    <text id="text14336" fill="#979797" font-family="Source Code Pro" font-size="12px" font-weight="700" text-anchor="middle"><tspan id="tspan14334" x="53" y="20" fill="#f0f0f0">master</tspan></text>
   </g>
  </g>
  <rect id="Rectangle-12" x="411.73" y="12" width="272" height="144.97" stroke="#8F8981" stroke-linecap="square"/>
  <text id="git.team1.ourcompany" transform="translate(353.58)" font-size="12px" font-weight="700" style="fill:#404040;font-family:'Source Code Pro';font-size:12px;font-weight:700;text-anchor:middle"><tspan id="tspan14343" x="194" y="28" style="fill:#404040">git.team1.ourcompany.com</tspan></text>
  <text id="teamone" transform="translate(353.76)" font-size="12px" font-weight="700" style="fill:#404040;font-family:'Source Code Pro';font-size:12px;font-weight:700;text-anchor:middle"><tspan id="tspan14346" x="194" y="170" style="fill:#404040">teamone</tspan></text>
 </g>
</svg>
