<?xml version="1.0"?>
<svg xmlns="http://www.w3.org/2000/svg" xmlns:xlink="http://www.w3.org/1999/xlink" width="566px" height="408px" viewBox="0 0 566 408" version="1.1">
    <!-- Generator: Sketch 56.3 (81716) - https://sketch.com -->
    <title>images/remote-branches-1</title>
    <desc>Created with Sketch.</desc>
    <g id="03---Remote-Branches-1" stroke="none" stroke-width="1" fill="none" fill-rule="evenodd">
        <rect id="Rectangle-10" stroke="#8F8981" stroke-linecap="square" x="16" y="18" width="535" height="140"/>
        <rect id="Rectangle-11" stroke="#8F8981" stroke-linecap="square" x="16" y="209" width="535" height="185"/>
        <g id="brown" transform="translate(46.000000, 110.000000)">
            <rect id="Rectangle-1" fill="#EFEFE7" fill-rule="evenodd" x="0" y="0" width="89" height="33" rx="16.5"/>
            <text stroke="none" font-family="Source Code Pro" font-size="12px" font-weight="900" fill="#979797" fill-opacity="1" text-anchor="middle" id="C6">
                <tspan x="44.5" y="21">0b743</tspan>
            </text>
        </g>
        <path id="Line" d="M144,126 L183,126 L183,127 L144,127 L144,131 L135,126.5 L144,122 L144,126 Z" fill="#8F8981" fill-rule="nonzero"/>
        <g id="brown" transform="translate(163.000000, 110.000000)">
            <rect id="Rectangle-1" fill="#EFEFE7" fill-rule="evenodd" x="0" y="0" width="89" height="33" rx="16.5"/>
            <text stroke="none" font-family="Source Code Pro" font-size="12px" font-weight="900" fill="#979797" fill-opacity="1" text-anchor="middle" id="C6">
                <tspan x="44.5" y="21">a6b4c</tspan>
            </text>
        </g>
        <path id="Line" d="M261,126 L300,126 L300,127 L261,127 L261,131 L252,126.5 L261,122 L261,126 Z" fill="#8F8981" fill-rule="nonzero"/>
        <path id="Line-2" d="M324,101 L324,77 L325,77 L325,101 L329,101 L324.5,110 L320,101 L324,101 Z" fill="#8F8981" fill-rule="nonzero"/>
        <g id="brown" transform="translate(280.000000, 110.000000)">
            <rect id="Rectangle-1" fill="#EFEFE7" fill-rule="evenodd" x="0" y="0" width="89" height="33" rx="16.5"/>
            <text stroke="none" font-family="Source Code Pro" font-size="12px" font-weight="900" fill="#979797" fill-opacity="1" text-anchor="middle" id="C6">
                <tspan x="44.5" y="21">f4265</tspan>
            </text>
        </g>
        <g id="ref" transform="translate(282.000000, 57.000000)">
            <rect id="Rectangle-2" fill="#F44D27" fill-rule="evenodd" x="0" y="0" width="106" height="33"/>
            <text stroke="none" font-family="Source Code Pro" font-size="12px" font-weight="900" fill="#979797" fill-opacity="1" text-anchor="middle" id="master">
                <tspan x="53" y="20">master</tspan>
            </text>
        </g>
        <path id="Line-6" d="M324,287 L324,260 L325,260 L325,287 L329,287 L324.5,296 L320,287 L324,287 Z" fill="#8F8981" fill-rule="nonzero"/>
        <g id="brown" transform="translate(46.000000, 296.000000)">
            <rect id="Rectangle-1" fill="#EFEFE7" fill-rule="evenodd" x="0" y="0" width="89" height="33" rx="16.5"/>
            <text stroke="none" font-family="Source Code Pro" font-size="12px" font-weight="900" fill="#979797" fill-opacity="1" text-anchor="middle" id="C6">
                <tspan x="44.5" y="21">0b743</tspan>
            </text>
        </g>
        <path id="Line-5" d="M144,312 L183,312 L183,313 L144,313 L144,317 L135,312.5 L144,308 L144,312 Z" fill="#8F8981" fill-rule="nonzero"/>
        <g id="brown" transform="translate(163.000000, 296.000000)">
            <rect id="Rectangle-1" fill="#EFEFE7" fill-rule="evenodd" x="0" y="0" width="89" height="33" rx="16.5"/>
            <text stroke="none" font-family="Source Code Pro" font-size="12px" font-weight="900" fill="#979797" fill-opacity="1" text-anchor="middle" id="C6">
                <tspan x="44.5" y="21">a6b4c</tspan>
            </text>
        </g>
        <path id="Line-4" d="M261,312 L300,312 L300,313 L261,313 L261,317 L252,312.5 L261,308 L261,312 Z" fill="#8F8981" fill-rule="nonzero"/>
        <path id="Line-3" d="M325,338 L325,363 L324,363 L324,338 L320,338 L324.5,329 L329,338 L325,338 Z" fill="#8F8981" fill-rule="nonzero"/>
        <g id="brown" transform="translate(280.000000, 296.000000)">
            <rect id="Rectangle-1" fill="#EFEFE7" fill-rule="evenodd" x="0" y="0" width="89" height="33" rx="16.5"/>
            <text stroke="none" font-family="Source Code Pro" font-size="12px" font-weight="900" fill="#979797" fill-opacity="1" text-anchor="middle" id="C6">
                <tspan x="44.5" y="21">f4265</tspan>
            </text>
        </g>
        <g id="ref" transform="translate(281.000000, 349.000000)">
            <rect id="Rectangle-2" fill="#F44D27" fill-rule="evenodd" x="0" y="0" width="106" height="33"/>
            <text stroke="none" font-family="Source Code Pro" font-size="12px" font-weight="900" fill="#979797" fill-opacity="1" text-anchor="middle" id="master">
                <tspan x="53" y="20">master</tspan>
            </text>
        </g>
        <g id="ref-3" transform="translate(270.000000, 243.000000)">
            <rect id="Rectangle-2" fill="#F44D27" x="0" y="0" width="111" height="33"/>
            <text stroke="none" font-family="Source Code Pro" font-size="12px" font-weight="900" fill="#979797" fill-opacity="1" text-anchor="middle" id="master">
                <tspan x="55.5" y="20">origin/master</tspan>
            </text>
        </g>
        <text stroke="none" font-family="Source Code Pro" font-size="12px" font-weight="900" fill="#979797" fill-opacity="1" text-anchor="middle" id="My-Computer">
            <tspan x="267.5" y="230">My Computer</tspan>
        </text>
        <text stroke="none" font-family="Source Code Pro" font-size="12px" font-weight="900" fill="#979797" fill-opacity="1" text-anchor="middle" id="git.ourcompany.com">
            <tspan x="267.5" y="37">git.ourcompany.com</tspan>
        </text>
        <path id="Line" d="M163.5,180.5 L163.5,158.5 L168.5,158.5 L168.5,180.5 L180.5,180.5 L166,209.5 L151.5,180.5 L163.5,180.5 Z" fill="#8F8981" fill-rule="nonzero"/>
        <text stroke="none" font-family="Source Code Pro" font-size="12px" font-weight="900" fill="#979797" fill-opacity="1" text-anchor="middle" id="git-clone-janedoe@gi">
            <tspan x="267.5" y="186">git clone janedoe@git.ourcompany.com:project.git</tspan>
        </text>
        <text stroke="none" font-family="Source Code Pro" font-size="12px" font-weight="900" fill="#979797" fill-opacity="1" text-anchor="middle" id="Remote-branch">
            <tspan x="267.5" y="263">Remote branch</tspan>
        </text>
        <text stroke="none" font-family="Source Code Pro" font-size="12px" font-weight="900" fill="#979797" fill-opacity="1" text-anchor="middle" id="Local-branch">
            <tspan x="267.5" y="370">Local branch</tspan>
        </text>
    </g>
</svg>
