<?xml version="1.0" encoding="UTF-8"?>
<svg width="596px" height="493px" viewBox="0 0 596 493" version="1.1" xmlns="http://www.w3.org/2000/svg" xmlns:xlink="http://www.w3.org/1999/xlink">
    <!-- Generator: Sketch 56.3 (81716) - https://sketch.com -->
    <title>images/replace3</title>
    <desc>Created with Sketch.</desc>
    <g id="replace3" stroke="none" stroke-width="1" fill="none" fill-rule="evenodd">
        <path id="Line" d="M373,118 L373,93 L374,93 L374,118 L378,118 L373.5,127 L369,118 L373,118 Z" fill="#8F8981" fill-rule="nonzero" opacity="0.221490205"></path>
        <g id="brown-2" opacity="0.221490205" transform="translate(315.000000, 36.000000)" stroke="#979797">
            <rect id="Rectangle-2" fill="#EFEFE7" x="0.5" y="0.5" width="109.580108" height="56"></rect>
            <text id="master-4" font-family="RobotoMono-Regular, Roboto Mono" font-size="12" font-weight="normal" fill="#000000">
                <tspan x="37.2841946" y="18.546875">ef989</tspan>
            </text>
        </g>
        <text id="fifth" opacity="0.221490205" font-family="RobotoMono-Regular, Roboto Mono" font-size="12" font-weight="normal" fill="#9B9B9B">
            <tspan x="353" y="81">fifth</tspan>
        </text>
        <g id="other-(2-line)" transform="translate(316.000000, 128.000000)" stroke="#979797">
            <rect id="Rectangle-2" fill="#EFEFE7" fill-rule="evenodd" x="0.5" y="0.5" width="109.580108" height="56"></rect>
            <text id="master-4" font-family="RobotoMono-Regular, Roboto Mono" font-size="12" font-weight="normal" fill="#000000">
                <tspan x="37.2871243" y="18.546875">c6e1e</tspan>
            </text>
        </g>
        <text id="fourth" font-family="RobotoMono-Regular, Roboto Mono" font-size="12" font-weight="normal" fill="#9B9B9B">
            <tspan x="349" y="173">fourth</tspan>
        </text>
        <path id="Line-3" d="M373,210 L373,185 L374,185 L374,210 L378,210 L373.5,219 L369,210 L373,210 Z" fill="#8F8981" fill-rule="nonzero"></path>
        <g id="other-(2-line)" transform="translate(316.000000, 220.000000)" stroke="#979797">
            <rect id="Rectangle-2" fill="#EFEFE7" fill-rule="evenodd" x="0.5" y="0.5" width="109.580108" height="56"></rect>
            <text id="master-4" font-family="RobotoMono-Regular, Roboto Mono" font-size="12" font-weight="normal" fill="#000000">
                <tspan x="37.2841946" y="18.546875">9c68f</tspan>
            </text>
        </g>
        <text id="third" font-family="RobotoMono-Regular, Roboto Mono" font-size="12" font-weight="normal" fill="#9B9B9B">
            <tspan x="353" y="265">third</tspan>
        </text>
        <path id="Line-4" d="M373,302 L373,277 L374,277 L374,302 L378,302 L373.5,311 L369,302 L373,302 Z" fill="#8F8981" fill-rule="nonzero"></path>
        <g id="other-(2-line)" transform="translate(316.000000, 312.000000)" stroke="#979797">
            <rect id="Rectangle-2" fill="#EFEFE7" fill-rule="evenodd" x="0.5" y="0.5" width="109.580108" height="56"></rect>
            <text id="master-4" font-family="RobotoMono-Regular, Roboto Mono" font-size="12" font-weight="normal" fill="#000000">
                <tspan x="37.2871243" y="18.546875">94570</tspan>
            </text>
        </g>
        <text id="second" font-family="RobotoMono-Regular, Roboto Mono" font-size="12" font-weight="normal" fill="#9B9B9B">
            <tspan x="351" y="357">second</tspan>
        </text>
        <path id="Line-5" d="M373,394 L373,369 L374,369 L374,394 L378,394 L373.5,403 L369,394 L373,394 Z" fill="#8F8981" fill-rule="nonzero"></path>
        <g id="other-(2-line)" transform="translate(316.000000, 404.000000)" stroke="#979797">
            <rect id="Rectangle-2" fill="#EFEFE7" fill-rule="evenodd" x="0.5" y="0.5" width="109.580108" height="56"></rect>
            <text id="master-4" font-family="RobotoMono-Regular, Roboto Mono" font-size="12" font-weight="normal" fill="#000000">
                <tspan x="37.2871243" y="18.546875">c1822</tspan>
            </text>
        </g>
        <g id="other-(2-line)" transform="translate(168.000000, 219.000000)" stroke="#979797">
            <rect id="Rectangle-2" fill="#EFEFE7" fill-rule="evenodd" x="0.5" y="0.5" width="109.580108" height="56"></rect>
            <text id="master-4" font-family="RobotoMono-Regular, Roboto Mono" font-size="12" font-weight="normal" fill="#000000">
                <tspan x="37.2871243" y="18.546875">622e8</tspan>
            </text>
        </g>
        <text id="first" font-family="RobotoMono-Regular, Roboto Mono" font-size="12" font-weight="normal" fill="#9B9B9B">
            <tspan x="355" y="449">first</tspan>
        </text>
        <text id="instructions" font-family="RobotoMono-Regular, Roboto Mono" font-size="12" font-weight="normal" fill="#9B9B9B">
            <tspan x="181" y="264">instructions</tspan>
        </text>
        <path id="Line-6" d="M436,157 L467,157 L467,158 L436,158 L436,162 L427,157.5 L436,153 L436,157 Z" fill="#8F8981" fill-rule="nonzero"></path>
        <g id="ref" transform="translate(463.000000, 134.000000)">
            <rect id="Rectangle-2" fill="#F44D27" fill-rule="evenodd" x="0" y="0" width="106" height="33"></rect>
            <text id="master" stroke="#979797" stroke-width="1" font-family="RobotoMono-Regular, Roboto Mono" font-size="11.1428571" font-weight="normal" fill="#FFFFFF">
                <tspan x="29.7851449" y="20">history</tspan>
            </text>
        </g>
    </g>
</svg>