<?xml version="1.0" encoding="UTF-8"?>
<svg id="svg15386" version="1.1" viewBox="0 0 596 493" xmlns="http://www.w3.org/2000/svg" xmlns:cc="http://creativecommons.org/ns#" xmlns:dc="http://purl.org/dc/elements/1.1/" xmlns:rdf="http://www.w3.org/1999/02/22-rdf-syntax-ns#" xmlns:xlink="http://www.w3.org/1999/xlink">
 <metadata id="metadata15390">
  <rdf:RDF>
   <cc:Work rdf:about="">
    <dc:format>image/svg+xml</dc:format>
    <dc:type rdf:resource="http://purl.org/dc/dcmitype/StillImage"/>
    <dc:title>images/replace4</dc:title>
   </cc:Work>
  </rdf:RDF>
 </metadata>
 <!-- Generator: Sketch 56.3 (81716) - https://sketch.com -->
 <title id="title15248">images/replace4</title>
 <desc id="desc15250">Created with Sketch.</desc>
 <g id="replace4" fill="none" fill-rule="evenodd">
  <path id="Line-2" d="m287 65h27v1h-27v4l-9-4.5 9-4.5v4z" fill="#4A90E2" fill-rule="nonzero"/>
  <path id="Line-10" d="m288 155h27v1h-27v4l-9-4.5 9-4.5v4z" fill="#4A90E2" fill-rule="nonzero"/>
  <g id="g15426">
   <path id="Line" d="m373 118v-25h1v25h4l-4.5 9-4.5-9z" style="fill-rule:nonzero;fill:#8f8981;opacity:.5"/>
   <g id="g15398" style="opacity:.6">
    <g id="brown-2" transform="translate(315,36)" style="opacity:.824;stroke:#979797">
     <rect id="Rectangle-2" x=".5" y=".5" width="109.58" height="56" style="fill:#efefe7"/>
     <text id="master-4" font-size="12px" font-weight="700" style="fill:#666;font-family:'Source Code Pro';font-size:12px;font-weight:700;stroke:none;text-anchor:middle"><tspan id="tspan15279" x="54.790054" y="18.546875" style="fill:#666">ef989</tspan></text>
    </g>
    <text id="fifth" font-size="12px" font-weight="700" style="fill:#9b9b9b;font-family:'Source Code Pro';font-size:12px;font-weight:700"><tspan id="tspan15283" x="353" y="81">fifth</tspan></text>
   </g>
  </g>
  <g id="other-(2-line)" transform="translate(316 128)" stroke="#979797">
   <rect id="rect15286" x=".5" y=".5" width="109.58" height="56" fill="#EFEFE7" fill-rule="evenodd"/>
   <text id="text15290" fill="#979797" font-family="Source Code Pro" font-size="12px" font-weight="700" stroke="none" text-anchor="middle"><tspan id="tspan15288" x="54.790054" y="18.546875" fill="#808080">c6e1e</tspan></text>
  </g>
  <text id="fourth" fill="#9B9B9B" font-family="Source Code Pro" font-size="12px" font-weight="700"><tspan id="tspan15293" x="349" y="173">fourth</tspan></text>
  <path id="Line-3" d="m373 210v-25h1v25h4l-4.5 9-4.5-9h4z" fill="#8F8981" fill-rule="nonzero"/>
  <path id="Line-8" d="m225 210v-25h1v25h4l-4.5 9-4.5-9h4z" fill="#8F8981" fill-rule="nonzero"/>
  <g id="g15304" transform="translate(316 220)" stroke="#979797">
   <rect id="rect15298" x=".5" y=".5" width="109.58" height="56" fill="#EFEFE7" fill-rule="evenodd"/>
   <text id="text15302" fill="#979797" font-family="Source Code Pro" font-size="12px" font-weight="700" stroke="none" text-anchor="middle"><tspan id="tspan15300" x="54.790054" y="18.546875" fill="#808080">9c68f</tspan></text>
  </g>
  <text id="third" fill="#9B9B9B" font-family="Source Code Pro" font-size="12px" font-weight="700"><tspan id="tspan15306" x="353" y="265">third</tspan></text>
  <g id="g15315" transform="translate(168 36)" stroke="#979797">
   <rect id="rect15309" x=".5" y=".5" width="109.58" height="56" fill="#EFEFE7" fill-rule="evenodd"/>
   <text id="text15313" fill="#979797" font-family="Source Code Pro" font-size="12px" font-weight="700" stroke="none" text-anchor="middle"><tspan id="tspan15311" x="54.790054" y="18.546875" fill="#808080">e146b</tspan></text>
  </g>
  <text id="text15319" fill="#9B9B9B" font-family="Source Code Pro" font-size="12px" font-weight="700"><tspan id="tspan15317" x="203" y="81">fifth</tspan></text>
  <path id="Line-7" d="m225 118v-25h1v25h4l-4.5 9-4.5-9h4z" fill="#8F8981" fill-rule="nonzero"/>
  <g id="g15328" transform="translate(168 128)" stroke="#979797">
   <rect id="rect15322" x=".5" y=".5" width="109.58" height="56" fill="#EFEFE7" fill-rule="evenodd"/>
   <text id="text15326" fill="#979797" font-family="Source Code Pro" font-size="12px" font-weight="700" stroke="none" text-anchor="middle"><tspan id="tspan15324" x="54.790054" y="18.546875" fill="#808080">81a70</tspan></text>
  </g>
  <text id="text15332" fill="#9B9B9B" font-family="Source Code Pro" font-size="12px" font-weight="700"><tspan id="tspan15330" x="203" y="173">fourth</tspan></text>
  <path id="Line-4" d="m373 302v-25h1v25h4l-4.5 9-4.5-9h4z" fill="#8F8981" fill-rule="nonzero"/>
  <g id="g15341" transform="translate(316 312)" stroke="#979797">
   <rect id="rect15335" x=".5" y=".5" width="109.58" height="56" fill="#EFEFE7" fill-rule="evenodd"/>
   <text id="text15339" fill="#979797" font-family="Source Code Pro" font-size="12px" font-weight="700" stroke="none" text-anchor="middle"><tspan id="tspan15337" x="54.790054" y="18.546875" fill="#808080">94570</tspan></text>
  </g>
  <text id="second" fill="#9B9B9B" font-family="Source Code Pro" font-size="12px" font-weight="700"><tspan id="tspan15343" x="351" y="357">second</tspan></text>
  <path id="Line-5" d="m373 394v-25h1v25h4l-4.5 9-4.5-9h4z" fill="#8F8981" fill-rule="nonzero"/>
  <g id="g15353" transform="translate(316 404)" stroke="#979797">
   <rect id="rect15347" x=".5" y=".5" width="109.58" height="56" fill="#EFEFE7" fill-rule="evenodd"/>
   <text id="text15351" fill="#979797" font-family="Source Code Pro" font-size="12px" font-weight="700" stroke="none" text-anchor="middle"><tspan id="tspan15349" x="54.790054" y="18.546875" fill="#808080">c1822</tspan></text>
  </g>
  <g id="g15361" transform="translate(168 219)" stroke="#979797">
   <rect id="rect15355" x=".5" y=".5" width="109.58" height="56" fill="#EFEFE7" fill-rule="evenodd"/>
   <text id="text15359" fill="#979797" font-family="Source Code Pro" font-size="12px" font-weight="700" stroke="none" text-anchor="middle"><tspan id="tspan15357" x="54.790054" y="18.546875" fill="#808080">622e8</tspan></text>
  </g>
  <text id="first" fill="#9B9B9B" font-family="Source Code Pro" font-size="12px" font-weight="700"><tspan id="tspan15363" x="355" y="449">first</tspan></text>
  <text id="instructions" fill="#9B9B9B" font-family="Source Code Pro" font-size="12px" font-weight="700"><tspan id="tspan15366" x="181" y="264">instructions</tspan></text>
  <path id="Line-6" d="m436 157h31v1h-31v4l-9-4.5 9-4.5v4z" fill="#8F8981" fill-rule="nonzero"/>
  <g id="ref" transform="translate(463 134)">
   <rect id="rect15370" width="106" height="33" fill="#F44D27" fill-rule="evenodd"/>
   <text id="master" fill="#979797" font-family="Source Code Pro" font-size="12px" font-weight="700" text-anchor="middle"><tspan id="tspan15372" x="53" y="20" fill="#f0f0f0">history</tspan></text>
  </g>
  <path id="Line-9" d="m160 61h-23.016v-1h23.016v-4l9 4.5-9 4.5v-4z" fill="#8F8981" fill-rule="nonzero"/>
  <g id="g15383" transform="translate(26 37)">
   <rect id="rect15377" width="106" height="33" fill="#F44D27" fill-rule="evenodd"/>
   <text id="text15381" fill="#979797" font-family="Source Code Pro" font-size="12px" font-weight="700" text-anchor="middle"><tspan id="tspan15379" x="53" y="20" fill="#f0f0f0">master</tspan></text>
  </g>
  <g id="g15441" transform="translate(-2.2)">
   <text id="text15434" transform="matrix(0 -1.4366 1.4366 0 -176.66 53.325)" x="-40.01804" y="334.59525" style="fill:#4a90e2;font-family:'Source Code Pro';font-feature-settings:normal;font-size:12px;font-variant-caps:normal;font-variant-ligatures:normal;font-variant-numeric:normal;font-weight:bold;letter-spacing:0px;line-height:9.5px;text-align:center;text-anchor:middle;word-spacing:0px" xml:space="preserve"><tspan id="tspan15432" x="-40.01804" y="334.59525">rebase</tspan></text>
   <path id="path15436" d="m306.4 81.263v58.995" style="fill:none;stroke-width:1px;stroke:#4a90e2"/>
  </g>
 </g>
</svg>
