<?xml version="1.0" encoding="UTF-8"?>
<svg width="480px" height="493px" viewBox="0 0 480 493" version="1.1" xmlns="http://www.w3.org/2000/svg" xmlns:xlink="http://www.w3.org/1999/xlink">
    <!-- Generator: Sketch 56.3 (81716) - https://sketch.com -->
    <title>images/replace1</title>
    <desc>Created with Sketch.</desc>
    <g id="replace1" stroke="none" stroke-width="1" fill="none" fill-rule="evenodd">
        <path id="Line" d="M244,118 L244,93 L245,93 L245,118 L249,118 L244.5,127 L240,118 L244,118 Z" fill="#8F8981" fill-rule="nonzero"></path>
        <path id="Line-2" d="M306,64 L337,64 L337,65 L306,65 L306,69 L297,64.5 L306,60 L306,64 Z" fill="#8F8981" fill-rule="nonzero"></path>
        <g id="other-(2-line)" transform="translate(186.000000, 36.000000)" stroke="#979797">
            <rect id="Rectangle-2" fill="#EFEFE7" fill-rule="evenodd" x="0.5" y="0.5" width="109.580108" height="56"></rect>
            <text id="master-4" font-family="RobotoMono-Regular, Roboto Mono" font-size="12" font-weight="normal" fill="#000000">
                <tspan x="37.2841946" y="18.546875">ef989</tspan>
            </text>
        </g>
        <text id="fifth" font-family="RobotoMono-Regular, Roboto Mono" font-size="12" font-weight="normal" fill="#9B9B9B">
            <tspan x="224" y="81">fifth</tspan>
        </text>
        <g id="other-(2-line)" transform="translate(187.000000, 128.000000)" stroke="#979797">
            <rect id="Rectangle-2" fill="#EFEFE7" fill-rule="evenodd" x="0.5" y="0.5" width="109.580108" height="56"></rect>
            <text id="master-4" font-family="RobotoMono-Regular, Roboto Mono" font-size="12" font-weight="normal" fill="#000000">
                <tspan x="37.2871243" y="18.546875">c6e1e</tspan>
            </text>
        </g>
        <text id="fourth" font-family="RobotoMono-Regular, Roboto Mono" font-size="12" font-weight="normal" fill="#9B9B9B">
            <tspan x="222" y="173">fourth</tspan>
        </text>
        <path id="Line-3" d="M244,210 L244,185 L245,185 L245,210 L249,210 L244.5,219 L240,210 L244,210 Z" fill="#8F8981" fill-rule="nonzero"></path>
        <g id="other-(2-line)" transform="translate(187.000000, 220.000000)" stroke="#979797">
            <rect id="Rectangle-2" fill="#EFEFE7" fill-rule="evenodd" x="0.5" y="0.5" width="109.580108" height="56"></rect>
            <text id="master-4" font-family="RobotoMono-Regular, Roboto Mono" font-size="12" font-weight="normal" fill="#000000">
                <tspan x="37.2841946" y="18.546875">9c68f</tspan>
            </text>
        </g>
        <text id="third" font-family="RobotoMono-Regular, Roboto Mono" font-size="12" font-weight="normal" fill="#9B9B9B">
            <tspan x="224" y="265">third</tspan>
        </text>
        <path id="Line-4" d="M244,302 L244,277 L245,277 L245,302 L249,302 L244.5,311 L240,302 L244,302 Z" fill="#8F8981" fill-rule="nonzero"></path>
        <g id="other-(2-line)" transform="translate(187.000000, 312.000000)" stroke="#979797">
            <rect id="Rectangle-2" fill="#EFEFE7" fill-rule="evenodd" x="0.5" y="0.5" width="109.580108" height="56"></rect>
            <text id="master-4" font-family="RobotoMono-Regular, Roboto Mono" font-size="12" font-weight="normal" fill="#000000">
                <tspan x="37.2871243" y="18.546875">94570</tspan>
            </text>
        </g>
        <text id="second" font-family="RobotoMono-Regular, Roboto Mono" font-size="12" font-weight="normal" fill="#9B9B9B">
            <tspan x="222" y="357">second</tspan>
        </text>
        <path id="Line-5" d="M244,394 L244,369 L245,369 L245,394 L249,394 L244.5,403 L240,394 L244,394 Z" fill="#8F8981" fill-rule="nonzero"></path>
        <g id="other-(2-line)" transform="translate(187.000000, 404.000000)" stroke="#979797">
            <rect id="Rectangle-2" fill="#EFEFE7" fill-rule="evenodd" x="0.5" y="0.5" width="109.580108" height="56"></rect>
            <text id="master-4" font-family="RobotoMono-Regular, Roboto Mono" font-size="12" font-weight="normal" fill="#000000">
                <tspan x="37.2871243" y="18.546875">c1822</tspan>
            </text>
        </g>
        <text id="first" font-family="RobotoMono-Regular, Roboto Mono" font-size="12" font-weight="normal" fill="#9B9B9B">
            <tspan x="226" y="449">first</tspan>
        </text>
        <g id="ref" transform="translate(333.000000, 41.000000)">
            <rect id="Rectangle-2" fill="#F44D27" fill-rule="evenodd" x="0" y="0" width="106" height="33"></rect>
            <text id="master" stroke="#979797" stroke-width="1" font-family="RobotoMono-Regular, Roboto Mono" font-size="11.1428571" font-weight="normal" fill="#FFFFFF">
                <tspan x="33.1285461" y="20">master</tspan>
            </text>
        </g>
    </g>
</svg>