<?xml version="1.0"?>
<svg xmlns="http://www.w3.org/2000/svg" xmlns:xlink="http://www.w3.org/1999/xlink" width="480px" height="493px" viewBox="0 0 480 493" version="1.1">
    <!-- Generator: Sketch 56.3 (81716) - https://sketch.com -->
    <title>images/replace1</title>
    <desc>Created with Sketch.</desc>
    <g id="replace1" stroke="none" stroke-width="1" fill="none" fill-rule="evenodd">
        <path id="Line" d="M244,118 L244,93 L245,93 L245,118 L249,118 L244.5,127 L240,118 L244,118 Z" fill="#8F8981" fill-rule="nonzero"/>
        <path id="Line-2" d="M306,64 L337,64 L337,65 L306,65 L306,69 L297,64.5 L306,60 L306,64 Z" fill="#8F8981" fill-rule="nonzero"/>
        <g id="other-(2-line)" transform="translate(186.000000, 36.000000)" stroke="#979797">
            <rect id="Rectangle-2" fill="#EFEFE7" fill-rule="evenodd" x="0.5" y="0.5" width="109.580108" height="56"/>
            <text stroke="none" font-family="Source Code Pro" font-size="12px" font-weight="900" fill="#979797" fill-opacity="1" text-anchor="middle" id="master-4">
                <tspan x="54.790054" y="18.546875">ef989</tspan>
            </text>
        </g>
        <text stroke="none" font-family="Source Code Pro" font-size="12px" font-weight="900" fill="#9B9B9B" fill-opacity="1" id="fifth">
            <tspan x="224" y="81">fifth</tspan>
        </text>
        <g id="other-(2-line)" transform="translate(187.000000, 128.000000)" stroke="#979797">
            <rect id="Rectangle-2" fill="#EFEFE7" fill-rule="evenodd" x="0.5" y="0.5" width="109.580108" height="56"/>
            <text stroke="none" font-family="Source Code Pro" font-size="12px" font-weight="900" fill="#979797" fill-opacity="1" text-anchor="middle" id="master-4">
                <tspan x="54.790054" y="18.546875">c6e1e</tspan>
            </text>
        </g>
        <text stroke="none" font-family="Source Code Pro" font-size="12px" font-weight="900" fill="#9B9B9B" fill-opacity="1" id="fourth">
            <tspan x="222" y="173">fourth</tspan>
        </text>
        <path id="Line-3" d="M244,210 L244,185 L245,185 L245,210 L249,210 L244.5,219 L240,210 L244,210 Z" fill="#8F8981" fill-rule="nonzero"/>
        <g id="other-(2-line)" transform="translate(187.000000, 220.000000)" stroke="#979797">
            <rect id="Rectangle-2" fill="#EFEFE7" fill-rule="evenodd" x="0.5" y="0.5" width="109.580108" height="56"/>
            <text stroke="none" font-family="Source Code Pro" font-size="12px" font-weight="900" fill="#979797" fill-opacity="1" text-anchor="middle" id="master-4">
                <tspan x="54.790054" y="18.546875">9c68f</tspan>
            </text>
        </g>
        <text stroke="none" font-family="Source Code Pro" font-size="12px" font-weight="900" fill="#9B9B9B" fill-opacity="1" id="third">
            <tspan x="224" y="265">third</tspan>
        </text>
        <path id="Line-4" d="M244,302 L244,277 L245,277 L245,302 L249,302 L244.5,311 L240,302 L244,302 Z" fill="#8F8981" fill-rule="nonzero"/>
        <g id="other-(2-line)" transform="translate(187.000000, 312.000000)" stroke="#979797">
            <rect id="Rectangle-2" fill="#EFEFE7" fill-rule="evenodd" x="0.5" y="0.5" width="109.580108" height="56"/>
            <text stroke="none" font-family="Source Code Pro" font-size="12px" font-weight="900" fill="#979797" fill-opacity="1" text-anchor="middle" id="master-4">
                <tspan x="54.790054" y="18.546875">94570</tspan>
            </text>
        </g>
        <text stroke="none" font-family="Source Code Pro" font-size="12px" font-weight="900" fill="#9B9B9B" fill-opacity="1" id="second">
            <tspan x="222" y="357">second</tspan>
        </text>
        <path id="Line-5" d="M244,394 L244,369 L245,369 L245,394 L249,394 L244.5,403 L240,394 L244,394 Z" fill="#8F8981" fill-rule="nonzero"/>
        <g id="other-(2-line)" transform="translate(187.000000, 404.000000)" stroke="#979797">
            <rect id="Rectangle-2" fill="#EFEFE7" fill-rule="evenodd" x="0.5" y="0.5" width="109.580108" height="56"/>
            <text stroke="none" font-family="Source Code Pro" font-size="12px" font-weight="900" fill="#979797" fill-opacity="1" text-anchor="middle" id="master-4">
                <tspan x="54.790054" y="18.546875">c1822</tspan>
            </text>
        </g>
        <text stroke="none" font-family="Source Code Pro" font-size="12px" font-weight="900" fill="#9B9B9B" fill-opacity="1" id="first">
            <tspan x="226" y="449">first</tspan>
        </text>
        <g id="ref" transform="translate(333.000000, 41.000000)">
            <rect id="Rectangle-2" fill="#F44D27" fill-rule="evenodd" x="0" y="0" width="106" height="33"/>
            <text stroke="none" font-family="Source Code Pro" font-size="12px" font-weight="900" fill="#979797" fill-opacity="1" text-anchor="middle" id="master">
                <tspan x="53" y="20">master</tspan>
            </text>
        </g>
    </g>
</svg>
