<?xml version="1.0" encoding="UTF-8"?>
<svg id="svg16210" version="1.1" viewBox="0 0 556.8 275" xmlns="http://www.w3.org/2000/svg" xmlns:cc="http://creativecommons.org/ns#" xmlns:dc="http://purl.org/dc/elements/1.1/" xmlns:rdf="http://www.w3.org/1999/02/22-rdf-syntax-ns#">
 <metadata id="metadata16214">
  <rdf:RDF>
   <cc:Work rdf:about="">
    <dc:format>image/svg+xml</dc:format>
    <dc:type rdf:resource="http://purl.org/dc/dcmitype/StillImage"/>
    <dc:title>images/rerere2</dc:title>
   </cc:Work>
  </rdf:RDF>
 </metadata>
 <!-- Generator: Sketch 56.3 (81716) - https://sketch.com -->
 <title id="title16136">images/rerere2</title>
 <desc id="desc16138">Created with Sketch.</desc>
 <g id="layer11" transform="translate(-12 -20.996)">
  <g id="g16061">
   <g id="g15992">
    <path id="Line-2" d="m25 109h50v1h-50v4l-9-4.5 9-4.5z" style="fill:#8f8981"/>
    <g id="content" transform="translate(67,86)" style="fill-rule:evenodd;fill:none">
     <rect id="rect16157" width="102" height="47" style="fill-rule:evenodd;fill:#efefe7"/>
     <text id="text16161" font-size="12px" font-weight="700" style="fill:#979797;font-family:'Source Code Pro';font-size:12px;font-weight:700;text-anchor:middle"><tspan id="tspan16159" x="51" y="28" style="fill:gray">hello world</tspan></text>
    </g>
   </g>
   <g id="g15999">
    <path id="Line" d="m178 109h42v1h-42v4l-9-4.5 9-4.5z" style="fill:#8f8981"/>
    <g id="g16170" transform="translate(219.87 85.996)" style="fill-rule:evenodd;fill:none">
     <rect id="rect16164" width="102" height="47" style="fill-rule:evenodd;fill:#efefe7"/>
     <text id="text16168" font-size="12px" font-weight="700" style="fill:#979797;font-family:'Source Code Pro';font-size:12px;font-weight:700;text-anchor:middle"><tspan id="tspan16166" x="51" y="28" style="fill:gray">hola world</tspan></text>
    </g>
   </g>
   <g id="g16010">
    <path id="Line-4" d="m331.94 110h41.056v1h-41.056v4l-9-4.5 9-4.5z" style="fill:#8f8981"/>
    <path id="Line-5" d="m327.7 163.42 45.772-44.63.73876.67396-45.772 44.63 2.9551 2.6958-9.3901 3.6161 2.7412-9.6817z" style="fill:#8f8981"/>
    <g id="g16178" transform="translate(372.8 85.996)" style="fill-rule:evenodd;fill:none">
     <rect id="rect16172" width="102" height="47" style="fill-rule:evenodd;fill:#efefe7"/>
     <text id="text16176" font-size="12px" font-weight="700" style="fill:#979797;font-family:'Source Code Pro';font-size:12px;font-weight:700;text-anchor:middle"><tspan id="tspan16174" x="51" y="28" style="fill:gray">hola mundo</tspan></text>
    </g>
   </g>
   <g id="g16186" transform="translate(220,148)" style="fill-rule:evenodd;fill:none">
    <rect id="rect16180" width="102" height="47" style="fill-rule:evenodd;fill:#efefe7"/>
    <text id="text16184" font-size="12px" font-weight="700" style="fill:#979797;font-family:'Source Code Pro';font-size:12px;font-weight:700;text-anchor:middle"><tspan id="tspan16182" x="51" y="28" style="fill:gray">hello mundo</tspan></text>
   </g>
   <g id="g16002">
    <path id="Line-8" d="m175.98 126.03 44.229 42.46-.69253.72139-44.229-42.46-2.7701 2.8855-3.3761-9.479 9.6089 2.9865-2.7701 2.8855z" style="fill:#8f8981"/>
   </g>
   <g id="g16350" transform="translate(-11.2)" style="fill-rule:evenodd;fill:none">
    <g id="g16337">
     <rect id="Rectangle-7" x="384.5" y="180.5" width="191" height="111" rx="1" ry="1" style="fill:#d8d8d8;stroke:#979797"/>
     <text id="rerere-cache" transform="translate(296.51 .44153)" font-size="12px" font-weight="700" style="fill:#404040;font-family:'Source Code Pro';font-feature-settings:normal;font-size:12px;font-variant-caps:normal;font-variant-ligatures:normal;font-variant-numeric:normal;font-weight:bold"><tspan id="tspan16198" x="95.5" y="203" style="fill:#404040;font-family:'Source Code Pro';font-feature-settings:normal;font-size:12px;font-variant-caps:normal;font-variant-ligatures:normal;font-variant-numeric:normal;font-weight:bold">rerere cache</tspan></text>
    </g>
    <g id="g16332">
     <rect id="Rectangle-8" x="390.5" y="218.5" width="178" height="64" rx="1" ry="1" style="fill:#e7e7e7;stroke:#979797"/>
     <text id="text16296" transform="translate(8.512,-110.66)" x="388.82846" y="352.83362" style="fill:#f44d27;font-family:'Source Code Pro';font-feature-settings:normal;font-size:12px;font-variant-caps:normal;font-variant-ligatures:normal;font-variant-numeric:normal;font-weight:bold;letter-spacing:0px;line-height:9.5px;word-spacing:0px" xml:space="preserve"><tspan id="tspan16294" x="388.82846" y="352.83362" style="fill:#f44d27;line-height:13.33333302px"><tspan id="tspan16302" style="fill:#cc003d">-  puts ‘hola world’</tspan> </tspan><tspan id="tspan16298" x="388.82846" y="366.16696" style="fill:#f44d27;line-height:13.33333302px">-  puts ‘hello mundo’ </tspan><tspan id="tspan16300" x="388.82846" y="379.50027" style="fill:green;line-height:13.33333302px">++ puts ‘hola mundo’</tspan></text>
    </g>
   </g>
   <g id="g15378" transform="translate(86.301 6.9958)">
    <path id="Line-7-1" d="m337 70v-29h1v29h4l-4.5 9-4.5-9z" style="fill:#8f8981"/>
    <g id="g15371">
     <rect id="Rectangle-2-5" transform="matrix(.83962 0 0 1 293 18)" width="106" height="33" style="fill-rule:evenodd;fill:#f44d27"/>
     <text id="master-4" transform="translate(284.6,18.316)" font-size="12px" font-weight="700" style="fill-rule:evenodd;fill:#979797;font-family:'Source Code Pro';font-size:12px;font-weight:700;text-anchor:middle"><tspan id="tspan15969" x="53" y="20" style="fill:#f0f0f0">master</tspan></text>
    </g>
   </g>
   <g id="g15343" transform="translate(-67.5 8.0463)">
    <path id="Line-3-1" transform="translate(1,-1.1)" d="m338 197v20.577h-1v-20.577h-4l4.5-9 4.5 9z" style="fill:#8f8981"/>
    <g id="g15336">
     <rect id="rect15997" transform="matrix(.83962 0 0 1 294 215)" width="106" height="33" style="fill-rule:evenodd;fill:#f44d27"/>
     <text id="text16001" transform="translate(285.46,215.96)" font-size="12px" font-weight="700" style="fill-rule:evenodd;fill:#979797;font-family:'Source Code Pro';font-size:12px;font-weight:700;text-anchor:middle"><tspan id="tspan15999" x="53" y="20" style="fill:#f0f0f0">i18-world</tspan></text>
    </g>
   </g>
  </g>
 </g>
</svg>
