<?xml version="1.0" encoding="UTF-8"?>
<svg id="svg16842" version="1.1" viewBox="0 0 589 329" xmlns="http://www.w3.org/2000/svg" xmlns:cc="http://creativecommons.org/ns#" xmlns:dc="http://purl.org/dc/elements/1.1/" xmlns:rdf="http://www.w3.org/1999/02/22-rdf-syntax-ns#" xmlns:xlink="http://www.w3.org/1999/xlink">
 <metadata id="metadata16846">
  <rdf:RDF>
   <cc:Work rdf:about="">
    <dc:format>image/svg+xml</dc:format>
    <dc:type rdf:resource="http://purl.org/dc/dcmitype/StillImage"/>
    <dc:title>images/rerere3</dc:title>
   </cc:Work>
  </rdf:RDF>
 </metadata>
 <!-- Generator: Sketch 56.3 (81716) - https://sketch.com -->
 <title id="title16761">images/rerere3</title>
 <desc id="desc16763">Created with Sketch.</desc>
 <defs id="defs16769">
  <marker id="TriangleOutL" style="overflow:visible" orient="auto">
   <path id="path17724" transform="scale(.8)" d="m5.77 0-8.65 5v-10l8.65 5z" style="fill-rule:evenodd;fill:#4a90e2;stroke-width:1pt;stroke:#4a90e2"/>
  </marker>
 </defs>
 <g id="rerere3" fill="none" fill-rule="evenodd">
  <path id="Line-7" d="m272 77v-29h1v29h4l-4.5 9-4.5-9h4z" fill="#8F8981" fill-rule="nonzero"/>
  <path id="Line" d="m178 109h42v1h-42v4l-9-4.5 9-4.5v4z" fill="#8F8981" fill-rule="nonzero"/>
  <path id="Line-4" transform="translate(1)" d="m331 110h42v1h-42v4l-9-4.5 9-4.5z" style="fill-rule:nonzero;fill:#8f8981"/>
  <path id="Line-3" d="m426 77v-30h1v30h4l-4.5 9-4.5-9h4z" fill="#8F8981" fill-rule="nonzero"/>
  <path id="Line-2" d="m25 109h50v1h-50v4l-9-4.5 9-4.5v4z" fill="#8F8981" fill-rule="nonzero"/>
  <g id="ref" transform="translate(228 18)">
   <rect id="Rectangle-2" width="106" height="33" fill="#F44D27" fill-rule="evenodd"/>
   <text id="master" fill="#979797" font-family="Source Code Pro" font-size="12px" font-weight="700" text-anchor="middle"><tspan id="tspan16777" x="53" y="20" fill="#f0f0f0">master</tspan></text>
  </g>
  <g id="content" transform="translate(67 86)">
   <rect id="rect16781" width="102" height="47" fill="#EFEFE7" fill-rule="evenodd"/>
   <text id="text16785" fill="#979797" font-family="Source Code Pro" font-size="12px" font-weight="700" text-anchor="middle"><tspan id="tspan16783" x="51" y="28" fill="#808080">hello world</tspan></text>
  </g>
  <g id="g16794" transform="translate(221 86)">
   <rect id="rect16788" width="102" height="47" fill="#EFEFE7" fill-rule="evenodd"/>
   <text id="text16792" fill="#979797" font-family="Source Code Pro" font-size="12px" font-weight="700" text-anchor="middle"><tspan id="tspan16790" x="51" y="28" fill="#808080">hola world</tspan></text>
  </g>
  <g id="g16802" transform="translate(373 86)">
   <rect id="rect16796" width="102" height="47" fill="#EFEFE7" fill-rule="evenodd"/>
   <text id="text16800" fill="#979797" font-family="Source Code Pro" font-size="12px" font-weight="700" text-anchor="middle"><tspan id="tspan16798" x="51" y="28" fill="#808080">hola mundo</tspan></text>
  </g>
  <path id="path17580" transform="translate(-4.8765 -1.9064)" d="m325.18 173.33c23.206-3.0421 27.716-27.21 48.486-45.373" style="fill:none;marker-end:url(#TriangleOutL);stroke-width:1px;stroke:#4a90e2"/>
  <g id="g16810" transform="translate(220 148)">
   <rect id="rect16804" width="102" height="47" fill="#EFEFE7" fill-rule="evenodd" style="fill:#efefe8;opacity:.8"/>
   <text id="text16808" transform="translate(-.15234 -.366)" font-size="12px" font-weight="700" style="fill:#ababab;font-family:'Source Code Pro';font-size:12px;font-weight:700;text-anchor:middle"><tspan id="tspan16806" x="51" y="28" style="fill:#ababab">hello mundo</tspan></text>
  </g>
  <path id="Line-8" d="m175.98 126.03 44.229 42.46-.69253.72139-44.229-42.46-2.7701 2.8855-3.3761-9.479 9.6089 2.9865-2.7701 2.8855z" fill="#E7E7E7" fill-rule="nonzero"/>
  <g id="g16819" transform="translate(383 16)">
   <rect id="rect16813" width="106" height="33" fill="#F44D27" fill-rule="evenodd"/>
   <text id="text16817" fill="#979797" font-family="Source Code Pro" font-size="12px" font-weight="700" text-anchor="middle"><tspan id="tspan16815" x="53" y="20" fill="#f0f0f0">i18-world</tspan></text>
  </g>
  <rect id="Rectangle-7" x="388.5" y="205.5" width="191" height="111" rx="1" fill="#D8D8D8" stroke="#979797"/>
  <text id="rerere-cache" transform="translate(344.24 1.4837)" font-size="12px" font-weight="700" style="fill:black;font-family:'Source Code Pro';font-size:12px;font-weight:700;text-anchor:middle"><tspan id="tspan16822" x="95.5" y="228" style="fill:black">rerere cache</tspan></text>
  <rect id="Rectangle-8" x="394.5" y="243.5" width="178" height="64" rx="1" fill="#E7E7E7" stroke="#979797"/>
  <text id="rebase" transform="translate(271.15 5.2942)" font-size="12px" font-weight="700" style="fill:#4a90e2;font-family:'Source Code Pro';font-size:12px;font-weight:700;text-anchor:middle"><tspan id="tspan16838" x="95.5" y="164" style="fill:#4a90e2">rebase</tspan></text>
 </g>
 <text id="text16296" transform="translate(12.195 -87.793)" x="388.82846" y="352.83362" style="fill:#f44d27;font-family:'Source Code Pro';font-feature-settings:normal;font-size:12px;font-variant-caps:normal;font-variant-ligatures:normal;font-variant-numeric:normal;font-weight:bold;letter-spacing:0px;line-height:9.5px;word-spacing:0px" xml:space="preserve"><tspan id="tspan16294" x="388.82846" y="352.83362" style="fill:#f44d27;line-height:13.33333302px"><tspan id="tspan16302" style="fill:#cc003d">-  puts ‘hola world’</tspan> </tspan><tspan id="tspan16298" x="388.82846" y="366.16696" style="fill:#f44d27;line-height:13.33333302px">-  puts ‘hello mundo’ </tspan><tspan id="tspan16300" x="388.82846" y="379.50027" style="fill:green;line-height:13.33333302px">++ puts ‘hola mundo’</tspan></text>
</svg>
