<?xml version="1.0" encoding="UTF-8"?>
<svg id="svg16006" version="1.1" viewBox="0 0 521 266" xmlns="http://www.w3.org/2000/svg" xmlns:cc="http://creativecommons.org/ns#" xmlns:dc="http://purl.org/dc/elements/1.1/" xmlns:rdf="http://www.w3.org/1999/02/22-rdf-syntax-ns#" xmlns:xlink="http://www.w3.org/1999/xlink">
 <metadata id="metadata16010">
  <rdf:RDF>
   <cc:Work rdf:about="">
    <dc:format>image/svg+xml</dc:format>
    <dc:type rdf:resource="http://purl.org/dc/dcmitype/StillImage"/>
    <dc:title>images/rerere1</dc:title>
   </cc:Work>
  </rdf:RDF>
 </metadata>
 <!-- Generator: Sketch 56.3 (81716) - https://sketch.com -->
 <title id="title15954">images/rerere1</title>
 <desc id="desc15956">Created with Sketch.</desc>
 <g id="rerere1" fill="none" fill-rule="evenodd">
  <path id="Line-7" d="m337 70v-29h1v29h4l-4.5 9-4.5-9h4z" fill="#8F8981" fill-rule="nonzero"/>
  <path id="Line" d="m244 101h42v1h-42v4l-9-4.5 9-4.5v4z" fill="#8F8981" fill-rule="nonzero"/>
  <path id="Line-3" d="m338 197v17h-1v-17h-4l4.5-9 4.5 9h-4z" fill="#8F8981" fill-rule="nonzero"/>
  <path id="Line-2" d="m91 101h50v1h-50v4l-9-4.5 9-4.5v4z" fill="#8F8981" fill-rule="nonzero"/>
  <g id="ref" transform="translate(294 18)">
   <rect id="Rectangle-2" width="106" height="33" fill="#F44D27" fill-rule="evenodd"/>
   <text id="master" fill="#979797" font-family="Source Code Pro" font-size="12px" font-weight="700" text-anchor="middle"><tspan id="tspan15969" x="53" y="20" fill="#f0f0f0">master</tspan></text>
  </g>
  <g id="content" transform="translate(133 78)">
   <rect id="rect15973" width="102" height="47" fill="#EFEFE7" fill-rule="evenodd"/>
   <text id="text15977" fill="#979797" font-family="Source Code Pro" font-size="12px" font-weight="700" text-anchor="middle"><tspan id="tspan15975" x="51" y="28" fill="#808080">hello world</tspan></text>
  </g>
  <g id="g15986" transform="translate(287 78)">
   <rect id="rect15980" width="102" height="47" fill="#EFEFE7" fill-rule="evenodd"/>
   <text id="text15984" fill="#979797" font-family="Source Code Pro" font-size="12px" font-weight="700" text-anchor="middle"><tspan id="tspan15982" x="51" y="28" fill="#808080"><tspan id="tspan16012" style="fill:#3d6fb2">hola</tspan> world</tspan></text>
  </g>
  <g id="g15994" transform="translate(286 140)">
   <rect id="rect15988" width="102" height="47" fill="#EFEFE7" fill-rule="evenodd"/>
   <text id="text15992" fill="#979797" font-family="Source Code Pro" font-size="12px" font-weight="700" text-anchor="middle"><tspan id="tspan15990" x="51" y="28" fill="#808080">hello <tspan id="tspan16046" style="fill:#3d6eb2">mundo</tspan></tspan></text>
  </g>
  <path id="Line-8" d="m241.98 118.03 44.229 42.46-.69253.72139-44.229-42.46-2.7701 2.8855-3.3761-9.479 9.6089 2.9865-2.7701 2.8855z" fill="#8F8981" fill-rule="nonzero"/>
  <g id="g16003" transform="translate(294 215)">
   <rect id="rect15997" width="106" height="33" fill="#F44D27" fill-rule="evenodd"/>
   <text id="text16001" fill="#979797" font-family="Source Code Pro" font-size="12px" font-weight="700" text-anchor="middle"><tspan id="tspan15999" x="53" y="20" fill="#f0f0f0">i18-world</tspan></text>
  </g>
 </g>
</svg>
