<?xml version="1.0" encoding="UTF-8"?>
<svg id="svg16210" version="1.1" viewBox="0 0 589 329" xmlns="http://www.w3.org/2000/svg" xmlns:cc="http://creativecommons.org/ns#" xmlns:dc="http://purl.org/dc/elements/1.1/" xmlns:rdf="http://www.w3.org/1999/02/22-rdf-syntax-ns#" xmlns:xlink="http://www.w3.org/1999/xlink">
 <metadata id="metadata16214">
  <rdf:RDF>
   <cc:Work rdf:about="">
    <dc:format>image/svg+xml</dc:format>
    <dc:type rdf:resource="http://purl.org/dc/dcmitype/StillImage"/>
    <dc:title>images/rerere2</dc:title>
   </cc:Work>
  </rdf:RDF>
 </metadata>
 <!-- Generator: Sketch 56.3 (81716) - https://sketch.com -->
 <title id="title16136">images/rerere2</title>
 <desc id="desc16138">Created with Sketch.</desc>
 <g id="rerere2" fill="none" fill-rule="evenodd">
  <path id="Line-7" d="m425 77v-29h1v29h4l-4.5 9-4.5-9h4z" fill="#8F8981" fill-rule="nonzero"/>
  <path id="Line" d="m178 109h42v1h-42v4l-9-4.5 9-4.5v4z" fill="#8F8981" fill-rule="nonzero"/>
  <path id="Line-4" d="m331.94 110h41.056v1h-41.056v4l-9-4.5 9-4.5z" style="fill-rule:nonzero;fill:#8f8981"/>
  <path id="Line-5" d="m327.7 163.42 45.772-44.63.73876.67396-45.772 44.63 2.9551 2.6958-9.3901 3.6161 2.7412-9.6817z" style="fill-rule:nonzero;fill:#8f8981"/>
  <path id="Line-3" d="m272 205v17h-1v-17h-4l4.5-9 4.5 9h-4z" fill="#8F8981" fill-rule="nonzero"/>
  <path id="Line-2" d="m25 109h50v1h-50v4l-9-4.5 9-4.5v4z" fill="#8F8981" fill-rule="nonzero"/>
  <g id="ref" transform="translate(381 16)">
   <rect id="Rectangle-2" width="106" height="33" fill="#F44D27" fill-rule="evenodd"/>
   <text id="master" fill="#979797" font-family="Source Code Pro" font-size="12px" font-weight="700" text-anchor="middle"><tspan id="tspan16153" x="53" y="20" fill="#f0f0f0">master</tspan></text>
  </g>
  <g id="content" transform="translate(67 86)">
   <rect id="rect16157" width="102" height="47" fill="#EFEFE7" fill-rule="evenodd"/>
   <text id="text16161" fill="#979797" font-family="Source Code Pro" font-size="12px" font-weight="700" text-anchor="middle"><tspan id="tspan16159" x="51" y="28" fill="#808080">hello world</tspan></text>
  </g>
  <g id="g16170" transform="translate(221 86)">
   <rect id="rect16164" width="102" height="47" fill="#EFEFE7" fill-rule="evenodd"/>
   <text id="text16168" fill="#979797" font-family="Source Code Pro" font-size="12px" font-weight="700" text-anchor="middle"><tspan id="tspan16166" x="51" y="28" fill="#808080">hola world</tspan></text>
  </g>
  <g id="g16178" transform="translate(373 86)">
   <rect id="rect16172" width="102" height="47" fill="#EFEFE7" fill-rule="evenodd"/>
   <text id="text16176" fill="#979797" font-family="Source Code Pro" font-size="12px" font-weight="700" text-anchor="middle"><tspan id="tspan16174" x="51" y="28" fill="#808080">hola mundo</tspan></text>
  </g>
  <g id="g16186" transform="translate(220 148)">
   <rect id="rect16180" width="102" height="47" fill="#EFEFE7" fill-rule="evenodd"/>
   <text id="text16184" fill="#979797" font-family="Source Code Pro" font-size="12px" font-weight="700" text-anchor="middle"><tspan id="tspan16182" x="51" y="28" fill="#808080">hello mundo</tspan></text>
  </g>
  <path id="Line-8" d="m175.98 126.03 44.229 42.46-.69253.72139-44.229-42.46-2.7701 2.8855-3.3761-9.479 9.6089 2.9865-2.7701 2.8855z" fill="#8F8981" fill-rule="nonzero"/>
  <g id="g16195" transform="translate(228 223)">
   <rect id="rect16189" width="106" height="33" fill="#F44D27" fill-rule="evenodd"/>
   <text id="text16193" fill="#979797" font-family="Source Code Pro" font-size="12px" font-weight="700" text-anchor="middle"><tspan id="tspan16191" x="53" y="20" fill="#f0f0f0">i18-world</tspan></text>
  </g>
  <g id="g16350">
   <g id="g16337">
    <rect id="Rectangle-7" x="384.5" y="180.5" width="191" height="111" rx="1" fill="#D8D8D8" stroke="#979797"/>
    <text id="rerere-cache" transform="translate(296.51 .44153)" font-size="12px" font-weight="700" style="fill:#404040;font-family:'Source Code Pro';font-feature-settings:normal;font-size:12px;font-variant-caps:normal;font-variant-ligatures:normal;font-variant-numeric:normal;font-weight:bold"><tspan id="tspan16198" x="95.5" y="203" style="fill:#404040;font-family:'Source Code Pro';font-feature-settings:normal;font-size:12px;font-variant-caps:normal;font-variant-ligatures:normal;font-variant-numeric:normal;font-weight:bold">rerere cache</tspan></text>
   </g>
   <g id="g16332">
    <rect id="Rectangle-8" x="390.5" y="218.5" width="178" height="64" rx="1" fill="#E7E7E7" stroke="#979797"/>
    <text id="text16296" transform="translate(8.512 -110.66)" x="388.82846" y="352.83362" style="fill:#f44d27;font-family:'Source Code Pro';font-feature-settings:normal;font-size:12px;font-variant-caps:normal;font-variant-ligatures:normal;font-variant-numeric:normal;font-weight:bold;letter-spacing:0px;line-height:9.5px;word-spacing:0px" xml:space="preserve"><tspan id="tspan16294" x="388.82846" y="352.83362" style="fill:#f44d27;line-height:13.33333302px"><tspan id="tspan16302" style="fill:#cc003d">-  puts ‘hola world’</tspan> </tspan><tspan id="tspan16298" x="388.82846" y="366.16696" style="fill:#f44d27;line-height:13.33333302px">-  puts ‘hello mundo’ </tspan><tspan id="tspan16300" x="388.82846" y="379.50027" style="fill:green;line-height:13.33333302px">++ puts ‘hola mundo’</tspan></text>
   </g>
  </g>
 </g>
</svg>
