<?xml version="1.0" encoding="UTF-8"?>
<svg id="svg18993" version="1.1" viewBox="0 0 454 210" xmlns="http://www.w3.org/2000/svg" xmlns:cc="http://creativecommons.org/ns#" xmlns:dc="http://purl.org/dc/elements/1.1/" xmlns:rdf="http://www.w3.org/1999/02/22-rdf-syntax-ns#">
 <metadata id="metadata18999">
  <rdf:RDF>
   <cc:Work rdf:about="">
    <dc:format>image/svg+xml</dc:format>
    <dc:type rdf:resource="http://purl.org/dc/dcmitype/StillImage"/>
    <dc:title>images/small-team-2</dc:title>
   </cc:Work>
  </rdf:RDF>
 </metadata>
 <!-- Generator: Sketch 56.3 (81716) - https://sketch.com -->
 <title id="title18927">images/small-team-2</title>
 <desc id="desc18929">Created with Sketch.</desc>
 <g id="g19136" transform="translate(-1,-2)">
  <g id="brown" transform="translate(5,67)" style="fill-rule:evenodd;fill:none">
   <rect id="Rectangle-1" width="89" height="33" rx="16.5" ry="16.5" style="fill-rule:evenodd;fill:#efefe7"/>
   <text id="C6" font-size="12px" font-weight="700" style="fill:#979797;font-family:'Source Code Pro';font-size:12px;font-weight:700;text-anchor:middle"><tspan id="tspan18932" x="44.5" y="21" style="fill:gray">4b078</tspan></text>
  </g>
  <g id="Line-+-brown-2" transform="translate(94,67)" style="fill-rule:evenodd;fill:none">
   <path id="Line" d="m9 16h45v1h-45v4l-9-4.5 9-4.5z" style="fill-rule:nonzero;fill:#8f8981"/>
   <g id="g18943" transform="translate(30)">
    <rect id="rect18937" width="89" height="33" rx="16.5" ry="16.5" style="fill-rule:evenodd;fill:#efefe7"/>
    <text id="text18941" font-size="12px" font-weight="700" style="fill:#979797;font-family:'Source Code Pro';font-size:12px;font-weight:700;text-anchor:middle"><tspan id="tspan18939" x="44.5" y="21" style="fill:gray">1edee</tspan></text>
   </g>
  </g>
  <g id="Line-+-brown-3" transform="translate(213,67)" style="fill-rule:evenodd;fill:none">
   <path id="path18946" d="m9 16h45v1h-45v4l-9-4.5 9-4.5z" style="fill-rule:nonzero;fill:#8f8981"/>
   <g id="john" transform="translate(30)">
    <rect id="rect18948" width="89" height="33" rx="16.5" ry="16.5" style="fill-rule:evenodd;fill:#fcc161"/>
    <text id="C3'" font-size="12px" font-weight="700" style="fill:#979797;font-family:'Source Code Pro';font-size:12px;font-weight:700;text-anchor:middle"><tspan id="tspan18950" x="44.5" y="21" style="fill:gray">738ee</tspan></text>
   </g>
  </g>
  <g id="g19093">
   <path id="path18955" d="m341 83h45v1h-45v4l-9-4.5 9-4.5z" style="fill:#8f8981"/>
   <path id="Line-4" d="m337.08 118.1 48.53-35.295.58817.80874-48.53 35.295 2.3527 3.2349-9.9254 1.6542 4.6318-8.9329z" style="fill:#8f8981"/>
   <g id="g18964" transform="translate(362,67)" style="fill-rule:evenodd;fill:none">
    <rect id="rect18958" width="89" height="33" rx="16.5" ry="16.5" style="fill-rule:evenodd;fill:#fcc161"/>
    <text id="text18962" font-size="12px" font-weight="700" style="fill:#979797;font-family:'Source Code Pro';font-size:12px;font-weight:700;text-anchor:middle"><tspan id="tspan18960" x="44.5" y="21" style="fill:gray">72bbc</tspan></text>
   </g>
  </g>
  <g id="g19065">
   <path id="Line-3" d="m215.93 98.65 51.256 32.697-.53782.84306-51.256-32.697-2.1513 3.3722-5.1674-8.6341 10.008 1.0466z" style="fill:#8f8981"/>
   <g id="jessica" transform="translate(243,115)" style="fill-rule:evenodd;fill:none">
    <rect id="rect18967" width="89" height="33" rx="16.5" ry="16.5" style="fill-rule:evenodd;fill:#b8e986"/>
    <text id="text18971" font-size="12px" font-weight="700" style="fill:#979797;font-family:'Source Code Pro';font-size:12px;font-weight:700;text-anchor:middle"><tspan id="tspan18969" x="44.5" y="21" style="fill:gray">fbff5</tspan></text>
   </g>
  </g>
  <g id="g19058" transform="translate(.52766)">
   <path id="Line-2" transform="translate(229.47 148)" d="m58 9v23h-1v-23h-4l4.5-9 4.5 9z" style="fill:#8f8981"/>
   <g id="g19051">
    <rect id="Rectangle-2" transform="matrix(.86207 0 0 1 236.97 170)" width="116" height="38" style="fill-rule:evenodd;fill:#f44d27"/>
    <text id="master" transform="translate(229,170)" font-size="12px" font-weight="700" style="fill-rule:evenodd;fill:#979797;font-family:'Source Code Pro';font-size:12px;font-weight:700;text-anchor:middle"><tspan id="tspan18976" x="58" y="21.515152" style="fill:#f0f0f0">origin/master</tspan></text>
   </g>
  </g>
  <g id="g19085" transform="translate(1)">
   <path id="path18981" transform="translate(348,6)" d="m57 52v-43h1v43h4l-4.5 9-4.5-9z" style="fill:#8f8981"/>
   <g id="g19078" transform="translate(-.40034)">
    <rect id="rect18983" transform="matrix(.76724 0 0 1 361.4 6)" width="116" height="38" style="fill-rule:evenodd;fill:#f44d27"/>
    <text id="text18987" transform="translate(348 7.3008)" font-size="12px" font-weight="700" style="fill-rule:evenodd;fill:#979797;font-family:'Source Code Pro';font-size:12px;font-weight:700;text-anchor:middle"><tspan id="tspan18985" x="58" y="21.515152" style="fill:#f0f0f0">master</tspan></text>
   </g>
  </g>
 </g>
</svg>
