<?xml version="1.0" encoding="UTF-8"?>
<svg id="svg20941" version="1.1" viewBox="0 0 812 205" xmlns="http://www.w3.org/2000/svg" xmlns:cc="http://creativecommons.org/ns#" xmlns:dc="http://purl.org/dc/elements/1.1/" xmlns:rdf="http://www.w3.org/1999/02/22-rdf-syntax-ns#">
 <metadata id="metadata20947">
  <rdf:RDF>
   <cc:Work rdf:about="">
    <dc:format>image/svg+xml</dc:format>
    <dc:type rdf:resource="http://purl.org/dc/dcmitype/StillImage"/>
    <dc:title>images/small-team-6</dc:title>
   </cc:Work>
  </rdf:RDF>
 </metadata>
 <!-- Generator: Sketch 56.3 (81716) - https://sketch.com -->
 <title id="title20822">images/small-team-6</title>
 <desc id="desc20824">Created with Sketch.</desc>
 <g id="g21690">
  <g id="brown" transform="translate(4,60)" style="fill-rule:evenodd;fill:none">
   <rect id="Rectangle-1" width="89" height="33" rx="16.5" ry="16.5" style="fill-rule:evenodd;fill:#efefe7"/>
   <text id="C6" font-size="12px" font-weight="700" style="fill:#979797;font-family:'Source Code Pro';font-size:12px;font-weight:700;text-anchor:middle"><tspan id="tspan20827" x="44.5" y="21" style="fill:gray">4b078</tspan></text>
  </g>
  <g id="Line-+-brown-2" transform="translate(93,60)" style="fill-rule:evenodd;fill:none">
   <path id="Line" d="m9 16h45v1h-45v4l-9-4.5 9-4.5z" style="fill-rule:nonzero;fill:#8f8981"/>
   <g id="g20838" transform="translate(30)">
    <rect id="rect20832" width="89" height="33" rx="16.5" ry="16.5" style="fill-rule:evenodd;fill:#efefe7"/>
    <text id="text20836" font-size="12px" font-weight="700" style="fill:#979797;font-family:'Source Code Pro';font-size:12px;font-weight:700;text-anchor:middle"><tspan id="tspan20834" x="44.5" y="21" style="fill:gray">1edee</tspan></text>
   </g>
  </g>
  <g id="Line-+-brown-3" transform="translate(211.99 59.986)" style="fill-rule:evenodd;fill:none">
   <path id="path20841" d="m9 16h45v1h-45v4l-9-4.5 9-4.5z" style="fill-rule:nonzero;fill:#8f8981"/>
   <g id="jessica" transform="translate(30)">
    <rect id="rect20843" width="89" height="33" rx="16.5" ry="16.5" style="fill-rule:evenodd;fill:#b8e986"/>
    <text id="C3'" font-size="12px" font-weight="700" style="fill:#979797;font-family:'Source Code Pro';font-size:12px;font-weight:700;text-anchor:middle"><tspan id="tspan20845" x="44.5" y="21" style="fill:gray">fbff5</tspan></text>
   </g>
  </g>
  <g id="g21090" transform="translate(-2,-6)">
   <path id="path20850" transform="translate(208.5,94.4)" d="m7.8327 4.8281 51.361 34.536-.558.82984-51.361-34.536-2.232 3.3194-4.9576-8.7563 9.9796 1.2877z" style="fill:#8f8981"/>
   <g id="john" transform="translate(244,118)" style="fill-rule:evenodd;fill:none">
    <rect id="rect20852" width="89" height="33" rx="16.5" ry="16.5" style="fill-rule:evenodd;fill:#fcc161"/>
    <text id="text20856" font-size="12px" font-weight="700" style="fill:#979797;font-family:'Source Code Pro';font-size:12px;font-weight:700;text-anchor:middle"><tspan id="tspan20854" x="44.5" y="21" style="fill:gray">738ee</tspan></text>
   </g>
  </g>
  <path id="Line-4" transform="translate(-2.4,-6.8)" d="m335.83 99.828 51.361 34.536-.558.82984-51.361-34.536-2.232 3.3194-4.9576-8.7563 9.9796 1.2877z" style="fill:#8f8981"/>
  <g id="g21304">
   <path id="Line-5" transform="translate(-2,-6)" d="m342 134h45v1h-45v4l-9-4.5 9-4.5z" style="fill:#8f8981"/>
   <g id="g20868" transform="translate(361,112)" style="fill-rule:evenodd;fill:none">
    <rect id="rect20862" width="89" height="33" rx="16.5" ry="16.5" style="fill-rule:evenodd;fill:#fcc161"/>
    <text id="text20866" font-size="12px" font-weight="700" style="fill:#979797;font-family:'Source Code Pro';font-size:12px;font-weight:700;text-anchor:middle"><tspan id="tspan20864" x="44.5" y="21" style="fill:gray">72bbc</tspan></text>
   </g>
  </g>
  <g id="g21105" transform="translate(-2,-6)">
   <path id="Line-7" transform="translate(-.8 -1.2)" d="m693.83 99.828 51.361 34.536-.558.82984-51.361-34.536-2.232 3.3194-4.9576-8.7563 9.9796 1.2877z" style="fill:#8f8981"/>
   <path id="Line-6" d="m461 134h284v1h-284v4l-9-4.5 9-4.5z" style="fill:#8f8981"/>
   <g id="g20878" transform="translate(721,118)" style="fill-rule:evenodd;fill:none">
    <rect id="rect20872" width="89" height="33" rx="16.5" ry="16.5" style="fill-rule:evenodd;fill:#b8e986"/>
    <text id="text20876" font-size="12px" font-weight="700" style="fill:#979797;font-family:'Source Code Pro';font-size:12px;font-weight:700;text-anchor:middle"><tspan id="tspan20874" x="44.5" y="21" style="fill:gray">8059c</tspan></text>
   </g>
  </g>
  <g id="g21097" transform="translate(-2,-6)">
   <path id="path20880" transform="translate(333,66)" d="m9 16h45v1h-45v4l-9-4.5 9-4.5z" style="fill:#8f8981"/>
   <g id="g20888" transform="translate(363,66)" style="fill-rule:evenodd;fill:none">
    <rect id="rect20882" width="89" height="33" rx="16.5" ry="16.5" style="fill-rule:evenodd;fill:#b8e986"/>
    <text id="text20886" font-size="12px" font-weight="700" style="fill:#979797;font-family:'Source Code Pro';font-size:12px;font-weight:700;text-anchor:middle"><tspan id="tspan20884" x="44.5" y="21" style="fill:gray">8149a</tspan></text>
   </g>
  </g>
  <g id="Line-+-brown-5" transform="translate(450,60)" style="fill-rule:evenodd;fill:none">
   <path id="path20891" d="m9 16h45v1h-45v4l-9-4.5 9-4.5z" style="fill-rule:nonzero;fill:#8f8981"/>
   <g id="g20899" transform="translate(30)">
    <rect id="rect20893" width="89" height="33" rx="16.5" ry="16.5" style="fill-rule:evenodd;fill:#b8e986"/>
    <text id="text20897" font-size="12px" font-weight="700" style="fill:#979797;font-family:'Source Code Pro';font-size:12px;font-weight:700;text-anchor:middle"><tspan id="tspan20895" x="44.5" y="21" style="fill:gray">23ac6</tspan></text>
   </g>
  </g>
  <g id="g21119" transform="translate(-2,-6)">
   <path id="Line-3" d="m580 82h45v1h-45v4l-9-4.5 9-4.5z" style="fill:#8f8981"/>
   <g id="g20909" transform="translate(601,66)" style="fill-rule:evenodd;fill:none">
    <rect id="rect20903" width="89" height="33" rx="16.5" ry="16.5" style="fill-rule:evenodd;fill:#b8e986"/>
    <text id="text20907" font-size="12px" font-weight="700" style="fill:#979797;font-family:'Source Code Pro';font-size:12px;font-weight:700;text-anchor:middle"><tspan id="tspan20905" x="44.5" y="21" style="fill:gray">4af42</tspan></text>
   </g>
  </g>
  <g id="g21470">
   <path id="Line-2" transform="translate(348,145)" d="m58 9v23h-1v-23h-4l4.5-9 4.5 9z" style="fill:#8f8981"/>
   <g id="g21463">
    <rect id="Rectangle-2" transform="matrix(.86207 0 0 .86842 355.5 168)" width="116" height="38" style="fill-rule:evenodd;fill:#f44d27"/>
    <text id="master" transform="translate(347.53 166.25)" font-size="12px" font-weight="700" style="fill-rule:evenodd;fill:#979797;font-family:'Source Code Pro';font-size:12px;font-weight:700;text-anchor:middle"><tspan id="tspan20913" x="58" y="21.515152" style="fill:#f0f0f0">origin/master</tspan></text>
   </g>
  </g>
  <g id="g21070" transform="translate(-2,-6)">
   <path id="path20918" transform="translate(708,5.8)" d="m57 103v-95h1v95h4l-4.5 9-4.5-9z" style="fill:#8f8981"/>
   <g id="g21063" transform="translate(-.40034)">
    <rect id="rect20920" transform="matrix(.76724 0 0 .86842 721.4 10)" width="116" height="38" style="fill-rule:evenodd;fill:#f44d27"/>
    <text id="text20924" transform="translate(708 8.8008)" font-size="12px" font-weight="700" style="fill-rule:evenodd;fill:#979797;font-family:'Source Code Pro';font-size:12px;font-weight:700;text-anchor:middle"><tspan id="tspan20922" x="58" y="21.515152" style="fill:#f0f0f0">master</tspan></text>
   </g>
  </g>
  <g id="g21112" transform="translate(-2,-6)">
   <path id="path20929" transform="translate(588,5)" d="m57 52v-43h1v43h4l-4.5 9-4.5-9z" style="fill:#8f8981"/>
   <g id="g21050" transform="translate(-.72434)">
    <rect id="rect20931" transform="matrix(.76724 0 0 .86842 601.72 10)" width="116" height="38" style="fill-rule:evenodd;fill:#f44d27"/>
    <text id="text20935" transform="translate(588 9.4428)" font-size="12px" font-weight="700" style="fill-rule:evenodd;fill:#979797;font-family:'Source Code Pro';font-size:12px;font-weight:700;text-anchor:middle"><tspan id="tspan20933" x="58" y="21.515152" style="fill:#f0f0f0">issue54</tspan></text>
   </g>
  </g>
 </g>
</svg>
