<?xml version="1.0" encoding="UTF-8"?>
<svg width="833px" height="224px" viewBox="0 0 833 224" version="1.1" xmlns="http://www.w3.org/2000/svg" xmlns:xlink="http://www.w3.org/1999/xlink">
    <!-- Generator: Sketch 56.3 (81716) - https://sketch.com -->
    <title>images/small-team-6</title>
    <desc>Created with Sketch.</desc>
    <g id="05---Small-Team-6" stroke="none" stroke-width="1" fill="none" fill-rule="evenodd">
        <g id="brown" transform="translate(6.000000, 67.000000)">
            <rect id="Rectangle-1" fill="#EFEFE7" fill-rule="evenodd" x="0" y="0" width="89" height="33" rx="16.5"></rect>
            <text id="C6" stroke="#979797" stroke-width="1" font-family="RobotoMono-Regular, Roboto Mono" font-size="12" font-weight="normal" fill="#000000">
                <tspan x="27.4970703" y="21">4b078</tspan>
            </text>
        </g>
        <g id="Line-+-brown-2" transform="translate(95.000000, 67.000000)">
            <path id="Line" d="M9,16 L54,16 L54,17 L9,17 L9,21 L0,16.5 L9,12 L9,16 Z" fill="#8F8981" fill-rule="nonzero"></path>
            <g id="brown" transform="translate(30.000000, 0.000000)">
                <rect id="Rectangle-1" fill="#EFEFE7" fill-rule="evenodd" x="0" y="0" width="89" height="33" rx="16.5"></rect>
                <text id="C6" stroke="#979797" stroke-width="1" font-family="RobotoMono-Regular, Roboto Mono" font-size="12" font-weight="normal" fill="#000000">
                    <tspan x="27.4970703" y="21">1edee</tspan>
                </text>
            </g>
        </g>
        <g id="Line-+-brown-3" transform="translate(214.000000, 67.000000)">
            <path id="Line" d="M9,16 L54,16 L54,17 L9,17 L9,21 L0,16.5 L9,12 L9,16 Z" fill="#8F8981" fill-rule="nonzero"></path>
            <g id="jessica" transform="translate(30.000000, 0.000000)">
                <rect id="Rectangle-1" fill="#B8E986" fill-rule="evenodd" x="0" y="0" width="89" height="33" rx="16.5"></rect>
                <text id="C3'" stroke="#979797" stroke-width="1" font-family="RobotoMono-Regular, Roboto Mono" font-size="12" font-weight="normal" fill="#000000">
                    <tspan x="27.4882813" y="21">fbff5</tspan>
                </text>
            </g>
        </g>
        <g id="Line-+-brown-6" transform="translate(209.000000, 95.000000)">
            <path id="Line" d="M7.83266063,4.82805823 L59.1939201,39.3640775 L58.6359225,40.1939201 L7.27466304,5.6579008 L5.04267269,8.97727107 L0.0850787153,0.221001205 L10.064651,1.50868795 L7.83266063,4.82805823 Z" fill="#8F8981" fill-rule="nonzero"></path>
            <g id="john" transform="translate(35.000000, 23.000000)">
                <rect id="Rectangle-1" fill="#FCC161" fill-rule="evenodd" x="0" y="0" width="89" height="33" rx="16.5"></rect>
                <text id="C3'" stroke="#979797" stroke-width="1" font-family="RobotoMono-Regular, Roboto Mono" font-size="12" font-weight="normal" fill="#000000">
                    <tspan x="27.4970703" y="21">738ee</tspan>
                </text>
            </g>
        </g>
        <path id="Line-4" d="M335.832661,99.8280582 L387.19392,134.364078 L386.635922,135.19392 L335.274663,100.657901 L333.042673,103.977271 L328.085079,95.2210012 L338.064651,96.508688 L335.832661,99.8280582 Z" fill="#8F8981" fill-rule="nonzero"></path>
        <path id="Line-5" d="M342,134 L387,134 L387,135 L342,135 L342,139 L333,134.5 L342,130 L342,134 Z" fill="#8F8981" fill-rule="nonzero"></path>
        <g id="john" transform="translate(363.000000, 118.000000)">
            <rect id="Rectangle-1" fill="#FCC161" fill-rule="evenodd" x="0" y="0" width="89" height="33" rx="16.5"></rect>
            <text id="C3'" stroke="#979797" stroke-width="1" font-family="RobotoMono-Regular, Roboto Mono" font-size="12" font-weight="normal" fill="#000000">
                <tspan x="27.4970703" y="21">72bbc</tspan>
            </text>
        </g>
        <path id="Line-7" d="M693.832661,99.8280582 L745.19392,134.364078 L744.635922,135.19392 L693.274663,100.657901 L691.042673,103.977271 L686.085079,95.2210012 L696.064651,96.508688 L693.832661,99.8280582 Z" fill="#8F8981" fill-rule="nonzero"></path>
        <path id="Line-6" d="M461,134 L745,134 L745,135 L461,135 L461,139 L452,134.5 L461,130 L461,134 Z" fill="#8F8981" fill-rule="nonzero"></path>
        <g id="jessica" transform="translate(721.000000, 118.000000)">
            <rect id="Rectangle-1" fill="#B8E986" fill-rule="evenodd" x="0" y="0" width="89" height="33" rx="16.5"></rect>
            <text id="C3'" stroke="#979797" stroke-width="1" font-family="RobotoMono-Regular, Roboto Mono" font-size="12" font-weight="normal" fill="#000000">
                <tspan x="27.4970703" y="21">8059c</tspan>
            </text>
        </g>
        <g id="Line-+-brown-4" transform="translate(333.000000, 66.000000)">
            <path id="Line" d="M9,16 L54,16 L54,17 L9,17 L9,21 L0,16.5 L9,12 L9,16 Z" fill="#8F8981" fill-rule="nonzero"></path>
            <g id="jessica" transform="translate(30.000000, 0.000000)">
                <rect id="Rectangle-1" fill="#B8E986" fill-rule="evenodd" x="0" y="0" width="89" height="33" rx="16.5"></rect>
                <text id="C3'" stroke="#979797" stroke-width="1" font-family="RobotoMono-Regular, Roboto Mono" font-size="12" font-weight="normal" fill="#000000">
                    <tspan x="27.4970703" y="21">8149a</tspan>
                </text>
            </g>
        </g>
        <g id="Line-+-brown-5" transform="translate(452.000000, 66.000000)">
            <path id="Line" d="M9,16 L54,16 L54,17 L9,17 L9,21 L0,16.5 L9,12 L9,16 Z" fill="#8F8981" fill-rule="nonzero"></path>
            <g id="jessica" transform="translate(30.000000, 0.000000)">
                <rect id="Rectangle-1" fill="#B8E986" fill-rule="evenodd" x="0" y="0" width="89" height="33" rx="16.5"></rect>
                <text id="C3'" stroke="#979797" stroke-width="1" font-family="RobotoMono-Regular, Roboto Mono" font-size="12" font-weight="normal" fill="#000000">
                    <tspan x="27.4970703" y="21">23ac6</tspan>
                </text>
            </g>
        </g>
        <path id="Line-3" d="M580,82 L625,82 L625,83 L580,83 L580,87 L571,82.5 L580,78 L580,82 Z" fill="#8F8981" fill-rule="nonzero"></path>
        <g id="jessica" transform="translate(601.000000, 66.000000)">
            <rect id="Rectangle-1" fill="#B8E986" fill-rule="evenodd" x="0" y="0" width="89" height="33" rx="16.5"></rect>
            <text id="C3'" stroke="#979797" stroke-width="1" font-family="RobotoMono-Regular, Roboto Mono" font-size="12" font-weight="normal" fill="#000000">
                <tspan x="27.4941406" y="21">4af42</tspan>
            </text>
        </g>
        <g id="Line-2-+-ref" transform="translate(350.000000, 151.000000)">
            <path id="Line-2" d="M58,9 L58,32 L57,32 L57,9 L53,9 L57.5,0 L62,9 L58,9 Z" fill="#8F8981" fill-rule="nonzero"></path>
            <g id="ref" transform="translate(0.000000, 22.000000)">
                <rect id="Rectangle-2" fill="#F44D27" x="0" y="0" width="116" height="38"></rect>
                <text id="master" stroke="#979797" font-family="RobotoMono-Regular, Roboto Mono" font-size="11.1428571" font-weight="normal" fill="#FFFFFF">
                    <tspan x="14.1985747" y="21.5151515">origin/master</tspan>
                </text>
            </g>
        </g>
        <g id="Line-2-+-ref-2" transform="translate(708.000000, 5.000000)">
            <path id="Line-2" d="M57,103 L57,8 L58,8 L58,103 L62,103 L57.5,112 L53,103 L57,103 Z" fill="#8F8981" fill-rule="nonzero"></path>
            <g id="ref">
                <rect id="Rectangle-2" fill="#F44D27" x="0" y="0" width="116" height="38"></rect>
                <text id="master" stroke="#979797" font-family="RobotoMono-Regular, Roboto Mono" font-size="11.1428571" font-weight="normal" fill="#FFFFFF">
                    <tspan x="37.6023833" y="21.5151515">master</tspan>
                </text>
            </g>
        </g>
        <g id="Line-2-+-ref-3" transform="translate(588.000000, 5.000000)">
            <path id="Line-2" d="M57,52 L57,9 L58,9 L58,52 L62,52 L57.5,61 L53,52 L57,52 Z" fill="#8F8981" fill-rule="nonzero"></path>
            <g id="ref">
                <rect id="Rectangle-2" fill="#F44D27" x="0" y="0" width="116" height="38"></rect>
                <text id="master" stroke="#979797" font-family="RobotoMono-Regular, Roboto Mono" font-size="11.1428571" font-weight="normal" fill="#FFFFFF">
                    <tspan x="34.2589821" y="21.5151515">issue54</tspan>
                </text>
            </g>
        </g>
    </g>
</svg>