<?xml version="1.0" encoding="UTF-8"?>
<svg id="svg21946" version="1.1" viewBox="0 0 817.5 205.25" xmlns="http://www.w3.org/2000/svg" xmlns:cc="http://creativecommons.org/ns#" xmlns:dc="http://purl.org/dc/elements/1.1/" xmlns:rdf="http://www.w3.org/1999/02/22-rdf-syntax-ns#">
 <metadata id="metadata21952">
  <rdf:RDF>
   <cc:Work rdf:about="">
    <dc:format>image/svg+xml</dc:format>
    <dc:type rdf:resource="http://purl.org/dc/dcmitype/StillImage"/>
    <dc:title>images/small-team-7</dc:title>
   </cc:Work>
  </rdf:RDF>
 </metadata>
 <!-- Generator: Sketch 56.3 (81716) - https://sketch.com -->
 <title id="title21827">images/small-team-7</title>
 <desc id="desc21829">Created with Sketch.</desc>
 <g id="g22236" transform="translate(-2,-5.9)">
  <g id="brown" transform="translate(6,66)" style="fill-rule:evenodd;fill:none">
   <rect id="Rectangle-1" width="89" height="33" rx="16.5" ry="16.5" style="fill-rule:evenodd;fill:#efefe7"/>
   <text id="C6" font-size="12px" font-weight="700" style="fill:#979797;font-family:'Source Code Pro';font-size:12px;font-weight:700;text-anchor:middle"><tspan id="tspan21832" x="44.5" y="21" style="fill:gray">4b078</tspan></text>
  </g>
  <g id="Line-+-brown-2" transform="translate(95,66)" style="fill-rule:evenodd;fill:none">
   <path id="Line" d="m9 16h45v1h-45v4l-9-4.5 9-4.5z" style="fill-rule:nonzero;fill:#8f8981"/>
   <g id="g21843" transform="translate(30)">
    <rect id="rect21837" width="89" height="33" rx="16.5" ry="16.5" style="fill-rule:evenodd;fill:#efefe7"/>
    <text id="text21841" font-size="12px" font-weight="700" style="fill:#979797;font-family:'Source Code Pro';font-size:12px;font-weight:700;text-anchor:middle"><tspan id="tspan21839" x="44.5" y="21" style="fill:gray">1edee</tspan></text>
   </g>
  </g>
  <g id="Line-+-brown-3" transform="translate(213.98 65.991)" style="fill-rule:evenodd;fill:none">
   <path id="path21846" d="m9 16h45v1h-45v4l-9-4.5 9-4.5z" style="fill-rule:nonzero;fill:#8f8981"/>
   <g id="jessica" transform="translate(30)">
    <rect id="rect21848" width="89" height="33" rx="16.5" ry="16.5" style="fill-rule:evenodd;fill:#b8e986"/>
    <text id="C3'" font-size="12px" font-weight="700" style="fill:#979797;font-family:'Source Code Pro';font-size:12px;font-weight:700;text-anchor:middle"><tspan id="tspan21850" x="44.5" y="21" style="fill:gray">fbff5</tspan></text>
   </g>
  </g>
  <g id="g22162">
   <path id="path21855" transform="translate(208.4 94.365)" d="m7.8327 4.8281 51.361 34.536-.558.82984-51.361-34.536-2.232 3.3194-4.9576-8.7563 9.9796 1.2877z" style="fill:#8f8981"/>
   <g id="john" transform="translate(244,118)" style="fill-rule:evenodd;fill:none">
    <rect id="rect21857" width="89" height="33" rx="16.5" ry="16.5" style="fill-rule:evenodd;fill:#fcc161"/>
    <text id="text21861" font-size="12px" font-weight="700" style="fill:#979797;font-family:'Source Code Pro';font-size:12px;font-weight:700;text-anchor:middle"><tspan id="tspan21859" x="44.5" y="21" style="fill:gray">738ee</tspan></text>
   </g>
  </g>
  <g id="g22148">
   <path id="Line-4" transform="translate(-.39392 -.66408)" d="m335.83 99.828 51.361 34.536-.558.82984-51.361-34.536-2.232 3.3194-4.9576-8.7563 9.9796 1.2877z" style="fill:#8f8981"/>
   <path id="Line-5" d="m342 134h45v1h-45v4l-9-4.5 9-4.5z" style="fill:#8f8981"/>
   <g id="g21873" transform="translate(363,118)" style="fill-rule:evenodd;fill:none">
    <rect id="rect21867" width="89" height="33" rx="16.5" ry="16.5" style="fill-rule:evenodd;fill:#fcc161"/>
    <text id="text21871" font-size="12px" font-weight="700" style="fill:#979797;font-family:'Source Code Pro';font-size:12px;font-weight:700;text-anchor:middle"><tspan id="tspan21869" x="44.5" y="21" style="fill:gray">72bbc</tspan></text>
   </g>
  </g>
  <g id="g22133">
   <path id="Line-7" transform="translate(-1.6099 -.63484)" d="m693.83 99.828 51.361 34.536-.558.82984-51.361-34.536-2.232 3.3194-4.9576-8.7563 9.9796 1.2877z" style="fill:#8f8981"/>
   <path id="Line-6" d="m461 134h284v1h-284v4l-9-4.5 9-4.5z" style="fill:#8f8981"/>
   <g id="g21883" transform="translate(721,118)" style="fill-rule:evenodd;fill:none">
    <rect id="rect21877" width="89" height="33" rx="16.5" ry="16.5" style="fill-rule:evenodd;fill:#b8e986"/>
    <text id="text21881" font-size="12px" font-weight="700" style="fill:#979797;font-family:'Source Code Pro';font-size:12px;font-weight:700;text-anchor:middle"><tspan id="tspan21879" x="44.5" y="21" style="fill:gray">8059c</tspan></text>
   </g>
  </g>
  <g id="g22155">
   <path id="path21885" transform="translate(333,66)" d="m9 16h45v1h-45v4l-9-4.5 9-4.5z" style="fill:#8f8981"/>
   <g id="g22038">
    <rect id="rect21887" transform="translate(363,66)" width="89" height="33" rx="16.5" ry="16.5" style="fill-rule:evenodd;fill:#b8e986"/>
    <text id="text21891" transform="translate(363.02 65.31)" font-size="12px" font-weight="700" style="fill-rule:evenodd;fill:#979797;font-family:'Source Code Pro';font-size:12px;font-weight:700;text-anchor:middle"><tspan id="tspan21889" x="44.5" y="21" style="fill:gray">8149a</tspan></text>
   </g>
  </g>
  <g id="Line-+-brown-5" transform="translate(452,66)" style="fill-rule:evenodd;fill:none">
   <path id="path21896" d="m9 16h45v1h-45v4l-9-4.5 9-4.5z" style="fill-rule:nonzero;fill:#8f8981"/>
   <g id="g21904" transform="translate(30)">
    <rect id="rect21898" width="89" height="33" rx="16.5" ry="16.5" style="fill-rule:evenodd;fill:#b8e986"/>
    <text id="text21902" font-size="12px" font-weight="700" style="fill:#979797;font-family:'Source Code Pro';font-size:12px;font-weight:700;text-anchor:middle"><tspan id="tspan21900" x="44.5" y="21" style="fill:gray">23ac6</tspan></text>
   </g>
  </g>
  <g id="g22140">
   <path id="Line-3" d="m580 82h45v1h-45v4l-9-4.5 9-4.5z" style="fill:#8f8981"/>
   <g id="g21914" transform="translate(601,66)" style="fill-rule:evenodd;fill:none">
    <rect id="rect21908" width="89" height="33" rx="16.5" ry="16.5" style="fill-rule:evenodd;fill:#b8e986"/>
    <text id="text21912" font-size="12px" font-weight="700" style="fill:#979797;font-family:'Source Code Pro';font-size:12px;font-weight:700;text-anchor:middle"><tspan id="tspan21910" x="44.5" y="21" style="fill:gray">4af42</tspan></text>
   </g>
  </g>
  <g id="g22111">
   <path id="Line-2" transform="translate(708,151)" d="m58 9v23h-1v-23h-4l4.5-9 4.5 9z" style="fill:#8f8981"/>
   <g id="g22104" transform="translate(-.47234 -.6)">
    <rect id="Rectangle-2" transform="matrix(.86207 0 0 .86842 715.97 174.75)" width="116" height="38" style="fill-rule:evenodd;fill:#f44d27"/>
    <text id="master" transform="translate(708,173)" font-size="12px" font-weight="700" style="fill-rule:evenodd;fill:#979797;font-family:'Source Code Pro';font-size:12px;font-weight:700;text-anchor:middle"><tspan id="tspan21918" x="58" y="21.515152" style="fill:#f0f0f0">origin/master</tspan></text>
   </g>
  </g>
  <g id="g22125">
   <path id="path21923" transform="translate(708,6)" d="m57 103v-95h1v95h4l-4.5 9-4.5-9z" style="fill:#8f8981"/>
   <g id="g22118">
    <rect id="rect21925" transform="matrix(.76724 0 0 .86842 721 10)" width="116" height="38" style="fill-rule:evenodd;fill:#f44d27"/>
    <text id="text21929" transform="translate(707.6 8.8008)" font-size="12px" font-weight="700" style="fill-rule:evenodd;fill:#979797;font-family:'Source Code Pro';font-size:12px;font-weight:700;text-anchor:middle"><tspan id="tspan21927" x="58" y="21.515152" style="fill:#f0f0f0">master</tspan></text>
   </g>
  </g>
  <g id="g22075">
   <path id="path21934" transform="translate(588,5)" d="m57 52v-43h1v43h4l-4.5 9-4.5-9z" style="fill:#8f8981"/>
   <g id="g22068" transform="translate(13)">
    <rect id="rect21936" transform="matrix(.76724 0 0 .86842 588 9.9)" width="116" height="38" style="fill-rule:evenodd;fill:#f44d27"/>
    <text id="text21940" transform="translate(574.28 9.3428)" font-size="12px" font-weight="700" style="fill-rule:evenodd;fill:#979797;font-family:'Source Code Pro';font-size:12px;font-weight:700;text-anchor:middle"><tspan id="tspan21938" x="58" y="21.515152" style="fill:#f0f0f0">issue54</tspan></text>
   </g>
  </g>
 </g>
</svg>
