<?xml version="1.0" encoding="UTF-8"?>
<svg width="426px" height="205px" viewBox="0 0 426 205" version="1.1" xmlns="http://www.w3.org/2000/svg" xmlns:xlink="http://www.w3.org/1999/xlink">
    <!-- Generator: Sketch 56.3 (81716) - https://sketch.com -->
    <title>images/smudge</title>
    <desc>Created with Sketch.</desc>
    <g id="08---Smudge-and-Clean" stroke="none" stroke-width="1" fill="none" fill-rule="evenodd">
        <g id="Group" transform="translate(10.000000, 10.000000)">
            <g id="other" transform="translate(0.000000, 45.000000)">
                <rect id="Rectangle-2" fill="#EFEFE7" fill-rule="evenodd" x="0" y="0" width="86" height="33"></rect>
                <text id="master" stroke="#979797" stroke-width="1" font-family="RobotoMono-Regular, Roboto Mono" font-size="12" font-weight="normal" fill="#000000">
                    <tspan x="10.5917969" y="21">fileA.txt</tspan>
                </text>
            </g>
            <rect id="Rectangle-9" stroke="#979797" fill="#D8D8D8" x="138.5" y="0.5" width="109" height="142"></rect>
            <g id="goldref" transform="translate(300.000000, 45.000000)">
                <rect id="Rectangle-3" fill="#CD9F00" fill-rule="evenodd" x="0" y="0" width="87" height="33"></rect>
                <text id="master-2" stroke="#979797" stroke-width="1" font-family="RobotoMono-Regular, Roboto Mono" font-size="11.1428571" font-weight="normal" fill="#FFFFFF">
                    <tspan x="9.81036032" y="20">fileA.txt'</tspan>
                </text>
            </g>
            <g id="goldref" transform="translate(300.000000, 98.000000)">
                <rect id="Rectangle-3" fill="#CD9F00" fill-rule="evenodd" x="0" y="0" width="87" height="33"></rect>
                <text id="master-2" stroke="#979797" stroke-width="1" font-family="RobotoMono-Regular, Roboto Mono" font-size="11.1428571" font-weight="normal" fill="#FFFFFF">
                    <tspan x="9.81036032" y="20">fileB.txt'</tspan>
                </text>
            </g>
            <g id="other" transform="translate(0.000000, 98.000000)">
                <rect id="Rectangle-2" fill="#EFEFE7" fill-rule="evenodd" x="0" y="0" width="86" height="33"></rect>
                <text id="master" stroke="#979797" stroke-width="1" font-family="RobotoMono-Regular, Roboto Mono" font-size="12" font-weight="normal" fill="#000000">
                    <tspan x="10.5917969" y="21">fileB.txt</tspan>
                </text>
            </g>
            <g id="other" transform="translate(0.000000, 151.000000)">
                <rect id="Rectangle-2" fill="#EFEFE7" fill-rule="evenodd" x="0" y="0" width="86" height="33"></rect>
                <text id="master" stroke="#979797" stroke-width="1" font-family="RobotoMono-Regular, Roboto Mono" font-size="12" font-weight="normal" fill="#000000">
                    <tspan x="14.1923828" y="21">fileC.rb</tspan>
                </text>
            </g>
            <g id="other" transform="translate(300.000000, 151.000000)">
                <rect id="Rectangle-2" fill="#EFEFE7" fill-rule="evenodd" x="0" y="0" width="86" height="33"></rect>
                <text id="master" stroke="#979797" stroke-width="1" font-family="RobotoMono-Regular, Roboto Mono" font-size="12" font-weight="normal" fill="#000000">
                    <tspan x="14.1923828" y="21">fileC.rb</tspan>
                </text>
            </g>
            <text id="Staging-Area" stroke="#979797" font-family="RobotoMono-Regular, Roboto Mono" font-size="12" font-weight="normal" fill="#000000">
                <tspan x="0.29296875" y="22">Staging Area</tspan>
            </text>
            <text id="Working-Directory" stroke="#979797" font-family="RobotoMono-Regular, Roboto Mono" font-size="12" font-weight="normal" fill="#000000">
                <tspan x="282.290039" y="22">Working Directory</tspan>
            </text>
            <text id="*.txt-Filter" stroke="#979797" font-family="RobotoMono-Regular, Roboto Mono" font-size="12" font-weight="normal" fill="#000000">
                <tspan x="150.292969" y="22">*.txt Filter</tspan>
            </text>
            <g id="ref" transform="translate(150.000000, 45.000000)">
                <rect id="Rectangle-2" fill="#F44D27" fill-rule="evenodd" x="0" y="0" width="86.1869159" height="33"></rect>
                <text id="master" stroke="#979797" stroke-width="1" font-family="RobotoMono-Regular, Roboto Mono" font-size="11.1428571" font-weight="normal" fill="#FFFFFF">
                    <tspan x="23.1866857" y="20">smudge</tspan>
                </text>
            </g>
            <g id="ref" transform="translate(150.000000, 98.000000)">
                <rect id="Rectangle-2" fill="#F44D27" fill-rule="evenodd" x="0" y="0" width="86.1869159" height="33"></rect>
                <text id="master" stroke="#979797" stroke-width="1" font-family="RobotoMono-Regular, Roboto Mono" font-size="11.1428571" font-weight="normal" fill="#FFFFFF">
                    <tspan x="26.5300869" y="20">clean</tspan>
                </text>
            </g>
            <path id="Line" d="M291,169 L87,169 L87,168 L291,168 L291,164 L300,168.5 L291,173 L291,169 Z" fill="#8F8981" fill-rule="nonzero"></path>
            <path id="Line-2" d="M141,63 L87,63 L87,62 L141,62 L141,58 L150,62.5 L141,67 L141,63 Z" fill="#8F8981" fill-rule="nonzero"></path>
            <path id="Line-3" d="M291,64 L236,64 L236,63 L291,63 L291,59 L300,63.5 L291,68 L291,64 Z" fill="#8F8981" fill-rule="nonzero"></path>
            <path id="Line-4" d="M141.996214,71.9680644 C134.936427,72.3777227 128.430008,73.7874597 123.272939,76.5200799 C116.368495,80.178597 112.52411,85.9000354 112.524111,94.0972843 C112.524112,105.715203 107.59745,112.361034 99.4179327,115.044787 C95.5050284,116.328637 91.3748574,116.548652 87.6574167,116.158427 C87.3146844,116.12245 87.0091874,116.083828 86.7445319,116.045091 C86.5838126,116.021567 86.4712047,116.002992 86.4103203,115.991892 L85.9184285,115.902212 L86.0977879,114.918428 L86.5896797,115.008108 C86.63929,115.017153 86.7404014,115.033832 86.8893561,115.055634 C87.1408238,115.09244 87.4328644,115.129361 87.7618143,115.163892 C91.3510201,115.540655 95.3478987,115.327741 99.1061781,114.094625 C106.879232,111.544234 111.524112,105.278514 111.524111,94.0972844 C111.52411,85.5090522 115.588501,79.4601872 122.804729,75.6364626 C128.12653,72.8165543 134.788123,71.3780976 142.003798,70.9659666 L142.034297,66.9358055 L150.999986,71.5037837 L141.96619,75.9355478 L141.996214,71.9680644 Z" fill="#8F8981" fill-rule="nonzero"></path>
            <path id="Line-5" d="M290.005238,115.964699 C278.07768,113.258103 270.211758,106.293858 270.211758,93.5011768 C270.211758,83.5352256 263.956531,77.1945341 253.448774,73.7167525 C249.838869,72.5219723 245.966582,71.7565176 242.078457,71.3368811 C240.689928,71.1870202 239.388871,71.0917575 238.205977,71.0404378 C237.456125,71.0079056 236.885497,70.9979397 236.524728,70.9998388 L236.505186,70.9999731 L236.005213,71.005159 L235.994841,70.0052128 L236.494814,70.0000269 L236.519464,69.9998526 C236.895949,69.9978709 237.482716,70.0081186 238.249321,70.0413776 C239.452862,70.0935931 240.775139,70.1904095 242.185762,70.3426549 C246.139396,70.7693617 250.07917,71.548157 253.762984,72.767399 C264.637575,76.3665924 271.211758,83.0305985 271.211758,93.5011768 C271.211758,105.700851 278.659124,112.33459 290.120838,114.965378 L290.573442,111.053011 L298.996688,116.557459 L289.539182,119.993386 L290.005238,115.964699 Z" fill="#8F8981" fill-rule="nonzero"></path>
        </g>
    </g>
</svg>