<?xml version="1.0" encoding="UTF-8"?>
<svg id="svg29970" version="1.1" viewBox="0 0 505 402.01" xmlns="http://www.w3.org/2000/svg" xmlns:cc="http://creativecommons.org/ns#" xmlns:dc="http://purl.org/dc/elements/1.1/" xmlns:rdf="http://www.w3.org/1999/02/22-rdf-syntax-ns#">
 <metadata id="metadata29976">
  <rdf:RDF>
   <cc:Work rdf:about="">
    <dc:format>image/svg+xml</dc:format>
    <dc:type rdf:resource="http://purl.org/dc/dcmitype/StillImage"/>
    <dc:title>images/topic-branches-1</dc:title>
   </cc:Work>
  </rdf:RDF>
 </metadata>
 <!-- Generator: Sketch 56.3 (81716) - https://sketch.com -->
 <title id="title29802">images/topic-branches-1</title>
 <desc id="desc29804">Created with Sketch.</desc>
 <g id="g23153" transform="translate(1,3.0115)">
  <g id="brown" transform="translate(139,362)" style="fill-rule:evenodd;fill:none">
   <rect id="Rectangle-1" width="89" height="33" rx="16.5" ry="16.5" style="fill-rule:evenodd;fill:#efefe7"/>
   <text id="C6" font-size="12px" font-weight="700" style="fill:#979797;font-family:'Source Code Pro';font-size:12px;font-weight:700;text-anchor:middle"><tspan id="tspan29807" x="44.5" y="21" style="fill:gray">C0</tspan></text>
  </g>
  <path id="Line" d="m184 353v-25h1v25h4l-4.5 9-4.5-9z" style="fill:#8f8981"/>
  <g id="g29818" transform="translate(139,309)" style="fill-rule:evenodd;fill:none">
   <rect id="rect29812" width="89" height="33" rx="16.5" ry="16.5" style="fill-rule:evenodd;fill:#efefe7"/>
   <text id="text29816" font-size="12px" font-weight="700" style="fill:#979797;font-family:'Source Code Pro';font-size:12px;font-weight:700;text-anchor:middle"><tspan id="tspan29814" x="44.5" y="21" style="fill:gray">C1</tspan></text>
  </g>
  <path id="path29820" d="m184 300v-25h1v25h4l-4.5 9-4.5-9z" style="fill:#8f8981"/>
  <g id="g29828" transform="translate(139,256)" style="fill-rule:evenodd;fill:none">
   <rect id="rect29822" width="89" height="33" rx="16.5" ry="16.5" style="fill-rule:evenodd;fill:#efefe7"/>
   <text id="text29826" font-size="12px" font-weight="700" style="fill:#979797;font-family:'Source Code Pro';font-size:12px;font-weight:700;text-anchor:middle"><tspan id="tspan29824" x="44.5" y="21" style="fill:gray">C3</tspan></text>
  </g>
  <path id="path29830" d="m184 247v-25h1v25h4l-4.5 9-4.5-9z" style="fill:#8f8981"/>
  <g id="g29838" transform="translate(139,203)" style="fill-rule:evenodd;fill:none">
   <rect id="rect29832" width="89" height="33" rx="16.5" ry="16.5" style="fill-rule:evenodd;fill:#efefe7"/>
   <text id="text29836" font-size="12px" font-weight="700" style="fill:#979797;font-family:'Source Code Pro';font-size:12px;font-weight:700;text-anchor:middle"><tspan id="tspan29834" x="44.5" y="21" style="fill:gray">C9</tspan></text>
  </g>
  <path id="path29840" d="m184 194v-25h1v25h4l-4.5 9-4.5-9z" style="fill:#8f8981"/>
  <g id="g29848" transform="translate(139,150)" style="fill-rule:evenodd;fill:none">
   <rect id="rect29842" width="89" height="33" rx="16.5" ry="16.5" style="fill-rule:evenodd;fill:#efefe7"/>
   <text id="text29846" font-size="12px" font-weight="700" style="fill:#979797;font-family:'Source Code Pro';font-size:12px;font-weight:700;text-anchor:middle"><tspan id="tspan29844" x="44.5" y="21" style="fill:gray">C10</tspan></text>
  </g>
  <path id="path29850" d="m234.06 313.58 86.696-38.736.40794.91301-86.696 38.736 1.6318 3.652-10.053-.43708 6.3813-7.78 1.6318 3.652z" style="fill:#8f8981"/>
  <g id="g29858" transform="translate(275,256)" style="fill-rule:evenodd;fill:none">
   <rect id="rect29852" width="89" height="33" rx="16.5" ry="16.5" style="fill-rule:evenodd;fill:#efefe7"/>
   <text id="text29856" font-size="12px" font-weight="700" style="fill:#979797;font-family:'Source Code Pro';font-size:12px;font-weight:700;text-anchor:middle"><tspan id="tspan29854" x="44.5" y="21" style="fill:gray">C2</tspan></text>
  </g>
  <path id="path29860" d="m320 247v-25h1v25h4l-4.5 9-4.5-9z" style="fill:#8f8981"/>
  <g id="g29868" transform="translate(275,203)" style="fill-rule:evenodd;fill:none">
   <rect id="rect29862" width="89" height="33" rx="16.5" ry="16.5" style="fill-rule:evenodd;fill:#efefe7"/>
   <text id="text29866" font-size="12px" font-weight="700" style="fill:#979797;font-family:'Source Code Pro';font-size:12px;font-weight:700;text-anchor:middle"><tspan id="tspan29864" x="44.5" y="21" style="fill:gray">C4</tspan></text>
  </g>
  <path id="path29870" d="m320 194v-25h1v25h4l-4.5 9-4.5-9z" style="fill:#8f8981"/>
  <g id="g29878" transform="translate(275,150)" style="fill-rule:evenodd;fill:none">
   <rect id="rect29872" width="89" height="33" rx="16.5" ry="16.5" style="fill-rule:evenodd;fill:#efefe7"/>
   <text id="text29876" font-size="12px" font-weight="700" style="fill:#979797;font-family:'Source Code Pro';font-size:12px;font-weight:700;text-anchor:middle"><tspan id="tspan29874" x="44.5" y="21" style="fill:gray">C5</tspan></text>
  </g>
  <path id="path29880" d="m320 141v-25h1v25h4l-4.5 9-4.5-9z" style="fill:#8f8981"/>
  <g id="g29888" transform="translate(275,97)" style="fill-rule:evenodd;fill:none">
   <rect id="rect29882" width="89" height="33" rx="16.5" ry="16.5" style="fill-rule:evenodd;fill:#efefe7"/>
   <text id="text29886" font-size="12px" font-weight="700" style="fill:#979797;font-family:'Source Code Pro';font-size:12px;font-weight:700;text-anchor:middle"><tspan id="tspan29884" x="44.5" y="21" style="fill:gray">C6</tspan></text>
  </g>
  <path id="path29890" d="m131.63 157.25-83.798-40.518.4353-.90028 83.798 40.518 1.7412-3.6011 6.1437 7.969-10.061.13356 1.7412-3.6011z" style="fill:#8f8981"/>
  <g id="g29898" transform="translate(3,97)" style="fill-rule:evenodd;fill:none">
   <rect id="rect29892" width="89" height="33" rx="16.5" ry="16.5" style="fill-rule:evenodd;fill:#efefe7"/>
   <text id="text29896" font-size="12px" font-weight="700" style="fill:#979797;font-family:'Source Code Pro';font-size:12px;font-weight:700;text-anchor:middle"><tspan id="tspan29894" x="44.5" y="21" style="fill:gray">C12</tspan></text>
  </g>
  <path id="path29900" d="m48 88v-25h1v25h4l-4.5 9-4.5-9z" style="fill:#8f8981"/>
  <g id="g29908" transform="translate(3,44)" style="fill-rule:evenodd;fill:none">
   <rect id="rect29902" width="89" height="33" rx="16.5" ry="16.5" style="fill-rule:evenodd;fill:#efefe7"/>
   <text id="text29906" font-size="12px" font-weight="700" style="fill:#979797;font-family:'Source Code Pro';font-size:12px;font-weight:700;text-anchor:middle"><tspan id="tspan29904" x="44.5" y="21" style="fill:gray">C13</tspan></text>
  </g>
  <path id="path29910" d="m370.09 206.64 86.667-37.802.3998.9166-86.667 37.802 1.5992 3.6664-10.049-.52656 6.4504-7.7229 1.5992 3.6664z" style="fill:#8f8981"/>
  <g id="g29918" transform="translate(411,150)" style="fill-rule:evenodd;fill:none">
   <rect id="rect29912" width="89" height="33" rx="16.5" ry="16.5" style="fill-rule:evenodd;fill:#efefe7"/>
   <text id="text29916" font-size="12px" font-weight="700" style="fill:#979797;font-family:'Source Code Pro';font-size:12px;font-weight:700;text-anchor:middle"><tspan id="tspan29914" x="44.5" y="21" style="fill:gray">C7</tspan></text>
  </g>
  <path id="path29920" d="m456 141v-25h1v25h4l-4.5 9-4.5-9z" style="fill:#8f8981"/>
  <g id="g29928" transform="translate(411,97)" style="fill-rule:evenodd;fill:none">
   <rect id="rect29922" width="89" height="33" rx="16.5" ry="16.5" style="fill-rule:evenodd;fill:#efefe7"/>
   <text id="text29926" font-size="12px" font-weight="700" style="fill:#979797;font-family:'Source Code Pro';font-size:12px;font-weight:700;text-anchor:middle"><tspan id="tspan29924" x="44.5" y="21" style="fill:gray">C8</tspan></text>
  </g>
  <path id="path29930" d="m456 88v-25h1v25h4l-4.5 9-4.5-9z" style="fill:#8f8981"/>
  <g id="g29938" transform="translate(411,44)" style="fill-rule:evenodd;fill:none">
   <rect id="rect29932" width="89" height="33" rx="16.5" ry="16.5" style="fill-rule:evenodd;fill:#efefe7"/>
   <text id="text29936" font-size="12px" font-weight="700" style="fill:#979797;font-family:'Source Code Pro';font-size:12px;font-weight:700;text-anchor:middle"><tspan id="tspan29934" x="44.5" y="21" style="fill:gray">C11</tspan></text>
  </g>
  <g id="g23037">
   <rect id="Rectangle-2" transform="matrix(.83962 0 0 1 139 106.9)" width="106" height="33" style="fill-rule:evenodd;fill:#f44d27"/>
   <text id="master" transform="translate(130.6 107.22)" font-size="12px" font-weight="700" style="fill-rule:evenodd;fill:#979797;font-family:'Source Code Pro';font-size:12px;font-weight:700;text-anchor:middle"><tspan id="tspan29941" x="53" y="20" style="fill:#f0f0f0">master</tspan></text>
  </g>
  <g id="g23049" transform="translate(-.1 -5.005)">
   <rect id="rect29945" transform="matrix(.83962 0 0 1 275.1 59)" width="106" height="33" style="fill-rule:evenodd;fill:#f44d27"/>
   <text id="text29949" transform="translate(266.48 59.958)" font-size="12px" font-weight="700" style="fill-rule:evenodd;fill:#979797;font-family:'Source Code Pro';font-size:12px;font-weight:700;text-anchor:middle"><tspan id="tspan29947" x="53" y="20" style="fill:#f0f0f0">iss91</tspan></text>
  </g>
  <g id="g23058" transform="translate(-.1 -5.0115)">
   <rect id="rect29953" transform="matrix(.83962 0 0 1 411.1 6)" width="106" height="33" style="fill-rule:evenodd;fill:#f44d27"/>
   <text id="text29957" transform="translate(402.51 6.958)" font-size="12px" font-weight="700" style="fill-rule:evenodd;fill:#979797;font-family:'Source Code Pro';font-size:12px;font-weight:700;text-anchor:middle"><tspan id="tspan29955" x="53" y="20" style="fill:#f0f0f0">iss91v2</tspan></text>
  </g>
  <g id="g23066" transform="translate(-.19169)">
   <rect id="rect29961" transform="matrix(.83962 0 0 1 3.1917 .9885)" width="106" height="33" style="fill-rule:evenodd;fill:#f44d27"/>
   <text id="text29965" transform="translate(-5.2027 1.9465)" font-size="12px" font-weight="700" style="fill-rule:evenodd;fill:#979797;font-family:'Source Code Pro';font-size:12px;font-weight:700;text-anchor:middle"><tspan id="tspan29963" x="53" y="20" style="fill:#f0f0f0">dumbidea</tspan></text>
  </g>
 </g>
</svg>
