<?xml version="1.0" encoding="UTF-8"?>
<svg id="svg30926" version="1.1" viewBox="0 0 432.03 454.98" xmlns="http://www.w3.org/2000/svg" xmlns:cc="http://creativecommons.org/ns#" xmlns:dc="http://purl.org/dc/elements/1.1/" xmlns:rdf="http://www.w3.org/1999/02/22-rdf-syntax-ns#">
 <metadata id="metadata30932">
  <rdf:RDF>
   <cc:Work rdf:about="">
    <dc:format>image/svg+xml</dc:format>
    <dc:type rdf:resource="http://purl.org/dc/dcmitype/StillImage"/>
    <dc:title>images/topic-branches-2</dc:title>
   </cc:Work>
  </rdf:RDF>
 </metadata>
 <!-- Generator: Sketch 56.3 (81716) - https://sketch.com -->
 <title id="title30784">images/topic-branches-2</title>
 <desc id="desc30786">Created with Sketch.</desc>
 <g id="g23617" transform="translate(-15.982 4.9807)">
  <g id="brown" transform="translate(119,413)" style="fill-rule:evenodd;fill:none">
   <rect id="Rectangle-1" width="89" height="33" rx="16.5" ry="16.5" style="fill-rule:evenodd;fill:#efefe7"/>
   <text id="C6" font-size="12px" font-weight="700" style="fill:#979797;font-family:'Source Code Pro';font-size:12px;font-weight:700;text-anchor:middle"><tspan id="tspan30789" x="44.5" y="21" style="fill:gray">C0</tspan></text>
  </g>
  <g id="g23484">
   <path id="Line-2" transform="translate(-2)" d="m165 404v-25h1v25h4l-4.5 9-4.5-9z" style="fill:#8f8981"/>
   <g id="g30800" transform="translate(119,360)" style="fill-rule:evenodd;fill:none">
    <rect id="rect30794" width="89" height="33" rx="16.5" ry="16.5" style="fill-rule:evenodd;fill:#efefe7"/>
    <text id="text30798" font-size="12px" font-weight="700" style="fill:#979797;font-family:'Source Code Pro';font-size:12px;font-weight:700;text-anchor:middle"><tspan id="tspan30796" x="44.5" y="21" style="fill:gray">C1</tspan></text>
   </g>
  </g>
  <g id="g23491">
   <path id="Line-3" transform="translate(-2)" d="m165 351v-25h1v25h4l-4.5 9-4.5-9z" style="fill:#8f8981"/>
   <g id="g30809" transform="translate(119,307)" style="fill-rule:evenodd;fill:none">
    <rect id="rect30803" width="89" height="33" rx="16.5" ry="16.5" style="fill-rule:evenodd;fill:#efefe7"/>
    <text id="text30807" font-size="12px" font-weight="700" style="fill:#979797;font-family:'Source Code Pro';font-size:12px;font-weight:700;text-anchor:middle"><tspan id="tspan30805" x="44.5" y="21" style="fill:gray">C3</tspan></text>
   </g>
  </g>
  <g id="g23477">
   <path id="Line-4" transform="translate(-2)" d="m165 298v-25h1v25h4l-4.5 9-4.5-9z" style="fill:#8f8981"/>
   <g id="g30818" transform="translate(119,254)" style="fill-rule:evenodd;fill:none">
    <rect id="rect30812" width="89" height="33" rx="16.5" ry="16.5" style="fill-rule:evenodd;fill:#efefe7"/>
    <text id="text30816" font-size="12px" font-weight="700" style="fill:#979797;font-family:'Source Code Pro';font-size:12px;font-weight:700;text-anchor:middle"><tspan id="tspan30814" x="44.5" y="21" style="fill:gray">C9</tspan></text>
   </g>
  </g>
  <g id="g23470">
   <path id="Line-5" transform="translate(-2)" d="m165 245v-25h1v25h4l-4.5 9-4.5-9z" style="fill:#8f8981"/>
   <g id="g30827" transform="translate(119,201)" style="fill-rule:evenodd;fill:none">
    <rect id="rect30821" width="89" height="33" rx="16.5" ry="16.5" style="fill-rule:evenodd;fill:#efefe7"/>
    <text id="text30825" font-size="12px" font-weight="700" style="fill:#979797;font-family:'Source Code Pro';font-size:12px;font-weight:700;text-anchor:middle"><tspan id="tspan30823" x="44.5" y="21" style="fill:gray">C10</tspan></text>
   </g>
  </g>
  <g id="g23526">
   <path id="Line-6" transform="translate(-1.2 .3)" d="m215.06 364.58 86.696-38.736.40794.91301-86.696 38.736 1.6318 3.652-10.053-.43708 6.3813-7.78 1.6318 3.652z" style="fill:#8f8981"/>
   <g id="g30836" transform="translate(256,307)" style="fill-rule:evenodd;fill:none">
    <rect id="rect30830" width="89" height="33" rx="16.5" ry="16.5" style="fill-rule:evenodd;fill:#efefe7"/>
    <text id="text30834" font-size="12px" font-weight="700" style="fill:#979797;font-family:'Source Code Pro';font-size:12px;font-weight:700;text-anchor:middle"><tspan id="tspan30832" x="44.5" y="21" style="fill:gray">C2</tspan></text>
   </g>
  </g>
  <g id="g23519">
   <path id="Line-7" transform="translate(-1)" d="m301 298v-25h1v25h4l-4.5 9-4.5-9z" style="fill:#8f8981"/>
   <g id="g30845" transform="translate(256,254)" style="fill-rule:evenodd;fill:none">
    <rect id="rect30839" width="89" height="33" rx="16.5" ry="16.5" style="fill-rule:evenodd;fill:#efefe7"/>
    <text id="text30843" font-size="12px" font-weight="700" style="fill:#979797;font-family:'Source Code Pro';font-size:12px;font-weight:700;text-anchor:middle"><tspan id="tspan30841" x="44.5" y="21" style="fill:gray">C4</tspan></text>
   </g>
  </g>
  <g id="g23456">
   <path id="Line-11" transform="translate(-1)" d="m164 139v-25h1v25h4l-4.5 9-4.5-9z" style="fill:#8f8981"/>
   <g id="g30854" transform="translate(119,95)" style="fill-rule:evenodd;fill:none">
    <rect id="rect30848" width="89" height="33" rx="16.5" ry="16.5" style="fill-rule:evenodd;fill:#efefe7"/>
    <text id="text30852" font-size="12px" font-weight="700" style="fill:#979797;font-family:'Source Code Pro';font-size:12px;font-weight:700;text-anchor:middle"><tspan id="tspan30850" x="44.5" y="21" style="fill:gray">C13</tspan></text>
   </g>
  </g>
  <path id="Line-12" d="m252.96 95.538-56.15-33.868.51649-.85629 56.15 33.868 2.066-3.4252 5.3824 8.5017-10.031-.79513 2.066-3.4252z" style="fill:#8f8981"/>
  <g id="g23463">
   <path id="path30856" transform="translate(-2)" d="m165 86v-25h1v25h4l-4.5 9-4.5-9z" style="fill:#8f8981"/>
   <g id="g30865" transform="translate(119,42)" style="fill-rule:evenodd;fill:none">
    <rect id="rect30859" width="89" height="33" rx="16.5" ry="16.5" style="fill-rule:evenodd;fill:#efefe7"/>
    <text id="text30863" font-size="12px" font-weight="700" style="fill:#979797;font-family:'Source Code Pro';font-size:12px;font-weight:700;text-anchor:middle"><tspan id="tspan30861" x="44.5" y="21" style="fill:gray">C14</tspan></text>
   </g>
  </g>
  <g id="g23449">
   <path id="path30867" transform="translate(-3)" d="m166 192v-25h1v25h4l-4.5 9-4.5-9z" style="fill:#8f8981"/>
   <g id="g30875" transform="translate(119,148)" style="fill-rule:evenodd;fill:none">
    <rect id="rect30869" width="89" height="33" rx="16.5" ry="16.5" style="fill-rule:evenodd;fill:#efefe7"/>
    <text id="text30873" font-size="12px" font-weight="700" style="fill:#979797;font-family:'Source Code Pro';font-size:12px;font-weight:700;text-anchor:middle"><tspan id="tspan30871" x="44.5" y="21" style="fill:gray">C12</tspan></text>
   </g>
  </g>
  <g id="g23424" transform="translate(-.08673)">
   <rect id="Rectangle-2" transform="matrix(.83962 0 0 1 119.09 -.98074)" width="106" height="33" style="fill-rule:evenodd;fill:#f44d27"/>
   <text id="master" transform="translate(110.69 -.66474)" font-size="12px" font-weight="700" style="fill-rule:evenodd;fill:#979797;font-family:'Source Code Pro';font-size:12px;font-weight:700;text-anchor:middle"><tspan id="tspan30878" x="53" y="20" style="fill:#f0f0f0">master</tspan></text>
  </g>
  <g id="g23512">
   <path id="Line-14" transform="translate(-1)" d="m301 245v-25h1v25h4l-4.5 9-4.5-9z" style="fill:#8f8981"/>
   <g id="g30889" transform="translate(256,201)" style="fill-rule:evenodd;fill:none">
    <rect id="rect30883" width="89" height="33" rx="16.5" ry="16.5" style="fill-rule:evenodd;fill:#efefe7"/>
    <text id="text30887" font-size="12px" font-weight="700" style="fill:#979797;font-family:'Source Code Pro';font-size:12px;font-weight:700;text-anchor:middle"><tspan id="tspan30885" x="44.5" y="21" style="fill:gray">C7</tspan></text>
   </g>
  </g>
  <g id="g23505">
   <path id="Line-13" transform="translate(-1)" d="m301 192v-25h1v25h4l-4.5 9-4.5-9z" style="fill:#8f8981"/>
   <g id="g30898" transform="translate(256,148)" style="fill-rule:evenodd;fill:none">
    <rect id="rect30892" width="89" height="33" rx="16.5" ry="16.5" style="fill-rule:evenodd;fill:#efefe7"/>
    <text id="text30896" font-size="12px" font-weight="700" style="fill:#979797;font-family:'Source Code Pro';font-size:12px;font-weight:700;text-anchor:middle"><tspan id="tspan30894" x="44.5" y="21" style="fill:gray">C8</tspan></text>
   </g>
  </g>
  <g id="g23498">
   <path id="Line" transform="translate(-1)" d="m301 139v-25h1v25h4l-4.5 9-4.5-9z" style="fill:#8f8981"/>
   <g id="g30907" transform="translate(256,95)" style="fill-rule:evenodd;fill:none">
    <rect id="rect30901" width="89" height="33" rx="16.5" ry="16.5" style="fill-rule:evenodd;fill:#efefe7"/>
    <text id="text30905" font-size="12px" font-weight="700" style="fill:#979797;font-family:'Source Code Pro';font-size:12px;font-weight:700;text-anchor:middle"><tspan id="tspan30903" x="44.5" y="21" style="fill:gray">C11</tspan></text>
   </g>
  </g>
  <g id="g30915" transform="translate(355.01 95.004)" style="fill-rule:evenodd;fill:none">
   <rect id="rect30909" transform="scale(.83962 1)" width="106" height="33" style="fill-rule:evenodd;fill:#f44d27"/>
   <text id="text30913" transform="translate(-8.5863 .958)" font-size="12px" font-weight="700" style="fill:#979797;font-family:'Source Code Pro';font-size:12px;font-weight:700;text-anchor:middle"><tspan id="tspan30911" x="53" y="20" style="fill:#f0f0f0">iss91v2</tspan></text>
  </g>
  <g id="g23438">
   <rect id="rect30917" transform="matrix(.83962 0 0 1 19.982 95.004)" width="106" height="33" style="fill-rule:evenodd;fill:#f44d27"/>
   <text id="text30921" transform="translate(11.588 95.962)" font-size="12px" font-weight="700" style="fill-rule:evenodd;fill:#979797;font-family:'Source Code Pro';font-size:12px;font-weight:700;text-anchor:middle"><tspan id="tspan30919" x="53" y="20" style="fill:#f0f0f0">dumbidea</tspan></text>
  </g>
 </g>
</svg>
