<?xml version="1.0" encoding="UTF-8"?>
<svg width="465px" height="461px" viewBox="0 0 465 461" version="1.1" xmlns="http://www.w3.org/2000/svg" xmlns:xlink="http://www.w3.org/1999/xlink">
    <!-- Generator: Sketch 56.3 (81716) - https://sketch.com -->
    <title>images/topic-branches-2</title>
    <desc>Created with Sketch.</desc>
    <g id="03---Topic-Branches-2" stroke="none" stroke-width="1" fill="none" fill-rule="evenodd">
        <g id="brown" transform="translate(120.000000, 413.000000)">
            <rect id="Rectangle-1" fill="#EFEFE7" fill-rule="evenodd" x="0" y="0" width="89" height="33" rx="16.5"></rect>
            <text id="C6" stroke="#979797" stroke-width="1" font-family="RobotoMono-Regular, Roboto Mono" font-size="12" font-weight="normal" fill="#000000">
                <tspan x="38.2988281" y="21">C0</tspan>
            </text>
        </g>
        <path id="Line-2" d="M165,404 L165,379 L166,379 L166,404 L170,404 L165.5,413 L161,404 L165,404 Z" fill="#8F8981" fill-rule="nonzero"></path>
        <g id="brown" transform="translate(120.000000, 360.000000)">
            <rect id="Rectangle-1" fill="#EFEFE7" fill-rule="evenodd" x="0" y="0" width="89" height="33" rx="16.5"></rect>
            <text id="C6" stroke="#979797" stroke-width="1" font-family="RobotoMono-Regular, Roboto Mono" font-size="12" font-weight="normal" fill="#000000">
                <tspan x="38.2988281" y="21">C1</tspan>
            </text>
        </g>
        <path id="Line-3" d="M165,351 L165,326 L166,326 L166,351 L170,351 L165.5,360 L161,351 L165,351 Z" fill="#8F8981" fill-rule="nonzero"></path>
        <g id="brown" transform="translate(120.000000, 307.000000)">
            <rect id="Rectangle-1" fill="#EFEFE7" fill-rule="evenodd" x="0" y="0" width="89" height="33" rx="16.5"></rect>
            <text id="C6" stroke="#979797" stroke-width="1" font-family="RobotoMono-Regular, Roboto Mono" font-size="12" font-weight="normal" fill="#000000">
                <tspan x="38.2988281" y="21">C3</tspan>
            </text>
        </g>
        <path id="Line-4" d="M165,298 L165,273 L166,273 L166,298 L170,298 L165.5,307 L161,298 L165,298 Z" fill="#8F8981" fill-rule="nonzero"></path>
        <g id="brown" transform="translate(120.000000, 254.000000)">
            <rect id="Rectangle-1" fill="#EFEFE7" fill-rule="evenodd" x="0" y="0" width="89" height="33" rx="16.5"></rect>
            <text id="C6" stroke="#979797" stroke-width="1" font-family="RobotoMono-Regular, Roboto Mono" font-size="12" font-weight="normal" fill="#000000">
                <tspan x="38.2988281" y="21">C9</tspan>
            </text>
        </g>
        <path id="Line-5" d="M165,245 L165,220 L166,220 L166,245 L170,245 L165.5,254 L161,245 L165,245 Z" fill="#8F8981" fill-rule="nonzero"></path>
        <g id="brown" transform="translate(120.000000, 201.000000)">
            <rect id="Rectangle-1" fill="#EFEFE7" fill-rule="evenodd" x="0" y="0" width="89" height="33" rx="16.5"></rect>
            <text id="C6" stroke="#979797" stroke-width="1" font-family="RobotoMono-Regular, Roboto Mono" font-size="12" font-weight="normal" fill="#000000">
                <tspan x="34.6982422" y="21">C10</tspan>
            </text>
        </g>
        <path id="Line-6" d="M215.056604,364.576005 L301.752534,325.839526 L302.160474,326.752534 L215.464544,365.489014 L217.096304,369.141049 L207.043496,368.70397 L213.424844,360.92397 L215.056604,364.576005 Z" fill="#8F8981" fill-rule="nonzero"></path>
        <g id="brown" transform="translate(256.000000, 307.000000)">
            <rect id="Rectangle-1" fill="#EFEFE7" fill-rule="evenodd" x="0" y="0" width="89" height="33" rx="16.5"></rect>
            <text id="C6" stroke="#979797" stroke-width="1" font-family="RobotoMono-Regular, Roboto Mono" font-size="12" font-weight="normal" fill="#000000">
                <tspan x="38.2988281" y="21">C2</tspan>
            </text>
        </g>
        <path id="Line-7" d="M301,298 L301,273 L302,273 L302,298 L306,298 L301.5,307 L297,298 L301,298 Z" fill="#8F8981" fill-rule="nonzero"></path>
        <g id="brown" transform="translate(256.000000, 254.000000)">
            <rect id="Rectangle-1" fill="#EFEFE7" fill-rule="evenodd" x="0" y="0" width="89" height="33" rx="16.5"></rect>
            <text id="C6" stroke="#979797" stroke-width="1" font-family="RobotoMono-Regular, Roboto Mono" font-size="12" font-weight="normal" fill="#000000">
                <tspan x="38.2988281" y="21">C4</tspan>
            </text>
        </g>
        <path id="Line-11" d="M164,139 L164,114 L165,114 L165,139 L169,139 L164.5,148 L160,139 L164,139 Z" fill="#8F8981" fill-rule="nonzero"></path>
        <g id="brown" transform="translate(119.000000, 95.000000)">
            <rect id="Rectangle-1" fill="#EFEFE7" fill-rule="evenodd" x="0" y="0" width="89" height="33" rx="16.5"></rect>
            <text id="C6" stroke="#979797" stroke-width="1" font-family="RobotoMono-Regular, Roboto Mono" font-size="12" font-weight="normal" fill="#000000">
                <tspan x="34.6982422" y="21">C13</tspan>
            </text>
        </g>
        <path id="Line-11" d="M165,86 L165,61 L166,61 L166,86 L170,86 L165.5,95 L161,86 L165,86 Z" fill="#8F8981" fill-rule="nonzero"></path>
        <path id="Line-12" d="M252.963277,95.5379537 L196.813608,61.6698991 L197.330101,60.8136078 L253.47977,94.6816624 L255.545743,91.2564972 L260.928146,99.7582466 L250.897305,98.9631189 L252.963277,95.5379537 Z" fill="#8F8981" fill-rule="nonzero"></path>
        <g id="brown" transform="translate(120.000000, 42.000000)">
            <rect id="Rectangle-1" fill="#EFEFE7" fill-rule="evenodd" x="0" y="0" width="89" height="33" rx="16.5"></rect>
            <text id="C6" stroke="#979797" stroke-width="1" font-family="RobotoMono-Regular, Roboto Mono" font-size="12" font-weight="normal" fill="#000000">
                <tspan x="34.6982422" y="21">C14</tspan>
            </text>
        </g>
        <path id="Line-11" d="M166,192 L166,167 L167,167 L167,192 L171,192 L166.5,201 L162,192 L166,192 Z" fill="#8F8981" fill-rule="nonzero"></path>
        <g id="brown" transform="translate(121.000000, 148.000000)">
            <rect id="Rectangle-1" fill="#EFEFE7" fill-rule="evenodd" x="0" y="0" width="89" height="33" rx="16.5"></rect>
            <text id="C6" stroke="#979797" stroke-width="1" font-family="RobotoMono-Regular, Roboto Mono" font-size="12" font-weight="normal" fill="#000000">
                <tspan x="34.6982422" y="21">C12</tspan>
            </text>
        </g>
        <g id="ref" transform="translate(121.000000, 4.000000)">
            <rect id="Rectangle-2" fill="#F44D27" fill-rule="evenodd" x="0" y="0" width="106" height="33"></rect>
            <text id="master" stroke="#979797" stroke-width="1" font-family="RobotoMono-Regular, Roboto Mono" font-size="11.1428571" font-weight="normal" fill="#FFFFFF">
                <tspan x="33.1285461" y="20">master</tspan>
            </text>
        </g>
        <path id="Line-14" d="M301,245 L301,220 L302,220 L302,245 L306,245 L301.5,254 L297,245 L301,245 Z" fill="#8F8981" fill-rule="nonzero"></path>
        <g id="brown" transform="translate(256.000000, 201.000000)">
            <rect id="Rectangle-1" fill="#EFEFE7" fill-rule="evenodd" x="0" y="0" width="89" height="33" rx="16.5"></rect>
            <text id="C6" stroke="#979797" stroke-width="1" font-family="RobotoMono-Regular, Roboto Mono" font-size="12" font-weight="normal" fill="#000000">
                <tspan x="38.2988281" y="21">C7</tspan>
            </text>
        </g>
        <path id="Line-13" d="M301,192 L301,167 L302,167 L302,192 L306,192 L301.5,201 L297,192 L301,192 Z" fill="#8F8981" fill-rule="nonzero"></path>
        <g id="brown" transform="translate(256.000000, 148.000000)">
            <rect id="Rectangle-1" fill="#EFEFE7" fill-rule="evenodd" x="0" y="0" width="89" height="33" rx="16.5"></rect>
            <text id="C6" stroke="#979797" stroke-width="1" font-family="RobotoMono-Regular, Roboto Mono" font-size="12" font-weight="normal" fill="#000000">
                <tspan x="38.2988281" y="21">C8</tspan>
            </text>
        </g>
        <path id="Line" d="M301,139 L301,114 L302,114 L302,139 L306,139 L301.5,148 L297,139 L301,139 Z" fill="#8F8981" fill-rule="nonzero"></path>
        <g id="brown" transform="translate(256.000000, 95.000000)">
            <rect id="Rectangle-1" fill="#EFEFE7" fill-rule="evenodd" x="0" y="0" width="89" height="33" rx="16.5"></rect>
            <text id="C6" stroke="#979797" stroke-width="1" font-family="RobotoMono-Regular, Roboto Mono" font-size="12" font-weight="normal" fill="#000000">
                <tspan x="34.6982422" y="21">C11</tspan>
            </text>
        </g>
        <g id="ref" transform="translate(350.000000, 95.000000)">
            <rect id="Rectangle-2" fill="#F44D27" fill-rule="evenodd" x="0" y="0" width="106" height="33"></rect>
            <text id="master" stroke="#979797" stroke-width="1" font-family="RobotoMono-Regular, Roboto Mono" font-size="11.1428571" font-weight="normal" fill="#FFFFFF">
                <tspan x="29.7851449" y="20">iss91v2</tspan>
            </text>
        </g>
        <g id="ref" transform="translate(7.000000, 95.000000)">
            <rect id="Rectangle-2" fill="#F44D27" fill-rule="evenodd" x="0" y="0" width="106" height="33"></rect>
            <text id="master" stroke="#979797" stroke-width="1" font-family="RobotoMono-Regular, Roboto Mono" font-size="11.1428571" font-weight="normal" fill="#FFFFFF">
                <tspan x="26.4417437" y="20">dumbidea</tspan>
            </text>
        </g>
    </g>
</svg>