<?xml version="1.0" encoding="UTF-8"?>
<svg width="507px" height="402px" viewBox="0 0 507 402" version="1.1" xmlns="http://www.w3.org/2000/svg" xmlns:xlink="http://www.w3.org/1999/xlink">
    <!-- Generator: Sketch 56.3 (81716) - https://sketch.com -->
    <title>images/topic-branches-1</title>
    <desc>Created with Sketch.</desc>
    <g id="03---Topic-Branches-1" stroke="none" stroke-width="1" fill="none" fill-rule="evenodd">
        <g id="brown" transform="translate(139.000000, 362.000000)">
            <rect id="Rectangle-1" fill="#EFEFE7" fill-rule="evenodd" x="0" y="0" width="89" height="33" rx="16.5"></rect>
            <text id="C6" stroke="#979797" stroke-width="1" font-family="RobotoMono-Regular, Roboto Mono" font-size="12" font-weight="normal" fill="#000000">
                <tspan x="38.2988281" y="21">C0</tspan>
            </text>
        </g>
        <path id="Line" d="M184,353 L184,328 L185,328 L185,353 L189,353 L184.5,362 L180,353 L184,353 Z" fill="#8F8981" fill-rule="nonzero"></path>
        <g id="brown" transform="translate(139.000000, 309.000000)">
            <rect id="Rectangle-1" fill="#EFEFE7" fill-rule="evenodd" x="0" y="0" width="89" height="33" rx="16.5"></rect>
            <text id="C6" stroke="#979797" stroke-width="1" font-family="RobotoMono-Regular, Roboto Mono" font-size="12" font-weight="normal" fill="#000000">
                <tspan x="38.2988281" y="21">C1</tspan>
            </text>
        </g>
        <path id="Line" d="M184,300 L184,275 L185,275 L185,300 L189,300 L184.5,309 L180,300 L184,300 Z" fill="#8F8981" fill-rule="nonzero"></path>
        <g id="brown" transform="translate(139.000000, 256.000000)">
            <rect id="Rectangle-1" fill="#EFEFE7" fill-rule="evenodd" x="0" y="0" width="89" height="33" rx="16.5"></rect>
            <text id="C6" stroke="#979797" stroke-width="1" font-family="RobotoMono-Regular, Roboto Mono" font-size="12" font-weight="normal" fill="#000000">
                <tspan x="38.2988281" y="21">C3</tspan>
            </text>
        </g>
        <path id="Line" d="M184,247 L184,222 L185,222 L185,247 L189,247 L184.5,256 L180,247 L184,247 Z" fill="#8F8981" fill-rule="nonzero"></path>
        <g id="brown" transform="translate(139.000000, 203.000000)">
            <rect id="Rectangle-1" fill="#EFEFE7" fill-rule="evenodd" x="0" y="0" width="89" height="33" rx="16.5"></rect>
            <text id="C6" stroke="#979797" stroke-width="1" font-family="RobotoMono-Regular, Roboto Mono" font-size="12" font-weight="normal" fill="#000000">
                <tspan x="38.2988281" y="21">C9</tspan>
            </text>
        </g>
        <path id="Line" d="M184,194 L184,169 L185,169 L185,194 L189,194 L184.5,203 L180,194 L184,194 Z" fill="#8F8981" fill-rule="nonzero"></path>
        <g id="brown" transform="translate(139.000000, 150.000000)">
            <rect id="Rectangle-1" fill="#EFEFE7" fill-rule="evenodd" x="0" y="0" width="89" height="33" rx="16.5"></rect>
            <text id="C6" stroke="#979797" stroke-width="1" font-family="RobotoMono-Regular, Roboto Mono" font-size="12" font-weight="normal" fill="#000000">
                <tspan x="34.6982422" y="21">C10</tspan>
            </text>
        </g>
        <path id="Line" d="M234.056604,313.576005 L320.752534,274.839526 L321.160474,275.752534 L234.464544,314.489014 L236.096304,318.141049 L226.043496,317.70397 L232.424844,309.92397 L234.056604,313.576005 Z" fill="#8F8981" fill-rule="nonzero"></path>
        <g id="brown" transform="translate(275.000000, 256.000000)">
            <rect id="Rectangle-1" fill="#EFEFE7" fill-rule="evenodd" x="0" y="0" width="89" height="33" rx="16.5"></rect>
            <text id="C6" stroke="#979797" stroke-width="1" font-family="RobotoMono-Regular, Roboto Mono" font-size="12" font-weight="normal" fill="#000000">
                <tspan x="38.2988281" y="21">C2</tspan>
            </text>
        </g>
        <path id="Line" d="M320,247 L320,222 L321,222 L321,247 L325,247 L320.5,256 L316,247 L320,247 Z" fill="#8F8981" fill-rule="nonzero"></path>
        <g id="brown" transform="translate(275.000000, 203.000000)">
            <rect id="Rectangle-1" fill="#EFEFE7" fill-rule="evenodd" x="0" y="0" width="89" height="33" rx="16.5"></rect>
            <text id="C6" stroke="#979797" stroke-width="1" font-family="RobotoMono-Regular, Roboto Mono" font-size="12" font-weight="normal" fill="#000000">
                <tspan x="38.2988281" y="21">C4</tspan>
            </text>
        </g>
        <path id="Line" d="M320,194 L320,169 L321,169 L321,194 L325,194 L320.5,203 L316,194 L320,194 Z" fill="#8F8981" fill-rule="nonzero"></path>
        <g id="brown" transform="translate(275.000000, 150.000000)">
            <rect id="Rectangle-1" fill="#EFEFE7" fill-rule="evenodd" x="0" y="0" width="89" height="33" rx="16.5"></rect>
            <text id="C6" stroke="#979797" stroke-width="1" font-family="RobotoMono-Regular, Roboto Mono" font-size="12" font-weight="normal" fill="#000000">
                <tspan x="38.2988281" y="21">C5</tspan>
            </text>
        </g>
        <path id="Line" d="M320,141 L320,116 L321,116 L321,141 L325,141 L320.5,150 L316,141 L320,141 Z" fill="#8F8981" fill-rule="nonzero"></path>
        <g id="brown" transform="translate(275.000000, 97.000000)">
            <rect id="Rectangle-1" fill="#EFEFE7" fill-rule="evenodd" x="0" y="0" width="89" height="33" rx="16.5"></rect>
            <text id="C6" stroke="#979797" stroke-width="1" font-family="RobotoMono-Regular, Roboto Mono" font-size="12" font-weight="normal" fill="#000000">
                <tspan x="38.2988281" y="21">C6</tspan>
            </text>
        </g>
        <path id="Line" d="M131.629932,157.250072 L47.8322067,116.732491 L48.267509,115.832207 L132.065234,156.349788 L133.806444,152.748651 L139.950142,160.717651 L129.888723,160.85121 L131.629932,157.250072 Z" fill="#8F8981" fill-rule="nonzero"></path>
        <g id="brown" transform="translate(3.000000, 97.000000)">
            <rect id="Rectangle-1" fill="#EFEFE7" fill-rule="evenodd" x="0" y="0" width="89" height="33" rx="16.5"></rect>
            <text id="C6" stroke="#979797" stroke-width="1" font-family="RobotoMono-Regular, Roboto Mono" font-size="12" font-weight="normal" fill="#000000">
                <tspan x="34.6982422" y="21">C12</tspan>
            </text>
        </g>
        <path id="Line" d="M48,88 L48,63 L49,63 L49,88 L53,88 L48.5,97 L44,88 L48,88 Z" fill="#8F8981" fill-rule="nonzero"></path>
        <g id="brown" transform="translate(3.000000, 44.000000)">
            <rect id="Rectangle-1" fill="#EFEFE7" fill-rule="evenodd" x="0" y="0" width="89" height="33" rx="16.5"></rect>
            <text id="C6" stroke="#979797" stroke-width="1" font-family="RobotoMono-Regular, Roboto Mono" font-size="12" font-weight="normal" fill="#000000">
                <tspan x="34.6982422" y="21">C13</tspan>
            </text>
        </g>
        <path id="Line" d="M370.091239,206.643436 L456.758404,168.8418 L457.1582,169.758404 L370.491035,207.56004 L372.090217,211.226458 L362.041698,210.699898 L368.492057,202.977019 L370.091239,206.643436 Z" fill="#8F8981" fill-rule="nonzero"></path>
        <g id="brown" transform="translate(411.000000, 150.000000)">
            <rect id="Rectangle-1" fill="#EFEFE7" fill-rule="evenodd" x="0" y="0" width="89" height="33" rx="16.5"></rect>
            <text id="C6" stroke="#979797" stroke-width="1" font-family="RobotoMono-Regular, Roboto Mono" font-size="12" font-weight="normal" fill="#000000">
                <tspan x="38.2988281" y="21">C7</tspan>
            </text>
        </g>
        <path id="Line" d="M456,141 L456,116 L457,116 L457,141 L461,141 L456.5,150 L452,141 L456,141 Z" fill="#8F8981" fill-rule="nonzero"></path>
        <g id="brown" transform="translate(411.000000, 97.000000)">
            <rect id="Rectangle-1" fill="#EFEFE7" fill-rule="evenodd" x="0" y="0" width="89" height="33" rx="16.5"></rect>
            <text id="C6" stroke="#979797" stroke-width="1" font-family="RobotoMono-Regular, Roboto Mono" font-size="12" font-weight="normal" fill="#000000">
                <tspan x="38.2988281" y="21">C8</tspan>
            </text>
        </g>
        <path id="Line" d="M456,88 L456,63 L457,63 L457,88 L461,88 L456.5,97 L452,88 L456,88 Z" fill="#8F8981" fill-rule="nonzero"></path>
        <g id="brown" transform="translate(411.000000, 44.000000)">
            <rect id="Rectangle-1" fill="#EFEFE7" fill-rule="evenodd" x="0" y="0" width="89" height="33" rx="16.5"></rect>
            <text id="C6" stroke="#979797" stroke-width="1" font-family="RobotoMono-Regular, Roboto Mono" font-size="12" font-weight="normal" fill="#000000">
                <tspan x="34.6982422" y="21">C11</tspan>
            </text>
        </g>
        <g id="ref" transform="translate(141.000000, 112.000000)">
            <rect id="Rectangle-2" fill="#F44D27" fill-rule="evenodd" x="0" y="0" width="106" height="33"></rect>
            <text id="master" stroke="#979797" stroke-width="1" font-family="RobotoMono-Regular, Roboto Mono" font-size="11.1428571" font-weight="normal" fill="#FFFFFF">
                <tspan x="33.1285461" y="20">master</tspan>
            </text>
        </g>
        <g id="ref" transform="translate(276.000000, 59.000000)">
            <rect id="Rectangle-2" fill="#F44D27" fill-rule="evenodd" x="0" y="0" width="106" height="33"></rect>
            <text id="master" stroke="#979797" stroke-width="1" font-family="RobotoMono-Regular, Roboto Mono" font-size="11.1428571" font-weight="normal" fill="#FFFFFF">
                <tspan x="36.4719473" y="20">iss91</tspan>
            </text>
        </g>
        <g id="ref" transform="translate(413.000000, 6.000000)">
            <rect id="Rectangle-2" fill="#F44D27" fill-rule="evenodd" x="0" y="0" width="106" height="33"></rect>
            <text id="master" stroke="#979797" stroke-width="1" font-family="RobotoMono-Regular, Roboto Mono" font-size="11.1428571" font-weight="normal" fill="#FFFFFF">
                <tspan x="29.7851449" y="20">iss91v2</tspan>
            </text>
        </g>
        <g id="ref" transform="translate(4.000000, 6.000000)">
            <rect id="Rectangle-2" fill="#F44D27" fill-rule="evenodd" x="0" y="0" width="106" height="33"></rect>
            <text id="master" stroke="#979797" stroke-width="1" font-family="RobotoMono-Regular, Roboto Mono" font-size="11.1428571" font-weight="normal" fill="#FFFFFF">
                <tspan x="26.4417437" y="20">dumbidea</tspan>
            </text>
        </g>
    </g>
</svg>