<?xml version="1.0" encoding="UTF-8"?>
<svg width="701px" height="265px" viewBox="0 0 701 265" version="1.1" xmlns="http://www.w3.org/2000/svg" xmlns:xlink="http://www.w3.org/1999/xlink">
    <!-- Generator: Sketch 56.3 (81716) - https://sketch.com -->
    <title>images/undomerge-revert</title>
    <desc>Created with Sketch.</desc>
    <g id="07---Undo-Merge-(revert-1)" stroke="none" stroke-width="1" fill="none" fill-rule="evenodd">
        <g id="brown" transform="translate(10.000000, 116.000000)">
            <rect id="Rectangle-1" fill="#EFEFE7" fill-rule="evenodd" x="0" y="0" width="89" height="33" rx="16.5"></rect>
            <text id="C6" stroke="#979797" stroke-width="1" font-family="RobotoMono-Regular, Roboto Mono" font-size="12" font-weight="normal" fill="#000000">
                <tspan x="38.2988281" y="21">C1</tspan>
            </text>
        </g>
        <path id="Line-2" d="M457.755736,168.72369 L501.569594,132.796326 L502.203674,133.569594 L458.389816,169.496957 L460.926134,172.590029 L451.113366,174.81704 L455.219418,165.630618 L457.755736,168.72369 Z" fill="#8F8981" fill-rule="nonzero"></path>
        <path id="Line-3" d="M219.379261,149.517547 L264.203819,186.431889 L263.568111,187.203819 L218.743553,150.289477 L216.200724,153.377198 L212.114035,144.182146 L221.92209,146.429826 L219.379261,149.517547 Z" fill="#8F8981" fill-rule="nonzero"></path>
        <g id="Line-+-brown-2" transform="translate(99.000000, 116.000000)">
            <path id="Line" d="M9,17 L46,17 L46,18 L9,18 L9,22 L-2.77555756e-16,17.5 L9,13 L9,17 Z" fill="#8F8981" fill-rule="nonzero"></path>
            <g id="brown" transform="translate(30.000000, 0.000000)">
                <rect id="Rectangle-1" fill="#EFEFE7" fill-rule="evenodd" x="0" y="0" width="89" height="33" rx="16.5"></rect>
                <text id="C6" stroke="#979797" stroke-width="1" font-family="RobotoMono-Regular, Roboto Mono" font-size="12" font-weight="normal" fill="#000000">
                    <tspan x="38.2988281" y="21">C2</tspan>
                </text>
            </g>
        </g>
        <g id="Line-+-brown-3" transform="translate(218.000000, 116.000000)">
            <path id="Line" d="M9,17 L46,17 L46,18 L9,18 L9,22 L-2.77555756e-16,17.5 L9,13 L9,17 Z" fill="#8F8981" fill-rule="nonzero"></path>
            <g id="brown" transform="translate(30.000000, 0.000000)">
                <rect id="Rectangle-1" fill="#EFEFE7" fill-rule="evenodd" x="0" y="0" width="89" height="33" rx="16.5"></rect>
                <text id="C6" stroke="#979797" stroke-width="1" font-family="RobotoMono-Regular, Roboto Mono" font-size="12" font-weight="normal" fill="#000000">
                    <tspan x="38.2988281" y="21">C5</tspan>
                </text>
            </g>
        </g>
        <g id="brown" transform="translate(248.000000, 169.000000)">
            <rect id="Rectangle-1" fill="#EFEFE7" fill-rule="evenodd" x="0" y="0" width="89" height="33" rx="16.5"></rect>
            <text id="C6" stroke="#979797" stroke-width="1" font-family="RobotoMono-Regular, Roboto Mono" font-size="12" font-weight="normal" fill="#000000">
                <tspan x="38.2988281" y="21">C3</tspan>
            </text>
        </g>
        <path id="Line-6" d="M346,186 L383,186 L383,187 L346,187 L346,191 L337,186.5 L346,182 L346,186 Z" fill="#8F8981" fill-rule="nonzero"></path>
        <g id="brown" transform="translate(367.000000, 169.000000)">
            <rect id="Rectangle-1" fill="#EFEFE7" fill-rule="evenodd" x="0" y="0" width="89" height="33" rx="16.5"></rect>
            <text id="C6" stroke="#979797" stroke-width="1" font-family="RobotoMono-Regular, Roboto Mono" font-size="12" font-weight="normal" fill="#000000">
                <tspan x="38.2988281" y="21">C4</tspan>
            </text>
        </g>
        <g id="Line-+-brown-4" transform="translate(337.000000, 116.000000)">
            <path id="Line" d="M9,17 L46,17 L46,18 L9,18 L9,22 L-2.77555756e-16,17.5 L9,13 L9,17 Z" fill="#8F8981" fill-rule="nonzero"></path>
            <g id="brown" transform="translate(30.000000, 0.000000)">
                <rect id="Rectangle-1" fill="#EFEFE7" fill-rule="evenodd" x="0" y="0" width="89" height="33" rx="16.5"></rect>
                <text id="C6" stroke="#979797" stroke-width="1" font-family="RobotoMono-Regular, Roboto Mono" font-size="12" font-weight="normal" fill="#000000">
                    <tspan x="38.2988281" y="21">C6</tspan>
                </text>
            </g>
        </g>
        <g id="Line-7-+-brown-5" transform="translate(456.000000, 116.000000)">
            <path id="Line-7" d="M9,17 L46,17 L46,18 L9,18 L9,22 L-2.77555756e-16,17.5 L9,13 L9,17 Z" fill="#8F8981" fill-rule="nonzero"></path>
            <g id="brown" transform="translate(30.000000, 0.000000)">
                <rect id="Rectangle-1" fill="#EFEFE7" fill-rule="evenodd" x="0" y="0" width="89" height="33" rx="16.5"></rect>
                <text id="C6" stroke="#979797" stroke-width="1" font-family="RobotoMono-Regular, Roboto Mono" font-size="12" font-weight="normal" fill="#000000">
                    <tspan x="41.8994141" y="21">M</tspan>
                </text>
            </g>
        </g>
        <path id="Line-7" d="M583,133 L620,133 L620,134 L583,134 L583,138 L574,133.5 L583,129 L583,133 Z" fill="#8F8981" fill-rule="nonzero"></path>
        <g id="brown" transform="translate(604.000000, 116.000000)">
            <rect id="Rectangle-1" fill="#EFEFE7" fill-rule="evenodd" x="0" y="0" width="89" height="33" rx="16.5"></rect>
            <text id="C6" stroke="#979797" stroke-width="1" font-family="RobotoMono-Regular, Roboto Mono" font-size="12" font-weight="normal" fill="#000000">
                <tspan x="38.2988281" y="21">^M</tspan>
            </text>
        </g>
        <g id="Line-4-+-ref-+-Line-4-+-ref-2" transform="translate(605.000000, 10.000000)">
            <g id="Line-4-+-ref" transform="translate(0.000000, 53.000000)">
                <path id="Line-4" d="M43,44 L43,8 L44,8 L44,44 L48,44 L43.5,53 L39,44 L43,44 Z" fill="#8F8981" fill-rule="nonzero"></path>
                <g id="ref">
                    <rect id="Rectangle-2" fill="#F44D27" fill-rule="evenodd" x="0" y="0" width="85.1962617" height="33"></rect>
                    <text id="master" stroke="#979797" stroke-width="1" font-family="RobotoMono-Regular, Roboto Mono" font-size="11.1428571" font-weight="normal" fill="#FFFFFF">
                        <tspan x="22.6895926" y="20">master</tspan>
                    </text>
                </g>
            </g>
            <g id="Line-4-+-ref-2">
                <path id="Line-4" d="M43,44 L43,8 L44,8 L44,44 L48,44 L43.5,53 L39,44 L43,44 Z" fill="#8F8981" fill-rule="nonzero"></path>
                <g id="symref">
                    <rect id="Rectangle-2" fill="#00909A" fill-rule="evenodd" x="0" y="0" width="86" height="33"></rect>
                    <text id="master" stroke="#979797" stroke-width="1" font-family="RobotoMono-Regular, Roboto Mono" font-size="11.1428571" font-weight="normal" fill="#FFFFFF">
                        <tspan x="29.6263951" y="20">HEAD</tspan>
                    </text>
                </g>
            </g>
        </g>
        <g id="Line-5-+-ref-2" transform="translate(368.000000, 202.000000)">
            <path id="Line-5" d="M43,36 L43,0 L44,0 L44,36 L48,36 L43.5,45 L39,36 L43,36 Z" fill="#8F8981" fill-rule="nonzero"></path>
            <g id="ref" transform="translate(0.000000, 20.000000)">
                <rect id="Rectangle-2" fill="#F44D27" fill-rule="evenodd" x="0" y="0" width="106" height="33"></rect>
                <text id="master" stroke="#979797" stroke-width="1" font-family="RobotoMono-Regular, Roboto Mono" font-size="11.1428571" font-weight="normal" fill="#FFFFFF">
                    <tspan x="36.4719473" y="20">topic</tspan>
                </text>
            </g>
        </g>
    </g>
</svg>