<?xml version="1.0" encoding="UTF-8"?>
<svg id="svg32463" version="1.1" viewBox="0 0 584 265" xmlns="http://www.w3.org/2000/svg" xmlns:cc="http://creativecommons.org/ns#" xmlns:dc="http://purl.org/dc/elements/1.1/" xmlns:rdf="http://www.w3.org/1999/02/22-rdf-syntax-ns#">
 <metadata id="metadata32469">
  <rdf:RDF>
   <cc:Work rdf:about="">
    <dc:format>image/svg+xml</dc:format>
    <dc:type rdf:resource="http://purl.org/dc/dcmitype/StillImage"/>
    <dc:title>images/undomerge-start</dc:title>
   </cc:Work>
  </rdf:RDF>
 </metadata>
 <!-- Generator: Sketch 56.3 (81716) - https://sketch.com -->
 <title id="title32364">images/undomerge-start</title>
 <desc id="desc32366">Created with Sketch.</desc>
 <g id="07---Undo-Merge-(start)" fill="none" fill-rule="evenodd">
  <g id="brown" transform="translate(10 116)">
   <rect id="Rectangle-1" width="89" height="33" rx="16.5" fill="#EFEFE7" fill-rule="evenodd"/>
   <text id="C6" fill="#979797" font-family="Source Code Pro" font-size="12px" font-weight="700" text-anchor="middle"><tspan id="tspan32369" x="44.5" y="21" fill="#808080">C1</tspan></text>
  </g>
  <path id="Line-2" d="m457.76 168.72 43.814-35.927.63408.77327-43.814 35.927 2.5363 3.0931-9.8128 2.227 4.1061-9.1864 2.5363 3.0931z" fill="#8F8981" fill-rule="nonzero"/>
  <path id="Line-3" d="m219.38 149.52 44.825 36.914-.63571.77193-44.825-36.914-2.5428 3.0877-4.0867-9.1951 9.8081 2.2477-2.5428 3.0877z" fill="#8F8981" fill-rule="nonzero"/>
  <g id="Line-+-brown-2" transform="translate(99 116)">
   <path id="Line" d="m9 17h37v1h-37v4l-9-4.5 9-4.5v4z" fill="#8F8981" fill-rule="nonzero"/>
   <g id="g32382" transform="translate(30)">
    <rect id="rect32376" width="89" height="33" rx="16.5" fill="#EFEFE7" fill-rule="evenodd"/>
    <text id="text32380" fill="#979797" font-family="Source Code Pro" font-size="12px" font-weight="700" text-anchor="middle"><tspan id="tspan32378" x="44.5" y="21" fill="#808080">C2</tspan></text>
   </g>
  </g>
  <g id="Line-+-brown-3" transform="translate(218 116)">
   <path id="path32385" d="m9 17h37v1h-37v4l-9-4.5 9-4.5v4z" fill="#8F8981" fill-rule="nonzero"/>
   <g id="g32393" transform="translate(30)">
    <rect id="rect32387" width="89" height="33" rx="16.5" fill="#EFEFE7" fill-rule="evenodd"/>
    <text id="text32391" fill="#979797" font-family="Source Code Pro" font-size="12px" font-weight="700" text-anchor="middle"><tspan id="tspan32389" x="44.5" y="21" fill="#808080">C5</tspan></text>
   </g>
  </g>
  <g id="g32402" transform="translate(248 169)">
   <rect id="rect32396" width="89" height="33" rx="16.5" fill="#EFEFE7" fill-rule="evenodd"/>
   <text id="text32400" fill="#979797" font-family="Source Code Pro" font-size="12px" font-weight="700" text-anchor="middle"><tspan id="tspan32398" x="44.5" y="21" fill="#808080">C3</tspan></text>
  </g>
  <path id="path32404" d="m346 186h37v1h-37v4l-9-4.5 9-4.5v4z" fill="#8F8981" fill-rule="nonzero"/>
  <g id="g32412" transform="translate(367 169)">
   <rect id="rect32406" width="89" height="33" rx="16.5" fill="#EFEFE7" fill-rule="evenodd"/>
   <text id="text32410" fill="#979797" font-family="Source Code Pro" font-size="12px" font-weight="700" text-anchor="middle"><tspan id="tspan32408" x="44.5" y="21" fill="#808080">C4</tspan></text>
  </g>
  <g id="Line-+-brown-4" transform="translate(337 116)">
   <path id="path32414" d="m9 17h37v1h-37v4l-9-4.5 9-4.5v4z" fill="#8F8981" fill-rule="nonzero"/>
   <g id="g32422" transform="translate(30)">
    <rect id="rect32416" width="89" height="33" rx="16.5" fill="#EFEFE7" fill-rule="evenodd"/>
    <text id="text32420" fill="#979797" font-family="Source Code Pro" font-size="12px" font-weight="700" text-anchor="middle"><tspan id="tspan32418" x="44.5" y="21" fill="#808080">C6</tspan></text>
   </g>
  </g>
  <path id="path32425" d="m465 133h37v1h-37v4l-9-4.5 9-4.5v4z" fill="#8F8981" fill-rule="nonzero"/>
  <g id="g32433" transform="translate(486 116)">
   <rect id="rect32427" width="89" height="33" rx="16.5" fill="#EFEFE7" fill-rule="evenodd"/>
   <text id="text32431" fill="#979797" font-family="Source Code Pro" font-size="12px" font-weight="700" text-anchor="middle"><tspan id="tspan32429" x="44.5" y="21" fill="#808080">M</tspan></text>
  </g>
  <g id="Line-4-+-ref" transform="translate(488 63)">
   <path id="Line-4" d="m43 44v-36h1v36h4l-4.5 9-4.5-9h4z" fill="#8F8981" fill-rule="nonzero"/>
   <g id="ref">
    <rect id="Rectangle-2" width="85.196" height="33" fill="#F44D27" fill-rule="evenodd"/>
    <text id="master" fill="#979797" font-family="Source Code Pro" font-size="12px" font-weight="700" text-anchor="middle"><tspan id="tspan32437" x="42.59813085" y="20" fill="#f0f0f0">master</tspan></text>
   </g>
  </g>
  <g id="Line-4-+-ref-2" transform="translate(488 10)">
   <path id="path32442" d="m43 44v-36h1v36h4l-4.5 9-4.5-9h4z" fill="#8F8981" fill-rule="nonzero"/>
   <g id="symref">
    <rect id="rect32444" width="86" height="33" fill="#00909A" fill-rule="evenodd"/>
    <text id="text32448" fill="#979797" font-family="Source Code Pro" font-size="12px" font-weight="700" text-anchor="middle"><tspan id="tspan32446" x="43" y="20" fill="#f0f0f0">HEAD</tspan></text>
   </g>
  </g>
  <g id="Line-5-+-ref-2" transform="translate(368 202)">
   <path id="Line-5" transform="matrix(1 0 0 -1 .012425 45)" d="m43 36v-36h1v36h4l-4.5 9-4.5-9z" style="fill-rule:nonzero;fill:#8f8981"/>
   <g id="g32459" transform="translate(-1,20)">
    <rect id="rect32453" transform="scale(.83986 1)" width="106" height="33" style="fill-rule:evenodd;fill:#f44d27"/>
    <text id="text32457" transform="translate(-8.4659 -.074)" font-size="12px" font-weight="700" style="fill:#979797;font-family:'Source Code Pro';font-size:12px;font-weight:700;text-anchor:middle"><tspan id="tspan32455" x="53" y="20" style="fill:#f0f0f0">topic</tspan></text>
   </g>
  </g>
 </g>
</svg>
